<svg xmlns="http://www.w3.org/2000/svg" viewBox="0 0 201.81 35"><defs><style>.cls-1{fill:#fff;}</style></defs><title>Asset 17</title><g id="Layer_2" data-name="Layer 2"><g id="Layer_1-2" data-name="Layer 1"><path class="cls-1" d="M76.37,11.62a2.82,2.82,0,0,0-2.3,2.06l-4.27,11H67.4l-3-7.41-2.89,7.41h-2.4L54.41,13.33a2.54,2.54,0,0,0-1.76-1.71.63.63,0,0,1-.1-.3.65.65,0,0,1,.15-.44s1.76.15,3.72.15a30.78,30.78,0,0,0,3.24-.15.86.86,0,0,1,.1.44,1.57,1.57,0,0,1,0,.3.87.87,0,0,0-.93.83.17.17,0,0,0,0,.1,5.33,5.33,0,0,0,.29.88l2.65,7,1.66-4.26a3,3,0,0,0,.15-.94l-.78-1.91c-.44-1.08-1-1.66-1.47-1.71a1,1,0,0,1-.05-.3.85.85,0,0,1,.09-.44S63,11,64.81,11s3.38-.15,3.38-.15a1,1,0,0,1,.1.44,1.57,1.57,0,0,1-.05.3,1,1,0,0,0-1.08.87v.06a4.4,4.4,0,0,0,.24.88l2.65,7L72.5,14a3.78,3.78,0,0,0,.29-1.28c0-.53-.49-1-1.47-1.12a1,1,0,0,1,0-.3.85.85,0,0,1,.09-.44s1.42.15,2.9.15a17.67,17.67,0,0,0,2-.15.77.77,0,0,1,.1.44A1,1,0,0,1,76.37,11.62Z"/><path class="cls-1" d="M83.63,19.36H77.94c.2,1.86,1,3.83,3.24,3.83a3.34,3.34,0,0,0,2.25-.94.64.64,0,0,1,.59.4A5.21,5.21,0,0,1,79.61,25c-3.48,0-5.25-2.26-5.25-5a5,5,0,0,1,3.29-5.1,6.62,6.62,0,0,1,2.25-.39c3.29,0,4.36,2,4.36,3.92A1.55,1.55,0,0,1,83.63,19.36Zm-4.17-3.87c-1.13,0-1.57,1.37-1.57,3l2.85-.25a3.94,3.94,0,0,0,.14-1C80.88,16.27,80.34,15.49,79.46,15.49Z"/><path class="cls-1" d="M91.32,24.66s-1.52-.15-3-.15-3,.15-3,.15a.73.73,0,0,1-.09-.35.93.93,0,0,1,0-.29c.88-.1,1.22-.59,1.22-1.57V13.14a1.38,1.38,0,0,0-1.21-1.52H85a1.13,1.13,0,0,1-.1-.44.63.63,0,0,1,.1-.3,12.16,12.16,0,0,0,1.81-.14A8.32,8.32,0,0,0,89.36,10h.35a5.77,5.77,0,0,1,.44,2.5v10c0,1,.39,1.47,1.22,1.57a.63.63,0,0,1,.1.29A.58.58,0,0,1,91.32,24.66Z"/><path class="cls-1" d="M97.4,25a4.78,4.78,0,0,1-5.19-5,5,5,0,0,1,3.28-5.1,7.31,7.31,0,0,1,2.45-.39,7.94,7.94,0,0,1,3.33.64,7.23,7.23,0,0,1,.49,2.64,1,1,0,0,1-.88.2,3.55,3.55,0,0,0-3.09-2.35c-1.17,0-2.1,1-2.1,3,0,2.74,1.56,4.56,3.28,4.56a3.56,3.56,0,0,0,2.3-.94.54.54,0,0,1,.54.4A5.14,5.14,0,0,1,97.4,25Z"/><path class="cls-1" d="M110.34,24.56a5.61,5.61,0,0,1-2.25.44,4.75,4.75,0,0,1-5.15-5,5,5,0,0,1,3.28-5.1,6.72,6.72,0,0,1,2.26-.39c3.43,0,5.15,2.21,5.15,5A5.2,5.2,0,0,1,110.34,24.56Zm-2.69-9c-.69,0-1.18.68-1.18,2.55,0,3.08,1.42,5.54,2.45,5.54s1.13-.69,1.13-2.5c0-3.14-1.37-5.59-2.4-5.59Z"/><path class="cls-1" d="M133.67,24.66a23,23,0,0,0-2.35-.15,18.71,18.71,0,0,0-2.11.15s-.58-.35-.58-2.26V17.84a1.19,1.19,0,0,0-1-1.32h-.32a3,3,0,0,0-1.37.39v5.54c0,1,.34,1.47,1.18,1.57a.62.62,0,0,1,.09.29.73.73,0,0,1-.09.35s-1.57-.15-3-.15a19.19,19.19,0,0,0-2.5.15.64.64,0,0,1-.1-.35.93.93,0,0,1,0-.29c.49-.15.68-.59.68-1.57V17.84a1.17,1.17,0,0,0-1-1.32h-.32a3,3,0,0,0-1.37.39v5.54c0,1,.39,1.47,1.22,1.57a.63.63,0,0,1,.1.29.53.53,0,0,1-.15.35s-1.51-.15-3-.15-3,.15-3,.15a.64.64,0,0,1-.1-.35.93.93,0,0,1,0-.29c.88-.1,1.22-.59,1.22-1.57V17.5A1.38,1.38,0,0,0,114.62,16h-.26a1.13,1.13,0,0,1-.1-.44.76.76,0,0,1,.1-.3,12.39,12.39,0,0,0,1.82-.14,8.34,8.34,0,0,0,2.54-.74h.35a6.3,6.3,0,0,1,.44,1.77l2.3-1.47a4.08,4.08,0,0,1,1-.15,2.91,2.91,0,0,1,3,1.72l2.45-1.57a3.28,3.28,0,0,1,1-.15c1.87,0,3.09,1.08,3.09,2.65v5.05c0,1.22.34,1.66,1.42,1.81a.63.63,0,0,1,.1.29A.58.58,0,0,1,133.67,24.66Z"/><path class="cls-1" d="M143.53,19.36h-5.69c.2,1.86,1,3.83,3.24,3.83a3.44,3.44,0,0,0,2.25-.94.55.55,0,0,1,.54.4A5,5,0,0,1,139.51,25c-3.48,0-5.25-2.26-5.25-5a5,5,0,0,1,3.29-5.1,6.62,6.62,0,0,1,2.25-.39c3.29,0,4.31,2,4.31,3.92A1.35,1.35,0,0,1,143.53,19.36Zm-4.22-3.87c-1.08,0-1.57,1.37-1.57,3l2.89-.25a3.57,3.57,0,0,0,.15-1C140.78,16.27,140.24,15.49,139.31,15.49Z"/><path class="cls-1" d="M159,24.61l-5.64-.1c-1.57,0-3.48.15-3.48.15a.87.87,0,0,1-.1-.45.69.69,0,0,1,.05-.24c1.08-.15,1.52-.64,1.52-1.86V13.43c0-1.22-.44-1.71-1.52-1.81a1,1,0,0,1-.05-.3.86.86,0,0,1,.1-.44s1.91.15,3.48.15l5.44-.15c2.4,0,3.82,1.23,3.82,3.29a3.7,3.7,0,0,1-2.1,3,3.57,3.57,0,0,1,2.79,3.33A4.09,4.09,0,0,1,159,24.61Zm-2.5-12.8c-.74,0-1.13.35-1.13.79v4.21a6,6,0,0,0,1,.15h.78a3.08,3.08,0,0,0,1.52-2.89C158.67,12.5,157.94,11.81,156.47,11.81Zm0,6a4.29,4.29,0,0,0-1.13.1V22.3a1.15,1.15,0,0,0,1.32,1.33,3,3,0,0,0,2.5-3,2.6,2.6,0,0,0-2.44-2.75Z"/><path class="cls-1" d="M174,19.36h-5.74c.25,1.86,1,3.83,3.24,3.83a3.59,3.59,0,0,0,2.3-.94.6.6,0,0,1,.54.4A5.16,5.16,0,0,1,169.9,25a4.79,4.79,0,0,1-5.2-5A5,5,0,0,1,168,14.9a6.34,6.34,0,0,1,2.2-.39c3.29,0,4.36,2,4.36,3.92A1.82,1.82,0,0,1,174,19.36Zm-4.22-3.87c-1.13,0-1.57,1.37-1.57,3l2.85-.25a2.94,2.94,0,0,0,.19-1C171.22,16.27,170.68,15.49,169.75,15.49Z"/><path class="cls-1" d="M185,19.36h-5.69c.2,1.86,1,3.83,3.24,3.83a3.34,3.34,0,0,0,2.25-.94.64.64,0,0,1,.59.4A5.17,5.17,0,0,1,180.93,25c-3.48,0-5.25-2.26-5.25-5A5.3,5.3,0,0,1,179,14.9a6.62,6.62,0,0,1,2.25-.39c3.28,0,4.36,2,4.36,3.92A1.6,1.6,0,0,1,185,19.36Zm-4.17-3.87c-1.13,0-1.57,1.37-1.57,3l2.84-.25a3.57,3.57,0,0,0,.15-1C182.2,16.27,181.71,15.49,180.78,15.49Z"/><path class="cls-1" d="M195.53,17.55H195a2.32,2.32,0,0,0-1.92-1,3.52,3.52,0,0,0-1.42.34v5.54A1.42,1.42,0,0,0,192.88,24H193a.63.63,0,0,1,.1.29.53.53,0,0,1-.15.35s-1.47-.15-3.18-.15a29.93,29.93,0,0,0-3,.15.74.74,0,0,1-.1-.35.93.93,0,0,1,.05-.29c.88-.1,1.23-.59,1.23-1.57V17.5A1.38,1.38,0,0,0,186.72,16h-.21a.77.77,0,0,1-.14-.44.63.63,0,0,1,.1-.3,12.26,12.26,0,0,0,1.81-.14,8.48,8.48,0,0,0,2.55-.74h.34a5.68,5.68,0,0,1,.44,1.77l2.31-1.47a4,4,0,0,1,1-.15,2.75,2.75,0,0,1,1,.15,2.1,2.1,0,0,1,.24,1.07A3.11,3.11,0,0,1,195.53,17.55Z"/><path class="cls-1" d="M200,20.34l-.39.1-.39-.1c-.49-4.31-1.77-7.2-1.77-8.48s.49-1.32,2.16-1.32,2.16.69,2.16,1.32S200.58,16,200,20.34Zm-.39,4.46a1.61,1.61,0,0,1-1.71-1.51.38.38,0,0,1,0-.15,1.6,1.6,0,0,1,1.61-1.62h.1A1.61,1.61,0,0,1,201.36,23a.31.31,0,0,1,0,.1,1.62,1.62,0,0,1-1.57,1.67Z"/><path class="cls-1" d="M16.53.11a8.73,8.73,0,0,0-.26,2.21c-.11,1.55-.18,2.14-.15,2.21a.27.27,0,0,0,.35.13l0,0s.11-.11.11-.14.11-1,.22-2.18S17,.18,17,.15A.25.25,0,0,0,16.63,0,.16.16,0,0,0,16.53.11Z"/><path class="cls-1" d="M25.82,1.73,25.19,2.8c-.29.55-.77,1.36-1.07,1.84s-.51,1-.33,1.11.3.07.81-.85L25.71,3c.59-1.07.63-1.14.48-1.29A.35.35,0,0,0,25.82,1.73Z"/><path class="cls-1" d="M6.68,2.91a.28.28,0,0,0-.18.26,1.24,1.24,0,0,0,.29.44l2.62,2.8a.29.29,0,0,0,.42,0,.35.35,0,0,0,.06-.14,20.78,20.78,0,0,0-2.4-2.66C6.9,3,6.83,2.87,6.68,2.91Z"/><path class="cls-1" d="M18,5.6l-.34.22a.85.85,0,0,0-.14,1,.83.83,0,0,0,.73.48.85.85,0,0,0,.85-.52A1,1,0,0,0,19,6,.93.93,0,0,0,18,5.6Zm.62.41A.56.56,0,0,1,18,7a.54.54,0,0,1-.28-.5.37.37,0,0,1,.15-.37c.14-.15.18-.18.36-.18A.54.54,0,0,1,18.59,6Z"/><path class="cls-1" d="M14.09,7.37a1.56,1.56,0,0,0-.4.37c0,.07,0,.22,0,.37a.81.81,0,1,0,1.62.07.8.8,0,0,0-.77-.84h-.07Zm.56.33a.51.51,0,0,1,.26.45.49.49,0,0,1-.45.44A.48.48,0,0,1,14,8.08a.5.5,0,0,1,.22-.38C14.43,7.59,14.46,7.59,14.65,7.7Z"/><path class="cls-1" d="M16.64,8.88a2.32,2.32,0,0,0-1.22.7l-.33.34-.33-.19a1.4,1.4,0,0,0-.67-.18h-.62c-.22.07-.22.07-.41-.08A2.73,2.73,0,0,0,11.51,9a2.23,2.23,0,0,0-1.18.3,2.11,2.11,0,0,0-.92.88l-.11.23L9,10.29a2.69,2.69,0,0,0-1.7.22A2.09,2.09,0,0,0,6.2,13l.08.3-.11.44c-.08.26-.22.63-.3.85L5.72,15H5.36a5.82,5.82,0,0,0-3.77,1.84A5.43,5.43,0,0,0,.08,19.76a6.72,6.72,0,0,0,0,2.1,6.43,6.43,0,0,0,1,2.29,12.29,12.29,0,0,0,1.1,1.18l.19.15-.22.81-.26.77.07.22a1.05,1.05,0,0,0,.3.45c.22.18.22.22.18.33a.86.86,0,0,0,.08.59c.48,1,3.61,2.47,6.6,3.1a8.86,8.86,0,0,0,2,.22,2.59,2.59,0,0,0,.92-.08c.26-.11.55-.29.59-.51s.07-.15.29-.15l.45-.15a.7.7,0,0,0,.37-.33c.07-.22.59-1.73,1.77-5.42l.81-2.51h.11a.21.21,0,0,1,.15.11l.25.3.19.18.66,4.91c.48,3.46.7,4.9.74,5a1.27,1.27,0,0,0,.7.48c.22.07.22.07.22.22a2,2,0,0,0,1.55.89,16.34,16.34,0,0,0,3.28,0c2.51-.26,4.79-.93,5.53-1.63a.78.78,0,0,0,.37-.7c0-.18,0-.22.15-.29a1.23,1.23,0,0,0,.51-.55c.11-.15.08-.19,0-.93a5.66,5.66,0,0,0-.11-.81l.22-.18a6.42,6.42,0,0,0,1.37-1,5.8,5.8,0,0,0,0-8.15,5.92,5.92,0,0,0-3-1.58c-.11,0-.11,0-.26-1l-.11-.74L29,17a1.89,1.89,0,0,0,.22-1.14,1.24,1.24,0,0,0-.22-.74,2.37,2.37,0,0,0-2.25-1.32h-.37l-.11-.3a2.19,2.19,0,0,0-1.51-1.36,2.8,2.8,0,0,0-2,.14l-.14.11-.26-.14a1.4,1.4,0,0,0-.67-.11,2,2,0,0,0-.73.07l-.26.11-.15-.22a2.19,2.19,0,0,0-.41-.55c-.29-.26-.29-.3-.33-.52a2.41,2.41,0,0,0-.88-1.59A2.89,2.89,0,0,0,16.64,8.88Zm1.4.74a2.08,2.08,0,0,1,1,.92,1.14,1.14,0,0,1,.14.74,1.15,1.15,0,0,1-.11.66,1.31,1.31,0,0,1-.44.52c-.41.37-.41.37,0,.78a1.78,1.78,0,0,1,.41.59.85.85,0,0,1,.15.62,1.43,1.43,0,0,1-.3,1l-.11.15-.22-.11a.73.73,0,0,0-.52-.11.89.89,0,0,0-.81.29c-.51.48-.51,1.33,0,1.18s.19-.18.19-.4.33-.52.59-.56a.85.85,0,0,1,.55.37.53.53,0,0,1,0,.41,1.06,1.06,0,0,1-.45.66c-.18.15-.25.26-.25.3s0,.22,0,.37a1.2,1.2,0,0,1-.07.59l-.11.33.11.18a1.14,1.14,0,0,1,.18.3c.22.51-.14,1-.77,1s-.26,0-.48.3a.77.77,0,0,1-.66.29.91.91,0,0,1-.74-.33.72.72,0,0,1-.19-.52.78.78,0,0,1,.23-.55.82.82,0,0,0,.14-.26,1,1,0,0,0-.26-.33,1.46,1.46,0,0,1-.44-1.44l.08-.26-.15-.07a4.69,4.69,0,0,1-.63-.63c0-.11-.07-.11-.33-.07a1.34,1.34,0,0,1-1-.15l-.33-.11-.11.11-.37.26a1.09,1.09,0,0,1-.59.11,1.54,1.54,0,0,1-1-.4,1.39,1.39,0,0,1-.33-.74c0-.27-.07-.42-.22-.44L9.56,15a1.3,1.3,0,0,1-.7-.44l-.22-.26s-.19-.11-.45-.18a1.9,1.9,0,0,1-1.51-1.51,1.56,1.56,0,0,1,1-1.66A1.91,1.91,0,0,1,9,11a1.24,1.24,0,0,1,.7,1,.26.26,0,0,0,.48.15c.07-.07.11-.11.07-.3A2.27,2.27,0,0,0,9.93,11c-.15-.19-.15-.23-.11-.34a1.64,1.64,0,0,1,.55-.7,2.06,2.06,0,0,1,1.51-.33,2.64,2.64,0,0,1,1,.52l.23.22.22-.11a1.27,1.27,0,0,1,1.36.15c.33.25.44.29.52.29s.18-.11.33-.33a1.72,1.72,0,0,1,.7-.74,2.12,2.12,0,0,1,1-.18A1.29,1.29,0,0,1,18,9.62ZM20,12.24l.18.44c.08.26.11.33.22.37s.11.07.26,0a1.42,1.42,0,0,1,.92-.33,1.36,1.36,0,0,1,.89.29l.11.08.22-.11a2,2,0,0,1,3,.92l.07.22-.22.26c-.52.51-.59,1.18-.19,1.18s.26-.11.34-.37a1.16,1.16,0,0,1,.7-.7,1.78,1.78,0,0,1,1.77.52,1.5,1.5,0,0,1,0,2.13l0,0a2.11,2.11,0,0,1-1.55.63.44.44,0,0,0-.44.18,1.41,1.41,0,0,1-1,.41c-.45,0-.48,0-.56.37a1.24,1.24,0,0,1-1.21.95,1.16,1.16,0,0,1-1.07-.4l-.3-.26-.22.07a1.9,1.9,0,0,1-1,0L20.51,19l-.22.19a2,2,0,0,1-.44.33l-.26.07V20a1.32,1.32,0,0,1-.08.59,1.35,1.35,0,0,1-.62.67l-.26.22a.37.37,0,0,0,.07.44.73.73,0,0,1-.07.92.92.92,0,0,1-.81.3.82.82,0,0,1-.74-.45.56.56,0,0,0-.44-.36h-.15s.08-.23.15-.45a1,1,0,0,1,.22-.44l.26-.26a1.2,1.2,0,0,1,.4-.22,1.29,1.29,0,0,0,1.14-1.43,1.39,1.39,0,0,0-.14-.45c-.15-.22-.15-.26-.11-.37a1.46,1.46,0,0,0,.07-.51c0-.37,0-.37.19-.56a1.74,1.74,0,0,0,.44-.81,1.11,1.11,0,0,0,0-.48c-.08-.26-.08-.26.07-.4a2.57,2.57,0,0,0,.26-.41c.18-.29.33-.37.88-.37s.41,0,.45-.07a.32.32,0,0,0,0-.41,1.76,1.76,0,0,0-.82-.11h-.22V14.3A2.41,2.41,0,0,0,19.18,13c0-.08,0-.11.15-.33a3.52,3.52,0,0,0,.3-.45c.11-.22.11-.22.18-.14ZM7.38,14.49l.26.15L7.57,15c-.11.29-.15.33-.22.29l-.56-.11c-.29-.07-.44-.11-.44-.15s.3-1,.33-1l.26.15ZM8.49,15l.18.22-1.8,5.61C5.39,25.48,5,26.51,5,26.51l-.26-.07c-.3,0-.3-.11,0-.37a1.19,1.19,0,0,0,.4-1.33l-.07-.22L6.24,21c.59-1.92,1.14-3.54,1.14-3.54l.15-.08A1.17,1.17,0,0,0,8.05,17c0-.16.08-.32.11-.48a1,1,0,0,0-.11-.55l-.11-.22.11-.37c.11-.41.18-.52.22-.52Zm.77.48c.26.11.3.15.34.26s.08.22.11.33a2.5,2.5,0,0,1,.07.26c0,.07-1.11,3.54-2.8,8.74a14.25,14.25,0,0,1-.59,1.66l-1-.22S6.17,24,7.13,21l1.8-5.53Zm-2.76.22c.7.11,1,.26,1.07.56a.37.37,0,0,1,0,.29c-.15.33-.37.37-1.07.22a4.39,4.39,0,0,0-1.84,0,4.11,4.11,0,0,0-3,3,4.46,4.46,0,0,0,0,2,3.91,3.91,0,0,0,1,1.85,4.09,4.09,0,0,0,1.26.88c.62.33.74.44.74.7a.52.52,0,0,1-.52.52h0a4.35,4.35,0,0,1-1.25-.59,6.38,6.38,0,0,1-1.44-1.4,5.14,5.14,0,0,1,0-5.79A5.29,5.29,0,0,1,5,15.71,7.29,7.29,0,0,1,6.5,15.74Zm4,1.26a2.37,2.37,0,0,0,.78.29c.11,0,.18,0,.18.08s0,.11-1.84,5.78c-.74,2.25-1.33,4.1-1.37,4.13l-.48-.11L7.16,27H7s2.77-8.56,3-9.4L10.3,17Zm2.43,0,.37.07.15.07a2.4,2.4,0,0,1-.11.48l-.15.41h-.4a1.36,1.36,0,0,0-.63.11,1.6,1.6,0,0,0-.78,2.1l.15.26a1.9,1.9,0,0,0,.67.52s-.15.59-.45,1.51L11.26,24l-.23.18a1,1,0,0,0-.36,1.11l.07.22-.37,1.18A9.68,9.68,0,0,1,10,27.91l-.47-.15-.71-.25c-.22-.08-.25-.08-.22-.15S9.3,25,10.19,22.27l1.58-5,.26-.07a1,1,0,0,0,.41-.19l.18-.11Zm-6.67.33.48.15s-.41,1.4-1,3.31c-1.07,3.32-1.07,3.32-1.18,3.32a3.83,3.83,0,0,1-.89-.48s2-6.23,2-6.34S5.8,17.25,6.24,17.33ZM5,17.37l-.63,2c-1,3.14-1.25,3.8-1.29,3.8a3.75,3.75,0,0,1-.63-.85,3.26,3.26,0,0,1-.33-1.47,2.9,2.9,0,0,1,.26-1.51,3.68,3.68,0,0,1,2.29-2C5,17.29,5,17.29,5,17.37Zm9.22.11a3.26,3.26,0,0,1-.15,1.07v.11l-.15-.15-.18-.19.11-.29c.18-.63.22-.7.29-.66S14.21,17.44,14.21,17.48Zm14.15.44a2.89,2.89,0,0,0,.08.59V19h-.78c-.36,0-.33.08-.4-.44v-.26l.26-.07L28,18C28.33,17.81,28.33,17.81,28.36,17.92Zm-1.65,1,.07.48-.15.14a1.81,1.81,0,0,0-.18.37,1.31,1.31,0,0,0,.07.85,1.08,1.08,0,0,0,.48.44s.26,1.7.55,3.73c.45,3.24.52,3.72.45,3.8a1.14,1.14,0,0,0-.19.7,1.11,1.11,0,0,0,.33.84.66.66,0,0,1,.19.22v.12h-.56v-.15c0-.08-.36-2.73-.81-5.9-.73-5.24-.81-5.79-.73-5.83l.25-.18.19-.11Zm-13.65-.22a1,1,0,0,1,.67.92.93.93,0,0,1-.56.88.94.94,0,0,1-1.07-.15,1,1,0,0,1,0-1.4.9.9,0,0,1,.39-.25A.76.76,0,0,1,13.06,18.66Zm1.48.25a1.79,1.79,0,0,0,.22.34c0,.07,0,.11-.08.29a1.52,1.52,0,0,0,0,1.11l.12.25-.12.34-.11.29h-.25a1.58,1.58,0,0,0-.82.22l-.18.11v-.11a1.92,1.92,0,0,0,.15-.48,1.42,1.42,0,0,1,.33-.55,1.62,1.62,0,0,0,.48-1.47.72.72,0,0,1,0-.41c0-.11,0-.18.07-.18Zm12.09,5.72.81,5.82c0,.12,0,.12-.55.12H26.3s-.33-2.47-.77-5.46l-.74-5.46.11-.18.18-.3c.08-.18.08-.18.33-.22l.37-.07C25.86,18.88,25.89,19.13,26.63,24.63Zm2.25-5a5.35,5.35,0,0,1,1.55.52,5.16,5.16,0,0,1,2.33,6.92,6,6,0,0,1-.38.64,5.52,5.52,0,0,1-1.32,1.32,4.92,4.92,0,0,1-1.77.78c-.45.11-.63.11-.78-.08a.52.52,0,0,1,0-.7c.08-.11.19-.18.74-.29a4.3,4.3,0,0,0,2.73-2.18,3.37,3.37,0,0,0,.41-1.84A3.13,3.13,0,0,0,31.94,23a3.9,3.9,0,0,0-2.1-2,3.69,3.69,0,0,0-1.73-.3c-.74,0-.85,0-1-.18a.34.34,0,0,1-.11-.3.51.51,0,0,1,.48-.55h0A6.18,6.18,0,0,1,28.88,19.65Zm-6.42.48c.23.11.23.11.26.33s.33,2.47.7,5.28.7,5.08.7,5.08l-.59.11-.77.15h-.18l-.48-3.57L21.58,24h.11a1.45,1.45,0,0,0,.48-.59A1.07,1.07,0,0,0,21.5,22h0c-.11,0-.15,0-.15-.07s-.07-.48-.15-1.07c-.06-.34-.11-.69-.14-1,0,0,.11,0,.29,0h.41a.36.36,0,0,1,.33.15ZM20.58,21c.15.85.15,1.07.11,1.07l-.18.15-.15.11v-.15c0-.08-.07-.48-.11-.85a3.27,3.27,0,0,1,0-1c.07-.33.14-.41.22-.37A5.5,5.5,0,0,1,20.58,21Zm3.69-.81.74,5.2c.37,2.84.7,5.2.7,5.23l-.63.11-.66.08s-.33-2.33-.7-5.13S23,20.5,23,20.43v-.12h.29a2,2,0,0,0,.81-.14C24.2,20.09,24.27,20.09,24.27,20.17ZM13.1,21.46c-.19.62-.81,2.62-.85,2.65s-.37-.14-.37-.18.22-.67.48-1.4l.41-1.37h.44Zm6.89.59c.08.48.15,1,.15,1s.11.66.19,1.22.14,1.07.14,1.07H19.33s-.07-.48-.15-1.07L19,23.23l.11-.19a1.36,1.36,0,0,0,.18-1.25c0-.11,0-.15.07-.26a1.45,1.45,0,0,0,.45-.44h0S19.92,21.53,20,22.05Zm8.78-.78s1,6.68.92,6.71-1.1.37-1.1.26-.89-6.67-.93-6.86,0-.11.11-.11A5.57,5.57,0,0,1,28.77,21.27Zm-12.83.26c.18,0,.29-.37-1.33,4.61l-1.14,3.61c0,.08,0,0-.15,0l-.59-.44s1.62-5.12,1.66-5.16l.18-.07a1.3,1.3,0,0,0,.88-1.61A1.38,1.38,0,0,0,15.2,22l-.11-.11.11-.29.07-.26.3.07Zm13.75,0a4,4,0,0,1,1.7,1.59,2.65,2.65,0,0,1,.37,1.51,3,3,0,0,1-.59,2.1,4.39,4.39,0,0,1-.85.92s0-.07-.08-.14-.81-5.94-.81-6S29.43,21.42,29.69,21.53Zm-15.15.67a.68.68,0,0,1,.37.59.62.62,0,0,1-.26.59.74.74,0,0,1-1-.1.91.91,0,0,1-.11-.16,2.3,2.3,0,0,1,0-.26.72.72,0,0,1,.73-.74A.68.68,0,0,1,14.54,22.2Zm7,.47a.44.44,0,0,1,.14.34.37.37,0,0,1-.14.29.45.45,0,0,1-.34.15c-.14,0-.18,0-.29-.15a.29.29,0,0,1-.15-.29.36.36,0,0,1,.15-.34.33.33,0,0,1,.29-.14A.44.44,0,0,1,21.51,22.67Zm-8.26,1.07.29.23c.19.11.22.14.22.22s-1.36,4.13-1.47,4.46-.11.29-.15.26l-.52-.26-.44-.22.26-.81c.15-.48.33-1,.41-1.22S12,26,12.07,26a1.92,1.92,0,0,0,.55-.55,1.21,1.21,0,0,0,0-.88l-.11-.23.15-.48c.25-.81.22-.77.37-.44Zm5.38,1,.15,1.11L18.7,26a1.49,1.49,0,0,0-.33.81A1.72,1.72,0,0,0,19,28.28c.07,0,.11.18.33,1.73a15.78,15.78,0,0,0,.26,1.81c0,.11,0,.15-.41.33l-.41.22s-.25-1.88-.59-4.2-.59-4.2-.59-4.32v-.14h.82A5.56,5.56,0,0,1,18.63,24.7Zm2.25-.7S21,24,21,24s.26,1.7.26,1.84A.49.49,0,0,1,21,25.7l-.26-.19-.08-.73c-.07-.41-.11-.78-.14-.85v-.11l.14.07Zm-9,.63a.44.44,0,0,1,.15.61.69.69,0,0,1-.11.13.46.46,0,0,1-.63-.15.46.46,0,0,1,.15-.63A.36.36,0,0,1,11.92,24.63ZM3.29,26l.48.19.15.11a6.68,6.68,0,0,1-1.18.07s0-.11.15-.51h0Zm17.18,0a1,1,0,1,1-1,1.78.94.94,0,0,1-.39-.42,1.32,1.32,0,0,1,0-.92A1.06,1.06,0,0,1,20.47,26Zm-9,0h.14l-.7,2.21s-.33-.07-.37-.11l.34-1.1a3.35,3.35,0,0,1,.4-1.07Zm-7.86.89c.08,0,.08.07,0,.33l-.11.26H3A1.57,1.57,0,0,1,2.52,27c0-.08.14-.15.44-.19Zm1.77.25.85.19s0,.07,0,.22l-.07.18-.63-.11-1-.11c-.4,0-.4,0-.29-.37S4.18,26.92,5.39,27.17Zm2.18.52,2.21.77s0,.37-.11.41-.22,0-.48-.15c-.74-.28-1.49-.53-2.25-.74-.11,0-.22-.07-.22-.11a.61.61,0,0,1,.15-.36Zm14.19,1.77L22,31.19h-.08l-.22.08h-.11l-.22-1.63-.22-1.58.11-.15.18-.26c.08-.14.08-.14.08,0S21.62,28.54,21.76,29.46ZM5.13,28.21c.59.07.82.11.82.18a4.24,4.24,0,0,1-.23.59c0,.07-.33-.07-1.1-.44s-.7-.37-.67-.44S4.21,28.06,5.13,28.21Zm15.75.14c0,.08.37,2.81.4,2.95s0,.11-.14.15l-.56.18-.4.12s-.41-3.06-.41-3.14H20a1.76,1.76,0,0,0,.78-.22C20.81,28.28,20.88,28.32,20.88,28.35ZM3.4,28.57a24.81,24.81,0,0,0,8.19,2.66c.44,0,.44,0,.33.11a6.36,6.36,0,0,1-1.51,0A21.05,21.05,0,0,1,8.31,31c-.71-.18-2.18-.7-2.62-.88a10.47,10.47,0,0,1-2.4-1.4c-.18-.19-.33-.34-.26-.34Zm4,.15a8.2,8.2,0,0,1,2.07.78,1.3,1.3,0,0,0-.12.37,2.55,2.55,0,0,0-.11.33s-2.91-.85-3-.92a5,5,0,0,1,.29-.82Zm3.72.37.78.41c.07,0,.07.07,0,.29s-.07.26-.11.26l-.41-.26-.77-.44-.41-.22.08-.22.07-.19Zm-.66.85a4.25,4.25,0,0,1,.74.44c.44.26.4.26-.48.11L10,30.38l-.11-.07A3.18,3.18,0,0,1,9.93,30l.11-.26ZM13,30.2a.89.89,0,0,1,.22.29c0,.08-.14.15-.51.19s-.19,0-.26-.08-.08-.15,0-.44S12.55,29.79,13,30.2Zm17.15.33v.26h-.33l-.59-.11c-.34,0-.34-.11,0-.19l.52-.15.26-.07S30.06,30.34,30.1,30.53Zm-1.7.63a1.35,1.35,0,0,1,0,.29v.26h-2v-.37s0-.07.48-.07Zm1.11.11.55.18c.15.07.18.11.11.15a1.46,1.46,0,0,1-.37.33l-.18.07-.26-.11c-.3-.07-.3-.07-.33-.51S29,31.16,29.51,31.27Zm-3.69.07c0,.26,0,.33,0,.33a23.78,23.78,0,0,0-2.65.37,1,1,0,0,1-.41,0,.58.58,0,0,1,0-.19c0-.18,0-.22.11-.22a23.89,23.89,0,0,1,2.8-.4C25.75,31.23,25.78,31.27,25.82,31.34Zm-3.72.55a.53.53,0,0,0,0,.22v.15l-.29.08-1.26.47-.22.12v-.15c0-.08,0-.19,0-.3v-.14l.25-.08,1.33-.4C22,31.82,22.1,31.82,22.1,31.89Zm6.34.37c.22.08.18.15-.11.26a12.38,12.38,0,0,1-1.7.41l-.07-.37v-.37h1.91ZM26,32.63c0,.15,0,.3,0,.44s-2,.33-2.73.37h-.4v-.22c0-.11,0-.29,0-.37v-.18l.22-.08c.67-.14,2.21-.37,2.69-.4H26Zm-6.26.11c0,.11,0,.26,0,.33a.29.29,0,0,1,0,.26H19.4c-.22,0-.48-.18-.48-.26a2.17,2.17,0,0,1,.78-.48A.83.83,0,0,1,19.74,32.74Zm9.58.15a11.26,11.26,0,0,1-4.68,1.44,11.07,11.07,0,0,1-4.42-.11c-.82-.3-.34-.19.11-.15A22,22,0,0,0,23,34,23.37,23.37,0,0,0,28.81,33l.59-.22C29.51,32.67,29.47,32.78,29.32,32.89Zm-7,.37v.22H20.44l.33-.15.85-.29.55-.19v.08A.52.52,0,0,1,22.28,33.26Z"/><path class="cls-1" d="M14.54,12.17c0,.07-.11.14-.11.22s.14.26.48.29A1.14,1.14,0,0,1,16,13.86v0c0,.26,0,.33.11.37a.23.23,0,0,0,.32,0v0c.15-.07.15-.11.12-.48a1.49,1.49,0,0,0-.15-.66,1.72,1.72,0,0,0-.81-.81,1.27,1.27,0,0,0-.63-.15C14.65,12.09,14.61,12.09,14.54,12.17Z"/><path class="cls-1" d="M12.4,13.24l-.41.14a2,2,0,0,0-.88,1,.29.29,0,0,0,.26.29c.11,0,.14,0,.25-.18a1.84,1.84,0,0,1,.78-.63,1,1,0,0,1,.59-.15,1.47,1.47,0,0,1,1,.34c.22.14.33.14.44,0a.33.33,0,0,0-.07-.48,1.89,1.89,0,0,0-.67-.36A2.22,2.22,0,0,0,12.4,13.24Z"/><path class="cls-1" d="M21.25,15.93c-.3.11-.63.26-.67.4a.34.34,0,0,0,.19.37l.33-.07a1.61,1.61,0,0,1,1.48,0,2.16,2.16,0,0,1,.7.77c.14.3.25.37.44.26s-.19-1.18-.89-1.55A2.6,2.6,0,0,0,21.25,15.93Z"/><path class="cls-1" d="M21.76,8.88a1.32,1.32,0,0,0-.81.67,1.37,1.37,0,0,0,0,1.07,1,1,0,0,0,.55.55.84.84,0,0,0,.56.11.71.71,0,0,0,.51-.11,1.21,1.21,0,0,0,.59-.55,1.2,1.2,0,0,0,.11-.56,1.15,1.15,0,0,0-.11-.55,1.24,1.24,0,0,0-1.07-.66Zm.56.45a.9.9,0,0,1,.48.4,1.1,1.1,0,0,1,0,.67,1.41,1.41,0,0,1-.37.4h-.7a1.28,1.28,0,0,1-.37-.4,1.1,1.1,0,0,1,0-.67,1,1,0,0,1,.48-.4A.51.51,0,0,1,22.32,9.33Z"/><path class="cls-1" d="M30.21,9.18l-2.07.26a.32.32,0,0,0-.25.33.48.48,0,0,0,.14.15,11.3,11.3,0,0,0,2.25-.19c2-.22,2.14-.22,2.25-.33a.45.45,0,0,0,.07-.18c0-.11-.18-.26-.29-.26Z"/></g></g></svg>