<svg xmlns="http://www.w3.org/2000/svg" viewBox="0 0 162 35"><defs><style>.cls-1{fill:#fff;}</style></defs><title>Asset 15</title><g id="Layer_2" data-name="Layer 2"><g id="Layer_1-2" data-name="Layer 1"><path class="cls-1" d="M63.6,22.58c-4.82,0-7.7-2.93-7.7-7.13a8,8,0,0,1,8-7.95,12,12,0,0,1,5.44,1.23,11.14,11.14,0,0,0-.21,2.16,5,5,0,0,0,.21,1.33,1.15,1.15,0,0,1-1,.31,5.33,5.33,0,0,0-4.87-3.75c-2.25,0-3.23,1.54-3.23,4.67,0,4.67,2.16,7.38,5.08,7.38a4.76,4.76,0,0,0,3.69-2,.8.8,0,0,1,.51.72A6.88,6.88,0,0,1,63.6,22.58Z"/><path class="cls-1" d="M80.47,16.73h-6c.2,1.9,1,3.95,3.38,3.95a3.51,3.51,0,0,0,2.36-1,.72.72,0,0,1,.62.46,5.55,5.55,0,0,1-4.62,2.41c-3.64,0-5.48-2.36-5.48-5.23a5.5,5.5,0,0,1,3.43-5.29,6,6,0,0,1,2.36-.46c3.44,0,4.56,2.16,4.56,4.16A1.83,1.83,0,0,1,80.47,16.73Zm-4.36-4.05c-1.18,0-1.64,1.44-1.64,3.13l3-.21a4.33,4.33,0,0,0,.16-1.07C77.6,13.45,77,12.68,76.11,12.68Z"/><path class="cls-1" d="M91.54,14.83h-.61a2.55,2.55,0,0,0-2-1,3.84,3.84,0,0,0-1.49.36V20c0,1,.46,1.49,1.49,1.59a.67.67,0,0,1,.1.31.61.61,0,0,1-.15.41,31,31,0,0,0-3.34-.21,30.49,30.49,0,0,0-3.17.21.77.77,0,0,1-.11-.41,1.54,1.54,0,0,1,0-.31c.93-.1,1.29-.56,1.29-1.59V14.73a1.43,1.43,0,0,0-1.27-1.58,1.22,1.22,0,0,0-.27,0,.92.92,0,0,1-.11-.46.68.68,0,0,1,.11-.31s1,0,1.89-.1a10.75,10.75,0,0,0,2.67-.77H87a6.2,6.2,0,0,1,.46,1.85l2.41-1.59a4,4,0,0,1,1-.16,2.55,2.55,0,0,1,1,.21,2.51,2.51,0,0,1,.21,1.08A3.63,3.63,0,0,1,91.54,14.83Z"/><path class="cls-1" d="M102.21,16.73h-6c.26,1.9,1.08,3.95,3.39,3.95a3.72,3.72,0,0,0,2.41-1,.62.62,0,0,1,.56.46A5.47,5.47,0,0,1,98,22.58c-3.59,0-5.43-2.36-5.43-5.23A5.43,5.43,0,0,1,96,12.06a6,6,0,0,1,2.36-.46c3.39,0,4.52,2.16,4.52,4.16A1.59,1.59,0,0,1,102.21,16.73ZM97.8,12.68c-1.13,0-1.64,1.44-1.64,3.13l3-.21a3.28,3.28,0,0,0,.21-1.07C99.34,13.45,98.77,12.68,97.8,12.68Z"/><path class="cls-1" d="M124,22.27a21.06,21.06,0,0,0-2.51-.21,16.22,16.22,0,0,0-2.2.21s-.62-.41-.62-2.36V15.14a1.26,1.26,0,0,0-1.38-1.43,2.85,2.85,0,0,0-1.44.46V20c0,1,.41,1.49,1.28,1.59a.68.68,0,0,1,.11.31.62.62,0,0,1-.16.41,27.27,27.27,0,0,0-3.13-.21,23,23,0,0,0-2.61.21.62.62,0,0,1-.16-.41.68.68,0,0,1,.11-.31c.51-.1.72-.56.72-1.59V15.14a1.3,1.3,0,0,0-1.12-1.43,1.22,1.22,0,0,0-.27,0,2.85,2.85,0,0,0-1.44.46V20c0,1,.36,1.49,1.29,1.59a1.06,1.06,0,0,1,0,.31.86.86,0,0,1-.1.41,30.86,30.86,0,0,0-3.18-.21,27.27,27.27,0,0,0-3.13.21.62.62,0,0,1-.16-.41.68.68,0,0,1,.11-.31c.87-.1,1.28-.56,1.28-1.59V14.73a1.42,1.42,0,0,0-1.27-1.58,1.22,1.22,0,0,0-.27,0,.82.82,0,0,1-.1-.46.67.67,0,0,1,.1-.31c.62,0,1.23,0,1.85-.1a9.9,9.9,0,0,0,2.66-.77h.36a5.21,5.21,0,0,1,.51,1.85l2.42-1.59a3.88,3.88,0,0,1,1-.16,3.09,3.09,0,0,1,3.08,1.8l2.56-1.64a4,4,0,0,1,1-.16c2,0,3.28,1.13,3.28,2.77v5.28c0,1.34.36,1.8,1.43,1.9a.68.68,0,0,1,.11.31A.77.77,0,0,1,124,22.27Z"/><path class="cls-1" d="M132.36,22.17a7,7,0,0,1-2.36.41c-3.64,0-5.43-2.36-5.43-5.23A5.5,5.5,0,0,1,128,12.06a6,6,0,0,1,2.36-.46c3.64,0,5.44,2.36,5.44,5.23A5.54,5.54,0,0,1,132.36,22.17Zm-2.82-9.39c-.77,0-1.23.72-1.23,2.62,0,3.28,1.49,5.84,2.52,5.84s1.23-.77,1.23-2.66C132.06,15.35,130.57,12.78,129.54,12.78Z"/><path class="cls-1" d="M150.06,22.27a20.4,20.4,0,0,0-2.47-.21,16.37,16.37,0,0,0-2.2.21s-.62-.41-.62-2.36V15.14a1.26,1.26,0,0,0-1.38-1.43,2.85,2.85,0,0,0-1.44.46V20c0,1,.41,1.49,1.29,1.59a1.54,1.54,0,0,1,0,.31.77.77,0,0,1-.11.41,30.5,30.5,0,0,0-3.18-.21,27.09,27.09,0,0,0-3.12.21.62.62,0,0,1-.16-.41.68.68,0,0,1,.11-.31c.87-.1,1.28-.56,1.28-1.59V14.73a1.43,1.43,0,0,0-1.27-1.58,1.22,1.22,0,0,0-.27,0,.82.82,0,0,1-.1-.46.57.57,0,0,1,.1-.31s1,0,1.9-.1a10.31,10.31,0,0,0,2.61-.77h.36a5.43,5.43,0,0,1,.51,1.85l2.41-1.59a4,4,0,0,1,1-.16c2,0,3.28,1.13,3.28,2.77v5.28c0,1.34.31,1.8,1.44,1.9a.67.67,0,0,1,.1.31A.61.61,0,0,1,150.06,22.27Z"/><path class="cls-1" d="M161.9,12.83c-.87.06-1.43.47-1.9,1.59l-3.28,7.85a12.07,12.07,0,0,1-3.95,5.23,4,4,0,0,1-2.25-2.31l.41-.41a2.29,2.29,0,0,0,1.13.26,3,3,0,0,0,2.82-1.95l.1-.15-4.21-8.88c-.36-.87-.77-1.17-1.48-1.23a1.26,1.26,0,0,1-.11-.51.72.72,0,0,1,.11-.31s1.69.16,3.18.16S155.8,12,155.8,12a.71.71,0,0,1,.1.31,1.25,1.25,0,0,1-.1.51c-.67.06-1,.31-1,.77a2.59,2.59,0,0,0,.26,1l1.9,4.3,1.79-4.51a1.83,1.83,0,0,0,.16-.77c0-.46-.31-.77-1.18-.77a1.11,1.11,0,0,1-.1-.51.6.6,0,0,1,.1-.31c.71.09,1.43.14,2.15.16a16.68,16.68,0,0,0,2-.16.6.6,0,0,1,.1.31A1.11,1.11,0,0,1,161.9,12.83Z"/><path class="cls-1" d="M15.34,3a2,2,0,0,0-1.69-1,.64.64,0,0,0-.49,0l-.48.16A8.55,8.55,0,0,0,9.93,3.58,9,9,0,0,0,8,5.64,8.13,8.13,0,0,0,6.54,2.82C5.49,1.4,3.67-.37,1.78.07A2.16,2.16,0,0,0,.16,2.13,18,18,0,0,0,0,5.72a26.92,26.92,0,0,0,1.45,7.11A76.53,76.53,0,0,0,4.68,20.5c.33.77,1.34.32,1.42-.36a.63.63,0,0,0,.52-.08A26.42,26.42,0,0,0,14.7,9.68C15.55,7.7,16.64,5,15.34,3ZM9.93,7.22A21.72,21.72,0,0,1,11.63,5L12,4.55c-1.05,2.67-2.74,5-4,7.55v-.85a.67.67,0,0,0-.2-.48A29.59,29.59,0,0,1,9.93,7.22ZM3.47,3.78h0l.37.53.24.36a.61.61,0,0,0-.16.45L4,7.5c0-.08,0-.16,0-.24a27.68,27.68,0,0,1-.53-3.11A2.29,2.29,0,0,1,3.47,3.78ZM9,13.92a32.38,32.38,0,0,1,2.47-3.68C10.74,11.54,9.89,12.75,9,13.92Zm5.33-8.64a.72.72,0,0,0-.68.2l-.77.77a19,19,0,0,0,1-2.63l.28.45A2.93,2.93,0,0,1,14.37,5.28Zm-7.95.56A17.78,17.78,0,0,0,5.13,3.5,7.35,7.35,0,0,1,6.42,5.84ZM1.7,2.33c0-.28,0-.65.4-.77A1.8,1.8,0,0,1,3,1.68a1.37,1.37,0,0,0-.73.41C1.58,2.82,1.9,4.23,2,5.16c.36,2.54,1,5.12,1.53,7.67.17.73.25,1.41.37,2.14a38.13,38.13,0,0,1-2-6.66A18.47,18.47,0,0,1,1.7,2.33Z"/><path class="cls-1" d="M30.85,15.86a4.13,4.13,0,0,0-4.69,1.85,8.47,8.47,0,0,0-1.05,3.36c-.08.52-.16,1-.2,1.57a12.24,12.24,0,0,0-2.22-2.75c-.93-.84-3.39-2.94-4.52-1.41s-.57,4,.2,5.73a25,25,0,0,0,3.43,5,32.38,32.38,0,0,0,5,4.68V34a.84.84,0,0,0,1.61.44C29.64,29.91,32,25.71,32.66,21,33,19.17,33,16.66,30.85,15.86Zm-8.32,7.55a4.75,4.75,0,0,0,.2.64l-.85-1.33ZM27,31.52l.28.65-.76-.61A.87.87,0,0,0,27,31.52Zm3.11-14.13c1.05.24,1.09,1.49,1.05,2.38h0a.75.75,0,0,0-.52.41,26.2,26.2,0,0,0-1.54,3.31c.16-1.86.45-3.72.77-5.57a.92.92,0,0,0-.08-.57Zm-2.87,2a25.09,25.09,0,0,0-.56,2.87l-.12.72c.08-.52.12-1.05.2-1.53A12.08,12.08,0,0,1,27.21,19.37Zm-4.07,8.84a19.45,19.45,0,0,1-3.4-5.09,5.14,5.14,0,0,1-.48-1.53l.36.61c.61,1.09,1.3,2.14,2,3.19C23,27.32,24.43,29.18,25.92,31A22.52,22.52,0,0,1,23.14,28.21Z"/></g></g></svg>