<svg xmlns="http://www.w3.org/2000/svg" viewBox="0 0 129.49 35"><defs><style>.cls-1{fill:#fff;}</style></defs><title>Asset 20</title><g id="Layer_2" data-name="Layer 2"><g id="Layer_1-2" data-name="Layer 1"><path class="cls-1" d="M69.71,14.44c-.57-2.1-1.36-2.73-3.67-2.73H63.63V16.9H65.2c1.79,0,2.26-.37,2.57-2H68a.89.89,0,0,1,.63.21,16.22,16.22,0,0,0-.21,2.41,19.43,19.43,0,0,0,.21,2.41.89.89,0,0,1-.63.21h-.26c-.31-1.62-.78-1.94-2.57-1.94H63.63v4.35c0,1.31.58,1.84,1.94,1.94a1.13,1.13,0,0,1,.05.32,1.1,1.1,0,0,1-.1.47s-2.2-.21-4-.21-3.72.21-3.72.21a1.12,1.12,0,0,1-.11-.47,1.13,1.13,0,0,1,.06-.32c1.15-.1,1.62-.63,1.62-1.94V13.07c0-1.31-.47-1.78-1.62-1.94a.81.81,0,0,1-.06-.31,1.08,1.08,0,0,1,.11-.47s2,.21,3.72.21h6.34a6.24,6.24,0,0,0,2.42-.42l.26.21a19.87,19.87,0,0,0,.1,3.93A1.25,1.25,0,0,1,69.71,14.44Z"/><path class="cls-1" d="M78.78,25.13a26.78,26.78,0,0,0-3.35-.21,33.29,33.29,0,0,0-3.46.21.69.69,0,0,1-.11-.36,1.5,1.5,0,0,1,0-.37c1-.11,1.53-.53,1.53-1.63V17.42a1.48,1.48,0,0,0-1.3-1.62,1.31,1.31,0,0,0-.28,0,.87.87,0,0,1-.1-.47.75.75,0,0,1,.1-.32l2.57-.15A13.49,13.49,0,0,0,77,14.12a1,1,0,0,1,.58.47,14.62,14.62,0,0,0-.21,2.47v5.71a1.46,1.46,0,0,0,1.3,1.62h.17a.79.79,0,0,1,.1.37A.57.57,0,0,1,78.78,25.13ZM75.22,13.18a1.84,1.84,0,0,1-2-1.67v-.17A1.89,1.89,0,0,1,75.16,9.5h.06a1.77,1.77,0,0,1,1.93,1.61,1.7,1.7,0,0,1,0,.22,1.83,1.83,0,0,1-1.83,1.84Z"/><path class="cls-1" d="M89.69,19.47H83.61c.21,1.94,1,4,3.46,4a3.57,3.57,0,0,0,2.41-1,.74.74,0,0,1,.63.47,5.51,5.51,0,0,1-4.72,2.52c-3.72,0-5.61-2.41-5.61-5.4a5.61,5.61,0,0,1,3.51-5.4,5.92,5.92,0,0,1,2.41-.47c3.52,0,4.67,2.2,4.67,4.24A1.71,1.71,0,0,1,89.69,19.47Zm-4.46-4.14c-1.2,0-1.68,1.47-1.68,3.2l3-.21a4.13,4.13,0,0,0,.15-1.11C86.75,16.11,86.23,15.33,85.23,15.33Z"/><path class="cls-1" d="M95.93,25.5a8.45,8.45,0,0,1-3.88-.94,5.22,5.22,0,0,0-.11-2.36,1,1,0,0,1,.79-.16,3.53,3.53,0,0,0,3.57,2.25c1.25,0,1.83-.57,1.83-1.15s-.42-.89-2.46-1.57c-3.2-1.05-3.94-1.94-3.94-3.46s2.42-3.88,5.56-3.88a6.48,6.48,0,0,1,3.2.78,4,4,0,0,0,.05,2.1,1,1,0,0,1-.73.26,3.78,3.78,0,0,0-3.51-2.1c-1,0-1.47.42-1.47.84s.63,1.21,2.62,1.79c2.78.89,3.56,1.73,3.56,3.25S98.71,25.5,95.93,25.5Z"/><path class="cls-1" d="M111.71,23.82l-3.46,1.63h-.42c-2.78,0-4.19-1.37-4.19-4.36v-5H102a1.2,1.2,0,0,1-.21-.73,1.61,1.61,0,0,1,.1-.53,5.92,5.92,0,0,0,4.78-2.93,1.06,1.06,0,0,1,1,.42V14.8a12.34,12.34,0,0,0,3.57-.31,1.72,1.72,0,0,1,.21.84,3,3,0,0,1-.11.73h-3.67v4.56c0,1.94.79,2.83,2.2,2.83A4.65,4.65,0,0,0,111.4,23a.63.63,0,0,1,.36.58A.47.47,0,0,1,111.71,23.82Z"/><path class="cls-1" d="M123.25,24.45a12.57,12.57,0,0,0-1.73.21,11.42,11.42,0,0,0-2.15.84h-.21a2.67,2.67,0,0,1-1-1.78l-2.41,1.57a2.44,2.44,0,0,1-3.41-2.57,2.7,2.7,0,0,1,2.31-2.94l3.41-.73V17.84c0-.94-.47-1.46-1.73-1.46a8.29,8.29,0,0,0-3.1.63.81.81,0,0,1-.26-.74l3.15-1.78a5.34,5.34,0,0,1,1.73-.26c2.78,0,4.19,1.46,4.19,3.72v4.56c0,.84.37,1.26,1.16,1.26a.67.67,0,0,1,.1.31A.79.79,0,0,1,123.25,24.45Zm-5.14-4.61c-1.84.42-2.47.78-2.47,1.88A1.42,1.42,0,0,0,117,23.2h.22a1.68,1.68,0,0,0,.89-.26Z"/><path class="cls-1" d="M127.6,20.47l-.42.15-.37-.15c-.57-4.62-1.89-7.66-1.89-9s.53-1.42,2.26-1.42,2.31.74,2.31,1.42S128.18,15.85,127.6,20.47Zm-.42,4.77a1.73,1.73,0,0,1-1.83-1.63.34.34,0,0,1,0-.1,1.79,1.79,0,0,1,1.79-1.79h.05a1.79,1.79,0,0,1,.61,3.52A2.08,2.08,0,0,1,127.18,25.24Z"/><path class="cls-1" d="M4.7,10a.43.43,0,0,1-.56.23.41.41,0,0,1-.26-.34C5.06,4.1,14,8.94,13.21,2.67c0-.57.71-.71.82-.1C15,9.76,5.55,5,4.7,10ZM25.21,1.85a.39.39,0,1,1,.5-.6A10.65,10.65,0,0,1,29,5.16c4.84.47,3.77,1.75,3.21,1.54a13.06,13.06,0,0,0-2.85-.82C30.87,12.46,21.68,5,28.16,5A11,11,0,0,0,25.21,1.85ZM17.55,4.2l3,3-3,2.95-3-2.95Zm0,1.07L15.67,7.16,17.55,9l1.89-1.88ZM12,17.3c-.49.11-.85-.6-.35-.71C17.09,14.1,18.26,24.25,23,20c.36-.36.86.21.5.57C18.16,25.53,16.63,15.06,12,17.3ZM8,19.76c-.25-.46.46-.82.71-.46l3.42,6.23c.36.5-.36.82-.6.36ZM33.57,11.5c-.1-.46.61-.57.72-.11l2,9.19a.43.43,0,0,1-.82.25ZM8.47,27.31c1.18,1.17-.71,3.06-1.88,1.89S7.3,26.13,8.47,27.31Zm-.57.57c-1.06-1-1.06,1.67,0,.71.26,0,.47-.1.47-.35A.34.34,0,0,0,7.9,27.88Zm16.84-3.63A1.29,1.29,0,0,1,23,26.13C21.75,25,23.57,23.07,24.74,24.25Zm-.57.57c-1-.93-1,1.78,0,.71C24.39,25.42,24.39,25.07,24.17,24.82ZM11.89,12.46c1.18,1.18-.57,3-1.89,1.78S10.72,11.29,11.89,12.46Zm-.57.47c-1-.93-1,1.78,0,.81a.56.56,0,0,0,.09-.81S11.38,12.9,11.32,12.93Zm11,17.9-4,3.21-.81-4.95Zm-3.78-.57.36,2.35,1.89-1.53ZM4.59,15.42l-.46,5L0,17.52ZM1.53,17.66l1.89,1.39.25-2.35Zm29.59.11,2.95,3.06-2.95,3-3.06-3Zm0,1.17-1.89,1.89,1.89,1.89L33,20.83Zm-1.18-7.79L28.27,16,25,12.11Zm-3.42,1.42,1.54,1.78.71-2.24ZM21.79.43A1.25,1.25,0,0,1,20,2.21C18.87,1,20.61-.85,21.79.43Zm-.57.5c-1-1-1,1.74,0,.67C21.43,1.5,21.43,1.14,21.22.93ZM23,5.16a.4.4,0,1,1,.72.36L20.4,14.24c-.25.47-1,.22-.85-.25ZM31,27.77c.21-.46.93,0,.57.47a10.77,10.77,0,0,1-4,3.2c-.71,4.7-2,3.63-1.78,2.95a9.44,9.44,0,0,0,.93-2.74c-6.48,1.32,1.17-7.51,1-1.17A11.75,11.75,0,0,0,31,27.77Z"/></g></g></svg>