<svg xmlns="http://www.w3.org/2000/svg" viewBox="0 0 282.2 98.3">
  <title>Asset 26</title>
  <g id="Layer_2" data-name="Layer 2">
    <g id="sol">
      <path d="M168.2,33.4c-1.1-4-2.6-5.2-7-5.2h-4.6v9.9h3c3.4-.1,4.3-.7,4.9-3.8h.5a1.8,1.8,0,0,1,1.2.4,30.8,30.8,0,0,0-.4,4.6,32.6,32.6,0,0,0,.4,4.6,1.8,1.8,0,0,1-1.2.4h-.5c-.6-3.1-1.5-3.7-4.9-3.7h-3v8.3c0,2.5,1.1,3.5,3.7,3.7a2.2,2.2,0,0,1,.1.6,2.2,2.2,0,0,1-.2.9s-4.2-.4-7.7-.4-7.1.4-7.1.4a2.2,2.2,0,0,1-.2-.9,2.2,2.2,0,0,1,.1-.6c2.2-.2,3.1-1.2,3.1-3.7V30.8c0-2.5-.9-3.4-3.1-3.7a1.5,1.5,0,0,1-.1-.6,2.2,2.2,0,0,1,.2-.9s3.9.4,7.1.4h12.1a11.7,11.7,0,0,0,4.6-.8l.5.4a37.1,37.1,0,0,0,.2,7.5A2.4,2.4,0,0,1,168.2,33.4Z" fill="#505151"/>
      <path d="M185.5,53.8a50.3,50.3,0,0,0-6.4-.4,58.1,58.1,0,0,0-6.6.4,1.4,1.4,0,0,1-.2-.7,2.4,2.4,0,0,1,.1-.7c1.8-.2,2.9-1,2.9-3.1V39.1a2.8,2.8,0,0,0-3-3.1,1.7,1.7,0,0,1-.2-.9,1.3,1.3,0,0,1,.2-.6l4.9-.3a24.8,24.8,0,0,0,4.9-1.4,1.9,1.9,0,0,1,1.1.9,28,28,0,0,0-.4,4.7V49.3a2.8,2.8,0,0,0,2.8,3.1,1.4,1.4,0,0,1,.2.7A1.1,1.1,0,0,1,185.5,53.8ZM178.7,31a3.5,3.5,0,0,1-3.8-3.5,3.6,3.6,0,0,1,3.8-3.5,3.4,3.4,0,0,1,3.7,3.5A3.5,3.5,0,0,1,178.7,31Z" fill="#505151"/>
      <path d="M206.3,43H194.7c.4,3.7,2,7.7,6.6,7.7a6.8,6.8,0,0,0,4.6-1.9,1.4,1.4,0,0,1,1.2.9,10.5,10.5,0,0,1-9,4.8c-7.1,0-10.7-4.6-10.7-10.3a10.7,10.7,0,0,1,6.7-10.3,11.4,11.4,0,0,1,4.6-.9c6.7,0,8.9,4.2,8.9,8.1A3.3,3.3,0,0,1,206.3,43Zm-8.5-7.9c-2.3,0-3.2,2.8-3.2,6.1l5.8-.4a8.3,8.3,0,0,0,.3-2.1C200.7,36.6,199.7,35.1,197.8,35.1Z" fill="#505151"/>
      <path d="M218.2,54.5a16.1,16.1,0,0,1-7.4-1.8,10,10,0,0,0-.2-4.5,2,2,0,0,1,1.5-.3c.6,1.9,2.7,4.3,6.8,4.3,2.4,0,3.5-1.1,3.5-2.2s-.8-1.7-4.7-3c-6.1-2-7.5-3.7-7.5-6.6s4.6-7.4,10.6-7.4a12.4,12.4,0,0,1,6.1,1.5,7.7,7.7,0,0,0,.1,4,1.9,1.9,0,0,1-1.4.5,7.2,7.2,0,0,0-6.7-4c-1.8,0-2.8.8-2.8,1.6s1.2,2.3,5,3.4c5.3,1.7,6.8,3.3,6.8,6.2S223.5,54.5,218.2,54.5Z" fill="#505151"/>
      <path d="M248.3,51.3l-6.6,3.1h-.8c-5.3,0-8-2.6-8-8.3V36.5h-3.2a2.4,2.4,0,0,1-.4-1.4,3.1,3.1,0,0,1,.2-1,11.3,11.3,0,0,0,9.1-5.6,2.1,2.1,0,0,1,1.9.8v4.8c5.2,0,6.8-.6,6.8-.6a3.1,3.1,0,0,1,.4,1.6,5.8,5.8,0,0,1-.2,1.4h-7v8.7c0,3.7,1.5,5.4,4.2,5.4a8.8,8.8,0,0,0,3-.9,1.2,1.2,0,0,1,.7,1.1A1.2,1.2,0,0,1,248.3,51.3Z" fill="#505151"/>
      <path d="M270.3,52.5a23.7,23.7,0,0,0-3.3.4,21.8,21.8,0,0,0-4.1,1.6h-.4a5,5,0,0,1-1.8-3.4l-4.6,3a5,5,0,0,1-1.7.4,5.1,5.1,0,0,1-4.8-5.3c0-2.8,1.2-4.9,4.4-5.6l6.5-1.4V39.9c0-1.8-.9-2.8-3.3-2.8a15.9,15.9,0,0,0-5.9,1.2,1.5,1.5,0,0,1-.5-1.4l6-3.4a10.8,10.8,0,0,1,3.3-.5c5.3,0,8,2.8,8,7.1v8.7c0,1.6.7,2.4,2.2,2.4a1.3,1.3,0,0,1,.2.6A1.4,1.4,0,0,1,270.3,52.5Zm-9.8-8.8c-3.5.8-4.7,1.5-4.7,3.6a2.7,2.7,0,0,0,3,2.8,3.2,3.2,0,0,0,1.7-.5Z" fill="#505151"/>
      <path d="M278.6,44.9l-.8.3-.7-.3c-1.1-8.8-3.6-14.6-3.6-17.2s1-2.7,4.3-2.7,4.4,1.4,4.4,2.7S279.7,36.1,278.6,44.9Zm-.8,9.1a3.3,3.3,0,0,1-3.5-3.3,3.4,3.4,0,0,1,3.5-3.4,3.4,3.4,0,1,1,0,6.7Z" fill="#505151"/>
      <path d="M13.2,28a1.2,1.2,0,0,1-2.3-.3c3.3-16.2,28.5-2.6,26.2-20.2,0-1.6,2-2,2.3-.3C42,27.4,15.6,14.1,13.2,28ZM70.8,5.2a1.1,1.1,0,0,1,1.4-1.7s6.6,4.7,9.2,11c13.6,1.3,10.6,4.9,9,4.3a38.1,38.1,0,0,0-8-2.3c4.3,18.5-21.5-2.4-3.3-2.4C76.5,9.2,70.8,5.2,70.8,5.2ZM49.3,11.8l8.3,8.3-8.3,8.3L41,20.1Zm0,3L44,20.1l5.3,5.3,5.3-5.3ZM33.8,48.6c-1.4.3-2.4-1.7-1-2,15.2-7,18.5,21.5,31.7,9.6,1-1,2.4.6,1.4,1.6C51,71.7,46.7,42.3,33.8,48.6ZM22.5,55.5c-.7-1.3,1.3-2.3,2-1.3l9.6,17.5c1,1.4-1,2.3-1.7,1ZM94.3,32.3c-.3-1.3,1.7-1.6,2-.3l5.6,25.8a1.2,1.2,0,0,1-2.3.7ZM23.8,76.7c3.3,3.3-2,8.6-5.3,5.3S20.5,73.4,23.8,76.7Zm-1.6,1.6c-3-2.9-3,4.7,0,2A1.3,1.3,0,0,0,22.2,78.3ZM69.5,68.1c3.3,3.6-1.6,8.6-5,5.3S66.2,64.8,69.5,68.1Zm-1.6,1.6c-2.7-2.6-2.7,5,0,2C68.5,71.4,68.5,70.4,67.9,69.7ZM33.4,35c3.3,3.3-1.6,8.3-5.3,5S30.1,31.7,33.4,35Zm-1.6,1.3c-2.7-2.6-2.7,5,0,2.3A1.7,1.7,0,0,0,31.8,36.3ZM62.6,86.6l-11.3,9L49,81.7ZM52,85l1,6.6,5.3-4.3ZM12.9,43.3,11.6,57.5,0,49.2ZM4.3,49.6l5.3,3.9.7-6.6Zm83.1.3,8.3,8.6-8.3,8.3-8.6-8.3Zm0,3.3-5.3,5.3,5.3,5.3,5.3-5.3ZM84.1,31.3,79.4,44.9,70.2,34Zm-9.6,4,4.3,5,2-6.3ZM61.2,1.2c3.3,3.3-1.6,8.3-4.9,5S57.9-2.4,61.2,1.2ZM59.6,2.6c-2.7-2.7-2.7,4.9,0,1.9C60.2,4.2,60.2,3.2,59.6,2.6Zm4.9,11.9c.7-1.4,2.7-.7,2,1L57.3,40c-.7,1.3-2.7.6-2.4-.7ZM87.1,78c.6-1.3,2.6,0,1.6,1.3s-5,6.3-11.2,9c-2,13.2-5.7,10.2-5,8.3a27,27,0,0,0,2.6-7.7c-18.2,3.7,3.3-21.1,2.7-3.3C82.7,83.3,87.1,78,87.1,78Z" fill="#20c7e2"/>
    </g>
  </g>
</svg>
