<svg xmlns="http://www.w3.org/2000/svg" viewBox="0 0 165.84 20"><defs><style>.cls-1{opacity:0.5;}.cls-2{fill:#0505cc;}</style></defs><title>Asset 25</title><g id="Layer_2" data-name="Layer 2"><g id="Layer_1-2" data-name="Layer 1"><g class="cls-1"><path class="cls-2" d="M11.52,4.74C11,2.74,10.18,2.19,8,2.19H5.69V7.08H7.18c1.75,0,2.2-.3,2.45-1.84h.3a.65.65,0,0,1,.54.2,18.8,18.8,0,0,0,0,4.58.65.65,0,0,1-.54.2h-.3c-.25-1.54-.7-1.79-2.45-1.84H5.69v4.14c0,1.25.55,1.74,1.84,1.89a.39.39,0,0,1,.1.25.6.6,0,0,1-.15.45S5.44,15,3.69,15s-3.54.15-3.54.15A.65.65,0,0,1,0,14.66a.74.74,0,0,1,.05-.25c1.1-.15,1.6-.64,1.6-1.89v-9c0-1.25-.5-1.74-1.6-1.84a1,1,0,0,1,0-.3A.65.65,0,0,1,.15.9s2,.15,3.54.15h6A6,6,0,0,0,12,.65l.3.2a16.71,16.71,0,0,0,.05,3.74A1.12,1.12,0,0,1,11.52,4.74Z"/><path class="cls-2" d="M22.05,7.68h-.6a2.36,2.36,0,0,0-1.95-1A3.36,3.36,0,0,0,18.11,7v5.64a1.38,1.38,0,0,0,1.39,1.59.67.67,0,0,1,.1.3.51.51,0,0,1-.15.35s-1.44-.15-3.24-.15a29.63,29.63,0,0,0-3.09.15.6.6,0,0,1-.1-.35.67.67,0,0,1,.1-.3c.85-.1,1.2-.59,1.2-1.59v-5a1.41,1.41,0,0,0-1.24-1.54h-.21a1,1,0,0,1-.1-.44.94.94,0,0,1,.05-.3,14.12,14.12,0,0,0,1.84-.15,8.72,8.72,0,0,0,2.6-.75h.35a5.31,5.31,0,0,1,.5,1.79L20.4,4.74a4.17,4.17,0,0,1,1-.15,2.77,2.77,0,0,1,1,.15,2.1,2.1,0,0,1,.25,1.1A3.2,3.2,0,0,1,22.05,7.68Z"/><path class="cls-2" d="M29.93,14.91s-1.4-.15-3.25-.15-3.24.15-3.24.15a.56.56,0,0,1-.15-.35.82.82,0,0,1,.1-.3,1.39,1.39,0,0,0,1.4-1.59v-5a1.37,1.37,0,0,0-1.45-1.55,1.13,1.13,0,0,1-.1-.44.76.76,0,0,1,.1-.3s1.45,0,2.45-.2a13.06,13.06,0,0,0,2.44-.7.85.85,0,0,1,.5.5,17.5,17.5,0,0,0-.15,2.29v5.44c0,1.1.5,1.49,1.35,1.59a.82.82,0,0,1,.1.3A.79.79,0,0,1,29.93,14.91ZM26.48,3.59A1.74,1.74,0,0,1,24.6,2a.76.76,0,0,1,0-.15A1.79,1.79,0,0,1,26.38.05h.1a1.75,1.75,0,0,1,1.85,1.64v.16a1.74,1.74,0,0,1-1.74,1.74Z"/><path class="cls-2" d="M43.09,14.26l-1.64.25a10.26,10.26,0,0,0-2,.75H39.2a2.91,2.91,0,0,1-.89-1.69L36.11,15a2.33,2.33,0,0,1-1.1.25c-2.29,0-4.14-1.94-4.14-4.89s1.25-4.43,2.9-5.23a4.71,4.71,0,0,1,2-.55A5.05,5.05,0,0,1,38.26,5V3.19A1.41,1.41,0,0,0,37,1.65a1.13,1.13,0,0,0-.26,0,1,1,0,0,1-.1-.45.63.63,0,0,1,.1-.3A14.12,14.12,0,0,0,38.6.75,8.06,8.06,0,0,0,41.15,0h.4A4.64,4.64,0,0,1,42,2.34V12.47c0,.75.35,1.15,1.09,1.15a.63.63,0,0,1,.1.3A.59.59,0,0,1,43.09,14.26Zm-4.83-7s-.55-1.64-1.85-1.64-1.65.94-1.65,3.49S35.81,13,37.16,13a2,2,0,0,0,1.1-.45Z"/><path class="cls-2" d="M54.27,14.26l-1.65.25a10.71,10.71,0,0,0-2,.75h-.2a2.48,2.48,0,0,1-.89-1.69l-2.3,1.49a2,2,0,0,1-.84.2,2.54,2.54,0,0,1-2.4-2.59,2.61,2.61,0,0,1,2.2-2.84l3.29-.65V8c0-.9-.45-1.35-1.7-1.35a8,8,0,0,0-2.94.55.74.74,0,0,1-.25-.7l3-1.64a5.41,5.41,0,0,1,1.65-.25c2.64,0,4,1.4,4,3.49v4.39c0,.75.35,1.15,1.1,1.15a.62.62,0,0,1,.09.3A.67.67,0,0,1,54.27,14.26ZM49.43,9.93c-1.8.34-2.4.74-2.4,1.79a1.35,1.35,0,0,0,1.29,1.4.74.74,0,0,0,.21,0,1.54,1.54,0,0,0,.9-.3Z"/><path class="cls-2" d="M66.38,5.74a2.17,2.17,0,0,0-1.89,1.59L61.3,15a11.21,11.21,0,0,1-3.79,5,4,4,0,0,1-2.25-2.24l.45-.35a2.75,2.75,0,0,0,1.1.2,2.91,2.91,0,0,0,2.74-1.9v-.1L55.56,7c-.4-.85-.75-1.14-1.49-1.24a1,1,0,0,1-.1-.45.54.54,0,0,1,.1-.3s1.64.15,3.09.15S60.45,5,60.45,5a.63.63,0,0,1,.1.3,1.22,1.22,0,0,1-.1.45c-.65.1-1,.29-1,.74a2.07,2.07,0,0,0,.25.95l1.85,4.19,1.79-4.39a2.82,2.82,0,0,0,.15-.7c0-.5-.35-.79-1.19-.79a1,1,0,0,1-.1-.45.54.54,0,0,1,.1-.3c.71.08,1.42.13,2.14.15s1.3-.07,1.94-.15a.54.54,0,0,1,.1.3A1,1,0,0,1,66.38,5.74Z"/><path class="cls-2" d="M76.26,15.26c-3.14,0-5.09-2.24-5.09-5.33,0-5,4.89-9.23,9.73-9.58a.85.85,0,0,1,.15.6.29.29,0,0,1,0,.2,7.54,7.54,0,0,0-5.89,5.48A7.09,7.09,0,0,1,78,5.89,3.69,3.69,0,0,1,81.9,9.83,6.09,6.09,0,0,1,76.26,15.26Zm-.7-7.78H75a7.07,7.07,0,0,0-.15,1.45c0,2.94,1.25,4.74,2.65,4.74s1.14-.75,1.14-2.35S77.26,7.48,75.56,7.48Z"/><path class="cls-2" d="M92.07,13.72l-3.24,1.49h-.4c-2.64,0-4-1.24-4-4.09V6.33H82.79a1.82,1.82,0,0,1-.15-.69,1.35,1.35,0,0,1,.1-.5,5.77,5.77,0,0,0,4.54-2.85,1.14,1.14,0,0,1,.9.4V5.14a10,10,0,0,0,3.39-.35,1.27,1.27,0,0,1,.25.8,1.88,1.88,0,0,1-.15.74H88.18v4.29c0,1.85.75,2.7,2.15,2.7a4.48,4.48,0,0,0,1.44-.4.53.53,0,0,1,.35.55A.56.56,0,0,1,92.07,13.72Z"/><path class="cls-2" d="M105.54,14.91q-1.2-.13-2.4-.15a19.24,19.24,0,0,0-2.14.15s-.6-.35-.6-2.29V8a1.2,1.2,0,0,0-1-1.35h-.32a3.07,3.07,0,0,0-1.39.4v5.64c0,1,.35,1.49,1.19,1.59a.57.57,0,0,1,.1.3.6.6,0,0,1-.1.35s-1.59-.15-3.09-.15-3,.15-3,.15a.56.56,0,0,1-.15-.35.67.67,0,0,1,.1-.3c.85-.1,1.2-.59,1.2-1.59V3.19a1.36,1.36,0,0,0-1.45-1.54,1.22,1.22,0,0,1-.1-.45.63.63,0,0,1,.1-.3,13.66,13.66,0,0,0,1.8-.15A8.11,8.11,0,0,0,96.81,0h.35a5.43,5.43,0,0,1,.5,2.54V6.23L100,4.74a3.37,3.37,0,0,1,1-.15c1.89,0,3.14,1.1,3.14,2.69v5.14c0,1.25.35,1.69,1.45,1.84a.82.82,0,0,1,.1.3A.56.56,0,0,1,105.54,14.91Z"/><path class="cls-2" d="M115.81,15.26a10.1,10.1,0,0,1-4.54-1.1,14.89,14.89,0,0,0,.1-1.64,9.39,9.39,0,0,0-.2-1.75,1,1,0,0,1,.65-.25h.2A4.36,4.36,0,0,0,116.26,14c1.15,0,2-.7,2-1.55s-.4-1.3-1.25-1.9l-3.49-2.24A3.76,3.76,0,0,1,111.42,5c0-2.55,2.25-4.49,5.34-4.49a10.16,10.16,0,0,1,4.24.9,7.31,7.31,0,0,0-.1,1.14,10.25,10.25,0,0,0,.15,1.75.89.89,0,0,1-.5.25h-.25a3.86,3.86,0,0,0-3.59-2.74c-1.7,0-1.7.49-1.7,1.34s.6,1.45,1.8,2.15l2.54,1.49a4.33,4.33,0,0,1,2.45,3.44C121.8,13,119.3,15.26,115.81,15.26Z"/><path class="cls-2" d="M132.57,9.53h-5.84c.25,1.89,1,3.89,3.3,3.89a3.57,3.57,0,0,0,2.34-.95.59.59,0,0,1,.55.4,5.23,5.23,0,0,1-4.49,2.39c-3.49,0-5.29-2.29-5.29-5.09A5,5,0,0,1,126.48,5a6.39,6.39,0,0,1,2.25-.4c3.34,0,4.44,2,4.44,4A1.91,1.91,0,0,1,132.57,9.53Zm-4.29-3.94c-1.15,0-1.6,1.39-1.6,3.09l2.9-.25a2.88,2.88,0,0,0,.2-1C129.78,6.38,129.23,5.59,128.28,5.59Z"/><path class="cls-2" d="M142.79,14.91a4.31,4.31,0,0,1-1.84.35,3.64,3.64,0,0,1-2-.55v2.7c0,1,.6,1.49,1.8,1.54a.74.74,0,0,1,.1.35.81.81,0,0,1-.15.4,27.65,27.65,0,0,0-6.68,0,.73.73,0,0,1-.15-.4.64.64,0,0,1,.1-.35c.84-.1,1.19-.55,1.19-1.54V7.63a1.37,1.37,0,0,0-1.44-1.55,1,1,0,0,1-.1-.44.94.94,0,0,1,.05-.3,14.26,14.26,0,0,0,1.84-.15,8.17,8.17,0,0,0,2.6-.75h.34a4.89,4.89,0,0,1,.5,1.79l2.35-1.49a3.37,3.37,0,0,1,1-.15c2.14,0,3.74,2,3.74,4.54S144.89,14.06,142.79,14.91ZM140,6.73a2.24,2.24,0,0,0-1.1.3v5.64a2,2,0,0,0,1.75,1.44c.9,0,1.65-.84,1.65-3.09S141.45,6.73,140,6.73Z"/><path class="cls-2" d="M155.81,13.72l-3.29,1.49h-.35c-2.69,0-4-1.24-4-4.09V6.33h-1.65a1.4,1.4,0,0,1-.19-.69,1.17,1.17,0,0,1,.09-.5A5.63,5.63,0,0,0,151,2.29a1.22,1.22,0,0,1,.95.4V5.14a10,10,0,0,0,3.39-.35,1.27,1.27,0,0,1,.25.8,1.88,1.88,0,0,1-.15.74h-3.49v4.29c0,1.85.75,2.7,2.1,2.7a4.58,4.58,0,0,0,1.49-.4.53.53,0,0,1,.35.55A.56.56,0,0,1,155.81,13.72Z"/><path class="cls-2" d="M158.8,15.06A1.65,1.65,0,0,1,157,13.57v-.2a1.68,1.68,0,0,1,1.74-1.65h.05a1.66,1.66,0,0,1,1.75,1.54v.11A1.63,1.63,0,0,1,159,15.06Z"/><path class="cls-2" d="M164.09,7.93a1.63,1.63,0,0,1-1.74-1.54.43.43,0,0,1,0-.16,1.75,1.75,0,0,1,3.49,0h0a1.7,1.7,0,0,1-1.7,1.7Zm0,7.13a1.63,1.63,0,0,1-1.74-1.54.38.38,0,0,1,0-.15A1.64,1.64,0,0,1,164,11.72h.1a1.64,1.64,0,0,1,1.74,1.54.41.41,0,0,1,0,.11,1.64,1.64,0,0,1-1.6,1.69Z"/></g></g></g></svg>