<svg xmlns="http://www.w3.org/2000/svg" viewBox="0 0 472.6 95">
  <title>Asset 22</title>
  <g id="Layer_2" data-name="Layer 2">
    <g id="sol">
      <g>
        <path d="M163.2,19.5c-1.1-4-2.7-5.1-7.1-5.1h-4.6v9.8h3c3.5-.1,4.4-.6,4.9-3.7h.6a1.4,1.4,0,0,1,1.1.4,43.2,43.2,0,0,0-.3,4.6,43.2,43.2,0,0,0,.3,4.6,1.4,1.4,0,0,1-1.1.4h-.6c-.5-3.1-1.4-3.6-4.9-3.7h-3v8.3c0,2.5,1.1,3.5,3.7,3.8a.8.8,0,0,1,.2.5,1.3,1.3,0,0,1-.3.9s-4.1-.3-7.6-.3-7.1.3-7.1.3a1.3,1.3,0,0,1-.3-.9,1.2,1.2,0,0,1,.1-.5c2.2-.3,3.2-1.3,3.2-3.8V17c0-2.5-1-3.5-3.2-3.7a2.2,2.2,0,0,1-.1-.6,1.3,1.3,0,0,1,.3-.9s3.9.3,7.1.3h12a11.7,11.7,0,0,0,4.6-.8l.6.4a33.6,33.6,0,0,0,.1,7.5A2.2,2.2,0,0,1,163.2,19.5Z" fill="#20c7e2"/>
        <path d="M184.3,25.4h-1.2a4.7,4.7,0,0,0-3.9-2,6.6,6.6,0,0,0-2.8.7V35.4c0,2,.9,3,2.8,3.2a1.3,1.3,0,0,1,.2.6,1.1,1.1,0,0,1-.3.7s-2.9-.3-6.5-.3-6.2.3-6.2.3a1.4,1.4,0,0,1-.2-.7,1.3,1.3,0,0,1,.2-.6c1.7-.2,2.4-1.2,2.4-3.2V25.3a2.8,2.8,0,0,0-2.9-3.1,2.2,2.2,0,0,1-.2-.9,2.2,2.2,0,0,1,.1-.6,25.9,25.9,0,0,0,3.7-.3,17.2,17.2,0,0,0,5.2-1.5h.7a10.5,10.5,0,0,1,1,3.6l4.6-3a8,8,0,0,1,2-.3,6.2,6.2,0,0,1,2,.3,4.4,4.4,0,0,1,.5,2.2A6.5,6.5,0,0,1,184.3,25.4Z" fill="#20c7e2"/>
        <path d="M200.1,39.9s-2.8-.3-6.5-.3-6.5.3-6.5.3a1.1,1.1,0,0,1-.3-.7,1.3,1.3,0,0,1,.2-.6c1.7-.2,2.8-1,2.8-3.2V25.3c0-1.9-1-3.1-2.9-3.1a2.2,2.2,0,0,1-.2-.9,1.3,1.3,0,0,1,.2-.6s2.9-.1,4.9-.4a24.8,24.8,0,0,0,4.9-1.4,1.7,1.7,0,0,1,1,1,34.4,34.4,0,0,0-.3,4.6V35.4c0,2.2,1,3,2.7,3.2a1.3,1.3,0,0,1,.2.6A1.4,1.4,0,0,1,200.1,39.9Zm-6.9-22.7a3.5,3.5,0,0,1-3.8-3.5,3.6,3.6,0,0,1,3.8-3.6,3.5,3.5,0,0,1,3.7,3.6A3.5,3.5,0,0,1,193.2,17.2Z" fill="#20c7e2"/>
        <path d="M226.5,38.6l-3.3.5a18.5,18.5,0,0,0-4,1.5h-.5a5.9,5.9,0,0,1-1.8-3.4l-4.4,2.9a4.9,4.9,0,0,1-2.2.5c-4.6,0-8.3-3.9-8.3-9.8s2.5-8.9,5.8-10.5a9.6,9.6,0,0,1,4.1-1.1,10.2,10.2,0,0,1,4.9.9V16.4a2.8,2.8,0,0,0-3-3.1,2.2,2.2,0,0,1-.2-.9,1.3,1.3,0,0,1,.2-.6,25.9,25.9,0,0,0,3.7-.3,16,16,0,0,0,5.1-1.5h.8s.9,1.4.9,4.7V35c0,1.5.7,2.3,2.2,2.3a1.3,1.3,0,0,1,.2.6A1.4,1.4,0,0,1,226.5,38.6Zm-9.7-14s-1.1-3.3-3.7-3.3-3.3,1.9-3.3,7,2.1,7.7,4.8,7.7a3.7,3.7,0,0,0,2.2-.9Z" fill="#20c7e2"/>
        <path d="M248.9,38.6l-3.3.5a20.5,20.5,0,0,0-4.1,1.5h-.4a5,5,0,0,1-1.8-3.4l-4.6,3a4.3,4.3,0,0,1-1.7.4,5.1,5.1,0,0,1-4.8-5.2c0-2.9,1.2-4.9,4.4-5.7l6.6-1.3V26c0-1.8-.9-2.7-3.4-2.7a15.9,15.9,0,0,0-5.9,1.1,1.5,1.5,0,0,1-.5-1.4l6-3.3a10.8,10.8,0,0,1,3.3-.5c5.3,0,8,2.8,8,7V35c0,1.5.7,2.3,2.2,2.3a1.3,1.3,0,0,1,.2.6A1.4,1.4,0,0,1,248.9,38.6Zm-9.7-8.7c-3.6.7-4.8,1.5-4.8,3.6a2.7,2.7,0,0,0,3,2.8,3,3,0,0,0,1.8-.6Z" fill="#20c7e2"/>
        <path d="M273.2,21.5c-1.7.2-2.9,1-3.8,3.2L263,40c-1.9,4.7-5.2,8.7-7.6,10.1a8,8,0,0,1-4.5-4.5l.9-.7a5.3,5.3,0,0,0,2.2.4c2.3,0,4.2-1.1,5.5-3.8v-.2L251.5,24c-.8-1.7-1.5-2.3-3-2.5a2.2,2.2,0,0,1-.2-.9,1.3,1.3,0,0,1,.2-.6s3.3.3,6.2.3,6.6-.3,6.6-.3a1.3,1.3,0,0,1,.2.6,2.2,2.2,0,0,1-.2.9c-1.3.2-2,.6-2,1.5a4.1,4.1,0,0,0,.5,1.9l3.7,8.4,3.6-8.8a7,7,0,0,0,.3-1.4c0-1-.7-1.6-2.4-1.6a2.2,2.2,0,0,1-.2-.9,1.3,1.3,0,0,1,.2-.6,41.8,41.8,0,0,0,4.3.3,35,35,0,0,0,3.9-.3,1.3,1.3,0,0,1,.2.6A2.2,2.2,0,0,1,273.2,21.5Z" fill="#20c7e2"/>
        <path d="M293,40.6c-6.3,0-10.2-4.5-10.2-10.7,0-10.1,9.8-18.5,19.5-19.2a1.7,1.7,0,0,1,.3,1.2.6.6,0,0,1-.1.4c-6.1,1.4-9.9,5-11.8,11a14.2,14.2,0,0,1,5.7-1.5c4.8,0,7.9,3.1,7.9,7.9S299,40.6,293,40.6ZM291.6,25h-1.2a14.4,14.4,0,0,0-.3,2.9c0,5.9,2.5,9.5,5.3,9.5s2.3-1.5,2.3-4.7S295,25,291.6,25Z" fill="#20c7e2"/>
        <path d="M324.7,37.5l-6.5,3h-.8c-5.3,0-8-2.5-8-8.2V22.7h-3.3a3.4,3.4,0,0,1-.3-1.4,2.4,2.4,0,0,1,.2-1,11.6,11.6,0,0,0,9.1-5.7,2.2,2.2,0,0,1,1.8.8v4.9c5.2,0,6.8-.7,6.8-.7a2.6,2.6,0,0,1,.5,1.6,4.3,4.3,0,0,1-.3,1.5h-7v8.6c0,3.7,1.5,5.4,4.3,5.4a8.7,8.7,0,0,0,2.9-.8,1.1,1.1,0,0,1,.7,1.1A1.2,1.2,0,0,1,324.7,37.5Z" fill="#20c7e2"/>
        <path d="M351.7,39.9a46.9,46.9,0,0,0-4.8-.3,36.8,36.8,0,0,0-4.3.3s-1.2-.7-1.2-4.6V26a2.4,2.4,0,0,0-2.7-2.7,6,6,0,0,0-2.8.8V35.4c0,2,.7,3,2.4,3.2a1.3,1.3,0,0,1,.2.6,1.4,1.4,0,0,1-.2.7s-3.2-.3-6.2-.3-6.1.3-6.1.3a1.1,1.1,0,0,1-.3-.7,1.3,1.3,0,0,1,.2-.6c1.7-.2,2.4-1.2,2.4-3.2v-19c0-1.9-1-3.1-2.9-3.1a2.2,2.2,0,0,1-.2-.9,1.3,1.3,0,0,1,.2-.6,24.1,24.1,0,0,0,3.6-.3,16.1,16.1,0,0,0,5.2-1.5h.7a10.8,10.8,0,0,1,1,5.1v7.4l4.7-3a7,7,0,0,1,2-.3c3.8,0,6.3,2.2,6.3,5.4V34.9c0,2.5.7,3.4,2.9,3.7a1.3,1.3,0,0,1,.2.6A1.1,1.1,0,0,1,351.7,39.9Z" fill="#20c7e2"/>
        <path d="M372.3,40.6a20.4,20.4,0,0,1-9.1-2.2,32.7,32.7,0,0,0,.2-3.3,18.7,18.7,0,0,0-.4-3.5,2,2,0,0,1,1.3-.5h.4c1.3,4.5,4.6,6.9,8.5,6.9,2.3,0,4-1.4,4-3.1s-.8-2.6-2.5-3.8l-7-4.5c-2.7-1.6-4.2-3.8-4.2-6.6,0-5.1,4.5-9,10.7-9a20.6,20.6,0,0,1,8.5,1.8,16.3,16.3,0,0,0-.2,2.3,21.3,21.3,0,0,0,.3,3.5,1.7,1.7,0,0,1-1,.5h-.5c-1.3-3.3-3.8-5.5-7.2-5.5s-3.4,1-3.4,2.7,1.2,2.9,3.6,4.3l5.1,3c3.2,1.9,4.9,4.5,4.9,6.9C384.3,36.1,379.3,40.6,372.3,40.6Z" fill="#20c7e2"/>
        <path d="M405.9,29.1H394.2c.5,3.8,2.1,7.8,6.6,7.8a7.2,7.2,0,0,0,4.7-1.9,1.2,1.2,0,0,1,1.1.8,10.5,10.5,0,0,1-9,4.8c-7,0-10.6-4.6-10.6-10.2s2.6-8.8,6.7-10.4a12.9,12.9,0,0,1,4.5-.8c6.7,0,8.9,4.1,8.9,8A3.7,3.7,0,0,1,405.9,29.1Zm-8.6-7.9c-2.3,0-3.2,2.8-3.2,6.2l5.8-.5a5.7,5.7,0,0,0,.4-2.1C400.3,22.8,399.2,21.2,397.3,21.2Z" fill="#20c7e2"/>
        <path d="M426.4,39.9a8.7,8.7,0,0,1-3.7.7,7.3,7.3,0,0,1-4.1-1.1v5.4c0,2,1.2,3,3.6,3.1a1.4,1.4,0,0,1,.2.7,1.6,1.6,0,0,1-.3.8,55.9,55.9,0,0,0-13.4,0,1.6,1.6,0,0,1-.3-.8,1.4,1.4,0,0,1,.2-.7c1.7-.2,2.4-1.1,2.4-3.1V25.3c0-1.9-1-3.1-2.9-3.1a2.2,2.2,0,0,1-.2-.9,2.2,2.2,0,0,1,.1-.6,25,25,0,0,0,3.7-.3,16.1,16.1,0,0,0,5.2-1.5h.7a10.5,10.5,0,0,1,1,3.6l4.7-3a7,7,0,0,1,2-.3c4.3,0,7.5,4,7.5,9.1S430.6,38.2,426.4,39.9Zm-5.6-16.4a4.3,4.3,0,0,0-2.2.6V35.4c.5,1.3,1.7,2.9,3.5,2.9s3.3-1.7,3.3-6.2S423.7,23.5,420.8,23.5Z" fill="#20c7e2"/>
        <path d="M452.5,37.5l-6.6,3h-.7c-5.4,0-8-2.5-8-8.2V22.7h-3.3a2.8,2.8,0,0,1-.4-1.4,2.4,2.4,0,0,1,.2-1,11.3,11.3,0,0,0,9.1-5.7,2.4,2.4,0,0,1,1.9.8v4.9c5.2,0,6.8-.7,6.8-.7a2.6,2.6,0,0,1,.5,1.6,4.3,4.3,0,0,1-.3,1.5h-7v8.6c0,3.7,1.5,5.4,4.2,5.4a8.8,8.8,0,0,0,3-.8,1.1,1.1,0,0,1,.7,1.1A1.2,1.2,0,0,1,452.5,37.5Z" fill="#20c7e2"/>
        <path d="M458.5,40.2a3.3,3.3,0,0,1-3.6-3.4,3.4,3.4,0,0,1,3.6-3.3,3.3,3.3,0,0,1,3.5,3.3A3.3,3.3,0,0,1,458.5,40.2Z" fill="#20c7e2"/>
        <path d="M469.1,25.9a3.3,3.3,0,0,1-3.5-3.4,3.5,3.5,0,0,1,7,0A3.4,3.4,0,0,1,469.1,25.9Zm0,14.3a3.3,3.3,0,0,1-3.5-3.4,3.3,3.3,0,0,1,3.5-3.3,3.3,3.3,0,0,1,3.5,3.3A3.3,3.3,0,0,1,469.1,40.2Z" fill="#20c7e2"/>
        <path d="M187,62.5c-1.6.1-3.5,1.2-4.7,4.2l-8.7,22.4h-4.9L162.5,74l-5.9,15.1h-4.9L142.2,66a5.2,5.2,0,0,0-3.6-3.5,1.3,1.3,0,0,1-.2-.6,1.3,1.3,0,0,1,.3-.9s3.6.3,7.6.3,6.6-.3,6.6-.3a1.7,1.7,0,0,1,.2.9,2.2,2.2,0,0,1-.1.6,1.8,1.8,0,0,0-1.9,1.9,12.4,12.4,0,0,0,.6,1.8l5.4,14.3,3.4-8.7a6.9,6.9,0,0,0,.3-1.9L159.2,66c-.9-2.2-2-3.4-3-3.5a2.2,2.2,0,0,1-.1-.6,1.7,1.7,0,0,1,.2-.9s3.4.3,7.1.3,6.9-.3,6.9-.3a1.7,1.7,0,0,1,.2.9,2.2,2.2,0,0,1-.1.6,2,2,0,0,0-2.2,1.9,10.2,10.2,0,0,0,.5,1.8l5.4,14.3,5-13.1a8.2,8.2,0,0,0,.6-2.6c0-1.1-1-2-3-2.3a2.2,2.2,0,0,1-.1-.6,1.7,1.7,0,0,1,.2-.9s2.9.3,5.9.3a41.4,41.4,0,0,0,4.2-.3,1.7,1.7,0,0,1,.2.9A2.2,2.2,0,0,1,187,62.5Z" fill="#505151"/>
        <path d="M201.8,78.3H190.2c.4,3.8,2,7.8,6.6,7.8a6.8,6.8,0,0,0,4.6-1.9,1.3,1.3,0,0,1,1.2.8c-1.8,2.3-4.2,4.8-9,4.8-7.1,0-10.7-4.6-10.7-10.2s2.6-8.8,6.7-10.4a13.4,13.4,0,0,1,4.6-.8c6.7,0,8.9,4.1,8.9,8A3.3,3.3,0,0,1,201.8,78.3Zm-8.5-7.9c-2.3,0-3.2,2.8-3.2,6.2l5.8-.5a7.3,7.3,0,0,0,.3-2.1C196.2,72,195.1,70.4,193.3,70.4Z" fill="#505151"/>
        <path d="M217.5,89.1s-3.1-.3-6.1-.3-6.2.3-6.2.3a1.4,1.4,0,0,1-.2-.7,2.2,2.2,0,0,1,.1-.6c1.8-.2,2.5-1.2,2.5-3.2v-19a2.8,2.8,0,0,0-3-3.1,2.2,2.2,0,0,1-.2-.9,1.3,1.3,0,0,1,.2-.6,25.9,25.9,0,0,0,3.7-.3,17.2,17.2,0,0,0,5.2-1.5h.7a11.8,11.8,0,0,1,.9,5.1V84.6c0,2,.8,3,2.5,3.2a1.3,1.3,0,0,1,.2.6A1.1,1.1,0,0,1,217.5,89.1Z" fill="#505151"/>
        <path d="M229.9,89.8c-7,0-10.6-4.6-10.6-10.2s2.6-8.8,6.7-10.4a14.6,14.6,0,0,1,5-.8,16.4,16.4,0,0,1,6.8,1.3,15.1,15.1,0,0,1,1,5.4,2.1,2.1,0,0,1-1.8.4s-1.7-4.8-6.3-4.8c-2.4,0-4.3,2-4.3,6.1,0,5.6,3.2,9.3,6.7,9.3a7.2,7.2,0,0,0,4.7-1.9,1.1,1.1,0,0,1,1.1.8A10.5,10.5,0,0,1,229.9,89.8Z" fill="#505151"/>
        <path d="M256.3,88.9a11.4,11.4,0,0,1-4.6.9c-7,0-10.5-4.6-10.5-10.2s2.6-8.8,6.7-10.4a13.4,13.4,0,0,1,4.6-.8c7,0,10.5,4.5,10.5,10.2A10.6,10.6,0,0,1,256.3,88.9Zm-5.5-18.3c-1.4,0-2.4,1.4-2.4,5.2,0,6.3,2.9,11.3,5,11.3s2.3-1.4,2.3-5.1C255.7,75.6,252.9,70.6,250.8,70.6Z" fill="#505151"/>
        <path d="M303.9,89.1a46.9,46.9,0,0,0-4.8-.3,36.8,36.8,0,0,0-4.3.3s-1.2-.7-1.2-4.6V75.2a2.4,2.4,0,0,0-2.7-2.7,6,6,0,0,0-2.8.8V84.6c0,2,.7,3,2.4,3.2a1.3,1.3,0,0,1,.2.6,1.4,1.4,0,0,1-.2.7s-3.2-.3-6.2-.3-5.1.3-5.1.3a1.4,1.4,0,0,1-.2-.7,2.2,2.2,0,0,1,.1-.6c1-.3,1.4-1.2,1.4-3.2V75.2a2.4,2.4,0,0,0-2.7-2.7,6,6,0,0,0-2.8.8V84.6c0,2,.8,3,2.5,3.2a1.3,1.3,0,0,1,.2.6,1.1,1.1,0,0,1-.3.7s-3.1-.3-6.1-.3-6.2.3-6.2.3a1.4,1.4,0,0,1-.2-.7,2.2,2.2,0,0,1,.1-.6c1.8-.2,2.5-1.2,2.5-3.2V74.5a2.8,2.8,0,0,0-3-3.1,2.2,2.2,0,0,1-.2-.9,1.3,1.3,0,0,1,.2-.6,25.9,25.9,0,0,0,3.7-.3,17.2,17.2,0,0,0,5.2-1.5h.7a12.1,12.1,0,0,1,.9,3.6l4.7-3a8,8,0,0,1,2-.3c3.1,0,5.3,1.3,6.1,3.5l5-3.2a7,7,0,0,1,2-.3c3.8,0,6.3,2.2,6.3,5.4V84.1c0,2.5.7,3.4,2.9,3.7a1.3,1.3,0,0,1,.2.6A1.1,1.1,0,0,1,303.9,89.1Z" fill="#505151"/>
        <path d="M324,78.3H312.4c.4,3.8,2,7.8,6.6,7.8a7.1,7.1,0,0,0,4.6-1.9,1.1,1.1,0,0,1,1.1.8c-1.7,2.3-4.1,4.8-8.9,4.8-7.1,0-10.7-4.6-10.7-10.2s2.6-8.8,6.7-10.4a13.4,13.4,0,0,1,4.6-.8c6.7,0,8.8,4.1,8.8,8A2.8,2.8,0,0,1,324,78.3Zm-8.6-7.9c-2.2,0-3.2,2.8-3.2,6.2l5.9-.5a7.3,7.3,0,0,0,.3-2.1C318.4,72,317.3,70.4,315.4,70.4Z" fill="#505151"/>
        <path d="M355.5,89,344,88.8c-3.2,0-7.1.3-7.1.3a1.7,1.7,0,0,1-.2-.9,1.2,1.2,0,0,1,.1-.5c2.2-.3,3.1-1.3,3.1-3.8V66.2c0-2.5-.9-3.5-3.1-3.7a2.2,2.2,0,0,1-.1-.6,1.7,1.7,0,0,1,.2-.9s3.9.3,7.1.3l11.1-.3c4.9,0,7.8,2.5,7.8,6.7s-4.3,6.2-4.3,6.2a7.3,7.3,0,0,1,5.7,6.8C364.3,85.1,360.9,89,355.5,89Zm-5.1-26.1c-1.5,0-2.3.7-2.3,1.6v8.6a12.2,12.2,0,0,0,2.1.3h1.6c1.4-.6,3.1-2.7,3.1-5.9S353.4,62.9,350.4,62.9Zm0,12.3a8.5,8.5,0,0,0-2.3.2v8.9c0,1.9.9,2.7,2.7,2.7s5.1-2.3,5.1-6.2A5.3,5.3,0,0,0,350.4,75.2Z" fill="#505151"/>
        <path d="M386.1,78.3H374.4c.5,3.8,2.1,7.8,6.6,7.8a7.2,7.2,0,0,0,4.7-1.9,1.2,1.2,0,0,1,1.1.8,10.5,10.5,0,0,1-9,4.8c-7,0-10.6-4.6-10.6-10.2s2.6-8.8,6.7-10.4a12.9,12.9,0,0,1,4.5-.8c6.7,0,8.9,4.1,8.9,8A3.7,3.7,0,0,1,386.1,78.3Zm-8.6-7.9c-2.3,0-3.2,2.8-3.2,6.2l5.8-.5a5.7,5.7,0,0,0,.4-2.1C380.5,72,379.4,70.4,377.5,70.4Z" fill="#505151"/>
        <path d="M408.5,78.3H396.9c.4,3.8,2,7.8,6.6,7.8a6.8,6.8,0,0,0,4.6-1.9,1.3,1.3,0,0,1,1.2.8,10.5,10.5,0,0,1-9,4.8c-7.1,0-10.7-4.6-10.7-10.2a10.8,10.8,0,0,1,6.7-10.4,13.4,13.4,0,0,1,4.6-.8c6.7,0,8.9,4.1,8.9,8A3.3,3.3,0,0,1,408.5,78.3ZM400,70.4c-2.3,0-3.2,2.8-3.2,6.2l5.8-.5a7.3,7.3,0,0,0,.3-2.1C402.9,72,401.9,70.4,400,70.4Z" fill="#505151"/>
        <path d="M430.1,74.6h-1.2a4.7,4.7,0,0,0-3.9-2,7.4,7.4,0,0,0-2.9.7V84.6a2.9,2.9,0,0,0,2.9,3.2,1.3,1.3,0,0,1,.2.6,1.1,1.1,0,0,1-.3.7s-3-.3-6.5-.3-6.2.3-6.2.3a1.4,1.4,0,0,1-.2-.7,2.2,2.2,0,0,1,.1-.6c1.8-.2,2.5-1.2,2.5-3.2V74.5a2.8,2.8,0,0,0-2.9-3.1,1.7,1.7,0,0,1-.3-.9,1.3,1.3,0,0,1,.2-.6,25.9,25.9,0,0,0,3.7-.3,17.2,17.2,0,0,0,5.2-1.5h.7a12.1,12.1,0,0,1,.9,3.6l4.7-3a8,8,0,0,1,2-.3,6.2,6.2,0,0,1,2,.3,4.4,4.4,0,0,1,.5,2.2A6.5,6.5,0,0,1,430.1,74.6Z" fill="#505151"/>
        <path d="M439.3,80.3l-.8.2-.8-.2c-1-8.8-3.6-14.7-3.6-17.3s1-2.7,4.4-2.7,4.4,1.4,4.4,2.7S440.4,71.5,439.3,80.3Zm-.8,9.1A3.3,3.3,0,0,1,435,86a3.3,3.3,0,0,1,3.5-3.3A3.3,3.3,0,0,1,442,86,3.3,3.3,0,0,1,438.5,89.4Z" fill="#505151"/>
      </g>
      <g>
        <path d="M44.8.3c-.2.2-.4,1.8-.7,6s-.5,5.8-.4,6a.7.7,0,0,0,1,.3c.1-.1.3-.3.3-.4s.3-2.7.6-5.9S46,.5,46,.4A.7.7,0,0,0,44.8.3Z" fill="#20c7e2"/>
        <path d="M70,4.7,68.3,7.6c-.8,1.5-2.1,3.7-2.9,5s-1.4,2.7-.9,3,.8.2,2.2-2.3l3-5.1c1.6-2.9,1.7-3.1,1.3-3.5A.9.9,0,0,0,70,4.7Z" fill="#20c7e2"/>
        <path d="M18.1,7.9a.8.8,0,0,0-.5.7c0,.2.3.6.8,1.2l7.1,7.6a.8.8,0,0,0,1.3-.5c0-.3-1.8-2.3-6.5-7.2C18.7,8,18.5,7.8,18.1,7.9Z" fill="#20c7e2"/>
        <path d="M48.7,15.2l-.9.6a2.3,2.3,0,0,0-.4,2.8,2.2,2.2,0,0,0,2,1.3,2.3,2.3,0,0,0,2.3-1.4,2.7,2.7,0,0,0-.2-2.3A2.5,2.5,0,0,0,48.7,15.2Zm1.7,1.1a1.5,1.5,0,0,1,.4,2,1.5,1.5,0,0,1-2.8-.8,1,1,0,0,1,.4-1c.4-.4.5-.5,1-.5A1.7,1.7,0,0,1,50.4,16.3Z" fill="#20c7e2"/>
        <path d="M38.2,20a3.6,3.6,0,0,0-1.1,1c0,.2-.1.6-.1,1a2.2,2.2,0,1,0,2.1-2.1Zm1.5.9a1.3,1.3,0,0,1,.7,1.2,1.3,1.3,0,0,1-1.2,1.2,1.3,1.3,0,0,1-.6-2.4C39.1,20.6,39.2,20.6,39.7,20.9Z" fill="#20c7e2"/>
        <path d="M45.1,24.1A6.1,6.1,0,0,0,41.8,26l-.9.9-.9-.5a3.7,3.7,0,0,0-1.8-.5H36.5c-.6.2-.6.2-1.1-.2a7.2,7.2,0,0,0-4.2-1.3,5.9,5.9,0,0,0-3.2.8,5.8,5.8,0,0,0-2.5,2.4l-.3.6-.8-.3a7.4,7.4,0,0,0-4.6.6,5.7,5.7,0,0,0-3,6.8l.2.8-.3,1.2c-.2.7-.6,1.7-.8,2.3l-.4,1.1h-1A15.8,15.8,0,0,0,4.3,45.7,14.7,14.7,0,0,0,.2,53.6a18.2,18.2,0,0,0,0,5.7,17.2,17.2,0,0,0,2.7,6.2,30,30,0,0,0,3,3.2l.5.4-.6,2.2-.7,2.1.2.6a2.8,2.8,0,0,0,.8,1.2c.6.5.6.6.5.9a2.4,2.4,0,0,0,.2,1.6c1.3,2.7,9.8,6.7,17.9,8.4a22.7,22.7,0,0,0,5.4.6,7.3,7.3,0,0,0,2.5-.2c.7-.3,1.5-.8,1.6-1.4s.2-.4.8-.4l1.2-.4a1.8,1.8,0,0,0,1-.9c.2-.6,1.6-4.7,4.8-14.7l2.2-6.8h.3a.5.5,0,0,1,.4.3l.7.8.5.5,1.8,13.3c1.3,9.4,1.9,13.3,2,13.6a3.5,3.5,0,0,0,1.9,1.3c.6.2.6.2.6.6s1.5,2,4.2,2.4a43.9,43.9,0,0,0,8.9,0c6.8-.7,13-2.5,15-4.4a2.2,2.2,0,0,0,1-1.9c0-.5.1-.6.4-.8a3.3,3.3,0,0,0,1.4-1.5c.3-.4.2-.5,0-2.5s-.3-2.1-.3-2.2l.6-.5a17.4,17.4,0,0,0,3.7-2.7,15.7,15.7,0,0,0,0-22.1,16,16,0,0,0-8.1-4.3c-.3-.1-.3,0-.7-2.8L78.2,47l.4-.8a5.3,5.3,0,0,0,.6-3.1,3.4,3.4,0,0,0-.6-2,6.5,6.5,0,0,0-6.1-3.6h-1l-.3-.8A6,6,0,0,0,67.1,33a7.5,7.5,0,0,0-5.5.4l-.4.3-.7-.4a4.2,4.2,0,0,0-1.8-.3,5.6,5.6,0,0,0-2,.2l-.7.3-.4-.6a6.3,6.3,0,0,0-1.1-1.5c-.8-.7-.8-.8-.9-1.4a6.5,6.5,0,0,0-2.4-4.3A7.7,7.7,0,0,0,45.1,24.1Zm3.8,2a5.5,5.5,0,0,1,2.7,2.5,3.1,3.1,0,0,1,.4,2,3.2,3.2,0,0,1-.3,1.8,3.9,3.9,0,0,1-1.2,1.4c-1.1,1-1.1,1-.1,2.1a5.1,5.1,0,0,1,1.1,1.6,2.3,2.3,0,0,1,.4,1.7,3.8,3.8,0,0,1-.8,2.6l-.3.4-.6-.3a2.1,2.1,0,0,0-1.4-.3,2.4,2.4,0,0,0-2.2.8c-1.4,1.3-1.4,3.6,0,3.2s.5-.5.5-1.1.9-1.4,1.6-1.5a2.2,2.2,0,0,1,1.5,1,1.4,1.4,0,0,1,.1,1.1,2.8,2.8,0,0,1-1.2,1.8c-.5.4-.7.7-.7.8s.1.6.1,1a3.3,3.3,0,0,1-.2,1.6l-.3.9.3.5a3.5,3.5,0,0,1,.5.8c.6,1.4-.4,2.7-2.1,2.7s-.7.1-1.3.8a2.1,2.1,0,0,1-1.8.8,2.5,2.5,0,0,1-2-.9,1.9,1.9,0,0,1-.5-1.4,2.1,2.1,0,0,1,.6-1.5,2.7,2.7,0,0,0,.4-.7,3,3,0,0,0-.7-.9,3.9,3.9,0,0,1-1.2-3.9l.2-.7-.4-.2a13.5,13.5,0,0,1-1.7-1.7c-.1-.3-.2-.3-.9-.2a3.6,3.6,0,0,1-2.6-.4l-.9-.3-.3.3-1,.7a2.9,2.9,0,0,1-1.6.3,4.1,4.1,0,0,1-2.6-1.1,3.6,3.6,0,0,1-.9-2q0-1.1-.6-1.2l-1-.2A3.6,3.6,0,0,1,24,39.6l-.6-.7c0-.1-.5-.3-1.2-.5a5.1,5.1,0,0,1-4.1-4.1,4.2,4.2,0,0,1,2.7-4.5,5.3,5.3,0,0,1,3.5-.1,3.4,3.4,0,0,1,1.9,2.8.7.7,0,0,0,1.3.4c.2-.2.3-.3.2-.8a6.3,6.3,0,0,0-.8-2.3c-.4-.5-.4-.6-.3-.9A4.5,4.5,0,0,1,28.1,27a5.5,5.5,0,0,1,4.1-.9A7.4,7.4,0,0,1,35,27.5l.6.6.6-.3a3.5,3.5,0,0,1,3.7.4c.9.7,1.2.8,1.4.8s.5-.3.9-.9a4.6,4.6,0,0,1,1.9-2,5.7,5.7,0,0,1,2.7-.5A3.6,3.6,0,0,1,48.9,26.1Zm5.2,7.1.5,1.2c.2.7.3.9.6,1s.3.2.7,0a3.8,3.8,0,0,1,2.5-.9,3.7,3.7,0,0,1,2.4.8l.3.2.6-.3c3.1-2,7.3-.7,8.1,2.5l.2.6-.6.7c-1.4,1.4-1.6,3.2-.5,3.2s.7-.3.9-1a3.2,3.2,0,0,1,1.9-1.9,4.9,4.9,0,0,1,4.8,1.4,4.1,4.1,0,0,1-.2,5.9,5.7,5.7,0,0,1-4.2,1.7,1.2,1.2,0,0,0-1.2.5,3.9,3.9,0,0,1-2.7,1.1c-1.2.1-1.3.1-1.5,1a3.4,3.4,0,0,1-3.3,2.6,3.2,3.2,0,0,1-2.9-1.1l-.8-.7-.6.2a5.3,5.3,0,0,1-2.8-.1l-.7-.2-.6.5a4.7,4.7,0,0,1-1.2.9l-.7.2v1a3.7,3.7,0,0,1-.2,1.6,3.7,3.7,0,0,1-1.7,1.8l-.7.6c-.2.3-.2.7.2,1.2a2,2,0,0,1-.2,2.5,2.5,2.5,0,0,1-2.2.8,2.2,2.2,0,0,1-2-1.2,1.5,1.5,0,0,0-1.2-1h-.4c0-.1.2-.6.4-1.2s.4-1.1.6-1.2l.7-.7a3,3,0,0,1,1.1-.6,3.5,3.5,0,0,0,2.7-5.1c-.4-.6-.4-.7-.3-1a4.1,4.1,0,0,0,.2-1.4c.1-1,.1-1,.5-1.5a4.7,4.7,0,0,0,1.2-2.2,3,3,0,0,0,.1-1.3c-.2-.7-.2-.7.2-1.1a6.7,6.7,0,0,0,.7-1.1c.5-.8.9-1,2.4-1s1.1,0,1.2-.2a.8.8,0,0,0,0-1.1,4.5,4.5,0,0,0-2.2-.3h-.6v-.7a6.7,6.7,0,0,0-1.6-3.6c-.1-.2-.1-.3.4-.9a8.3,8.3,0,0,0,.8-1.2c.3-.6.3-.6.5-.4ZM20,39.3l.7.4-.2,1c-.3.8-.4.9-.6.8l-1.5-.3c-.8-.2-1.2-.3-1.2-.4s.8-2.6.9-2.8l.7.4Zm3,1.5.5.6L18.6,56.6c-4,12.5-5,15.3-5.1,15.3l-.7-.2c-.8-.1-.8-.3.1-1A3.2,3.2,0,0,0,14,67.1l-.2-.6L16.9,57c1.6-5.2,3.1-9.6,3.1-9.6s.2-.1.4-.2A3.1,3.1,0,0,0,21.8,46a13,13,0,0,0,.3-1.3,2.5,2.5,0,0,0-.3-1.5l-.3-.6.3-1c.3-1.1.5-1.4.6-1.4Zm2.1,1.3c.7.3.8.4.9.7a9.4,9.4,0,0,1,.3.9,4.1,4.1,0,0,1,.2.7c0,.2-3,9.6-7.6,23.7a36.8,36.8,0,0,1-1.6,4.5L14.6,72c-.1,0,2.1-6.8,4.7-15.1l4.9-15Zm-7.5.6c1.9.3,2.7.7,2.9,1.5a1.1,1.1,0,0,1,0,.8c-.4.9-1,1-2.9.6a12.1,12.1,0,0,0-5-.1,11.2,11.2,0,0,0-8.2,8.1,12.3,12.3,0,0,0,0,5.4,10.4,10.4,0,0,0,2.8,5,11.4,11.4,0,0,0,3.4,2.4c1.7.9,2,1.2,2,1.9a1.4,1.4,0,0,1-1.4,1.4,11.8,11.8,0,0,1-3.4-1.6,17.6,17.6,0,0,1-3.9-3.8,14,14,0,0,1,0-15.7,14.5,14.5,0,0,1,9.5-6A19.7,19.7,0,0,1,17.6,42.7Zm10.8,3.4a5.8,5.8,0,0,0,2.1.8c.3,0,.5.1.5.2s-.1.3-5,15.7c-2,6.1-3.6,11.1-3.7,11.2L21,73.7l-1.6-.5H19c0-.1,7.5-23.2,8.2-25.5l.7-1.7Zm6.6,0,1,.2.4.2a6.6,6.6,0,0,1-.3,1.3l-.4,1.1H34.6a3.7,3.7,0,0,0-1.7.3,4.3,4.3,0,0,0-1.7,6.4A5.1,5.1,0,0,0,33,57c0,.1-.4,1.6-1.2,4.1l-1.3,4.1-.6.5a2.7,2.7,0,0,0-1,3l.2.6-1,3.2A28.2,28.2,0,0,1,27,75.7l-1.3-.4-1.9-.7c-.6-.2-.7-.2-.6-.4s2-6.4,4.4-13.8l4.3-13.5.7-.2a2.8,2.8,0,0,0,1.1-.5l.5-.3ZM16.9,47l1.3.4s-1.1,3.8-2.8,9c-2.9,9-2.9,9-3.2,9a10.3,10.3,0,0,1-2.4-1.3c-.1-.1,5.3-16.9,5.4-17.2S15.7,46.8,16.9,47Zm-3.4.1-1.7,5.5C9,61.1,8.4,62.9,8.3,62.9a11.1,11.1,0,0,1-1.7-2.3,8.7,8.7,0,0,1-.9-4,7.8,7.8,0,0,1,.7-4.1,10.1,10.1,0,0,1,6.2-5.4C13.6,46.9,13.6,46.9,13.5,47.1Zm25,.3a8.5,8.5,0,0,1-.4,2.9v.3l-.4-.4-.5-.5.3-.8c.5-1.7.6-1.9.8-1.8S38.5,47.3,38.5,47.4Zm38.4,1.2a6.9,6.9,0,0,0,.2,1.6v1.4H75c-1,.1-.9.2-1.1-1.2v-.7l.7-.2,1.4-.7C76.8,48.3,76.8,48.3,76.9,48.6Zm-4.5,2.6.2,1.3-.4.4a4.7,4.7,0,0,0-.5,1,3.6,3.6,0,0,0,.2,2.3,3,3,0,0,0,1.3,1.2s.7,4.6,1.5,10.1c1.2,8.8,1.4,10.1,1.2,10.3a3.2,3.2,0,0,0-.5,1.9,3,3,0,0,0,.9,2.3,1.5,1.5,0,0,1,.5.6v.3H75.3v-.4c0-.2-1-7.4-2.2-16-2-14.2-2.2-15.7-2-15.8l.7-.5.5-.3Zm-37-.6a2.7,2.7,0,0,1,1.8,2.5,2.5,2.5,0,0,1-1.5,2.4,2.6,2.6,0,0,1-2.9-.4,2.7,2.7,0,0,1,1-4.5A2.2,2.2,0,0,1,35.4,50.6Zm4,.7a4.5,4.5,0,0,0,.6.9c.1.2.1.3-.2.8a3.9,3.9,0,0,0,0,3l.3.7-.3.9-.3.8h-.7a4,4,0,0,0-2.2.6l-.5.3V59a5,5,0,0,0,.4-1.3,3.8,3.8,0,0,1,.9-1.5,4.4,4.4,0,0,0,1.3-4,2,2,0,0,1,0-1.1c.1-.3.1-.5.2-.5ZM72.2,66.8l2.2,15.8c.1.3,0,.3-1.5.3H71.3s-.9-6.7-2.1-14.8l-2-14.8.3-.5L68,52c.2-.5.2-.5.9-.6l1-.2C70.1,51.2,70.2,51.9,72.2,66.8Zm6.1-13.5a14.8,14.8,0,0,1,4.2,1.4,14,14,0,0,1,5.3,20.5,15.4,15.4,0,0,1-3.6,3.6,13,13,0,0,1-4.8,2.1c-1.2.3-1.7.3-2.1-.2a1.4,1.4,0,0,1-.1-1.9c.2-.3.5-.5,2-.8a11.6,11.6,0,0,0,7.4-5.9,9,9,0,0,0,1.1-5,8.5,8.5,0,0,0-1.1-4.8,10.7,10.7,0,0,0-5.7-5.4,9.9,9.9,0,0,0-4.7-.8c-2,0-2.3-.1-2.7-.5a.9.9,0,0,1-.3-.8,1.4,1.4,0,0,1,1.4-1.5A15.2,15.2,0,0,1,78.3,53.3ZM60.9,54.6c.6.3.6.3.7.9s.9,6.7,1.9,14.3,1.9,13.8,1.9,13.8l-1.6.3-2.1.4h-.5l-1.3-9.7L58.5,65h.3a3.8,3.8,0,0,0,1.3-1.6,2.9,2.9,0,0,0-1.9-3.7c-.3,0-.4-.1-.4-.2s-.2-1.3-.4-2.9a26.3,26.3,0,0,1-.4-2.8c0-.1.3-.1.8-.1h1.1a1,1,0,0,1,.9.4Zm-5.1,2.3c.4,2.3.4,2.9.3,2.9l-.5.4-.4.3v-.4c0-.2-.2-1.3-.3-2.3s-.3-1.9-.1-2.8.4-1.1.6-1A14,14,0,0,1,55.8,56.9Zm10-2.2,2,14.1c1,7.7,1.9,14.1,1.9,14.2l-1.7.3-1.8.2c0-.1-.9-6.3-1.9-13.9s-1.9-14-1.9-14.2v-.3h.8a6.2,6.2,0,0,0,2.2-.4C65.6,54.5,65.8,54.5,65.8,54.7ZM35.5,58.2c-.5,1.7-2.2,7.1-2.3,7.2s-1-.4-1-.5.6-1.8,1.3-3.8l1.1-3.7h1.2Zm18.7,1.6c.2,1.3.4,2.6.4,2.8s.3,1.8.5,3.3.4,2.9.4,2.9H52.4s-.2-1.3-.4-2.9l-.4-2.9.3-.5a3.7,3.7,0,0,0,.5-3.4c-.1-.3-.1-.4.2-.7a4.2,4.2,0,0,0,1.2-1.2h.1S54,58.4,54.2,59.8ZM78,57.7c.1.1,2.6,18.1,2.5,18.2s-3,1-3,.7S75.1,58.5,75,58s0-.3.3-.3A11.9,11.9,0,0,1,78,57.7Zm-34.8.7c.5,0,.8-1-3.6,12.5l-3.1,9.8c-.1.2-.1.1-.4,0l-1.6-1.2c0-.1,4.4-13.9,4.5-14l.5-.2a3.5,3.5,0,0,0,1.7-5.6l-.3-.3.3-.8.2-.7.8.2Zm37.3,0a10.6,10.6,0,0,1,4.6,4.3,7.2,7.2,0,0,1,1,4.1,8.2,8.2,0,0,1-1.6,5.7A11.7,11.7,0,0,1,82.2,75c-.1,0-.1-.2-.2-.4s-2.2-16.1-2.2-16.3S79.8,58.1,80.5,58.4ZM39.4,60.2a1.8,1.8,0,0,1,1,1.6,1.6,1.6,0,0,1-.7,1.6,2,2,0,0,1-3.1-.7,5.6,5.6,0,0,1-.1-.7A2,2,0,0,1,39.4,60.2Zm18.9,1.3a1.1,1.1,0,0,1,.4.9,1,1,0,0,1-.4.8,1.1,1.1,0,0,1-.9.4c-.4,0-.5-.1-.8-.4a.8.8,0,0,1-.4-.8.9.9,0,0,1,.4-.9c.3-.3.4-.4.8-.4A1.1,1.1,0,0,1,58.3,61.5ZM35.9,64.4l.8.6c.5.3.6.4.6.6s-3.7,11.2-4,12.1-.3.8-.4.7l-1.4-.7-1.2-.6.7-2.2c.4-1.3.9-2.7,1.1-3.3s.3-1,.6-1.1A5.4,5.4,0,0,0,34.2,69a3.3,3.3,0,0,0,0-2.4l-.3-.6.4-1.3c.7-2.2.6-2.1,1-1.2ZM50.5,67l.4,3-.2.4a3.9,3.9,0,0,0-.9,2.2,4.7,4.7,0,0,0,1.8,4.1c.2.1.3.5.9,4.7a45,45,0,0,0,.7,4.9c0,.3-.1.4-1.1.9l-1.1.6s-.7-5.1-1.6-11.4S47.8,65,47.8,64.7v-.4H50A14,14,0,0,1,50.5,67Zm6.1-1.9c.1,0,.3,0,.3.1s.7,4.6.7,5a1.4,1.4,0,0,1-.6-.5l-.7-.5-.2-2c-.2-1.1-.3-2.1-.4-2.3v-.3l.4.2ZM32.3,66.8a1.2,1.2,0,0,1,.1,2,1.2,1.2,0,1,1-1.3-2.1A1,1,0,0,1,32.3,66.8ZM8.9,70.5l1.3.5.4.3a17.2,17.2,0,0,1-3.2.2c-.1,0,0-.3.4-1.4h.1Zm46.6.1a2.8,2.8,0,1,1-3.9,3.7,3.6,3.6,0,0,1,0-2.5A2.9,2.9,0,0,1,55.5,70.6Zm-24.4,0h.4l-1.9,6c-.1.1-.9-.2-1-.3l.9-3c.6-2,1-3,1.1-2.9ZM9.8,73c.2.1.2.2,0,.9l-.3.7H8.1a4,4,0,0,1-1.3-1.3c0-.2.4-.4,1.2-.5Zm4.8.7,2.3.5c.1,0,0,.2-.1.6l-.2.5L14.9,75l-2.6-.3c-1.1-.1-1.1-.1-.8-1S11.3,73,14.6,73.7Zm5.9,1.4,6,2.1c0,.1-.1,1-.3,1.1s-.6-.1-1.3-.4a61.6,61.6,0,0,0-6.1-2c-.3-.1-.6-.2-.6-.3a1.9,1.9,0,0,1,.4-1ZM59,79.9l.6,4.7h-.2l-.6.2h-.3l-.6-4.4-.6-4.3.3-.4.5-.7c.2-.4.2-.4.2-.1S58.6,77.4,59,79.9ZM13.9,76.5c1.6.2,2.2.3,2.2.5a10.4,10.4,0,0,1-.6,1.6c-.1.2-.9-.2-3-1.2s-1.9-1-1.8-1.2S11.4,76.1,13.9,76.5Zm42.7.4c0,.2,1,7.6,1.1,8s0,.3-.4.4l-1.5.5-1.1.3c0-.1-1.1-8.3-1.1-8.5h.6a4.8,4.8,0,0,0,2.1-.6C56.4,76.7,56.6,76.8,56.6,76.9Zm-47.4.6c5.5,3.2,15,6.3,22.2,7.2,1.2.1,1.2.1.9.3a16.8,16.8,0,0,1-4.1.1A57.2,57.2,0,0,1,22.5,84c-1.9-.5-5.9-1.9-7.1-2.4a27.8,27.8,0,0,1-6.5-3.8c-.5-.5-.9-.9-.7-.9Zm10.9.4c3.7,1.2,5.7,1.9,5.6,2.1s-.2.5-.3,1a7.8,7.8,0,0,0-.3.9c-.1.1-7.9-2.3-8.1-2.5a14.3,14.3,0,0,1,.8-2.2Zm10.1,1L32.3,80c.2.1.2.2,0,.8s-.2.7-.3.7l-1.1-.7-2.1-1.2L27.7,79l.2-.6.2-.5Zm-1.8,2.3a13.2,13.2,0,0,1,2,1.2c1.2.7,1.1.7-1.3.3L27,82.4l-.3-.2a8.1,8.1,0,0,1,.2-.9l.3-.7Zm6.7.7a2.6,2.6,0,0,1,.6.8c0,.2-.4.4-1.4.5s-.5,0-.7-.2-.2-.4.1-1.2S34,80.8,35.1,81.9Zm46.5.9v.7h-.9l-1.6-.3c-.9-.1-.9-.3.1-.5l1.4-.4.7-.2C81.4,82,81.5,82.3,81.6,82.8ZM77,84.5a3.8,3.8,0,0,1,.1.8V86H71.6v-1c0-.1.1-.2,1.3-.2Zm3,.3,1.5.5c.4.2.5.3.3.4a4.5,4.5,0,0,1-1,.9l-.5.2-.7-.3c-.8-.2-.8-.2-.9-1.4S78.6,84.5,80,84.8ZM70,85c.1.7.1.9-.1.9a64.1,64.1,0,0,0-7.2,1c-.5.1-1,.2-1.1.1a2,2,0,0,1-.1-.5c0-.5,0-.6.3-.6a66.3,66.3,0,0,1,7.6-1.1C69.8,84.7,69.9,84.8,70,85ZM59.9,86.5a1.5,1.5,0,0,0,.1.6v.4l-.8.2L55.8,89l-.6.3v-.4c0-.2-.1-.5-.1-.8v-.4l.7-.2,3.6-1.1C59.7,86.3,59.9,86.3,59.9,86.5Zm17.2,1c.6.2.5.4-.3.7a32.5,32.5,0,0,1-4.6,1.1l-.2-1v-1h5.2Zm-6.6,1a10.5,10.5,0,0,0,.1,1.2c-.2.1-5.5.9-7.4,1H62.1v-.6c0-.3-.1-.8-.1-1v-.5l.6-.2c1.8-.4,6-1,7.3-1.1h.5Zm-17,.3c0,.3.1.7.1.9a.8.8,0,0,1-.1.7h-.9c-.6-.1-1.3-.5-1.3-.7a5.4,5.4,0,0,1,2.1-1.3A1,1,0,0,1,53.5,88.8Zm26,.4c-1.7,1.5-7.2,3.2-12.7,3.9s-9.8.5-12-.3-.9-.5.3-.4a60.3,60.3,0,0,0,7.3-.1,64.7,64.7,0,0,0,15.7-2.9l1.6-.6C80,88.6,79.9,88.9,79.5,89.2Zm-19.1,1v.6h-5l.9-.4,2.3-.8,1.5-.5v.2C60.3,89.5,60.4,89.9,60.4,90.2Z" fill="#20c7e2"/>
        <path d="M39.4,33c-.1.2-.3.4-.3.6s.4.7,1.3.8a3.1,3.1,0,0,1,3,3.3c.1.7.1.9.3,1a.6.6,0,0,0,.9-.1c.4-.2.4-.3.3-1.3a3.7,3.7,0,0,0-.4-1.8,4.7,4.7,0,0,0-2.2-2.2,3.5,3.5,0,0,0-1.7-.4C39.7,32.8,39.6,32.8,39.4,33Z" fill="#20c7e2"/>
        <path d="M33.6,35.9l-1.1.4c-1,.5-2.4,2.1-2.4,2.7a.8.8,0,0,0,.7.8c.3,0,.4-.1.7-.5a4.8,4.8,0,0,1,2.1-1.7,2.7,2.7,0,0,1,1.6-.4,3.9,3.9,0,0,1,2.6.9c.6.4.9.4,1.2.1s.3-.9-.2-1.3a5,5,0,0,0-1.8-1A6.5,6.5,0,0,0,33.6,35.9Z" fill="#20c7e2"/>
        <path d="M57.6,43.2c-.8.3-1.7.7-1.8,1.1a.9.9,0,0,0,.5,1l.9-.2a4.3,4.3,0,0,1,4,0,5.5,5.5,0,0,1,1.9,2.1c.4.8.7,1,1.2.7s-.5-3.2-2.4-4.2A7.2,7.2,0,0,0,57.6,43.2Z" fill="#20c7e2"/>
        <path d="M59,24.1a3.6,3.6,0,0,0-2.2,1.8,3.7,3.7,0,0,0,.1,2.9,2.8,2.8,0,0,0,1.5,1.5,2.2,2.2,0,0,0,1.5.3,2,2,0,0,0,1.4-.3,3.3,3.3,0,0,0,1.6-1.5,3.1,3.1,0,0,0,.3-1.5,3.3,3.3,0,0,0-.3-1.5A3.4,3.4,0,0,0,60,24Zm1.5,1.2a2.3,2.3,0,0,1,1.3,1.1,2.8,2.8,0,0,1,0,1.8,3.6,3.6,0,0,1-1,1.1H58.9a3.6,3.6,0,0,1-1-1.1,2.8,2.8,0,0,1,0-1.8,2.8,2.8,0,0,1,1.3-1.1A1.5,1.5,0,0,1,60.5,25.3Z" fill="#20c7e2"/>
        <path d="M81.9,24.9l-5.6.7a.9.9,0,0,0-.7.9c.1.1.2.3.4.4s.8.1,6.1-.5,5.8-.6,6.1-.9a1.7,1.7,0,0,0,.2-.5c0-.3-.5-.7-.8-.7Z" fill="#20c7e2"/>
      </g>
    </g>
  </g>
</svg>
