<svg xmlns="http://www.w3.org/2000/svg" viewBox="0 0 81.2 86.7">
  <title>Asset 15</title>
  <g id="Layer_2" data-name="Layer 2">
    <g id="sol">
      <g>
        <path d="M38,7.4a5,5,0,0,0-4.2-2.5,1.6,1.6,0,0,0-1.2-.1l-1.2.4a21.2,21.2,0,0,0-6.8,3.7A21.6,21.6,0,0,0,19.7,14a20.9,20.9,0,0,0-3.5-7C13.6,3.5,9.1-.9,4.4.2,1.8.8.7,2.9.4,5.3a43.9,43.9,0,0,0-.3,8.9A66.4,66.4,0,0,0,3.7,31.8a185.5,185.5,0,0,0,7.9,19c.8,1.9,3.3.8,3.5-.9a1.5,1.5,0,0,0,1.3-.2A65.3,65.3,0,0,0,36.4,24C38.5,19.1,41.2,12.4,38,7.4ZM24.6,17.9a57,57,0,0,1,4.2-5.5l.9-1.1c-2.6,6.6-6.8,12.4-9.9,18.7V27.9a1.7,1.7,0,0,0-.5-1.2A71.5,71.5,0,0,1,24.6,17.9ZM8.6,9.4h0l.9,1.3.6.9a1.5,1.5,0,0,0-.4,1.1l.3,5.9c0-.2-.1-.4-.1-.6a65.1,65.1,0,0,1-1.3-7.7A3.3,3.3,0,0,1,8.6,9.4ZM20,41.5Zm2.4-7a76.1,76.1,0,0,1,6.1-9.1C26.6,28.6,24.5,31.6,22.4,34.5ZM35.6,13.1a1.8,1.8,0,0,0-1.7.5L32,15.5A46,46,0,0,0,34.5,9l.7,1.1A7.8,7.8,0,0,1,35.6,13.1ZM15.9,14.5a40.8,40.8,0,0,0-3.2-5.8A18.3,18.3,0,0,1,15.9,14.5ZM4.2,5.8c.1-.7.1-1.6,1-1.9a4.2,4.2,0,0,1,2.2.3,3.3,3.3,0,0,0-1.8,1C3.9,7,4.7,10.5,5,12.8c.9,6.3,2.5,12.7,3.8,19,.4,1.8.6,3.5.9,5.3a95.1,95.1,0,0,1-5-16.5A45.9,45.9,0,0,1,4.2,5.8Z" fill="#20c7e2"/>
        <path d="M76.4,39.3c-4.4-1.6-9.2.9-11.6,4.6a20.7,20.7,0,0,0-2.6,8.3c-.2,1.3-.4,2.6-.5,3.9a29.9,29.9,0,0,0-5.5-6.8C53.9,47.2,47.8,42,45,45.8s-1.4,10,.5,14.2A62,62,0,0,0,54,72.4,79.4,79.4,0,0,0,66.3,84v.2c-.7,2.5,3.3,3.6,4,1.1,3.1-11.2,8.9-21.6,10.6-33.2C81.6,47.5,81.7,41.3,76.4,39.3ZM64.5,63.9h0ZM55.8,58a14.2,14.2,0,0,0,.5,1.6l-2.1-3.3Zm11,20.1.7,1.6-1.9-1.5A2.5,2.5,0,0,0,66.8,78.1Zm7.7-35c2.6.6,2.7,3.7,2.6,5.9h0a1.8,1.8,0,0,0-1.3,1A67.3,67.3,0,0,0,72,58.2c.4-4.6,1.1-9.2,1.9-13.8a2.2,2.2,0,0,0-.2-1.4ZM67.4,48A59.4,59.4,0,0,0,66,55.1l-.3,1.8c.2-1.3.3-2.6.5-3.8A29.1,29.1,0,0,1,67.4,48ZM57.3,69.9c-3.2-3.7-6.5-8-8.4-12.6a12.9,12.9,0,0,1-1.2-3.8l.9,1.5c1.5,2.7,3.2,5.3,4.9,7.9,3.4,4.8,7,9.4,10.7,14A57,57,0,0,1,57.3,69.9Z" fill="#20c7e2"/>
      </g>
    </g>
  </g>
</svg>
