<svg xmlns="http://www.w3.org/2000/svg" viewBox="0 0 226.01 47.51"><defs><style>.cls-1,.cls-2{fill:#fff;}.cls-2{stroke:#fff;stroke-linecap:round;stroke-linejoin:round;}</style></defs><title>Asset 13</title><g id="Layer_2" data-name="Layer 2"><g id="Layer_1-2" data-name="Layer 1"><path class="cls-1" d="M72.86,11.16c-.74.07-1.59.6-2.2,2l-4.5,10.68H63.8l-4.87-11a2.55,2.55,0,0,0-1.69-1.7.67.67,0,0,1-.06-.28.82.82,0,0,1,.12-.43s1.73.18,3.64.18c1.54,0,3.29-.18,3.29-.18a.82.82,0,0,1,.12.43.67.67,0,0,1-.06.28c-.64,0-1.07.41-1.07.93a3.19,3.19,0,0,0,.27.86l3,7.12,2.67-6.55a3.59,3.59,0,0,0,.3-1.21c0-.54-.51-1-1.45-1.13a.6.6,0,0,1-.06-.27.82.82,0,0,1,.12-.43,23.57,23.57,0,0,0,2.78.17,14.44,14.44,0,0,0,2-.19.82.82,0,0,1,.12.43A.66.66,0,0,1,72.86,11.16Z"/><path class="cls-1" d="M78.65,23.86a28.53,28.53,0,0,0-3.06-.17,29.36,29.36,0,0,0-3.12.17.7.7,0,0,1-.12-.35.74.74,0,0,1,.08-.29,1.35,1.35,0,0,0,1.4-1.3,1.34,1.34,0,0,0,0-.2V16.89a1.33,1.33,0,0,0-1.18-1.46h-.22a1.07,1.07,0,0,1-.09-.43.73.73,0,0,1,.07-.29s1.39,0,2.34-.17a11.08,11.08,0,0,0,2.32-.7,1,1,0,0,1,.5.45,16.56,16.56,0,0,0-.15,2.22v5.18a1.32,1.32,0,0,0,1.11,1.49h.19a.75.75,0,0,1,.09.29A.72.72,0,0,1,78.65,23.86ZM75.39,13.05a1.64,1.64,0,0,1-1.78-1.51.92.92,0,0,1,0-.16A1.7,1.7,0,0,1,75.32,9.7h.07a1.65,1.65,0,0,1,1.77,1.51,1,1,0,0,1,0,.17,1.69,1.69,0,0,1-1.7,1.68Z"/><path class="cls-1" d="M88.22,17h-.56A2.28,2.28,0,0,0,85.83,16a3.35,3.35,0,0,0-1.39.34v5.38a1.32,1.32,0,0,0,1.12,1.48,1.22,1.22,0,0,0,.27,0,.74.74,0,0,1,.08.29.77.77,0,0,1-.12.36,29.51,29.51,0,0,0-3.12-.18,29.16,29.16,0,0,0-2.92.18.63.63,0,0,1,0-.65c.82-.1,1.17-.54,1.17-1.49V16.89a1.33,1.33,0,0,0-1.17-1.46h-.22a.94.94,0,0,1-.1-.43.6.6,0,0,1,.08-.29,12.87,12.87,0,0,0,1.75-.12,8.75,8.75,0,0,0,2.46-.69h.33a5.37,5.37,0,0,1,.47,1.71l2.22-1.44a3.78,3.78,0,0,1,1-.16,2.53,2.53,0,0,1,.94.18,2.21,2.21,0,0,1,.21,1A3,3,0,0,1,88.22,17Z"/><path class="cls-1" d="M98.73,15.51H97.34a3.36,3.36,0,0,1,.51,1.85c0,2.66-1.78,4.17-4.6,4.17-1.12,0-1.8.39-1.8.86,0,.31.39.51,1.82.56l2.08.1c2.4.12,3.32.92,3.32,2,0,2.35-2.63,3.64-5.57,3.64-2.65,0-3.89-.91-4.13-2.17a.42.42,0,0,1,0-.15,6,6,0,0,0,1.17-1,2.29,2.29,0,0,1-.86-1.93,1.75,1.75,0,0,1,.18-.78,4.71,4.71,0,0,0,1.65-1.32,3.49,3.49,0,0,1-2-3.19C89.2,15.68,91,14,93.72,14a4.79,4.79,0,0,1,2.92.78,7.81,7.81,0,0,0,1.91-.51,1.13,1.13,0,0,1,.29.7A1.55,1.55,0,0,1,98.73,15.51ZM94.64,26l-2-.14a5.62,5.62,0,0,1-1.77-.3,3.32,3.32,0,0,0-.06.44c0,1,1.09,1.8,2.73,1.8s2.61-.52,2.61-1.08c0-.39-.41-.65-1.46-.72ZM93.08,15c-.55,0-.94.66-.94,1.8,0,2,.88,3.71,1.89,3.71.55,0,.94-.7.94-1.79C95,16.68,94.09,15,93.08,15Z"/><path class="cls-1" d="M105.55,23.86a28.57,28.57,0,0,0-3.07-.17,29.32,29.32,0,0,0-3.11.17.7.7,0,0,1-.12-.35.6.6,0,0,1,.08-.29,1.36,1.36,0,0,0,1.4-1.29,1.48,1.48,0,0,0,0-.21V16.89a1.32,1.32,0,0,0-1.16-1.46h-.23a.94.94,0,0,1-.1-.43.6.6,0,0,1,.08-.29s1.39,0,2.33-.17a10.9,10.9,0,0,0,2.32-.7,1,1,0,0,1,.51.45,15.07,15.07,0,0,0-.16,2.22v5.18a1.32,1.32,0,0,0,1.11,1.49h.2a.63.63,0,0,1,0,.65Zm-3.26-10.81a1.65,1.65,0,0,1-1.79-1.52.75.75,0,0,1,0-.15,1.7,1.7,0,0,1,1.72-1.68h.07A1.64,1.64,0,0,1,104,11.23a.76.76,0,0,1,0,.15,1.7,1.7,0,0,1-1.71,1.68Z"/><path class="cls-1" d="M118.89,23.86a18.14,18.14,0,0,0-2.33-.18,15.6,15.6,0,0,0-2,.17s-.56-.37-.56-2.18V17.26a1.17,1.17,0,0,0-1-1.32,1.29,1.29,0,0,0-.28,0,2.69,2.69,0,0,0-1.32.41v5.38c0,1,.35,1.39,1.17,1.5a.74.74,0,0,1,.08.29.7.7,0,0,1-.12.35,27.47,27.47,0,0,0-2.87-.18c-1.39,0-2.92.17-2.92.17a.77.77,0,0,1-.12-.35.74.74,0,0,1,.08-.3c.82-.09,1.17-.54,1.17-1.49V16.89a1.32,1.32,0,0,0-1.17-1.46h-.22a1.08,1.08,0,0,1-.1-.43.74.74,0,0,1,.08-.29,12.76,12.76,0,0,0,1.75-.12,8.75,8.75,0,0,0,2.46-.69h.33a5.37,5.37,0,0,1,.47,1.71l2.22-1.44a3.86,3.86,0,0,1,1-.16c1.83,0,3,1.05,3,2.6v4.87c0,1.22.33,1.65,1.39,1.77a.61.61,0,0,1,0,.64Z"/><path class="cls-1" d="M125.74,23.86a28.2,28.2,0,0,0-3-.17,29.36,29.36,0,0,0-3.12.17.7.7,0,0,1-.12-.35.6.6,0,0,1,.08-.29,1.36,1.36,0,0,0,1.4-1.29,1.48,1.48,0,0,0,0-.21V16.89a1.33,1.33,0,0,0-1.17-1.46h-.22a.94.94,0,0,1-.1-.43.6.6,0,0,1,.08-.29s1.39,0,2.34-.17a11.08,11.08,0,0,0,2.32-.7,1,1,0,0,1,.5.45,16.57,16.57,0,0,0-.16,2.22v5.18a1.32,1.32,0,0,0,1.11,1.49h.2a.6.6,0,0,1,.08.29A.65.65,0,0,1,125.74,23.86Zm-3.25-10.81a1.66,1.66,0,0,1-1.76-1.56v-.11a1.71,1.71,0,0,1,1.73-1.68h.07a1.64,1.64,0,0,1,1.76,1.51v.17a1.68,1.68,0,0,1-1.68,1.68Z"/><path class="cls-1" d="M136.57,23.24a12,12,0,0,0-1.58.21,10.37,10.37,0,0,0-1.93.7h-.21a2.34,2.34,0,0,1-.84-1.6l-2.18,1.39a2.32,2.32,0,0,1-.82.18,2.44,2.44,0,0,1-2.3-2.47A2.48,2.48,0,0,1,128.8,19c.93-.22,2.24-.49,3.11-.65v-1c0-.87-.43-1.33-1.59-1.33a7.64,7.64,0,0,0-2.79.57.7.7,0,0,1-.25-.7l2.84-1.57A5,5,0,0,1,131.7,14c2.51,0,3.8,1.35,3.8,3.36V21.5c0,.74.33,1.11,1,1.11a.63.63,0,0,1,.1.29A.79.79,0,0,1,136.57,23.24Zm-4.64-4.18c-1.67.37-2.25.7-2.25,1.72a1.27,1.27,0,0,0,1.22,1.33.83.83,0,0,0,.22,0,1.32,1.32,0,0,0,.81-.25Z"/><path class="cls-1" d="M157.68,22.77a8.73,8.73,0,0,0-4.34,1.39,14.67,14.67,0,0,1-2.82-1.93,6.19,6.19,0,0,1-4.25,1.93c-2.65,0-4.44-1.6-4.44-3.64s1.29-3.53,3.48-4.31a5.18,5.18,0,0,1-.7-2.36c0-2.08,2-3.7,5.08-3.7a2.72,2.72,0,0,1,2.94,2.36,2.09,2.09,0,0,1-.87,1.85,16.67,16.67,0,0,1-2.56,1.39,19.08,19.08,0,0,0,3,3.29,1.86,1.86,0,0,0,.34-1,1,1,0,0,0-.77-1.05.73.73,0,0,1-.08-.33.78.78,0,0,1,.12-.41,14.55,14.55,0,0,0,2.08.15,13.73,13.73,0,0,0,2.4-.22.74.74,0,0,1,.08.69,5.06,5.06,0,0,0-2.94,2c-.27.33-.54.74-.54.74,2.08,1.74,3.63,2.45,4.59,2.45h.19a.61.61,0,0,1,.08.3A.66.66,0,0,1,157.68,22.77ZM145.86,17.1a2.32,2.32,0,0,0-.7,1.76,3.14,3.14,0,0,0,2.94,3.37,2.49,2.49,0,0,0,1.68-.58A21.84,21.84,0,0,1,145.86,17.1Zm2.86-5.78a1,1,0,0,0-.93,1v0a5,5,0,0,0,.93,2.55A2.27,2.27,0,0,0,150,13a1.5,1.5,0,0,0-1.31-1.64Z"/><path class="cls-1" d="M178.27,23.86s-1.85-.17-3.37-.17-3.37.17-3.37.17a.82.82,0,0,1-.12-.43.66.66,0,0,1,.06-.27c1-.12,1.5-.58,1.5-1.77V17.61a24.15,24.15,0,0,0-5.1,0v3.78c0,1.19.46,1.65,1.5,1.77a.86.86,0,0,1,0,.27.73.73,0,0,1-.11.43s-1.85-.18-3.36-.18-3.37.17-3.37.17a.82.82,0,0,1-.12-.43.63.63,0,0,1,.06-.27c1-.12,1.5-.59,1.5-1.78V13c0-1.19-.47-1.66-1.5-1.78a.6.6,0,0,1-.06-.27.82.82,0,0,1,.12-.43s1.85.17,3.37.17,3.37-.17,3.37-.17a.92.92,0,0,1,.11.43.76.76,0,0,1-.05.27c-1,.12-1.51.59-1.51,1.78v3.33s1.19.13,2.56.13,2.55-.13,2.55-.13V13c0-1.19-.47-1.66-1.5-1.78a.6.6,0,0,1-.06-.27.89.89,0,0,1,.09-.45s1.85.17,3.37.17,3.37-.17,3.37-.17a.84.84,0,0,1,.06.7c-1,.12-1.51.59-1.51,1.78v8.45c0,1.19.47,1.65,1.51,1.77a.86.86,0,0,1,.05.27A.8.8,0,0,1,178.27,23.86Z"/><path class="cls-1" d="M189.29,23.24a11.84,11.84,0,0,0-1.57.21,10.21,10.21,0,0,0-1.94.7h-.2a2.3,2.3,0,0,1-.85-1.6l-2.17,1.39a2.32,2.32,0,0,1-.82.18,2.44,2.44,0,0,1-2.31-2.47A2.48,2.48,0,0,1,181.52,19c.93-.22,2.24-.49,3.12-.65v-1c0-.87-.43-1.33-1.6-1.33a7.64,7.64,0,0,0-2.79.57.7.7,0,0,1-.25-.7l2.84-1.57a5,5,0,0,1,1.58-.26c2.51,0,3.8,1.35,3.8,3.36V21.5c0,.74.33,1.11,1,1.11a.53.53,0,0,1,.1.29A.66.66,0,0,1,189.29,23.24Zm-4.63-4.18c-1.68.37-2.26.7-2.26,1.72a1.28,1.28,0,0,0,1.23,1.33.74.74,0,0,0,.21,0,1.49,1.49,0,0,0,.82-.25Z"/><path class="cls-1" d="M202.48,23.86a19.61,19.61,0,0,0-2.3-.17,15.6,15.6,0,0,0-2.05.17s-.56-.36-.56-2.18V17.26a1.17,1.17,0,0,0-1-1.32,1.29,1.29,0,0,0-.28,0,2.69,2.69,0,0,0-1.32.41v5.38c0,1,.35,1.39,1.17,1.5a.73.73,0,0,1,.07.29.61.61,0,0,1-.11.35c-1-.1-1.94-.16-2.92-.17-1.42,0-2.93.17-2.93.17a.61.61,0,0,1,0-.64c.82-.1,1.17-.55,1.17-1.5V16.89a1.33,1.33,0,0,0-1.18-1.46H190a.94.94,0,0,1-.1-.43.6.6,0,0,1,.08-.29,12.76,12.76,0,0,0,1.75-.12,8.69,8.69,0,0,0,2.45-.69h.3a5.36,5.36,0,0,1,.46,1.71l2.22-1.44a3.86,3.86,0,0,1,.95-.16c1.84,0,3,1.05,3,2.6v4.87c0,1.22.34,1.65,1.39,1.77a.66.66,0,0,1,.09.29A.63.63,0,0,1,202.48,23.86Z"/><path class="cls-1" d="M215.47,23.86a19.61,19.61,0,0,0-2.3-.17,15.45,15.45,0,0,0-2,.17s-.57-.36-.57-2.18V17.26a1.17,1.17,0,0,0-1-1.32,1.34,1.34,0,0,0-.28,0,2.73,2.73,0,0,0-1.33.41v5.38c0,1,.35,1.39,1.17,1.5a.6.6,0,0,1,.08.29.7.7,0,0,1-.12.35s-1.5-.17-2.92-.17-2.92.17-2.92.17a.7.7,0,0,1-.12-.35.6.6,0,0,1,.08-.29c.82-.1,1.16-.55,1.16-1.5V16.89a1.31,1.31,0,0,0-1.15-1.46H203a.92.92,0,0,1-.09-.43.59.59,0,0,1,.07-.29,13,13,0,0,0,1.76-.12,8.78,8.78,0,0,0,2.45-.69h.33a5.37,5.37,0,0,1,.47,1.71l2.22-1.44a3.86,3.86,0,0,1,.95-.16c1.83,0,3,1.05,3,2.6v4.87c0,1.22.34,1.65,1.39,1.77a.6.6,0,0,1,.08.29A.63.63,0,0,1,215.47,23.86Z"/><path class="cls-1" d="M226,23.24a12,12,0,0,0-1.58.21,10.37,10.37,0,0,0-1.93.7h-.21a2.31,2.31,0,0,1-.84-1.6l-2.18,1.39a2.32,2.32,0,0,1-.82.18,2.44,2.44,0,0,1-2.3-2.47A2.48,2.48,0,0,1,218.18,19c.94-.22,2.24-.49,3.12-.65v-1c0-.87-.43-1.33-1.6-1.33a7.8,7.8,0,0,0-2.78.57.7.7,0,0,1-.25-.7l2.84-1.56a4.71,4.71,0,0,1,1.58-.25c2.51,0,3.79,1.34,3.79,3.35v4.17c0,.74.33,1.12,1,1.12a.48.48,0,0,1,.1.29A.59.59,0,0,1,226,23.24Zm-4.64-4.18c-1.67.37-2.25.7-2.25,1.72a1.27,1.27,0,0,0,1.22,1.33.83.83,0,0,0,.22,0,1.32,1.32,0,0,0,.81-.25Z"/><path class="cls-1" d="M65.71,32.8v.12l-5.93,10.8H58.06l5.26-9.53H58.24V32.8Z"/><path class="cls-1" d="M70.88,37.18H69.2v6.54H67.75V37.18h-1.4V35.93h1.4V33H69.2v3h1.68Z"/><path class="cls-1" d="M79.69,39.22v4.5H78.23V39.3a1.91,1.91,0,0,0-1.7-2.08h-.19A2.23,2.23,0,0,0,74,39.27a2.08,2.08,0,0,0,0,.25v4.22H72.5V31.67H74v5.44a3,3,0,0,1,2.59-1.35C78.48,35.76,79.69,37,79.69,39.22Z"/><path class="cls-1" d="M85.91,40.43h1.5A2.38,2.38,0,0,0,90,42.52a2.07,2.07,0,0,0,2.33-2c0-1-1-1.62-2-1.88l-1.48-.41c-2.45-.57-2.83-2-2.83-3,0-2,1.79-3.25,3.79-3.25a3.37,3.37,0,0,1,3.64,3.34h-1.5a2,2,0,0,0-2.06-2h-.13a2,2,0,0,0-2.21,1.83c0,.41.13,1.24,1.66,1.61l1.51.36c1.94.49,3.11,1.56,3.11,3.2A3.53,3.53,0,0,1,90,43.88,3.79,3.79,0,0,1,85.91,40.43Z"/><path class="cls-1" d="M103.15,40.45H96.81a2.37,2.37,0,0,0,2.56,2.08,2.51,2.51,0,0,0,2.27-1.19l1.26.51a4.06,4.06,0,1,1-3.59-6.08,3.77,3.77,0,0,1,3.88,4C103.19,40,103.17,40.23,103.15,40.45Zm-1.39-1.25a2.27,2.27,0,0,0-2.42-2.09,2.3,2.3,0,0,0-2.48,2.09Z"/><path class="cls-1" d="M113.29,39.83a3.86,3.86,0,0,1-3.63,4.06h-.26a3.09,3.09,0,0,1-2.78-1.39v5h-1.46V35.93h1.46v1.23a3.17,3.17,0,0,1,2.78-1.39,3.87,3.87,0,0,1,3.89,3.87Zm-1.47,0a2.61,2.61,0,1,0-5.21-.27v.27a2.64,2.64,0,0,0,2.6,2.67h0A2.56,2.56,0,0,0,111.82,40v-.13Z"/><path class="cls-1" d="M118.89,37.18h-1.68v6.54h-1.45V37.18h-1.39V35.93h1.39V33h1.45v3h1.68Z"/><path class="cls-1" d="M119.76,42.89a1,1,0,0,1,1-1h0a1.06,1.06,0,0,1,1.09,1v0a1,1,0,0,1-1.07,1h0a1,1,0,0,1-1.06-1Z"/><path class="cls-1" d="M134.81,42.32v1.39h-6.87v-.65l4.12-5a4.51,4.51,0,0,0,1.14-2.22A1.8,1.8,0,0,0,131.46,34h-.23a1.88,1.88,0,0,0-2.08,1.65l-1.3-.28a3.16,3.16,0,0,1,3.38-2.78,3.13,3.13,0,0,1,3.43,3.22,5,5,0,0,1-1.27,2.78l-3,3.61Z"/><path class="cls-1" d="M136.73,38.28c0-3.1.81-5.62,4-5.62s4,2.52,4,5.62-.82,5.6-4,5.6S136.73,41.37,136.73,38.28Zm6.46,0c0-2.3-.5-4.23-2.5-4.23S138.2,36,138.2,38.28s.48,4.23,2.49,4.23,2.47-1.94,2.47-4.23Z"/><path class="cls-1" d="M149.84,32.67v11h-1.46V34.81l-2.32.95V34.37l3.73-1.67Z"/><path class="cls-1" d="M160.28,37.94c0,2.58-1,6-4.47,6a3.37,3.37,0,0,1-3.36-2.2l1.32-.54a2.17,2.17,0,0,0,2.09,1.39c1.67,0,2.93-1.86,2.85-4a3.1,3.1,0,0,1-2.6,1.34,3.62,3.62,0,0,1,.1-7.24C158.9,32.67,160.28,34.89,160.28,37.94Zm-1.62-1.55a2.32,2.32,0,0,0-2.33-2.32h0a2.27,2.27,0,0,0-2.43,2.11v.11a2.21,2.21,0,0,0,2.23,2.2h0A2.35,2.35,0,0,0,158.66,36.39Z"/><line class="cls-2" x1="20.81" y1="29.46" x2="20.81" y2="44.83"/><line class="cls-2" x1="13.91" y1="37.2" x2="27.45" y2="37.2"/><path class="cls-1" d="M26.13,5.76a12.33,12.33,0,1,1-8.31,3.31,9,9,0,0,1,2.05.86,10.34,10.34,0,1,0,14.52,1.76,10.81,10.81,0,0,0-.9-1,10.38,10.38,0,0,0-9.9-2.61,12.71,12.71,0,0,0-2-1.39A12.09,12.09,0,0,1,26.13,5.76Z"/><path class="cls-1" d="M15,5.87A12.31,12.31,0,0,1,27.45,18v0a12.35,12.35,0,0,1-3.9,9.09,8.85,8.85,0,0,1-2-.86,10.28,10.28,0,0,0,1.85-14.42,11.57,11.57,0,0,0-1-1.1A10.34,10.34,0,1,0,17.8,28.16a13.49,13.49,0,0,0,2,1.39A12.32,12.32,0,1,1,15,5.87Z"/><path class="cls-1" d="M1.18,3.18a.43.43,0,0,0,.05.6h0l2,1.7a.4.4,0,0,0,.31.1.47.47,0,0,0,.3-.14.45.45,0,0,0,0-.61l-2-1.69A.43.43,0,0,0,1.18,3.18Z"/><path class="cls-1" d="M5.17,1.78,5.1,4.32a.43.43,0,0,0,.43.43h0a.41.41,0,0,0,.4-.41L6,1.8a.42.42,0,0,0-.36-.49.42.42,0,0,0-.49.36.21.21,0,0,0,0,.11Z"/><path class="cls-1" d="M.5,8.17h0L3,7.72a.42.42,0,1,0-.15-.83h0L.35,7.33a.43.43,0,0,0,.15.84Z"/><path class="cls-1" d="M33.21.22a.43.43,0,0,0-.58.17h0L31.38,2.67a.42.42,0,0,0,0,.33.45.45,0,0,0,.21.26.44.44,0,0,0,.58-.17L33.37.8A.42.42,0,0,0,33.21.22Z"/><path class="cls-1" d="M35.41,3.82l-2.51.47a.42.42,0,0,0-.33.5h0a.43.43,0,0,0,.49.32l2.5-.46A.44.44,0,0,0,36,4.19a.43.43,0,0,0-.46-.4H35.4Z"/><path class="cls-1" d="M28.19.59h0L29.14,3a.43.43,0,0,0,.56.23.43.43,0,0,0,.23-.55h0L29,.27A.44.44,0,0,0,28.41,0a.44.44,0,0,0-.23.56Z"/></g></g></svg>