<svg xmlns="http://www.w3.org/2000/svg" viewBox="0 0 189.72 20"><defs><style>.cls-1{opacity:0.5;}.cls-2{fill:#0505cc;}</style></defs><title>Asset 26</title><g id="Layer_2" data-name="Layer 2"><g id="Layer_1-2" data-name="Layer 1"><g class="cls-1"><path class="cls-2" d="M4.64,15.21A10.67,10.67,0,0,1,.1,14.16a15.81,15.81,0,0,0,.1-1.69A9.39,9.39,0,0,0,0,10.72a1.09,1.09,0,0,1,.65-.25h.2a4.35,4.35,0,0,0,4.24,3.45,1.79,1.79,0,0,0,2-1.55c0-.85-.4-1.3-1.24-1.85L2.34,8.28A3.82,3.82,0,0,1,.25,5C.25,2.44,2.49.5,5.59.5a10.33,10.33,0,0,1,4.24.85,6.75,6.75,0,0,0-.1,1.19,10.25,10.25,0,0,0,.15,1.75,1,1,0,0,1-.5.2H9.13A3.8,3.8,0,0,0,5.54,1.75c-1.7,0-1.7.49-1.7,1.34s.6,1.4,1.8,2.1L8.18,6.68c1.6,1,2.44,2.25,2.44,3.44C10.62,13,8.13,15.21,4.64,15.21Z"/><path class="cls-2" d="M22.24,14.26a15,15,0,0,0-1.64.2,14.14,14.14,0,0,0-2,.75h-.25a2.43,2.43,0,0,1-.89-1.64l-2.3,1.49a2.45,2.45,0,0,1-.85.15,2.54,2.54,0,0,1-2.39-2.59,2.56,2.56,0,0,1,2.19-2.79c1.6-.35,2.35-.55,3.3-.7V8c0-1-.45-1.4-1.7-1.4a8,8,0,0,0-2.94.6.83.83,0,0,1-.25-.7l3-1.69a5.41,5.41,0,0,1,1.65-.25c2.64,0,4,1.4,4,3.49v4.39c0,.8.35,1.2,1.09,1.2a.41.41,0,0,1,.1.3A.59.59,0,0,1,22.24,14.26ZM17.41,9.88c-1.8.39-2.4.74-2.4,1.79a1.41,1.41,0,0,0,1.39,1.41h.16a1.62,1.62,0,0,0,.85-.25Z"/><path class="cls-2" d="M32,13.67l-3.24,1.54h-.4c-2.64,0-4-1.24-4-4.09V6.28H22.69a1.48,1.48,0,0,1-.15-.69,1.71,1.71,0,0,1,.1-.5,5.84,5.84,0,0,0,4.54-2.8,1.19,1.19,0,0,1,.95.4v2.4a9.78,9.78,0,0,0,3.34-.35,1.59,1.59,0,0,1,.25.85,2,2,0,0,1-.15.69H28.13v4.34c0,1.85.7,2.65,2.09,2.65a4.46,4.46,0,0,0,1.45-.4.59.59,0,0,1,.35.55A.74.74,0,0,1,32,13.67Z"/><path class="cls-2" d="M45,14.26a12.82,12.82,0,0,0-1.65.2,14.65,14.65,0,0,0-2,.75h-.2a2.44,2.44,0,0,1-.9-1.64l-2.39,1.49a4.24,4.24,0,0,1-1,.15c-2,0-3.19-1.1-3.19-2.69V7.73a1.4,1.4,0,0,0-1.24-1.54h-.21a1,1,0,0,1-.1-.44.73.73,0,0,1,.05-.3L34,5.29a15.22,15.22,0,0,0,2.75-.55h.35A5.42,5.42,0,0,1,37.46,7v4.79a1.2,1.2,0,0,0,1,1.35h.32a2.69,2.69,0,0,0,1.35-.4v-5c0-1-.5-1.55-1.3-1.55a1.13,1.13,0,0,1-.1-.44.45.45,0,0,1,.1-.3l1.8-.15a19.25,19.25,0,0,0,2.59-.55h.35A5.42,5.42,0,0,1,43.94,7v5.39c0,.8.35,1.2,1.1,1.2a.45.45,0,0,1,.1.3A.67.67,0,0,1,45,14.26Z"/><path class="cls-2" d="M55,7.68h-.6a2.44,2.44,0,0,0-1.94-.95,3.41,3.41,0,0,0-1.4.35v5.59a1.35,1.35,0,0,0,1.4,1.54.67.67,0,0,1,.1.3.59.59,0,0,1-.15.4,27.1,27.1,0,0,0-3.24-.2,29.15,29.15,0,0,0-3.1.2.7.7,0,0,1-.09-.4.65.65,0,0,1,.09-.3c.85-.1,1.2-.54,1.2-1.54V7.58A1.39,1.39,0,0,0,46,6h-.2a.75.75,0,0,1-.1-.44.94.94,0,0,1,0-.3s.94,0,1.84-.1a10.54,10.54,0,0,0,2.59-.75h.35a5.09,5.09,0,0,1,.5,1.79l2.3-1.54a4.16,4.16,0,0,1,1-.15,2.27,2.27,0,0,1,1,.2,2.12,2.12,0,0,1,.25,1A3.47,3.47,0,0,1,55,7.68Z"/><path class="cls-2" d="M68.23,14.26a13.83,13.83,0,0,0-1.7.2,14,14,0,0,0-2,.75h-.25a2.68,2.68,0,0,1-.85-1.64L61.2,15a2.92,2.92,0,0,1-1.05.2c-2.34,0-4.19-1.89-4.19-4.89s1.25-4.38,2.89-5.23a4.75,4.75,0,0,1,2-.55,4.69,4.69,0,0,1,2.44.5V3.14A1.4,1.4,0,0,0,62.11,1.6a1.13,1.13,0,0,0-.26,0,.8.8,0,0,1-.1-.45.54.54,0,0,1,.1-.3s.94,0,1.84-.1A10.54,10.54,0,0,0,66.28,0h.35a4.42,4.42,0,0,1,.45,2.34V12.42c0,.8.35,1.2,1.1,1.2a.45.45,0,0,1,.1.3A1.33,1.33,0,0,1,68.23,14.26Zm-4.89-7s-.55-1.59-1.84-1.59-1.65.94-1.65,3.44S60.9,13,62.24,13a1.72,1.72,0,0,0,1.1-.45Z"/><path class="cls-2" d="M79.35,14.26a15,15,0,0,0-1.64.2,13.7,13.7,0,0,0-2,.75h-.25a2.48,2.48,0,0,1-.9-1.64l-2.24,1.49a3.39,3.39,0,0,1-.9.15A2.54,2.54,0,0,1,69,12.62a2.56,2.56,0,0,1,2.19-2.79c1.6-.35,2.35-.55,3.29-.7V8c0-1-.45-1.4-1.69-1.4a7.7,7.7,0,0,0-2.89.6.74.74,0,0,1-.3-.7l3-1.69a5.39,5.39,0,0,1,1.64-.25c2.65,0,4,1.4,4,3.49v4.39c0,.8.35,1.2,1.1,1.2a.41.41,0,0,1,.1.3A.59.59,0,0,1,79.35,14.26ZM74.51,9.88c-1.74.39-2.39.74-2.39,1.79a1.41,1.41,0,0,0,1.39,1.41h.16a1.56,1.56,0,0,0,.84-.25Z"/><path class="cls-2" d="M91.47,5.74a2,2,0,0,0-1.89,1.54l-3.2,7.63A11.26,11.26,0,0,1,82.59,20a3.89,3.89,0,0,1-2.19-2.24l.4-.4a2.31,2.31,0,0,0,1.1.25,2.94,2.94,0,0,0,2.74-1.9v-.15l-4-8.63c-.4-.85-.75-1.14-1.5-1.19a1.24,1.24,0,0,1-.1-.5.63.63,0,0,1,.1-.3s1.7.15,3.09.15,3.3-.15,3.3-.15a.76.76,0,0,1,.1.3,1.44,1.44,0,0,1-.1.5c-.65,0-.95.29-.95.74a3.35,3.35,0,0,0,.2.95l1.84,4.19,1.8-4.39a1.9,1.9,0,0,0,.15-.75c0-.45-.35-.74-1.15-.74a1.24,1.24,0,0,1-.1-.5.63.63,0,0,1,.1-.3,18.53,18.53,0,0,0,2.1.15c.65,0,1.3-.07,1.94-.15a.63.63,0,0,1,.1.3A1.24,1.24,0,0,1,91.47,5.74Z"/><path class="cls-2" d="M105.34,6.83,103.74,10a44.48,44.48,0,0,0-3.39,9.12l-.8.35L97.66,18.3l5.78-10.47H98.3a1.68,1.68,0,0,0-1.84,1.1.8.8,0,0,1-.75-.3,9.7,9.7,0,0,0,.85-4L97,4.44a2.88,2.88,0,0,0,2.19.65h5.09a3.48,3.48,0,0,0,1.45-.35c.2,0,.44.25.54.5A15.81,15.81,0,0,0,105.34,6.83Z"/><path class="cls-2" d="M116,13.67l-3.24,1.54h-.4c-2.64,0-4-1.24-4-4.09V6.28h-1.65a1.29,1.29,0,0,1-.2-.69,1.21,1.21,0,0,1,.15-.5,5.84,5.84,0,0,0,4.54-2.8,1,1,0,0,1,.9.4v2.4a10,10,0,0,0,3.39-.35,1.59,1.59,0,0,1,.25.85,2,2,0,0,1-.15.69h-3.49v4.34c0,1.85.75,2.65,2.14,2.65a4.46,4.46,0,0,0,1.45-.4.59.59,0,0,1,.35.55A.74.74,0,0,1,116,13.67Z"/><path class="cls-2" d="M129.43,14.91a19.42,19.42,0,0,0-2.4-.2,14,14,0,0,0-2.14.2s-.6-.4-.6-2.29V8a1.25,1.25,0,0,0-1.08-1.39h-.27a2.86,2.86,0,0,0-1.39.45v5.64c0,1,.35,1.44,1.19,1.54a.67.67,0,0,1,.1.3.7.7,0,0,1-.1.4,29,29,0,0,0-3.09-.2,28,28,0,0,0-3,.2.59.59,0,0,1-.15-.4.67.67,0,0,1,.1-.3c.85-.1,1.2-.54,1.2-1.54V3.14a1.36,1.36,0,0,0-1.45-1.54.9.9,0,0,1-.1-.45,1,1,0,0,1,.05-.3,18.41,18.41,0,0,0,1.84-.1A9.81,9.81,0,0,0,120.7,0h.35a5.09,5.09,0,0,1,.5,2.49V6.23l2.34-1.54a3.37,3.37,0,0,1,1-.15c1.89,0,3.14,1.1,3.14,2.69v5.14c0,1.3.35,1.74,1.45,1.84a.82.82,0,0,1,.1.3A.64.64,0,0,1,129.43,14.91Z"/><path class="cls-2" d="M139.7,15.21a10.67,10.67,0,0,1-4.54-1.05,15.81,15.81,0,0,0,.1-1.69,9.39,9.39,0,0,0-.2-1.75,1.09,1.09,0,0,1,.65-.25h.2a4.35,4.35,0,0,0,4.24,3.45,1.78,1.78,0,0,0,2-1.55c0-.85-.39-1.3-1.24-1.85l-3.49-2.24A3.81,3.81,0,0,1,135.31,5c0-2.55,2.25-4.49,5.34-4.49a10.3,10.3,0,0,1,4.24.85,7.85,7.85,0,0,0-.1,1.19,10.25,10.25,0,0,0,.15,1.75,1,1,0,0,1-.5.2h-.25a3.8,3.8,0,0,0-3.59-2.74c-1.7,0-1.7.49-1.7,1.34s.6,1.4,1.8,2.1l2.54,1.49c1.6,1,2.45,2.25,2.45,3.44C145.69,13,143.19,15.21,139.7,15.21Z"/><path class="cls-2" d="M156.46,9.53h-5.84c.25,1.84,1,3.84,3.3,3.84a3.57,3.57,0,0,0,2.34-.95.65.65,0,0,1,.55.45,5.3,5.3,0,0,1-4.49,2.34c-3.49,0-5.29-2.29-5.29-5.09A5.29,5.29,0,0,1,150.37,5a5.45,5.45,0,0,1,2.25-.45c3.34,0,4.44,2.09,4.44,4A2.17,2.17,0,0,1,156.46,9.53Zm-4.29-3.94c-1.15,0-1.6,1.39-1.6,3l2.9-.2a3.43,3.43,0,0,0,.2-1C153.67,6.33,153.12,5.59,152.17,5.59Z"/><path class="cls-2" d="M166.68,14.86a4.31,4.31,0,0,1-1.84.35,3.64,3.64,0,0,1-2.05-.55v2.7c0,1,.6,1.49,1.8,1.59a1,1,0,0,1,0,.3,1.07,1.07,0,0,1-.1.4,27.65,27.65,0,0,0-6.68,0,.73.73,0,0,1-.15-.4.57.57,0,0,1,.1-.3c.84-.1,1.19-.6,1.19-1.59V7.58A1.37,1.37,0,0,0,157.56,6a.75.75,0,0,1-.1-.44.94.94,0,0,1,0-.3s1,0,1.84-.1a9.81,9.81,0,0,0,2.6-.75h.34a4.89,4.89,0,0,1,.5,1.79l2.35-1.54a3.35,3.35,0,0,1,1-.15c2.15,0,3.75,2,3.75,4.59S168.78,14.06,166.68,14.86Zm-2.79-8.18a2.08,2.08,0,0,0-1.1.35v5.64a2,2,0,0,0,1.75,1.39c.9,0,1.64-.84,1.64-3.09S165.34,6.68,163.89,6.68Z"/><path class="cls-2" d="M179.7,13.67l-3.29,1.54H176c-2.64,0-3.94-1.24-3.94-4.09V6.28h-1.65a1.29,1.29,0,0,1-.2-.69,1.71,1.71,0,0,1,.1-.5,5.67,5.67,0,0,0,4.54-2.8,1,1,0,0,1,.95.4v2.4a10,10,0,0,0,3.39-.35,1.59,1.59,0,0,1,.25.85,2,2,0,0,1-.15.69h-3.49v4.34c0,1.85.75,2.65,2.1,2.65a4.84,4.84,0,0,0,1.49-.4.59.59,0,0,1,.35.55A.56.56,0,0,1,179.7,13.67Z"/><path class="cls-2" d="M182.69,15a1.65,1.65,0,0,1-1.79-1.49v-.15a1.69,1.69,0,0,1,1.69-1.7h.1a1.69,1.69,0,0,1,.58,3.34A1.42,1.42,0,0,1,182.69,15Z"/><path class="cls-2" d="M188,7.88a1.64,1.64,0,0,1-1.74-1.54s0-.07,0-.11a1.75,1.75,0,1,1,1.85,1.65ZM188,15a1.63,1.63,0,0,1-1.74-1.54s0-.07,0-.1A1.75,1.75,0,1,1,188.08,15Z"/></g></g></g></svg>