<svg xmlns="http://www.w3.org/2000/svg" viewBox="0 0 515.9 97.9">
  <title>Asset 23</title>
  <g id="Layer_2" data-name="Layer 2">
    <g id="sol">
      <g>
        <path d="M144.8,39.1a21.4,21.4,0,0,1-9.1-2.1,33.3,33.3,0,0,0,.2-3.4,18.7,18.7,0,0,0-.4-3.5,2,2,0,0,1,1.3-.5h.4c1.3,4.5,4.6,6.9,8.5,6.9,2.3,0,4-1.4,4-3.1s-.8-2.6-2.5-3.7l-7-4.5c-2.7-1.7-4.2-3.8-4.2-6.6,0-5.1,4.5-9,10.7-9a20.7,20.7,0,0,1,8.5,1.7,16.7,16.7,0,0,0-.2,2.4,21.3,21.3,0,0,0,.3,3.5,1.9,1.9,0,0,1-1,.4h-.5c-1.3-3.4-3.8-5.5-7.2-5.5s-3.4,1-3.4,2.7,1.2,2.8,3.6,4.2l5.1,3c3.2,2,4.9,4.5,4.9,6.9C156.8,34.6,151.8,39.1,144.8,39.1Z" fill="#20c7e2"/>
        <path d="M180.1,37.2a25.6,25.6,0,0,0-3.3.4,27,27,0,0,0-4,1.5h-.5a4.9,4.9,0,0,1-1.8-3.3l-4.6,3a5.4,5.4,0,0,1-1.7.3,5.1,5.1,0,0,1-4.8-5.2c0-2.8,1.2-4.9,4.4-5.6s4.7-1.1,6.6-1.4V24.6c0-1.9-.9-2.8-3.4-2.8a15.9,15.9,0,0,0-5.9,1.2,1.7,1.7,0,0,1-.5-1.4l6-3.4a10.8,10.8,0,0,1,3.3-.5c5.3,0,8,2.8,8,7v8.8c0,1.6.7,2.4,2.2,2.4a.9.9,0,0,1,.2.6A1.4,1.4,0,0,1,180.1,37.2Zm-9.7-8.8c-3.6.8-4.8,1.5-4.8,3.6a2.8,2.8,0,0,0,3.1,2.8,3.2,3.2,0,0,0,1.7-.5Z" fill="#20c7e2"/>
        <path d="M199.6,36l-6.5,3.1h-.8c-5.3,0-8-2.5-8-8.2V21.2H181a2.9,2.9,0,0,1-.3-1.4,3.1,3.1,0,0,1,.2-1,11.7,11.7,0,0,0,9.1-5.6,2.3,2.3,0,0,1,1.9.8v4.8c5.1,0,6.7-.7,6.7-.7a3.2,3.2,0,0,1,.5,1.7,4.1,4.1,0,0,1-.3,1.4h-6.9v8.7c0,3.7,1.4,5.3,4.2,5.3a8.7,8.7,0,0,0,2.9-.8,1.2,1.2,0,0,1,.7,1.1A1.2,1.2,0,0,1,199.6,36Z" fill="#20c7e2"/>
        <path d="M225.8,37.2a23.7,23.7,0,0,0-3.3.4,30.8,30.8,0,0,0-4.1,1.5H218a4.9,4.9,0,0,1-1.8-3.3l-4.8,3a8,8,0,0,1-2,.3c-3.9,0-6.4-2.2-6.4-5.4V24.1a2.8,2.8,0,0,0-2.9-3.1,2.2,2.2,0,0,1-.2-.9,1.5,1.5,0,0,1,.1-.6l3.7-.3a30,30,0,0,0,5.5-1.1h.7a10.7,10.7,0,0,1,.7,4.6v9.6a2.4,2.4,0,0,0,2.7,2.7,5.4,5.4,0,0,0,2.7-.8V24.1c0-1.9-1-3.1-2.6-3.1a2.2,2.2,0,0,1-.2-.9.9.9,0,0,1,.2-.6l3.6-.3a37.5,37.5,0,0,0,5.2-1.1h.7a10.7,10.7,0,0,1,.7,4.6V33.5c0,1.6.7,2.4,2.2,2.4a.9.9,0,0,1,.2.6A1.4,1.4,0,0,1,225.8,37.2Z" fill="#20c7e2"/>
        <path d="M245.8,24h-1.2a4.9,4.9,0,0,0-3.9-1.9,6.6,6.6,0,0,0-2.8.7V34c0,2,.9,2.9,2.8,3.1a1.3,1.3,0,0,1,.2.6,1.2,1.2,0,0,1-.3.8,53,53,0,0,0-6.5-.4,58,58,0,0,0-6.2.4,1.5,1.5,0,0,1-.2-.8,1.3,1.3,0,0,1,.2-.6c1.7-.2,2.4-1.1,2.4-3.1V23.8a2.8,2.8,0,0,0-2.9-3.1,1.7,1.7,0,0,1-.2-.9,2.2,2.2,0,0,1,.1-.6s1.9,0,3.7-.2a21.3,21.3,0,0,0,5.2-1.5h.7a10.5,10.5,0,0,1,1,3.6l4.6-3.1a8,8,0,0,1,2-.3,4.9,4.9,0,0,1,2,.4,4.2,4.2,0,0,1,.5,2.1A7.1,7.1,0,0,1,245.8,24Z" fill="#20c7e2"/>
        <path d="M272.3,37.2a26.3,26.3,0,0,0-3.4.4,27,27,0,0,0-4,1.5h-.5a5.4,5.4,0,0,1-1.7-3.3l-4.5,2.9a5.7,5.7,0,0,1-2.1.4c-4.7,0-8.4-3.8-8.4-9.8s2.5-8.8,5.8-10.5a9.6,9.6,0,0,1,4.1-1.1c3.4,0,4.9,1,4.9,1V14.9a2.8,2.8,0,0,0-3-3.1,1.7,1.7,0,0,1-.2-.9,1.3,1.3,0,0,1,.2-.6s1.9,0,3.7-.2a21.3,21.3,0,0,0,5.2-1.5h.7s.9,1.3.9,4.7V33.5c0,1.6.7,2.4,2.2,2.4a.9.9,0,0,1,.2.6A2.4,2.4,0,0,1,272.3,37.2Zm-9.8-14.1s-1.1-3.2-3.7-3.2-3.3,1.9-3.3,6.9,2.1,7.8,4.8,7.8a3.4,3.4,0,0,0,2.2-.9Z" fill="#20c7e2"/>
        <path d="M294.6,37.2a25.6,25.6,0,0,0-3.3.4,27,27,0,0,0-4,1.5h-.5a4.9,4.9,0,0,1-1.8-3.3l-4.5,3a6.5,6.5,0,0,1-1.8.3,5.1,5.1,0,0,1-4.8-5.2c0-2.8,1.2-4.9,4.4-5.6s4.7-1.1,6.6-1.4V24.6c0-1.9-.9-2.8-3.4-2.8a15.4,15.4,0,0,0-5.8,1.2,1.5,1.5,0,0,1-.6-1.4l6-3.4a10.8,10.8,0,0,1,3.3-.5c5.3,0,8,2.8,8,7v8.8c0,1.6.7,2.4,2.2,2.4a.9.9,0,0,1,.2.6A1.4,1.4,0,0,1,294.6,37.2Zm-9.7-8.8c-3.5.8-4.8,1.5-4.8,3.6a2.8,2.8,0,0,0,3.1,2.8,3.2,3.2,0,0,0,1.7-.5Z" fill="#20c7e2"/>
        <path d="M318.9,20.1c-1.7.1-2.9.9-3.8,3.1l-6.4,15.3c-1.9,4.7-5.2,8.8-7.6,10.2a7.8,7.8,0,0,1-4.4-4.5l.8-.8a4.4,4.4,0,0,0,2.2.5c2.4,0,4.2-1.2,5.5-3.8v-.3l-8.1-17.3c-.8-1.7-1.5-2.3-3-2.4a2.4,2.4,0,0,1-.2-1,1.3,1.3,0,0,1,.2-.6s3.4.3,6.2.3,6.6-.3,6.6-.3a1.3,1.3,0,0,1,.2.6,2.4,2.4,0,0,1-.2,1c-1.3.1-1.9.6-1.9,1.5a7.2,7.2,0,0,0,.4,1.9l3.7,8.4,3.6-8.8a3.7,3.7,0,0,0,.3-1.5c0-.9-.7-1.5-2.3-1.5a2.4,2.4,0,0,1-.2-1,1.3,1.3,0,0,1,.2-.6,38.7,38.7,0,0,0,4.2.3,35,35,0,0,0,3.9-.3,1.3,1.3,0,0,1,.2.6A2.4,2.4,0,0,1,318.9,20.1Z" fill="#20c7e2"/>
        <path d="M346.7,22.3l-3.2,6.3a89.8,89.8,0,0,0-6.8,18.3l-1.6.7-3.8-2.3,11.6-21H332.6c-2,0-2.9.5-3.7,2.2a1.6,1.6,0,0,1-1.5-.6,19.2,19.2,0,0,0,1.7-8.1l.9-.3s1.1,1.3,4.4,1.3h10.2a6.8,6.8,0,0,0,2.9-.7c.4,0,.9.5,1.1,1A34.1,34.1,0,0,0,346.7,22.3Z" fill="#20c7e2"/>
        <path d="M368,36l-6.5,3.1h-.8c-5.3,0-8-2.5-8-8.2V21.2h-3.3a2.4,2.4,0,0,1-.4-1.4,2.3,2.3,0,0,1,.3-1,11.7,11.7,0,0,0,9.1-5.6,1.9,1.9,0,0,1,1.8.8v4.8c5.2,0,6.8-.7,6.8-.7a3.2,3.2,0,0,1,.5,1.7,4.1,4.1,0,0,1-.3,1.4h-7v8.7c0,3.7,1.5,5.3,4.3,5.3a8.7,8.7,0,0,0,2.9-.8,1.2,1.2,0,0,1,.7,1.1A1.2,1.2,0,0,1,368,36Z" fill="#20c7e2"/>
        <path d="M395,38.5a35.4,35.4,0,0,0-4.8-.4,27.8,27.8,0,0,0-4.3.4s-1.2-.8-1.2-4.6V24.6a2.5,2.5,0,0,0-2.7-2.8,5.6,5.6,0,0,0-2.8.9V34c0,2,.7,2.9,2.4,3.1a1.3,1.3,0,0,1,.2.6,1.5,1.5,0,0,1-.2.8,58,58,0,0,0-6.2-.4,54.9,54.9,0,0,0-6.1.4,1.2,1.2,0,0,1-.3-.8,1.3,1.3,0,0,1,.2-.6c1.7-.2,2.4-1.1,2.4-3.1V14.9c0-1.9-1-3.1-2.9-3.1a1.7,1.7,0,0,1-.2-.9,2.2,2.2,0,0,1,.1-.6s2,0,3.7-.2a19.6,19.6,0,0,0,5.2-1.5h.7a10.1,10.1,0,0,1,1,5v7.5l4.7-3.1a7,7,0,0,1,2-.3c3.8,0,6.3,2.2,6.3,5.4V33.4c0,2.6.7,3.5,2.9,3.7a1.3,1.3,0,0,1,.2.6A1.2,1.2,0,0,1,395,38.5Z" fill="#20c7e2"/>
        <path d="M415.6,39.1a21.4,21.4,0,0,1-9.1-2.1,33.3,33.3,0,0,0,.2-3.4,18.7,18.7,0,0,0-.4-3.5,2,2,0,0,1,1.3-.5h.4c1.3,4.5,4.6,6.9,8.5,6.9,2.3,0,4-1.4,4-3.1s-.8-2.6-2.5-3.7l-7-4.5c-2.7-1.7-4.2-3.8-4.2-6.6,0-5.1,4.5-9,10.7-9a20.7,20.7,0,0,1,8.5,1.7,16.7,16.7,0,0,0-.2,2.4,21.3,21.3,0,0,0,.3,3.5,1.9,1.9,0,0,1-1,.4h-.5c-1.3-3.4-3.8-5.5-7.2-5.5s-3.4,1-3.4,2.7,1.2,2.8,3.6,4.2l5.1,3c3.2,2,4.9,4.5,4.9,6.9C427.6,34.6,422.6,39.1,415.6,39.1Z" fill="#20c7e2"/>
        <path d="M449.2,27.7H437.5c.5,3.7,2.1,7.7,6.6,7.7a7.2,7.2,0,0,0,4.7-1.9,1.3,1.3,0,0,1,1.1.9,10.6,10.6,0,0,1-9,4.7c-7,0-10.6-4.6-10.6-10.2A10.6,10.6,0,0,1,437,18.6a11,11,0,0,1,4.5-.9c6.7,0,8.9,4.2,8.9,8.1A4.1,4.1,0,0,1,449.2,27.7Zm-8.6-7.9c-2.3,0-3.2,2.8-3.2,6.1l5.8-.4a6.4,6.4,0,0,0,.4-2.1C443.6,21.3,442.5,19.8,440.6,19.8Z" fill="#20c7e2"/>
        <path d="M469.7,38.4a8.7,8.7,0,0,1-3.7.7,7.3,7.3,0,0,1-4.1-1.1v5.4c0,2,1.2,3,3.6,3.2a2.2,2.2,0,0,1,.1.6,2.1,2.1,0,0,1-.2.8A55.9,55.9,0,0,0,452,48a1.6,1.6,0,0,1-.3-.8,1.3,1.3,0,0,1,.2-.6c1.7-.2,2.4-1.2,2.4-3.2V23.8c0-1.9-1-3.1-2.9-3.1a1.7,1.7,0,0,1-.2-.9,2.2,2.2,0,0,1,.1-.6s2,0,3.7-.2a19.6,19.6,0,0,0,5.2-1.5h.7a10.5,10.5,0,0,1,1,3.6l4.7-3.1a7,7,0,0,1,2-.3c4.3,0,7.5,4,7.5,9.2S473.9,36.8,469.7,38.4ZM464.1,22a3.9,3.9,0,0,0-2.2.7V34a4,4,0,0,0,3.5,2.8c1.8,0,3.3-1.7,3.3-6.2S467,22,464.1,22Z" fill="#20c7e2"/>
        <path d="M495.8,36l-6.6,3.1h-.8c-5.3,0-7.9-2.5-7.9-8.2V21.2h-3.3a2.4,2.4,0,0,1-.4-1.4,3.1,3.1,0,0,1,.2-1,11.4,11.4,0,0,0,9.1-5.6,2.1,2.1,0,0,1,1.9.8v4.8c5.2,0,6.8-.7,6.8-.7a3.2,3.2,0,0,1,.5,1.7,4.1,4.1,0,0,1-.3,1.4h-7v8.7c0,3.7,1.5,5.3,4.2,5.3a9.6,9.6,0,0,0,3-.8,1.2,1.2,0,0,1,.7,1.1A1.2,1.2,0,0,1,495.8,36Z" fill="#20c7e2"/>
        <path d="M501.8,38.7a3.3,3.3,0,0,1-3.6-3.3,3.4,3.4,0,0,1,3.6-3.4,3.4,3.4,0,1,1,0,6.7Z" fill="#20c7e2"/>
        <path d="M512.4,24.4a3.3,3.3,0,0,1-3.5-3.3,3.5,3.5,0,1,1,3.5,3.3Zm0,14.3a3.3,3.3,0,0,1-3.5-3.3,3.5,3.5,0,1,1,3.5,3.3Z" fill="#20c7e2"/>
        <path d="M149.7,88.3c-9.4,0-15-5.7-15-13.9s6.8-15.5,15.6-15.5a23.6,23.6,0,0,1,10.6,2.4,20.2,20.2,0,0,0-.4,4.2,9.2,9.2,0,0,0,.4,2.6,2.2,2.2,0,0,1-2,.6c-1.7-4.3-5.1-7.3-9.5-7.3s-6.3,3-6.3,9.1c0,9.1,4.2,14.4,9.9,14.4a9.3,9.3,0,0,0,7.2-4,1.6,1.6,0,0,1,1,1.4A13.4,13.4,0,0,1,149.7,88.3Z" fill="#505151"/>
        <path d="M182.6,76.9H171c.4,3.7,2,7.7,6.6,7.7a6.8,6.8,0,0,0,4.6-1.9,1.4,1.4,0,0,1,1.2.9c-1.8,2.2-4.2,4.7-9,4.7-7.1,0-10.7-4.6-10.7-10.2a10.7,10.7,0,0,1,6.7-10.3,11.4,11.4,0,0,1,4.6-.9c6.7,0,8.9,4.2,8.9,8.1A3.6,3.6,0,0,1,182.6,76.9ZM174.1,69c-2.3,0-3.2,2.8-3.2,6.1l5.8-.4a8.3,8.3,0,0,0,.3-2.1C177,70.5,175.9,69,174.1,69Z" fill="#505151"/>
        <path d="M204.2,73.2H203a4.9,4.9,0,0,0-3.9-1.9,7.4,7.4,0,0,0-2.9.7V83.2c0,2,.9,2.9,2.9,3.1a1.3,1.3,0,0,1,.2.6,1.2,1.2,0,0,1-.3.8,55.2,55.2,0,0,0-6.5-.4,58,58,0,0,0-6.2.4,1.5,1.5,0,0,1-.2-.8,2.2,2.2,0,0,1,.1-.6c1.8-.2,2.5-1.1,2.5-3.1V73a2.8,2.8,0,0,0-3-3.1,1.7,1.7,0,0,1-.2-.9,1.3,1.3,0,0,1,.2-.6s1.9,0,3.7-.2a21.3,21.3,0,0,0,5.2-1.5h.7a12.1,12.1,0,0,1,.9,3.6l4.7-3.1a8,8,0,0,1,2-.3,4.9,4.9,0,0,1,2,.4,5.1,5.1,0,0,1,.4,2.1A7.1,7.1,0,0,1,204.2,73.2Z" fill="#505151"/>
        <path d="M225,76.9H213.3c.5,3.7,2.1,7.7,6.6,7.7a7.2,7.2,0,0,0,4.7-1.9,1.2,1.2,0,0,1,1.1.9,10.6,10.6,0,0,1-9,4.7c-7,0-10.6-4.6-10.6-10.2a10.6,10.6,0,0,1,6.7-10.3,11.4,11.4,0,0,1,4.6-.9c6.6,0,8.8,4.2,8.8,8.1A3,3,0,0,1,225,76.9ZM216.4,69c-2.2,0-3.2,2.8-3.2,6.1l5.8-.4a6.4,6.4,0,0,0,.4-2.1C219.4,70.5,218.3,69,216.4,69Z" fill="#505151"/>
        <path d="M267.5,87.7a37.8,37.8,0,0,0-4.9-.4,29.6,29.6,0,0,0-4.3.4s-1.2-.8-1.2-4.6V73.8c0-1.8-.9-2.8-2.7-2.8a5.6,5.6,0,0,0-2.8.9V83.2c0,2,.8,2.9,2.5,3.1a1.3,1.3,0,0,1,.2.6,1.2,1.2,0,0,1-.3.8,54.9,54.9,0,0,0-6.1-.4,40.8,40.8,0,0,0-5.1.4,1.2,1.2,0,0,1-.3-.8,1.3,1.3,0,0,1,.2-.6c1-.2,1.4-1.1,1.4-3.1V73.8a2.5,2.5,0,0,0-2.7-2.8,5.6,5.6,0,0,0-2.8.9V83.2c0,2,.7,2.9,2.5,3.1a2.2,2.2,0,0,1,.1.6,1.5,1.5,0,0,1-.2.8,58,58,0,0,0-6.2-.4,54.9,54.9,0,0,0-6.1.4,1.2,1.2,0,0,1-.3-.8,1.3,1.3,0,0,1,.2-.6c1.7-.2,2.5-1.1,2.5-3.1V73a2.8,2.8,0,0,0-3-3.1,1.7,1.7,0,0,1-.2-.9,1.3,1.3,0,0,1,.2-.6,35.9,35.9,0,0,0,3.6-.2,19.6,19.6,0,0,0,5.2-1.5h.7a10.5,10.5,0,0,1,1,3.6l4.7-3.1a8,8,0,0,1,2-.3c3,0,5.2,1.4,6,3.5l5-3.2a8,8,0,0,1,2-.3c3.9,0,6.4,2.2,6.4,5.4V82.6c0,2.6.7,3.5,2.8,3.7a1.3,1.3,0,0,1,.2.6A1.5,1.5,0,0,1,267.5,87.7Z" fill="#505151"/>
        <path d="M283.8,87.5a13.4,13.4,0,0,1-4.6.8c-7.1,0-10.6-4.6-10.6-10.2a10.7,10.7,0,0,1,6.7-10.3,11.4,11.4,0,0,1,4.6-.9c7.1,0,10.6,4.6,10.6,10.2A10.8,10.8,0,0,1,283.8,87.5Zm-5.5-18.3c-1.5,0-2.4,1.4-2.4,5.1,0,6.4,2.9,11.4,4.9,11.4s2.4-1.5,2.4-5.2C283.2,74.2,280.3,69.2,278.3,69.2Z" fill="#505151"/>
        <path d="M318.3,87.7a35.4,35.4,0,0,0-4.8-.4,29.6,29.6,0,0,0-4.3.4s-1.2-.8-1.2-4.6V73.8c0-1.8-.9-2.8-2.7-2.8a5.6,5.6,0,0,0-2.8.9V83.2c0,2,.8,2.9,2.5,3.1a2.2,2.2,0,0,1,.1.6,1.5,1.5,0,0,1-.2.8,58,58,0,0,0-6.2-.4,54.9,54.9,0,0,0-6.1.4,1.2,1.2,0,0,1-.3-.8,1.3,1.3,0,0,1,.2-.6c1.7-.2,2.5-1.1,2.5-3.1V73a2.8,2.8,0,0,0-3-3.1,1.7,1.7,0,0,1-.2-.9,1.3,1.3,0,0,1,.2-.6s1.9,0,3.7-.2a19.7,19.7,0,0,0,5.1-1.5h.7a10.5,10.5,0,0,1,1,3.6l4.7-3.1a8,8,0,0,1,2-.3c3.9,0,6.4,2.2,6.4,5.4V82.6c0,2.6.6,3.5,2.8,3.7a1.3,1.3,0,0,1,.2.6A1.2,1.2,0,0,1,318.3,87.7Z" fill="#505151"/>
        <path d="M341.4,69.3c-1.7.1-2.8.9-3.7,3.1l-6.4,15.3c-2,4.7-5.3,8.8-7.7,10.2a7.8,7.8,0,0,1-4.4-4.5l.8-.8a4.4,4.4,0,0,0,2.2.5c2.4,0,4.2-1.2,5.5-3.8l.2-.3-8.2-17.3c-.7-1.7-1.5-2.3-2.9-2.4a2.4,2.4,0,0,1-.2-1,1.3,1.3,0,0,1,.2-.6s3.3.3,6.2.3,6.5-.3,6.5-.3a1.3,1.3,0,0,1,.2.6,2.4,2.4,0,0,1-.2,1c-1.3.1-1.9.6-1.9,1.5a4.9,4.9,0,0,0,.5,1.9l3.7,8.4,3.5-8.8a3.7,3.7,0,0,0,.3-1.5c0-.9-.6-1.5-2.3-1.5a2.4,2.4,0,0,1-.2-1,1.3,1.3,0,0,1,.2-.6,41.4,41.4,0,0,0,4.2.3,32.6,32.6,0,0,0,3.9-.3,1.3,1.3,0,0,1,.2.6A2.4,2.4,0,0,1,341.4,69.3Z" fill="#505151"/>
      </g>
      <g>
        <path d="M38,7.4a5,5,0,0,0-4.2-2.5,1.6,1.6,0,0,0-1.2-.1l-1.2.4a21.2,21.2,0,0,0-6.8,3.7A21.6,21.6,0,0,0,19.7,14a20.9,20.9,0,0,0-3.5-7C13.6,3.5,9.1-.9,4.4.2,1.8.8.7,2.9.4,5.3a43.9,43.9,0,0,0-.3,8.9A66.4,66.4,0,0,0,3.7,31.8a185.5,185.5,0,0,0,7.9,19c.8,1.9,3.3.8,3.5-.9a1.5,1.5,0,0,0,1.3-.2A65.3,65.3,0,0,0,36.4,24C38.5,19.1,41.2,12.4,38,7.4ZM24.6,17.9a57,57,0,0,1,4.2-5.5l.9-1.1c-2.6,6.6-6.8,12.4-9.9,18.7V27.9a1.7,1.7,0,0,0-.5-1.2A71.5,71.5,0,0,1,24.6,17.9ZM8.6,9.4h0l.9,1.3.6.9a1.5,1.5,0,0,0-.4,1.1l.3,5.9c0-.2-.1-.4-.1-.6a65.1,65.1,0,0,1-1.3-7.7A3.3,3.3,0,0,1,8.6,9.4ZM20,41.5Zm2.4-7a76.1,76.1,0,0,1,6.1-9.1C26.6,28.6,24.5,31.6,22.4,34.5ZM35.6,13.1a1.8,1.8,0,0,0-1.7.5L32,15.5A46,46,0,0,0,34.5,9l.7,1.1A7.8,7.8,0,0,1,35.6,13.1ZM15.9,14.5a40.8,40.8,0,0,0-3.2-5.8A18.3,18.3,0,0,1,15.9,14.5ZM4.2,5.8c.1-.7.1-1.6,1-1.9a4.2,4.2,0,0,1,2.2.3,3.3,3.3,0,0,0-1.8,1C3.9,7,4.7,10.5,5,12.8c.9,6.3,2.5,12.7,3.8,19,.4,1.8.6,3.5.9,5.3a95.1,95.1,0,0,1-5-16.5A45.9,45.9,0,0,1,4.2,5.8Z" fill="#20c7e2"/>
        <path d="M76.4,39.3c-4.4-1.6-9.2.9-11.6,4.6a20.7,20.7,0,0,0-2.6,8.3c-.2,1.3-.4,2.6-.5,3.9a29.9,29.9,0,0,0-5.5-6.8C53.9,47.2,47.8,42,45,45.8s-1.4,10,.5,14.2A62,62,0,0,0,54,72.4,79.4,79.4,0,0,0,66.3,84v.2c-.7,2.5,3.3,3.6,4,1.1,3.1-11.2,8.9-21.6,10.6-33.2C81.6,47.5,81.7,41.3,76.4,39.3ZM64.5,63.9h0ZM55.8,58a14.2,14.2,0,0,0,.5,1.6l-2.1-3.3Zm11,20.1.7,1.6-1.9-1.5A2.5,2.5,0,0,0,66.8,78.1Zm7.7-35c2.6.6,2.7,3.7,2.6,5.9h0a1.8,1.8,0,0,0-1.3,1A67.3,67.3,0,0,0,72,58.2c.4-4.6,1.1-9.2,1.9-13.8a2.2,2.2,0,0,0-.2-1.4ZM67.4,48A59.4,59.4,0,0,0,66,55.1l-.3,1.8c.2-1.3.3-2.6.5-3.8A29.1,29.1,0,0,1,67.4,48ZM57.3,69.9c-3.2-3.7-6.5-8-8.4-12.6a12.9,12.9,0,0,1-1.2-3.8l.9,1.5c1.5,2.7,3.2,5.3,4.9,7.9,3.4,4.8,7,9.4,10.7,14A57,57,0,0,1,57.3,69.9Z" fill="#20c7e2"/>
      </g>
    </g>
  </g>
</svg>
