<svg xmlns="http://www.w3.org/2000/svg" viewBox="0 0 144.13 35"><defs><style>.cls-1{fill:#fff;}</style></defs><title>Asset 19</title><g id="Layer_2" data-name="Layer 2"><g id="Layer_1-2" data-name="Layer 1"><path class="cls-1" d="M69,25.5a10.55,10.55,0,0,1-4.77-1.15,17.91,17.91,0,0,0,.11-1.79,11.27,11.27,0,0,0-.21-1.83,1,1,0,0,1,.63-.26H65a4.62,4.62,0,0,0,4.46,3.67,1.88,1.88,0,0,0,2.09-1.68c0-.95-.42-1.36-1.31-1.94l-3.72-2.31a4.05,4.05,0,0,1-2.15-3.46C64.38,12.08,66.74,10,70,10a10.87,10.87,0,0,1,4.46.89,6,6,0,0,0-.16,1.26A8.18,8.18,0,0,0,74.5,14a1,1,0,0,1-.52.21h-.27a4.11,4.11,0,0,0-3.77-2.89c-1.73,0-1.79.53-1.79,1.42S68.78,14.23,70,15l2.68,1.57c1.67,1,2.57,2.42,2.57,3.62C75.29,23.09,72.66,25.5,69,25.5Z"/><path class="cls-1" d="M83.52,25.13a26.94,26.94,0,0,0-3.36-.21,33.46,33.46,0,0,0-3.46.21.75.75,0,0,1-.1-.36,1.14,1.14,0,0,1,.05-.37,1.5,1.5,0,0,0,1.52-1.63V17.42a1.47,1.47,0,0,0-1.3-1.62,1.22,1.22,0,0,0-.27,0,.88.88,0,0,1-.11-.47A.76.76,0,0,1,76.6,15l2.57-.15a13.49,13.49,0,0,0,2.57-.74,1,1,0,0,1,.57.47,14.62,14.62,0,0,0-.21,2.47v5.71a1.48,1.48,0,0,0,1.31,1.62h.16a1.14,1.14,0,0,1,.05.37A.65.65,0,0,1,83.52,25.13ZM79.9,13.18A1.84,1.84,0,0,1,78,11.45v-.11A1.89,1.89,0,0,1,79.9,9.51h0a1.84,1.84,0,0,1,2,1.67v.16A1.88,1.88,0,0,1,80,13.18Z"/><path class="cls-1" d="M94.43,19.47H88.34c.21,1.94,1,4,3.46,4a3.59,3.59,0,0,0,2.42-1,.73.73,0,0,1,.62.47,5.54,5.54,0,0,1-4.71,2.52c-3.73,0-5.62-2.41-5.62-5.4A5.57,5.57,0,0,1,88,14.7a5.85,5.85,0,0,1,2.41-.47c3.51,0,4.67,2.2,4.67,4.24A1.76,1.76,0,0,1,94.43,19.47ZM90,15.33c-1.21,0-1.68,1.47-1.68,3.2l3-.21a4.57,4.57,0,0,0,.16-1.1C91.49,16.11,90.91,15.33,90,15.33Z"/><path class="cls-1" d="M100.67,25.5a8.46,8.46,0,0,1-3.89-.94,6,6,0,0,0-.1-2.36,1,1,0,0,1,.79-.16A3.49,3.49,0,0,0,101,24.29c1.26,0,1.84-.57,1.84-1.15s-.42-.89-2.47-1.57c-3.2-1.05-3.93-1.94-3.93-3.46s2.41-3.88,5.56-3.88a6.76,6.76,0,0,1,3.2.78,4.65,4.65,0,0,0,0,2.1.8.8,0,0,1-.68.26,3.79,3.79,0,0,0-3.52-2.1c-.94,0-1.47.42-1.47.84s.63,1.21,2.57,1.79c2.84.89,3.62,1.73,3.62,3.25S103.44,25.5,100.67,25.5Z"/><path class="cls-1" d="M116.45,23.82,113,25.45h-.42c-2.78,0-4.2-1.37-4.2-4.35v-5H106.7a1.2,1.2,0,0,1-.21-.73,1.61,1.61,0,0,1,.1-.53,6,6,0,0,0,4.77-2.93,1.2,1.2,0,0,1,1,.42V14.8a12.06,12.06,0,0,0,3.51-.31,1.33,1.33,0,0,1,.26.84,2,2,0,0,1-.15.73h-3.62v4.56c0,1.94.79,2.83,2.2,2.83a4.53,4.53,0,0,0,1.57-.47.63.63,0,0,1,.32.58Z"/><path class="cls-1" d="M128,24.45a12.76,12.76,0,0,0-1.73.21,12,12,0,0,0-2.15.84h-.21a2.64,2.64,0,0,1-.94-1.78l-2.41,1.57a2.75,2.75,0,0,1-.89.21,2.72,2.72,0,0,1-2.57-2.78,2.73,2.73,0,0,1,2.36-2.94l3.41-.73V17.84c0-.94-.48-1.46-1.73-1.46A8.21,8.21,0,0,0,118,17a.69.69,0,0,1-.26-.74l3.15-1.78a5,5,0,0,1,1.73-.26c2.78,0,4.19,1.46,4.19,3.72v4.56c0,.84.37,1.26,1.1,1.26a.68.68,0,0,1,.11.31A1.15,1.15,0,0,1,128,24.45Zm-5.13-4.61c-1.84.42-2.47.78-2.47,1.88a1.41,1.41,0,0,0,1.35,1.48H122a1.68,1.68,0,0,0,.9-.26Z"/><path class="cls-1" d="M131.18,25.24a1.74,1.74,0,0,1-1.88-1.57v-.16a1.77,1.77,0,0,1,1.78-1.79h.1a1.79,1.79,0,0,1,.61,3.52A2.08,2.08,0,0,1,131.18,25.24Z"/><path class="cls-1" d="M136.74,25.24a1.74,1.74,0,0,1-1.88-1.57c0-.05,0-.11,0-.16a1.79,1.79,0,0,1,1.78-1.79h.11a1.79,1.79,0,0,1,.61,3.52A2.08,2.08,0,0,1,136.74,25.24Z"/><path class="cls-1" d="M142.3,25.24a1.73,1.73,0,0,1-1.83-1.62s0-.08,0-.11a1.84,1.84,0,1,1,3.67-.21,1.83,1.83,0,0,1-1.73,1.93Z"/><path class="cls-1" d="M45,21.5l-6.29-6.13-.66-3.83-3.72,2.57H28a29.33,29.33,0,0,0-13.4,3.23l-13.84,7A1.25,1.25,0,0,0,0,25.49a1.32,1.32,0,0,0,1.36,1.27h.12l8.64-1.26L1,28.11a1.37,1.37,0,0,0-1,1.32A1.36,1.36,0,0,0,1.36,30.8h.17L20,28.66l-.16-1.91a4.32,4.32,0,0,1,1.86-3.39l2.89-2L22.37,23.9a4.77,4.77,0,0,0-1.15,3.56l.44,5.25s.16,2.68,2.52,2.24,1.64-3,1.64-3V26.31l1,1,6.35-.11c-1.86-1.25-.71-5.08-.71-5.08l.38,2.4a3.66,3.66,0,0,0,3.61,3.12h5.91a5.78,5.78,0,0,0,4.37-2l2.52-3Zm-9.14-3.18,1.26,3.5L36.7,22l-1.26-3.5Zm.11,7V23.9l1.53,1.37Zm6.84.22-3.56-1,.17-.44,3.55,1Z"/><polygon class="cls-1" points="32.82 3.17 32.82 2.19 30.85 2.19 33.53 0 28.93 0 28.93 0.93 30.85 0.93 28.22 3.17 32.82 3.17"/><polygon class="cls-1" points="39.33 7.17 39.33 6.18 36.59 6.18 39.93 3.39 34.51 3.39 34.51 4.38 37.25 4.38 33.97 7.17 39.33 7.17"/></g></g></svg>