<svg xmlns="http://www.w3.org/2000/svg" viewBox="0 0 285 65">
  <title>Asset 25</title>
  <g id="Layer_2" data-name="Layer 2">
    <g id="sol">
      <g>
        <path d="M141.7,42a20,20,0,0,1-9.1-2.2,33.3,33.3,0,0,0,.2-3.4,18.7,18.7,0,0,0-.4-3.5,1.9,1.9,0,0,1,1.2-.5h.5c1.3,4.5,4.6,7,8.5,7,2.3,0,4-1.4,4-3.2s-.8-2.6-2.5-3.7L137,28.1c-2.6-1.7-4.1-3.8-4.1-6.6,0-5.1,4.5-9,10.7-9a20.7,20.7,0,0,1,8.5,1.7,11.4,11.4,0,0,0-.3,2.4,16.1,16.1,0,0,0,.4,3.5,1.9,1.9,0,0,1-1,.4h-.5c-1.3-3.3-3.9-5.5-7.2-5.5s-3.4,1-3.4,2.7,1.2,2.8,3.6,4.2l5.1,3c3.2,2,4.9,4.6,4.9,6.9C153.7,37.4,148.7,42,141.7,42Z" fill="#505151"/>
        <path d="M169.4,41.3a50.3,50.3,0,0,0-6.4-.4,58.1,58.1,0,0,0-6.6.4,1.4,1.4,0,0,1-.2-.7,2.4,2.4,0,0,1,.1-.7c1.7-.2,2.9-1,2.9-3.1V26.6a2.8,2.8,0,0,0-3-3.1,1.7,1.7,0,0,1-.2-.9,1.3,1.3,0,0,1,.2-.6l4.9-.3a24.8,24.8,0,0,0,4.9-1.4,1.9,1.9,0,0,1,1.1.9,28,28,0,0,0-.4,4.7V36.8a2.8,2.8,0,0,0,2.8,3.1,2.4,2.4,0,0,1,.1.7A1.4,1.4,0,0,1,169.4,41.3Zm-6.9-22.8a3.5,3.5,0,0,1-3.7-3.5,3.6,3.6,0,0,1,3.7-3.5,3.5,3.5,0,0,1,3.8,3.5A3.6,3.6,0,0,1,162.5,18.5Z" fill="#505151"/>
        <path d="M190.2,30.5H178.6c.4,3.7,2,7.7,6.6,7.7a6.8,6.8,0,0,0,4.6-1.9,1.4,1.4,0,0,1,1.2.9c-1.8,2.3-4.2,4.8-9,4.8-7.1,0-10.7-4.6-10.7-10.3A10.6,10.6,0,0,1,178,21.4a11.4,11.4,0,0,1,4.6-.9c6.7,0,8.9,4.2,8.9,8.1A3.3,3.3,0,0,1,190.2,30.5Zm-8.5-7.9c-2.3,0-3.2,2.8-3.2,6.1l5.8-.4a8.3,8.3,0,0,0,.3-2.1C184.6,24.1,183.5,22.6,181.7,22.6Z" fill="#505151"/>
        <path d="M202.1,42a16.1,16.1,0,0,1-7.4-1.8,11.6,11.6,0,0,0-.2-4.5,2,2,0,0,1,1.5-.3c.6,1.9,2.7,4.3,6.8,4.3,2.4,0,3.5-1.1,3.5-2.2s-.8-1.7-4.7-3c-6.1-2-7.5-3.7-7.5-6.6s4.6-7.4,10.6-7.4a12.9,12.9,0,0,1,6.1,1.5,9,9,0,0,0,0,4,1.5,1.5,0,0,1-1.3.5,7.2,7.2,0,0,0-6.7-4c-1.8,0-2.8.8-2.8,1.6s1.2,2.3,4.9,3.4c5.4,1.7,6.9,3.3,6.9,6.2S207.4,42,202.1,42Z" fill="#505151"/>
        <path d="M232.2,38.8l-6.6,3.1h-.8c-5.3,0-8-2.6-8-8.3V24h-3.2a2.4,2.4,0,0,1-.4-1.4,3.1,3.1,0,0,1,.2-1,11.5,11.5,0,0,0,9.1-5.6,2.3,2.3,0,0,1,1.9.8v4.8c5.1,0,6.7-.6,6.7-.6a2.6,2.6,0,0,1,.5,1.6,4.1,4.1,0,0,1-.3,1.4h-6.9v8.7c0,3.7,1.5,5.4,4.2,5.4a8.8,8.8,0,0,0,3-.9,1.2,1.2,0,0,1,.6,1.1Z" fill="#505151"/>
        <path d="M254.2,40a23.7,23.7,0,0,0-3.3.4,21.8,21.8,0,0,0-4.1,1.6h-.4a5,5,0,0,1-1.8-3.4l-4.6,3a5,5,0,0,1-1.7.4,5.2,5.2,0,0,1-4.9-5.3,5.2,5.2,0,0,1,4.5-5.6l6.5-1.4V27.4c0-1.8-.9-2.8-3.3-2.8a15.9,15.9,0,0,0-5.9,1.2,1.3,1.3,0,0,1-.5-1.4l6-3.4a10,10,0,0,1,3.3-.5c5.3,0,8,2.8,8,7.1v8.7q0,2.4,2.1,2.4a1.3,1.3,0,0,1,.2.6A2.4,2.4,0,0,1,254.2,40Zm-9.8-8.8c-3.5.8-4.7,1.5-4.7,3.6a2.7,2.7,0,0,0,3,2.8,3.2,3.2,0,0,0,1.7-.5Z" fill="#505151"/>
        <path d="M260.3,41.5a3.3,3.3,0,0,1-3.6-3.3,3.4,3.4,0,0,1,3.6-3.4,3.4,3.4,0,1,1,0,6.7Z" fill="#505151"/>
        <path d="M270.9,41.5a3.3,3.3,0,0,1-3.6-3.3,3.4,3.4,0,0,1,3.6-3.4,3.4,3.4,0,1,1,0,6.7Z" fill="#505151"/>
        <path d="M281.5,41.5a3.3,3.3,0,0,1-3.5-3.3,3.5,3.5,0,1,1,3.5,3.3Z" fill="#505151"/>
      </g>
      <g>
        <path d="M82.8,39.8,71.3,28.6l-1.2-7-6.8,4.7H51.6a53.6,53.6,0,0,0-24.5,5.9L1.8,45A2.3,2.3,0,0,0,.5,47.1a2.4,2.4,0,0,0,2.7,2.3L19,47.1,2.3,51.9A2.5,2.5,0,0,0,.5,54.3a2.5,2.5,0,0,0,2.8,2.5l33.8-3.9-.3-3.5a8,8,0,0,1,3.4-6.2l5.3-3.7-4.1,4.7a8.7,8.7,0,0,0-2.1,6.5l.8,9.6s.3,4.9,4.6,4.1,3-5.4,3-5.4V48.6l1.8,1.8,11.6-.2c-3.4-2.3-1.3-9.3-1.3-9.3l.7,4.4A6.7,6.7,0,0,0,67.1,51H77.9a10.6,10.6,0,0,0,8-3.7l4.6-5.4ZM66.1,34l2.3,6.4-.8.3-2.3-6.4Zm.2,12.7V44.2l2.8,2.5Zm12.5.4-6.5-1.9.3-.8,6.5,1.9Z" fill="none" stroke="#20c7e2" stroke-miterlimit="10"/>
        <polygon points="60.5 6.3 60.5 4.5 56.9 4.5 61.8 0.5 53.4 0.5 53.4 2.2 56.9 2.2 52.1 6.3 60.5 6.3" fill="none" stroke="#20c7e2" stroke-miterlimit="10"/>
        <polygon points="72.4 13.6 72.4 11.8 67.4 11.8 73.5 6.7 63.6 6.7 63.6 8.5 68.6 8.5 62.6 13.6 72.4 13.6" fill="none" stroke="#20c7e2" stroke-miterlimit="10"/>
      </g>
    </g>
  </g>
</svg>
