<svg xmlns="http://www.w3.org/2000/svg" xmlns:xlink="http://www.w3.org/1999/xlink" viewBox="0 0 86.42 72.59"><defs><style>.cls-1{isolation:isolate;}.cls-2{fill:#f9825d;}.cls-3{fill:#efdfda;}.cls-4{opacity:0.38;mix-blend-mode:lighten;}.cls-5{fill:url(#linear-gradient);}.cls-6{fill:url(#linear-gradient-2);}</style><linearGradient id="linear-gradient" x1="6.43" y1="36.52" x2="76.81" y2="36.52" gradientUnits="userSpaceOnUse"><stop offset="0" stop-color="#fff"/><stop offset="1" stop-color="#ffcc61"/></linearGradient><linearGradient id="linear-gradient-2" x1="0" y1="37.31" x2="80.28" y2="37.31" xlink:href="#linear-gradient"/></defs><title>Asset 12</title><g class="cls-1"><g id="Layer_2" data-name="Layer 2"><g id="Layer_1-2" data-name="Layer 1"><path id="sol" class="cls-2" d="M71.49,27.37a20.78,20.78,0,0,0-8.62-6.3c-3.27,8,2.22,18.38,10.69,20.16A20.62,20.62,0,0,0,70,23.33c-2.94-3.8-8.42-6.54-12.51-4a11.31,11.31,0,0,0-3.57,4.09c-3.12,5.63-4,13.47.49,18a3.36,3.36,0,0,0,2.64,1.16c1-.15,1.93-1.45,2.31-2.65a12.62,12.62,0,0,0-.53-8.52,5.38,5.38,0,0,0-2-2.5c-2.45-1.49-5.82,1.11-5.92,4s2,5.39,4.38,7S60.9,42.43,63.4,41c3.47-2,3.13-7.31,1.06-10.78s-7.17-6.4-10.44-3.8c-2.12,1.68-2.41,4.91-1.64,7.51A13.28,13.28,0,0,0,66,43.2a17.61,17.61,0,0,0-9.86-17.9,4.68,4.68,0,0,0-2.65-.53c-2.21.39-2.93,3.32-2.55,5.59a12.89,12.89,0,0,0,9.19,10.1,4.69,4.69,0,0,0,4.38-.53c1.16-1,1.35-3.61,1.06-5.53-.63-4-1.44-8.37-4.33-11.21s-8.71-3-10.44.72c-1,2.07-.39,4.52.53,6.59A24.72,24.72,0,0,0,63.74,43.2c3.66,1.69,8.71,2.12,11.12-1.1,1.44-1.88,1.49-4.48,1.2-6.84-.72-6.64-4.14-13.66-10.44-15.83-4.43-1.49-9.48-.19-13.19,2.65s-6.06,7.17-7.36,11.64-1.4,8.09.24,11.7,5.73,6.3,9.62,5.39,6.5-5.2,7.37-9.29c1.34-6.06.05-13.14-4.77-17.08S44,21.74,41.75,27.52s2.74,12.22,8.52,14.67c2.55,1.11,5.48,1.74,8,.68s5-5.2,4.57-8.71-2.5-6.59-5.1-8.95-6.11-4.14-9.28-2.89-4.82,6.06-4.19,9.86c1.44,8.19,9.86,14.49,18.14,13.53a29.77,29.77,0,0,0-4.86-18.34c-1.25-2-3.32-3.94-5.58-3.41a5,5,0,0,0-3.13,3.36c-2.6,6.93,2.79,14.83,9.67,17.42a5.92,5.92,0,0,0,4.14.39c1.35-.48,2.89-3.08,3.23-5.15a26.74,26.74,0,0,0,0-9.77c-.28-1.49-.77-3.08-2.11-3.7-2.22-1.11-4.53,1.3-5.73,3.46-2.16,4-4,8.42-3.08,12.8S60.9,50.86,65,49c3.23-1.49,4.38-5.44,4.91-8.95s.87-7.51-.43-11-4.43-6.55-8.14-6.6c-4.47-.09-8.18,4.38-8.32,8.91s2.6,8.71,6.11,11.55c2.07,1.68,4.62,3,7.27,2.83,5.82-.43,8.56-7.69,7.7-13.42A16.52,16.52,0,0,0,68.5,21.69c-3.17-2.55-7.84-3.46-11.45-1.54-6.35,3.32-6.21,13.09-1.78,18.72,2.55,3.32,7.08,5.87,10.88,4.14s4.42-5,4.71-8.42c.48-7.12-3.61-14.87-10.49-16.89s-15.3,4-14.34,11.07c.68,4.71,4.77,8.23,9.1,10.2,3.27,1.49,7.26,2.36,10.3.43s3.65-4.76,3.51-7.7a21.4,21.4,0,0,0-2.6-8.32c-1.3-2.6-3.71-6.55-6.69-8.76s-7.12-3.08-10.44-1.49a10.64,10.64,0,0,0-5.05,6C41.27,26.7,45.7,36.27,53.35,39c3.65,1.3,8.56.72,10.34-2.75,1-1.87.82-4,.53-6.11-.77-6.16-3-13-8.71-15.54-3.8-1.73-8.47-1-12,1.25-5.72,3.61-8.8,11.21-6.83,17.71s9,11.16,15.69,10.06,12-8.18,10.78-14.87-8.91-11.5-15.36-9.34a16.18,16.18,0,0,0-5.53,3.42c-4.47,4-7.6,10.44-5.58,16.12s7.55,8.18,13,9.58a20.59,20.59,0,0,0,7.65.67c7.32-.92,13-8.66,11.74-16s-9.38-12.56-16.6-10.87-12,10-10,17.13c1.69,5.82,7.08,9.91,12.71,12.27,3.56,1.49,8,2.36,11.06,0s3.32-6.06,3.61-9.58c.48-5.58.92-11.35-1.2-16.55s-7.56-9.43-13-8.28c-3.61.77-6.36,3.66-8.52,6.6-2.74,3.7-5,7.89-5.34,12.46C41,46.52,51.61,55.76,61.53,53.79s16.21-14.39,12-23.58S56,17.56,47.72,23.52c-2.84,2.07-5.15,5.34-5,8.91.24,6.2,7.17,9.62,13,11.69S68.07,47.2,71,42.48a10.18,10.18,0,0,0,1.1-5.87,28.4,28.4,0,0,0-6.11-16c-1.87-2.41-4.47-4.57-7.5-4.86s-7.17,2.4-9.24,5.53A19.93,19.93,0,0,0,61.19,51.53a11.58,11.58,0,0,0,8-.53c3.36-1.68,5.1-5.53,5.72-9.29a24,24,0,0,0-12.6-24.54,23.94,23.94,0,0,0-27.19,4.72c-3.18,3.32-5.44,8-4.53,12.56,1.21,5.82,7,9.48,12.47,11.79,3,1.3,6.54,2.35,9.62,1.1,4.81-1.92,5.92-8.13,6.16-13.37s.19-9.63-1.25-14.2S53,11,48.44,9.42c-7.65-2.64-16.41,4-17.81,12s3.13,16.17,9.53,21.22C44.25,46,49.35,48.3,54.6,48.21s10.63-3.08,12.7-7.89a13.09,13.09,0,0,0-2.64-13.86,18.43,18.43,0,0,0-13.33-5.68c-7.66-.14-15.45,4.28-18.53,11.31S32.32,48.4,39,52.15a23.23,23.23,0,0,0,9.14,2.41c6.16.53,12.94-.29,17.27-4.67s5-10.34,4.24-16a21.13,21.13,0,0,0-2.36-7.46c-4.62-8.32-17.08-10.63-24.78-5.05S32.9,38.83,37.9,47s15.83,11.84,25,9.19A15.25,15.25,0,0,0,68,53.69c3.65-2.79,5.14-7.6,5.19-12.17.1-7.12-3.17-14.34-9-18.33s-14.2-4.38-20-.29S35.93,35.5,39.3,41.76s12.27,9,18.91,5.92,10.39-10.88,9.28-18a13.83,13.83,0,0,0-4-8.13,13,13,0,0,0-7.12-3.17,16.73,16.73,0,0,0-17.27,10,16.78,16.78,0,0,0,5.38,19.2,29.79,29.79,0,0,0,7.42,3.65c6.88,2.65,15.39,4.67,21-.09,2.83-2.41,4.23-6.11,4.66-9.82a22.71,22.71,0,0,0-32.43-22.9,18.45,18.45,0,0,0-6.78,5.48A15.1,15.1,0,0,0,41,43.64,15,15,0,0,0,60.9,42a23.17,23.17,0,0,0,4.28-8.13c1.45-4.52,2.17-9.53.39-14-2.74-6.73-10.92-10.15-18.09-9S33.23,17.51,31,24.77a19,19,0,0,0,6.35,20.36C43.39,49.7,52.48,49.8,58.4,45a23,23,0,0,0,5.68-7.22c3.17-6,4.67-13.37,1.68-19.44S54.6,8.46,47.24,6.78C36.5,4.32,23.46,4.61,16.68,13.27c-5.39,6.88-4.86,16.8-1.93,25a32.06,32.06,0,0,0,5.06,9.33c8.37,10,23.58,10.59,36.33,7.85,4.47-1,9-2.31,12.56-5.25,6.06-5,7.74-13.52,9-21.27.73-4.33,1.4-9-.86-12.8-1.54-2.6-4.19-4.23-6.88-5.58A54.64,54.64,0,0,0,47.52,4.71,33.67,33.67,0,0,0,32.85,7,25.23,25.23,0,0,0,18,26.65a26,26,0,0,0,9.09,22.91C32.46,54,39.39,56.1,46.27,57.21c5.3.86,11,1.15,15.74-1.35C69.37,52,72,42.77,73.12,34.49c.53-4.13.87-8.51-.91-12.31s-6.64-7.08-11-9.24C51.37,8.08,39.1,4.66,30,10.72c-6.35,4.19-9.34,12-10.64,19.44a26.31,26.31,0,0,0-.28,9.48c.91,5,4.09,9.19,7.69,12.66,6.84,6.59,15.84,11.11,25.32,11.64s19.29-3.27,25.26-10.63S84.87,35,80.29,26.65C78,22.42,74.38,19.1,70.57,16.16a84,84,0,0,0-21.22-12A21.61,21.61,0,0,0,41.46,2.4c-6.11.19-11.11,5.05-14.58,10.1A58,58,0,0,0,17.5,36.8c-.87,6-.68,12.47,2.45,17.66,3.66,6.16,10.73,9.48,17.71,11,12.46,2.75,26.61.44,35.8-8.47s11.45-25,3.13-34.64c-3.27-3.85-7.8-6.4-12.42-8.52-7.55-3.56-16.45-6.16-24.06-2.74"/><path id="garabato_sol" data-name="garabato sol" class="cls-3" d="M38,70.55a8.8,8.8,0,0,1-7.84-4.33A5.48,5.48,0,0,1,26,65.55a4.86,4.86,0,0,1-1.86-5,3.85,3.85,0,0,1,2-2.81c-7.7-4.23-12.35-13.24-12-22a9.62,9.62,0,0,1-5.12,3.43l-.13,0-.12-.06c-2.61-1.31-3.31-4.39-2.12-9.41.9-3.78,2.09-7.65,4.72-10.28A9.27,9.27,0,0,1,17,17,17.3,17.3,0,0,1,18,13.73a15.49,15.49,0,0,1,9.28-9.27,9.73,9.73,0,0,1,2.24-.53A22.65,22.65,0,0,1,40.72,0a14.73,14.73,0,0,1,12.6,5.75c5.12-1.1,10.9-.53,15.13,3.19A11.1,11.1,0,0,1,71,12.19a11.25,11.25,0,0,1,1.16,0c5.81.1,11.46,4.59,13.43,10.69,1.69,5.27.91,11.66-2.14,17.56a9.55,9.55,0,0,1-2.24,2.9c.59,3.86-.45,8.75-4.25,11.1a7.52,7.52,0,0,1-7.21.11,6.29,6.29,0,0,1-2.51-2.19c-.19.31-.39.62-.59.93.11.21.21.43.3.65a11.43,11.43,0,0,1-4.77,13.88l-.46.26,0-.31a9.85,9.85,0,0,1-3.34,1.53,10.45,10.45,0,0,1-10.95-4.61A9.24,9.24,0,0,1,41.52,70,10.84,10.84,0,0,1,38,70.55ZM30.89,66a8.34,8.34,0,0,0,1.89,2.12,9.13,9.13,0,0,0,8.51,1.14,8.34,8.34,0,0,0,5.6-5.62l.23-.91.43.83a9.74,9.74,0,0,0,10.58,5,9.24,9.24,0,0,0,3.41-1.65,8.52,8.52,0,0,1,4-7.79l.55-.33v.64a10,10,0,0,1-2,5.88,10.74,10.74,0,0,0,2.15-11.13l-.11-.24c-.12.19-.25.37-.37.55C64.83,55.8,63.65,57.14,62,57c-1.34-.09-2.58-1.21-3.48-3.15l-.12-.26a10.75,10.75,0,0,1-5.66,2.78l-.33,0-.37,7.42h-.72a36,36,0,0,0-1-7.42,15,15,0,0,1-7.8-3.57,17.1,17.1,0,0,1-2.2-2.22l-1.23,1.76.42-2.83-.31-.45a11.91,11.91,0,0,1-4.4-1c.09.39.19.78.29,1.16.35,1.34.71,2.73.94,4.13.66,4,.23,7.21-1.3,9.59A7.47,7.47,0,0,1,30.89,66Zm34.48-5.9a7.76,7.76,0,0,0-3.12,6.18A9.72,9.72,0,0,0,65.37,60.12ZM15,34.56c-1,9.12,3.94,18.85,12.22,22.95l1,.48-1.07.2a2.94,2.94,0,0,0-2.28,2.52,4.15,4.15,0,0,0,1.54,4.23,4.68,4.68,0,0,0,3.39.61,11.34,11.34,0,0,1-1.17-4.62,12,12,0,0,1,.24-3,28.28,28.28,0,0,1-7.29-15.35,14.43,14.43,0,0,1,.38-6l-1.15.74,1.47-1.56a6,6,0,0,1,2.61-2.91,5,5,0,0,1,.62-.29c.52-.46,1.06-.92,1.6-1.36q-3.9-2.45-3.51-5.49a6.64,6.64,0,0,1,2.07-3.52,24.26,24.26,0,0,1,15.69-7c.59-2.74,3-5.64,6-7.23a22.48,22.48,0,0,1,5.19-2A14,14,0,0,0,40.76.74,21.48,21.48,0,0,0,30.78,4a4.76,4.76,0,0,1,1.89.78c1.9,1.3,2.16,4,1.43,5.91a14.77,14.77,0,0,1-3.8,4.9,6.39,6.39,0,0,1-3.43,2,3.63,3.63,0,0,1-3-1.16,5.12,5.12,0,0,1-1.4-4.16c.37-2.67,2.42-4.71,4.17-6.19C27,5.71,27.49,5.35,28,5l-.5.17A14.77,14.77,0,0,0,18.64,14a16.82,16.82,0,0,0-.86,2.93A6.16,6.16,0,0,1,22,18.49c1.75,1.63,1.65,4.27.82,6a4,4,0,0,1-4.05,2.54l-.18,0-.09-.16a14.82,14.82,0,0,1-1.56-9.2,8.54,8.54,0,0,0-5,2.35c-2.5,2.5-3.65,6.26-4.52,9.94C6.33,34.52,6.85,37.31,9,38.49a9,9,0,0,0,5.29-4.16,21,21,0,0,1,1.21-5.11l.61-1.61.09,1.72A9.57,9.57,0,0,1,15,34.56Zm14.46,24a12,12,0,0,0-.13,2.33,10.66,10.66,0,0,0,1.17,4.48l.09,0a6.78,6.78,0,0,0,3.58-2.72c1.43-2.22,1.83-5.28,1.2-9.08-.23-1.37-.58-2.74-.93-4.07-.14-.58-.3-1.16-.44-1.75l-.65-.38A49.45,49.45,0,0,1,31,52l-.14.24-.27-.06a3,3,0,0,1-2-1.72c-.81-1.9-.07-4.78,1-6.65l.17-.3a16.31,16.31,0,0,1-2.28-10.49L23,35.89a12.56,12.56,0,0,0-.71,6.59,27.69,27.69,0,0,0,6.78,14.6,11,11,0,0,1,3-5l.74-.69-1.23,9.08L31,60C30.49,59.56,30,59.08,29.47,58.57Zm.17-.86c.44.46.89.9,1.35,1.33l.77-5.63A10.53,10.53,0,0,0,29.64,57.71Zm21.5-1.22c.17.75.33,1.52.46,2.32l.11-2.32ZM59,53.11c.07.16.14.32.22.48.45,1,1.43,2.63,2.87,2.73,1.27.08,2.28-1.1,3.1-2.26.2-.28.39-.57.59-.86a10.47,10.47,0,0,0-3.91-3.85A18.62,18.62,0,0,1,59,53.11Zm-8,2.65a7.09,7.09,0,0,0,.8,0l.37-7.49h-.39a18,18,0,0,1-2,2.86l-.14.17-.22-.06-.15,0A22.78,22.78,0,0,1,51,55.76Zm1.72-4-.2,3.94.2,0a10.14,10.14,0,0,0,5.45-2.75,32,32,0,0,1-1.59-4.56,12,12,0,0,1-1.57-.1H53.83c-.28.79-.56,1.59-.81,2.4ZM40.81,50A16,16,0,0,0,43,52.31a14.75,14.75,0,0,0,7.14,3.38A21.08,21.08,0,0,0,48.25,51,23.62,23.62,0,0,1,43,48.67a9.26,9.26,0,0,1-1,.25l-.37.07Zm26.82,1.57A5.47,5.47,0,0,0,70,53.86a6.79,6.79,0,0,0,6.51-.09c3.41-2.11,4.41-6.48,4-10.05a4.77,4.77,0,0,1-3.86.12,6.27,6.27,0,0,1-3.74-3.63l0,0A55.18,55.18,0,0,1,67.63,51.61Zm-5.42-2.89a11.32,11.32,0,0,1,4,3.81l.6-1a5.09,5.09,0,0,1-.4-1.6,6.19,6.19,0,0,1,.12-1.67l-4.11,0A3.72,3.72,0,0,1,62.21,48.72Zm-4.93-.35a31,31,0,0,0,1.4,4A18.53,18.53,0,0,0,61.23,49a11.83,11.83,0,0,0-1.65-.66ZM30.12,44.22c-1,1.77-1.61,4.4-.92,6a2.11,2.11,0,0,0,1.26,1.22c.86-1.54,1.66-3,2.3-4.49A12.18,12.18,0,0,1,30.12,44.22Zm37.14,4.07a5.54,5.54,0,0,0-.13,1.63,5,5,0,0,0,.16.86,54.32,54.32,0,0,0,4.3-9.05l-1,1.13a15.61,15.61,0,0,0-3.13,4.7h1v.72ZM48.73,50.34l.59.16A18,18,0,0,0,52,46.25a8.49,8.49,0,0,1-.83-2.3,23.39,23.39,0,0,1-.28-8.21l-.25.36c0,.53-.06,1-.11,1.56a16,16,0,0,1-2.13,7.14,8.51,8.51,0,0,1-2.13,2.27,15.9,15.9,0,0,1,1.5,1.74C48.08,49.3,48.41,49.81,48.73,50.34Zm-4.85-2A23.38,23.38,0,0,0,47.68,50q-.27-.41-.54-.78a14.58,14.58,0,0,0-1.52-1.75A10.1,10.1,0,0,1,43.88,48.36Zm-3.56,1,0,0,.24-.34-.23,0Zm-.67-1h.09L40,46.65a23.25,23.25,0,0,1-2.16-1.93A19.51,19.51,0,0,0,39.65,48.42Zm1-1.26-.18,1.23.66-.07.39-.55Zm20.83,1.18.1,0,0,0ZM34.64,47.25a11,11,0,0,0,4.14,1.13,19.53,19.53,0,0,1-1.49-3.09l-.39.57-.55.81-.11-1c-.06-.59-.11-1.17-.16-1.75a9.29,9.29,0,0,0-1.62.3c-.08.29-.16.58-.25.86C34.32,45.83,34.47,46.54,34.64,47.25Zm18.39,1v.09l0-.09Zm-.88-.78c-.1.21-.22.42-.33.63l.31-.09Zm-9.61.08.51.31a9.42,9.42,0,0,0,2-.91,13.36,13.36,0,0,0-1.37-1Zm10.49,0v.19l.2-.06h0Zm9.77,0h3.92a15.89,15.89,0,0,1,3.34-5.17l2.17-2.5c.12-.36.23-.72.34-1.08A8.73,8.73,0,0,1,74,33.2c.13-.66.25-1.32.35-2l.13-.88.61.86.22.3.44-.44c2.41-2.31,5.57-3.6,8.35-4.74l1.4-.58-7.89,9.1A23.77,23.77,0,0,1,81,42.47,9.66,9.66,0,0,0,82.77,40c3-5.71,3.72-11.91,2.09-17C83,17.24,77.62,13,72.11,12.86q-.4,0-.81,0a13.56,13.56,0,0,1,1.06,7.42A9.84,9.84,0,0,1,67,28.13a5.61,5.61,0,0,1-2.42.52,3.39,3.39,0,0,1-.72-.13A26.14,26.14,0,0,1,62.8,47.56Zm-3.39,0H62A25.39,25.39,0,0,0,63.56,30l-1,2.22c-1.19,2.55-2.28,5.24-3.36,8.2-.17.39-.26.84-.08,1h0a.32.32,0,0,0,.19-.14.13.13,0,0,0,0,.12l.4-.6a.6.6,0,0,1,.28.59.91.91,0,0,1-.63.69.73.73,0,0,1-.78-.15c-.55-.55-.24-1.44-.08-1.8.62-1.71,1.25-3.34,1.91-4.9a60.23,60.23,0,0,0-4.14,7.29A29.78,29.78,0,0,0,57,47.18,10.69,10.69,0,0,1,59.41,47.56Zm-5.23-.2.14,0a9.51,9.51,0,0,1,1.91-.24,32.48,32.48,0,0,1-.57-3.37C55.13,45,54.64,46.15,54.18,47.36Zm-13.41-1c.38.29.77.56,1.16.83l1.14-1.62a12.18,12.18,0,0,0-2-1ZM53,46.59a2.25,2.25,0,0,0,.49.45q.91-2.37,2-4.67a32.06,32.06,0,0,1,1.76-12.86c.7-2,2-3.8,3.64-4.23a7,7,0,0,1-.34-1.47A10,10,0,0,1,63.41,16a12.16,12.16,0,0,1,6.79-3.74A10.63,10.63,0,0,0,68,9.5C64,6,58.6,5.43,53.74,6.41l.31.53a11.08,11.08,0,0,1,.74,8.36,9,9,0,0,1-4.41,5.51,7.31,7.31,0,0,1-3.5.86c0,.12,0,.23,0,.35.83-.16,1.67-.29,2.51-.39l.62-.08-.24.57c-.49,1.18-1,2.36-1.53,3.53a12.18,12.18,0,0,1,1.28,2.64A9.08,9.08,0,0,1,52.05,31c.09-.25.19-.5.29-.75L53,28.51v2.85l.69-1-.19,3.94.12.48A18.5,18.5,0,0,1,53,45.48Zm-19.38.09.14.09-.06-.3A1.8,1.8,0,0,0,33.65,46.68ZM44.1,45.35a12.93,12.93,0,0,1,1.59,1.22,8.17,8.17,0,0,0,2.06-2.17,15.36,15.36,0,0,0,2-6.82c0-.12,0-.23,0-.35ZM30.52,43.53a11.73,11.73,0,0,0,2.53,2.72c.15-.39.3-.78.42-1.18l-.12-.91,0-.28.26-.1.28-.1a12,12,0,0,0,.3-3.87c-.19-.35-.37-.7-.53-1.06C32.52,40.29,31.48,41.89,30.52,43.53Zm7.63.47a26.33,26.33,0,0,0,2,1.83l.22-1.46A12.1,12.1,0,0,0,38.18,44Zm13.68-9.67a22.72,22.72,0,0,0,0,9.47,8.78,8.78,0,0,0,.45,1.44l0-.94V33.64ZM41.14,43.88A13,13,0,0,1,43.49,45l6.38-9.1a20.83,20.83,0,0,0-.93-7.1l-.27-.16c.43,3.45-1.24,6.71-2.73,8.84L45.35,37c1.43-2.05,3-5.18,2.59-8.45l-.06-.35a6.14,6.14,0,0,0-.73-.22c-1.57,3.28-3.27,6.51-5.09,9.65Zm-4.34,0,.06.73.13-.19c-.06-.18-.12-.36-.17-.54Zm1.81-.62a11.91,11.91,0,0,1,1.83.38l.64-4.34Q39.88,41.32,38.61,43.28Zm34.85-3.7.06.19a5.52,5.52,0,0,0,3.36,3.4,4.08,4.08,0,0,0,3.5-.21,2,2,0,0,1,0-.26,22.52,22.52,0,0,0-3.26-7.29ZM34.93,41.11a12.38,12.38,0,0,1-.29,2.35,10.48,10.48,0,0,1,1.4-.23c0-.2,0-.4,0-.6C35.62,42.13,35.26,41.62,34.93,41.11Zm2.47,2.07.4,0q1.86-2.84,3.56-5.78l.11-.7a5.59,5.59,0,0,1-4.63,1.39q0,.44,0,.87a16.82,16.82,0,0,0,.54,4.15ZM28.13,33a15.66,15.66,0,0,0,1.95,9.86c1-1.67,2.08-3.3,3.22-4.87a16.88,16.88,0,0,1-.69-2.08,8,8,0,0,0-2.73-2.33A5.72,5.72,0,0,0,28.13,33Zm25.24,4.53-.24,4.92A18,18,0,0,0,53.37,37.52ZM34.87,39.6A20.26,20.26,0,0,0,36,41.35c0-1.16,0-2.33.06-3.49a4.61,4.61,0,0,1-1.19-.72l-.41.54a7.66,7.66,0,0,1,.42,1.68ZM61.2,26c-1.4.32-2.6,2-3.23,3.8A31.44,31.44,0,0,0,56.19,41a63.62,63.62,0,0,1,5.72-9.21l1.58-2.11c-.15-.54-.33-1.08-.52-1.61A5.06,5.06,0,0,1,61.2,26Zm13.45,7.51c-.33,1.7-.75,3.39-1.24,5.06l3.25-3.75c-.47-.71-1-1.41-1.44-2.11A8.39,8.39,0,0,0,74.65,33.47ZM36.9,37.39a5.28,5.28,0,0,0,4.73-1.77l1-7A8.9,8.9,0,0,0,41,29.72l-.11.56a4.67,4.67,0,0,1-2.94,3.37A12.29,12.29,0,0,0,36.9,37.39Zm-1.63-.82a3.93,3.93,0,0,0,.8.52c0-.56.09-1.13.15-1.69C35.9,35.78,35.58,36.17,35.27,36.57Zm-2-1a9.09,9.09,0,0,1,.81,1.33l.23-.3A6,6,0,0,1,33,33.78l-.08,0A13.63,13.63,0,0,0,33.28,35.59ZM33.79,34a5.19,5.19,0,0,0,1,2.08c.52-.66,1.06-1.31,1.6-1.95h0a5.06,5.06,0,0,1-.68.05A8.62,8.62,0,0,1,33.79,34ZM49.91,29.5a21.5,21.5,0,0,1,.69,5.32l.55-.78c.16-.73.36-1.46.59-2.18A9.12,9.12,0,0,0,49.91,29.5Zm-6.47-1.2-.94,6.35a11.54,11.54,0,0,0,1.24-1.91,21.9,21.9,0,0,0,1.82-4.88A7,7,0,0,0,43.44,28.3Zm-14.9,4a7.15,7.15,0,0,1,1.67.6,8.51,8.51,0,0,1,2.1,1.53q-.08-.47-.12-.93c-1-.33-1.9-.74-2.82-1.14l-.53-.25ZM75.7,32.1c.49.7,1,1.4,1.45,2.11l5.77-6.64a21.73,21.73,0,0,0-6.71,4C76,31.75,75.86,31.93,75.7,32.1Zm-42,1.09a8.12,8.12,0,0,0,2,.22,4.43,4.43,0,0,0,.8-.08,46.55,46.55,0,0,1,1.65-7.17L35.42,27.9a9.05,9.05,0,0,0-1.73,3.85A5.77,5.77,0,0,0,33.66,33.19Zm-7.78,0,0,0,0,0Zm13.2-7.62a46.56,46.56,0,0,0-1.83,7.54l.27-.31a11.34,11.34,0,0,1,2.8-3.47,9.91,9.91,0,0,1,2.47-1.53l.62-4.22c-.8.22-1.59.47-2.38.74ZM32.88,33l0,0a6.07,6.07,0,0,1,0-1.35,8.56,8.56,0,0,1,1-2.82l-.69.45a.76.76,0,0,0,0,.11A11.25,11.25,0,0,0,32.88,33Zm-3.33-1.3.08,0c.83.37,1.67.73,2.52,1a11.53,11.53,0,0,1,.24-2.89Zm-1.94,0-.63.52h.42l.13-.08C27.56,32,27.58,31.84,27.61,31.69Zm.86-.55.32.17,3.87-2.49A7.67,7.67,0,0,1,33,28a44.7,44.7,0,0,0-4.47,3A.75.75,0,0,1,28.47,31.14Zm10.83-15a23.29,23.29,0,0,0-13.12,6.55,6.11,6.11,0,0,0-1.88,3.12c-.23,1.78.91,3.43,3.39,4.92l.19-.15C29.46,24.7,33.63,20.31,37,17.61A13.77,13.77,0,0,1,39.3,16.12Zm1.92.05a10.62,10.62,0,0,0-3.82,2c-3,2.48-6.85,6.43-8.55,11.65a42.55,42.55,0,0,1,4.73-3,10.58,10.58,0,0,1,4-3.85,8.8,8.8,0,0,1,2.06-.83c.56-1.36,1.19-2.7,1.88-4A5.21,5.21,0,0,1,41.22,16.17Zm5.08,11.7-.12.5c.07-.16.15-.33.23-.49Zm-12.2-.53a9,9,0,0,0-.41.82l1.23-.79c.2-.28.41-.54.6-.77C35,26.84,34.57,27.09,34.1,27.34Zm29.47.28a2.72,2.72,0,0,0,1.06.31,5.07,5.07,0,0,0,2.09-.45,9.13,9.13,0,0,0,4.92-7.27A12.82,12.82,0,0,0,70.55,13a11.38,11.38,0,0,0-6.61,3.55,9.3,9.3,0,0,0-2.63,7.21,6.64,6.64,0,0,0,.34,1.45,3.21,3.21,0,0,1,.8.11l.15.05.07.15Q63.17,26.54,63.57,27.62Zm-15.07.09,0,0-.12-.27C48.45,27.54,48.47,27.62,48.5,27.71Zm-4.34-4.23-.6,4a7.48,7.48,0,0,1,2.16-.37,20.13,20.13,0,0,0,.35-2.31A5.71,5.71,0,0,0,44.16,23.48Zm3.3,3.86.19.05-.09-.25Zm-1-.18.29,0,.42-.9c-.14-.24-.29-.48-.45-.7C46.64,26.11,46.56,26.64,46.45,27.16ZM62,25.93a5.65,5.65,0,0,0,.36.58c-.08-.19-.16-.37-.25-.56Zm-43,.43a3.28,3.28,0,0,0,3.13-2.15A4.62,4.62,0,0,0,21.49,19a5.48,5.48,0,0,0-3.83-1.39A14.1,14.1,0,0,0,19,26.36ZM39.24,23a8.54,8.54,0,0,0-1.36.6A9.69,9.69,0,0,0,35,26.07c.63-.32,1.26-.62,1.9-.91a14,14,0,0,1,2.22-1.74Zm-2,2.78,0,0L37,26l.67-.43ZM46.86,24a9.34,9.34,0,0,1,.9,1q.57-1.26,1.11-2.55c-.66.1-1.32.21-2,.33C46.9,23.16,46.88,23.58,46.86,24Zm-7.2-.08,0,.12,1.09-.39.66-.42A6.67,6.67,0,0,0,39.66,23.91ZM45.59,23c.2.12.39.25.58.39,0-.17,0-.34,0-.52Zm-5.47-.27-.07.16a5.57,5.57,0,0,1,.7-.27C40.54,22.67,40.33,22.7,40.12,22.75Zm4.15-.37.33.13c.52-.13,1-.24,1.57-.35,0-.17,0-.33,0-.5v0c-.26,0-.51-.08-.75-.13l-1.12.72C44.28,22.26,44.27,22.32,44.27,22.38Zm-2.69-.51a7.22,7.22,0,0,1,1.61.18l.37-.24a6.47,6.47,0,0,0-.09-1.14,4.83,4.83,0,0,1-1.18-1.06,4.73,4.73,0,0,1-.44-.66c-.5,1-1,2-1.4,3A8.71,8.71,0,0,1,41.58,21.87Zm2.67-.78a2.46,2.46,0,0,1,0,.26l.24-.15Zm2.56-.17a7,7,0,0,0,3.24-.75,8.31,8.31,0,0,0,4.05-5.08,10.25,10.25,0,0,0-.69-7.8c-.13-.24-.27-.48-.41-.71a21.58,21.58,0,0,0-5.3,2,11.35,11.35,0,0,0-5.6,6.55,23.31,23.31,0,0,1,9.55,1.65l.65.26-5.53,3.56C46.78,20.71,46.8,20.82,46.81,20.92Zm-2.69-.68a5.13,5.13,0,0,0,1.16.47l.7-.45c-.28-1.48-.93-3.19-2.42-3.92A3.06,3.06,0,0,0,42,16.06a4.42,4.42,0,0,0,.17,1.71A3,3,0,0,1,44.12,20.24Zm.1-4.36a6,6,0,0,1,2.41,4l4.1-2.64A22.64,22.64,0,0,0,44.22,15.88Zm-1.6,2.95a2.75,2.75,0,0,0,.23.33l.23.27A2.09,2.09,0,0,0,42.62,18.83ZM29.73,4.64a32,32,0,0,0-2.67,2C25.42,8,23.48,9.93,23.15,12.36a4.42,4.42,0,0,0,1.2,3.56,2.94,2.94,0,0,0,2.44.94,5.79,5.79,0,0,0,3-1.83,14.3,14.3,0,0,0,3.61-4.63c.63-1.63.44-4-1.16-5.06A3.91,3.91,0,0,0,29.73,4.64Z"/><g class="cls-4"><path class="cls-5" d="M65.35,29.41a20.84,20.84,0,0,0-8.62-6.3c-3.27,8,2.22,18.38,10.69,20.16a20.61,20.61,0,0,0-3.56-17.9c-2.94-3.8-8.43-6.55-12.52-4a11.29,11.29,0,0,0-3.56,4.09c-3.12,5.63-4,13.47.48,18a3.39,3.39,0,0,0,2.65,1.16c1-.15,1.93-1.45,2.31-2.65a12.61,12.61,0,0,0-.53-8.52,5.33,5.33,0,0,0-2-2.5c-2.46-1.49-5.82,1.11-5.92,4s2,5.39,4.38,7,5.58,2.55,8.08,1.11c3.47-2,3.13-7.32,1.06-10.78s-7.17-6.4-10.44-3.8c-2.12,1.68-2.41,4.91-1.64,7.5a13.27,13.27,0,0,0,13.62,9.29A17.6,17.6,0,0,0,50,27.34a4.68,4.68,0,0,0-2.65-.53c-2.21.39-2.94,3.32-2.55,5.58A12.9,12.9,0,0,0,54,42.5,4.69,4.69,0,0,0,58.37,42c1.15-1,1.35-3.61,1.06-5.53-.63-4-1.45-8.38-4.33-11.22s-8.71-3-10.44.73c-1,2.06-.39,4.52.52,6.59A24.78,24.78,0,0,0,57.6,45.24c3.66,1.69,8.71,2.12,11.12-1.1,1.44-1.88,1.49-4.48,1.2-6.84-.72-6.64-4.14-13.66-10.44-15.83C55.05,20,50,21.28,46.29,24.12s-6.06,7.17-7.36,11.64-1.4,8.09.24,11.7,5.73,6.3,9.62,5.38,6.5-5.19,7.37-9.28c1.34-6.07,0-13.14-4.77-17.09s-13.52-2.69-15.78,3.08,2.74,12.23,8.52,14.68c2.55,1.11,5.48,1.73,8,.67s5-5.19,4.57-8.7-2.5-6.6-5.1-9-6.11-4.13-9.28-2.88-4.82,6.06-4.19,9.86C39.6,42.4,48,48.71,56.3,47.74a29.83,29.83,0,0,0-4.86-18.33c-1.25-2-3.32-3.95-5.58-3.42a5,5,0,0,0-3.13,3.37c-2.6,6.93,2.79,14.82,9.67,17.42a5.92,5.92,0,0,0,4.14.39c1.35-.48,2.89-3.08,3.23-5.15a26.74,26.74,0,0,0,0-9.77c-.29-1.49-.77-3.08-2.11-3.71-2.22-1.1-4.53,1.3-5.73,3.47-2.17,3.94-4,8.42-3.08,12.8s5.87,8.08,10,6.21c3.22-1.5,4.38-5.44,4.91-9s.87-7.51-.43-11-4.43-6.54-8.14-6.59c-4.47-.09-8.18,4.38-8.32,8.9S49.47,42.11,53,45c2.07,1.69,4.62,3,7.27,2.84,5.82-.43,8.56-7.7,7.7-13.42a16.52,16.52,0,0,0-5.59-10.64c-3.17-2.55-7.84-3.46-11.45-1.54-6.35,3.32-6.21,13.09-1.78,18.72,2.55,3.32,7.07,5.87,10.88,4.14s4.42-5,4.71-8.42c.48-7.12-3.61-14.87-10.49-16.89s-15.3,4-14.34,11.07C40.57,35.52,44.66,39,49,41c3.27,1.49,7.26,2.36,10.29.43s3.66-4.76,3.52-7.7a21.35,21.35,0,0,0-2.6-8.32c-1.3-2.6-3.71-6.55-6.69-8.76s-7.12-3.08-10.44-1.49a10.7,10.7,0,0,0-5.06,6c-2.88,7.61,1.54,17.18,9.2,19.93,3.65,1.29,8.56.72,10.34-2.75,1-1.87.82-4,.53-6.11-.77-6.16-3-13-8.71-15.54-3.8-1.73-8.47-1-12,1.25-5.73,3.61-8.8,11.21-6.83,17.71s9,11.16,15.69,10.05,12-8.18,10.77-14.86-8.9-11.5-15.35-9.34a16,16,0,0,0-5.53,3.42c-4.48,4-7.6,10.44-5.58,16.12s7.55,8.18,13,9.57a20.59,20.59,0,0,0,7.65.68c7.32-.92,13-8.66,11.74-16s-9.38-12.56-16.6-10.87-12,10-10,17.13C38,47.36,43.4,51.45,49,53.81c3.57,1.49,8,2.36,11.07,0s3.32-6.07,3.61-9.58c.48-5.58.92-11.36-1.2-16.55s-7.56-9.43-13-8.28c-3.61.77-6.36,3.66-8.52,6.59-2.74,3.71-5,7.9-5.34,12.47-.77,10.1,9.81,19.34,19.73,17.37s16.21-14.39,12-23.58S49.8,19.59,41.58,25.56c-2.84,2.07-5.15,5.34-5,8.9.24,6.21,7.17,9.63,13,11.7s12.32,3.08,15.26-1.64A10.26,10.26,0,0,0,66,38.65a28.4,28.4,0,0,0-6.11-16c-1.88-2.41-4.47-4.58-7.51-4.86s-7.17,2.4-9.23,5.53A19.92,19.92,0,0,0,55.05,53.57a11.58,11.58,0,0,0,8-.53c3.36-1.69,5.1-5.54,5.72-9.29A24,24,0,0,0,56.2,19.21,23.93,23.93,0,0,0,29,23.92c-3.18,3.32-5.44,8-4.53,12.56C25.7,42.31,31.47,46,37,48.27c3,1.3,6.54,2.36,9.62,1.11,4.81-1.92,5.92-8.13,6.16-13.38s.19-9.62-1.25-14.19-4.67-8.76-9.19-10.35c-7.65-2.65-16.41,4-17.81,12S27.62,39.66,34,44.71c4.09,3.32,9.19,5.63,14.44,5.54s10.63-3.08,12.7-7.9A13.08,13.08,0,0,0,58.51,28.5a18.36,18.36,0,0,0-13.33-5.68c-7.65-.15-15.44,4.28-18.52,11.31s-.48,16.31,6.21,20.06A23.23,23.23,0,0,0,42,56.6c6.16.53,12.94-.29,17.27-4.67s5-10.35,4.24-16a21.34,21.34,0,0,0-2.36-7.46c-4.62-8.33-17.08-10.64-24.78-5.05S26.75,40.86,31.76,49s15.83,11.83,25,9.19a15.6,15.6,0,0,0,5-2.46c3.66-2.79,5.15-7.6,5.2-12.17.1-7.12-3.17-14.34-9.05-18.34s-14.19-4.38-20-.28-8.18,12.6-4.82,18.86,12.28,9,18.92,5.92,10.39-10.88,9.28-18a13.83,13.83,0,0,0-4-8.13,13.05,13.05,0,0,0-7.12-3.18,16.77,16.77,0,0,0-17.28,10,16.79,16.79,0,0,0,5.39,19.2,29.58,29.58,0,0,0,7.41,3.66c6.89,2.65,15.4,4.67,21-.09,2.84-2.41,4.24-6.12,4.67-9.82A22.72,22.72,0,0,0,38.93,20.36a18.4,18.4,0,0,0-6.79,5.49,15.1,15.1,0,0,0,2.7,19.82A15,15,0,0,0,54.76,44,23.17,23.17,0,0,0,59,35.91c1.45-4.53,2.17-9.53.39-14-2.74-6.74-10.93-10.15-18.09-9s-14.25,6.64-16.51,13.9a19,19,0,0,0,6.35,20.36c6.06,4.57,15.16,4.66,21.08-.1a23.12,23.12,0,0,0,5.68-7.22c3.17-6,4.66-13.38,1.68-19.44S48.46,10.5,41.09,8.81c-10.73-2.45-23.77-2.16-30.55,6.5-5.39,6.88-4.86,16.8-1.93,25a31.72,31.72,0,0,0,5.06,9.33C22,59.63,37.24,60.21,50,57.46c4.47-1,9-2.31,12.56-5.24,6.06-5,7.74-13.52,9-21.27.72-4.33,1.4-9-.86-12.8-1.54-2.6-4.19-4.23-6.88-5.58A54.52,54.52,0,0,0,41.38,6.75,33.53,33.53,0,0,0,26.71,9.06,25.23,25.23,0,0,0,11.89,28.69,26,26,0,0,0,21,51.59c5.34,4.48,12.27,6.55,19.15,7.65,5.3.87,11,1.16,15.74-1.34C63.23,54,65.88,44.81,67,36.53c.53-4.14.87-8.52-.91-12.32s-6.64-7.07-11-9.24C45.23,10.11,33,6.7,23.87,12.76c-6.35,4.19-9.34,12-10.64,19.44a26.53,26.53,0,0,0-.29,9.48c.92,5,4.09,9.19,7.7,12.66C27.48,60.93,36.47,65.45,46,66s19.3-3.27,25.27-10.63S78.72,37,74.15,28.69c-2.31-4.24-5.92-7.56-9.72-10.49a83.69,83.69,0,0,0-21.22-12,21.45,21.45,0,0,0-7.89-1.78c-6.11.19-11.12,5.05-14.58,10.1a57.89,57.89,0,0,0-9.38,24.3c-.87,6-.68,12.46,2.45,17.66,3.66,6.16,10.73,9.48,17.71,11C44,70.26,58.13,68,67.32,59.05s11.45-25,3.13-34.64C67.18,20.56,62.65,18,58,15.89,50.48,12.33,41.58,9.73,34,13.15"/><path class="cls-6" d="M31.85,72.59a9.13,9.13,0,0,1-5.66-1.85A9.24,9.24,0,0,1,24,68.26a5.44,5.44,0,0,1-4.15-.68,4.82,4.82,0,0,1-1.86-5,3.83,3.83,0,0,1,2-2.81c-7.7-4.23-12.35-13.24-12-22a9.68,9.68,0,0,1-5.12,3.43l-.13,0-.12-.07C.07,39.93-.63,36.85.56,31.83c.9-3.79,2.09-7.65,4.72-10.28A9.23,9.23,0,0,1,10.9,19a17.75,17.75,0,0,1,.93-3.22A15.45,15.45,0,0,1,21.11,6.5,9.5,9.5,0,0,1,23.35,6,22.72,22.72,0,0,1,34.58,2.05a14.76,14.76,0,0,1,12.6,5.76C52.3,6.7,58.08,7.28,62.31,11a11.1,11.1,0,0,1,2.51,3.23A11.25,11.25,0,0,1,66,14.18c5.81.09,11.46,4.59,13.42,10.69,1.7,5.26.92,11.66-2.14,17.55A9.71,9.71,0,0,1,75,45.33c.59,3.86-.46,8.75-4.25,11.09a7.52,7.52,0,0,1-7.21.12,6.36,6.36,0,0,1-2.51-2.19c-.19.31-.39.62-.59.93.11.21.21.43.3.65A11.43,11.43,0,0,1,56,69.81l-.47.26,0-.31a9.85,9.85,0,0,1-3.34,1.53,10.47,10.47,0,0,1-11-4.61A9.22,9.22,0,0,1,35.38,72,10.85,10.85,0,0,1,31.85,72.59Zm-7.11-4.53a8.53,8.53,0,0,0,1.9,2.11,9.13,9.13,0,0,0,8.51,1.15,8.32,8.32,0,0,0,5.59-5.62l.23-.91.44.83a9.76,9.76,0,0,0,10.58,5,9.24,9.24,0,0,0,3.41-1.65,8.52,8.52,0,0,1,4-7.79l.55-.34v.65a10,10,0,0,1-2,5.88,10.74,10.74,0,0,0,2.15-11.13L60,56l-.37.55c-.94,1.32-2.12,2.66-3.74,2.56-1.34-.09-2.58-1.21-3.48-3.15l-.12-.26a10.75,10.75,0,0,1-5.66,2.78l-.33,0-.37,7.41h-.72a36,36,0,0,0-1-7.42,14.89,14.89,0,0,1-7.8-3.58,16.41,16.41,0,0,1-2.2-2.21L33,54.44l.42-2.82-.32-.45a12.11,12.11,0,0,1-4.39-1c.09.39.19.77.29,1.16.35,1.34.71,2.73.94,4.13.66,4,.23,7.21-1.3,9.59A7.51,7.51,0,0,1,24.74,68.06Zm34.49-5.9a7.78,7.78,0,0,0-3.13,6.18A9.69,9.69,0,0,0,59.23,62.16ZM8.87,36.6c-1,9.12,3.94,18.84,12.22,22.95l1,.48-1.07.2a2.94,2.94,0,0,0-2.28,2.52A4.15,4.15,0,0,0,20.26,67a4.68,4.68,0,0,0,3.39.61A11.34,11.34,0,0,1,22.48,63a12,12,0,0,1,.24-3,28.32,28.32,0,0,1-7.29-15.35,14.26,14.26,0,0,1,.38-6l-1.15.74,1.47-1.56a6,6,0,0,1,2.61-2.91,5,5,0,0,1,.62-.29c.52-.47,1.05-.92,1.6-1.36-2.6-1.63-3.78-3.47-3.51-5.49a6.64,6.64,0,0,1,2.07-3.52,24.32,24.32,0,0,1,15.69-7c.59-2.73,3-5.63,6-7.22a22.73,22.73,0,0,1,5.2-2A14,14,0,0,0,34.62,2.78,21.36,21.36,0,0,0,24.64,6a4.73,4.73,0,0,1,1.89.77c1.9,1.31,2.16,4,1.43,5.92a14.66,14.66,0,0,1-3.8,4.89,6.35,6.35,0,0,1-3.43,2,3.65,3.65,0,0,1-3-1.16,5.12,5.12,0,0,1-1.4-4.16c.37-2.68,2.42-4.72,4.17-6.19.43-.36.89-.72,1.38-1.09l-.5.16A14.78,14.78,0,0,0,12.5,16,16.82,16.82,0,0,0,11.64,19a6.13,6.13,0,0,1,4.2,1.57c1.74,1.63,1.65,4.27.82,6a4,4,0,0,1-4.05,2.53l-.18,0-.09-.16a14.82,14.82,0,0,1-1.56-9.2,8.48,8.48,0,0,0-5,2.35c-2.5,2.5-3.65,6.25-4.52,9.94C.18,36.56.71,39.35,2.88,40.53a9,9,0,0,0,5.29-4.16,21,21,0,0,1,1.21-5.11L10,29.65l.09,1.71A9.69,9.69,0,0,1,8.87,36.6Zm14.46,24a11.28,11.28,0,0,0-.13,2.33,10.66,10.66,0,0,0,1.17,4.48l.09,0A6.72,6.72,0,0,0,28,64.68c1.43-2.22,1.83-5.28,1.2-9.08-.23-1.37-.58-2.74-.93-4.07-.15-.58-.3-1.16-.44-1.75-.22-.12-.44-.25-.65-.39a50.85,50.85,0,0,1-2.41,4.69l-.14.24-.27-.07a2.91,2.91,0,0,1-2-1.71c-.81-1.9-.07-4.78,1-6.65l.17-.3A16.31,16.31,0,0,1,21.25,35.1l-4.4,2.83a12.55,12.55,0,0,0-.71,6.59,27.69,27.69,0,0,0,6.78,14.6,11,11,0,0,1,3-5l.74-.69-1.23,9.08-.51-.44C24.35,61.6,23.83,61.11,23.33,60.61Zm.17-.86q.66.69,1.35,1.32l.77-5.62A10.53,10.53,0,0,0,23.5,59.75ZM45,58.53c.18.74.34,1.52.47,2.32l.11-2.32Zm7.86-3.38c.07.16.14.32.22.48.45,1,1.43,2.63,2.87,2.73,1.26.08,2.28-1.1,3.1-2.26.2-.28.39-.57.59-.86a10.57,10.57,0,0,0-3.91-3.86A18.38,18.38,0,0,1,52.85,55.15Zm-8,2.65c.26,0,.53,0,.8,0L46,50.32h-.38a18,18,0,0,1-2,2.86l-.14.16-.22-.05-.15,0A23.12,23.12,0,0,1,44.81,57.8Zm1.72-4-.2,3.94.2,0A10.21,10.21,0,0,0,52,55a31.72,31.72,0,0,1-1.59-4.57,10.48,10.48,0,0,1-1.57-.09H47.69c-.29.79-.56,1.59-.81,2.39ZM34.67,52.08a16,16,0,0,0,2.23,2.27A14.75,14.75,0,0,0,44,57.73,21.08,21.08,0,0,0,42.11,53a23.88,23.88,0,0,1-5.29-2.28c-.34.1-.69.18-1,.25l-.37.07Zm26.82,1.57a5.51,5.51,0,0,0,2.4,2.24,6.79,6.79,0,0,0,6.51-.08c3.41-2.11,4.41-6.49,4-10.05a4.84,4.84,0,0,1-3.87.12,6.31,6.31,0,0,1-3.73-3.63l0,0A55.18,55.18,0,0,1,61.49,53.65Zm-5.42-2.89a11.32,11.32,0,0,1,4,3.81l.6-1a5.15,5.15,0,0,1-.4-1.6,6.26,6.26,0,0,1,.12-1.68l-4.11,0C56.22,50.49,56.15,50.63,56.07,50.76Zm-4.93-.35a31.48,31.48,0,0,0,1.39,4A17.39,17.39,0,0,0,55.08,51a11,11,0,0,0-1.64-.65ZM24,46.26c-1,1.77-1.61,4.4-.92,6a2.16,2.16,0,0,0,1.26,1.22c.86-1.54,1.66-3,2.3-4.5A11.93,11.93,0,0,1,24,46.26Zm37.14,4.07A5.5,5.5,0,0,0,61,52a4.18,4.18,0,0,0,.16.87,54.42,54.42,0,0,0,4.3-9.06l-1,1.14a15.76,15.76,0,0,0-3.12,4.7h1v.72ZM42.58,52.38l.6.16a17.66,17.66,0,0,0,2.62-4.25A8.94,8.94,0,0,1,45,46a23.45,23.45,0,0,1-.28-8.22l-.26.37c0,.53,0,1-.1,1.55a16,16,0,0,1-2.13,7.15,8.67,8.67,0,0,1-2.13,2.27,14.23,14.23,0,0,1,1.5,1.74A17.48,17.48,0,0,1,42.58,52.38Zm-4.84-2a22.76,22.76,0,0,0,3.79,1.65c-.17-.26-.35-.52-.53-.77a14.58,14.58,0,0,0-1.52-1.75A10.1,10.1,0,0,1,37.74,50.4Zm-3.56,1,0,0,.23-.34h-.22Zm-.67-1h.09l.26-1.76a24.78,24.78,0,0,1-2.16-1.93A19.14,19.14,0,0,0,33.51,50.45Zm1-1.25-.18,1.22.66-.06.39-.55Zm20.83,1.18.1,0,0-.05ZM28.5,49.29a11,11,0,0,0,4.14,1.13,19.53,19.53,0,0,1-1.49-3.09l-.39.57-.55.81-.11-1C30,47.15,30,46.57,29.94,46a9.29,9.29,0,0,0-1.62.3c-.08.29-.16.57-.25.86C28.18,47.86,28.33,48.58,28.5,49.29Zm18.39,1v.09l0-.09ZM46,49.54c-.1.21-.22.42-.33.63l.31-.09Zm-9.61.07.51.32a9.42,9.42,0,0,0,2-.91A12.16,12.16,0,0,0,37.55,48Zm10.49,0v.19l.19-.06h0Zm9.77,0h3.92a15.89,15.89,0,0,1,3.34-5.17l2.17-2.51c.12-.35.23-.71.34-1.07a8.67,8.67,0,0,1,1.39-5.61c.13-.66.24-1.32.35-2l.13-.88.61.86.22.31.44-.44c2.41-2.32,5.56-3.61,8.34-4.75l1.41-.57-7.9,9.1a23.49,23.49,0,0,1,3.45,7.63,9.84,9.84,0,0,0,1.76-2.43c3-5.71,3.72-11.91,2.09-17C76.84,19.28,71.48,15,66,14.9c-.27,0-.54,0-.81,0a13.58,13.58,0,0,1,1.06,7.43,9.86,9.86,0,0,1-5.34,7.82,5.61,5.61,0,0,1-2.42.52,4.16,4.16,0,0,1-.72-.13A26.14,26.14,0,0,1,56.66,49.6Zm-3.39,0h2.59A25.39,25.39,0,0,0,57.42,32l-1,2.22c-1.19,2.55-2.29,5.23-3.36,8.2-.17.39-.26.84-.08,1h0a.39.39,0,0,0,.19-.14.11.11,0,0,0,0,.12l.4-.61a.62.62,0,0,1,.28.6.93.93,0,0,1-.63.69.74.74,0,0,1-.78-.15c-.55-.55-.24-1.44-.08-1.8.62-1.71,1.25-3.34,1.91-4.91a63.31,63.31,0,0,0-4.15,7.29,32.12,32.12,0,0,0,.71,4.67A11.28,11.28,0,0,1,53.27,49.6ZM48,49.4l.14,0a9.49,9.49,0,0,1,1.91-.23,32.66,32.66,0,0,1-.57-3.38C49,47,48.49,48.19,48,49.4Zm-13.41-1c.38.29.77.57,1.16.84l1.14-1.63a12.49,12.49,0,0,0-2-1Zm12.26.25a2.28,2.28,0,0,0,.49.45c.61-1.58,1.28-3.15,2-4.67a32.06,32.06,0,0,1,1.76-12.86c.7-2,2-3.8,3.63-4.24a7.44,7.44,0,0,1-.33-1.47,10,10,0,0,1,2.82-7.77,12.1,12.1,0,0,1,6.79-3.74,10.63,10.63,0,0,0-2.22-2.79c-4-3.48-9.38-4.07-14.24-3.09l.31.53a11.07,11.07,0,0,1,.74,8.36,9,9,0,0,1-4.41,5.51,7.44,7.44,0,0,1-3.51.86c0,.11,0,.23,0,.35.83-.16,1.67-.29,2.51-.4l.62-.08-.24.58c-.49,1.18-1,2.36-1.54,3.53a11.76,11.76,0,0,1,1.29,2.64A9.08,9.08,0,0,1,45.91,33c.09-.25.19-.5.29-.75l.69-1.71v2.84l.69-1-.19,3.93q.06.26.12.48a18.49,18.49,0,0,1-.62,10.68Zm-19.38.09.14.09-.06-.3A1.8,1.8,0,0,0,27.51,48.72ZM38,47.38a13,13,0,0,1,1.59,1.23,8.17,8.17,0,0,0,2.06-2.17,15.36,15.36,0,0,0,2-6.82l0-.35ZM24.38,45.57a11.69,11.69,0,0,0,2.52,2.72c.16-.4.3-.79.43-1.18l-.12-.92,0-.27.27-.1.28-.1a12,12,0,0,0,.3-3.87c-.19-.35-.37-.71-.54-1.06C26.38,42.33,25.34,43.93,24.38,45.57ZM32,46a22.7,22.7,0,0,0,2,1.83l.22-1.45A12,12,0,0,0,32,46Zm13.68-9.66a22.72,22.72,0,0,0,0,9.47,9.78,9.78,0,0,0,.44,1.44l.05-.94V35.68ZM35,45.92A13,13,0,0,1,37.35,47l6.38-9.1a20.8,20.8,0,0,0-.93-7.1l-.27-.16c.43,3.45-1.24,6.71-2.73,8.84l-.59-.41c1.43-2,3-5.19,2.59-8.45l-.06-.35A6.18,6.18,0,0,0,41,30Q38.66,35,35.92,39.7Zm-4.34,0,.06.73.13-.19c-.06-.18-.12-.36-.17-.54Zm1.81-.62a11.91,11.91,0,0,1,1.83.38l.64-4.35Q33.74,43.36,32.47,45.32Zm34.85-3.71a.66.66,0,0,0,.06.2,5.51,5.51,0,0,0,3.36,3.39,4,4,0,0,0,3.5-.2,2.38,2.38,0,0,1,0-.26,22.52,22.52,0,0,0-3.26-7.29ZM28.79,43.14a13.35,13.35,0,0,1-.29,2.36,9.16,9.16,0,0,1,1.39-.23l0-.61C29.48,44.17,29.12,43.66,28.79,43.14Zm2.47,2.08.4,0c1.24-1.9,2.42-3.82,3.56-5.78l.11-.7a5.63,5.63,0,0,1-4.63,1.39c0,.29,0,.57,0,.87a16.82,16.82,0,0,0,.54,4.15ZM22,35a15.68,15.68,0,0,0,2,9.87c1-1.68,2.08-3.3,3.22-4.88a16.34,16.34,0,0,1-.69-2.08,8.12,8.12,0,0,0-2.73-2.32A6,6,0,0,0,22,35Zm25.24,4.53L47,44.48A18.07,18.07,0,0,0,47.23,39.55Zm-18.5,2.08a19,19,0,0,0,1.09,1.76c0-1.17,0-2.33.06-3.49a4.45,4.45,0,0,1-1.19-.72l-.41.54a7.71,7.71,0,0,1,.42,1.67ZM55.06,28c-1.4.32-2.61,2-3.23,3.79a31.53,31.53,0,0,0-1.78,11.28,62.23,62.23,0,0,1,5.72-9.21l1.58-2.11c-.16-.54-.33-1.08-.52-1.61A5.06,5.06,0,0,1,55.06,28Zm13.45,7.51q-.51,2.55-1.24,5.06l3.25-3.75c-.47-.71-1-1.42-1.44-2.11A8.39,8.39,0,0,0,68.51,35.51ZM30.76,39.42a5.25,5.25,0,0,0,4.73-1.76l1-7a9.29,9.29,0,0,0-1.71,1.09l-.1.55a4.66,4.66,0,0,1-2.95,3.38A12.51,12.51,0,0,0,30.76,39.42Zm-1.63-.81a3.93,3.93,0,0,0,.8.52c0-.56.09-1.13.15-1.69C29.76,37.82,29.44,38.21,29.13,38.61Zm-2-1A9.82,9.82,0,0,1,28,39l.23-.3a6.06,6.06,0,0,1-1.3-2.84l-.08,0A14.65,14.65,0,0,0,27.13,37.62ZM27.65,36a5.19,5.19,0,0,0,1,2.08c.52-.66,1.05-1.31,1.6-1.95v0a3.91,3.91,0,0,1-.68.06A9.27,9.27,0,0,1,27.65,36Zm16.12-4.46a21.5,21.5,0,0,1,.69,5.32l.55-.78c.16-.74.36-1.47.59-2.19A9.25,9.25,0,0,0,43.77,31.54Zm-6.47-1.2-.94,6.35a11.54,11.54,0,0,0,1.24-1.91,22.27,22.27,0,0,0,1.82-4.88A7,7,0,0,0,37.3,30.34Zm-14.9,4a6.35,6.35,0,0,1,1.67.6,8.26,8.26,0,0,1,2.1,1.53c-.05-.31-.09-.62-.12-.94-1-.32-1.9-.73-2.82-1.14l-.53-.25Zm47.16-.23c.49.7,1,1.4,1.45,2.11l5.77-6.64a21.54,21.54,0,0,0-6.71,4C69.89,33.79,69.72,34,69.56,34.14Zm-42,1.09a8.62,8.62,0,0,0,2,.22,4.46,4.46,0,0,0,.8-.09A46.69,46.69,0,0,1,32,28.2l-2.71,1.74a9,9,0,0,0-1.74,3.85A6.28,6.28,0,0,0,27.52,35.23Zm-7.78,0,0,0,0,0Zm13.2-7.63a46.93,46.93,0,0,0-1.83,7.55l.27-.31a11.22,11.22,0,0,1,2.8-3.47,9.91,9.91,0,0,1,2.47-1.53l.62-4.22c-.8.22-1.59.47-2.38.73ZM26.74,35l0,0a6.7,6.7,0,0,1,0-1.35,8.34,8.34,0,0,1,1-2.82l-.7.45,0,.11A11.25,11.25,0,0,0,26.74,35Zm-3.33-1.31.08,0c.83.36,1.67.73,2.51,1a12,12,0,0,1,.25-2.89Zm-1.94,0-.63.52h.42l.13-.08C21.41,34,21.44,33.87,21.47,33.73Zm.86-.55.32.17,3.87-2.49a7.67,7.67,0,0,1,.32-.84,43,43,0,0,0-4.47,3A.94.94,0,0,1,22.33,33.18Zm10.83-15A23.35,23.35,0,0,0,20,24.71a6.16,6.16,0,0,0-1.87,3.12c-.23,1.77.91,3.42,3.39,4.91l.19-.14c1.58-5.86,5.75-10.25,9.07-13A13.17,13.17,0,0,1,33.16,18.16Zm1.92.05a10.79,10.79,0,0,0-3.82,2c-3.05,2.49-6.85,6.44-8.55,11.66a44.14,44.14,0,0,1,4.73-3A10.63,10.63,0,0,1,31.39,25a8.8,8.8,0,0,1,2.06-.83c.56-1.37,1.19-2.71,1.88-4A5.21,5.21,0,0,1,35.08,18.21Zm5.08,11.7c0,.16-.08.33-.13.5l.24-.49ZM28,29.38a9,9,0,0,0-.41.82l1.23-.8c.2-.27.4-.53.6-.76C28.9,28.87,28.43,29.12,28,29.38Zm29.47.28a2.55,2.55,0,0,0,1.06.3,5.06,5.06,0,0,0,2.09-.44,9.13,9.13,0,0,0,4.92-7.27A12.85,12.85,0,0,0,64.41,15a11.4,11.4,0,0,0-6.61,3.56,9.28,9.28,0,0,0-2.63,7.21,6.23,6.23,0,0,0,.34,1.45,2.74,2.74,0,0,1,.79.11l.16.05.07.14C56.86,28.23,57.16,28.94,57.43,29.66Zm-15.08.08.06,0-.12-.27ZM38,25.51l-.59,4a7.81,7.81,0,0,1,2.16-.36,20,20,0,0,0,.35-2.32A5.94,5.94,0,0,0,38,25.51Zm3.31,3.87.19.05-.09-.25Zm-1-.18.29,0,.42-.9c-.14-.24-.29-.48-.45-.71C40.5,28.15,40.42,28.68,40.31,29.2ZM55.84,28a5.65,5.65,0,0,0,.36.58c-.08-.19-.16-.38-.25-.56Zm-43,.43A3.29,3.29,0,0,0,16,26.25a4.6,4.6,0,0,0-.67-5.19,5.44,5.44,0,0,0-3.82-1.39A14.1,14.1,0,0,0,12.88,28.4ZM33.1,25a7.42,7.42,0,0,0-1.36.6,9.69,9.69,0,0,0-2.92,2.48c.62-.32,1.26-.62,1.9-.91a13.94,13.94,0,0,1,2.21-1.74C33,25.32,33.05,25.17,33.1,25Zm-2,2.78,0,0-.22.21.67-.43ZM40.72,26a9.34,9.34,0,0,1,.9,1q.57-1.28,1.11-2.55c-.66.1-1.32.21-2,.33C40.76,25.2,40.74,25.61,40.72,26ZM33.52,26l0,.12c.36-.14.73-.27,1.09-.39l.66-.42A6,6,0,0,0,33.52,26Zm5.93-.89c.2.12.39.25.57.38,0-.17,0-.34,0-.51ZM34,24.78l-.07.16c.24-.1.47-.19.7-.26C34.4,24.7,34.19,24.74,34,24.78Zm4.15-.37.33.14c.52-.13,1-.25,1.57-.35,0-.17,0-.33,0-.5v0a5.86,5.86,0,0,1-.75-.14l-1.12.72C38.14,24.3,38.13,24.36,38.13,24.41Zm-2.69-.5a7.22,7.22,0,0,1,1.61.18l.37-.24a6.4,6.4,0,0,0-.09-1.14,5.07,5.07,0,0,1-1.18-1.06,4.73,4.73,0,0,1-.44-.66c-.51,1-1,2-1.41,3A7.28,7.28,0,0,1,35.44,23.91Zm2.67-.78a2.28,2.28,0,0,1,0,.26l.24-.15ZM40.67,23a7.08,7.08,0,0,0,3.24-.75A8.3,8.3,0,0,0,48,17.12a10.26,10.26,0,0,0-.69-7.8c-.13-.24-.27-.47-.42-.7a21.88,21.88,0,0,0-5.3,2A11.38,11.38,0,0,0,36,17.18a23.31,23.31,0,0,1,9.55,1.65l.65.26-5.53,3.56C40.64,22.75,40.65,22.85,40.67,23ZM38,22.27a4.71,4.71,0,0,0,1.16.47l.7-.45c-.28-1.47-.93-3.19-2.42-3.91a3.08,3.08,0,0,0-1.61-.28A4.24,4.24,0,0,0,36,19.81,3,3,0,0,1,38,22.27Zm.1-4.35a6,6,0,0,1,2.41,4l4.09-2.64A22.58,22.58,0,0,0,38.08,17.92Zm-1.6,2.95.23.33.23.27A2.09,2.09,0,0,0,36.48,20.87ZM23.59,6.68a32,32,0,0,0-2.67,2C19.28,10.05,17.34,12,17,14.4A4.4,4.4,0,0,0,18.21,18a2.91,2.91,0,0,0,2.44.95,5.79,5.79,0,0,0,3-1.83,14.3,14.3,0,0,0,3.61-4.63c.63-1.64.44-4-1.16-5.06A3.91,3.91,0,0,0,23.59,6.68Z"/></g></g></g></g></svg>