<svg xmlns="http://www.w3.org/2000/svg" viewBox="0 0 187.54 21.52"><defs><style>.cls-1{opacity:0.5;}.cls-2{fill:#0505cc;}</style></defs><title>Asset 24</title><g id="Layer_2" data-name="Layer 2"><g id="Layer_1-2" data-name="Layer 1"><g class="cls-1"><path class="cls-2" d="M5,16.41A11,11,0,0,1,.11,15.25s.09-.9.09-1.81A10.77,10.77,0,0,0,0,11.57a.94.94,0,0,1,.66-.26,1,1,0,0,1,.24,0,4.69,4.69,0,0,0,4.58,3.72A1.91,1.91,0,0,0,7.61,13.4a2.46,2.46,0,0,0-1.34-2L2.49,9A4.17,4.17,0,0,1,.24,5.43C.24,2.68,2.66.59,6,.59a10.72,10.72,0,0,1,4.53,1,8.53,8.53,0,0,0-.11,1.25,10.35,10.35,0,0,0,.18,1.9,1,1,0,0,1-.55.22,1.05,1.05,0,0,1-.25,0A4.16,4.16,0,0,0,5.94,1.94c-1.1,0-1.8.55-1.8,1.45s.61,1.52,1.91,2.29l2.73,1.6c1.74,1,2.64,2.42,2.64,3.7C11.42,14,8.74,16.41,5,16.41Z"/><path class="cls-2" d="M26.14,15.36a12.09,12.09,0,0,0-1.79.24,11.72,11.72,0,0,0-2.17.81h-.25a2.6,2.6,0,0,1-.94-1.8l-2.6,1.63a4,4,0,0,1-1.08.17c-2.06,0-3.41-1.18-3.41-2.92V8.32a1.49,1.49,0,0,0-1.58-1.65,1.1,1.1,0,0,1-.11-.49.77.77,0,0,1,.09-.33s1,0,2-.13a20.66,20.66,0,0,0,3-.57h.37A5.85,5.85,0,0,1,18,7.61v5.11a1.32,1.32,0,0,0,1.45,1.49,3,3,0,0,0,1.5-.46V8.32c0-1-.57-1.65-1.41-1.65a1.1,1.1,0,0,1-.11-.49.77.77,0,0,1,.09-.33s1,0,2-.15a17.9,17.9,0,0,0,2.79-.55h.38A5.85,5.85,0,0,1,25,7.61V13.4c0,.84.37,1.25,1.17,1.25a.67.67,0,0,1,.11.33A.85.85,0,0,1,26.14,15.36Z"/><path class="cls-2" d="M41.1,16.06a21.06,21.06,0,0,0-2.6-.2,16.54,16.54,0,0,0-2.31.2s-.64-.42-.64-2.46v-5A1.32,1.32,0,0,0,34.1,7.11a3,3,0,0,0-1.5.46v6.07c0,1.08.4,1.59,1.32,1.7a.65.65,0,0,1,0,.72,32.46,32.46,0,0,0-3.3-.2,32.46,32.46,0,0,0-3.3.2.65.65,0,0,1,0-.72c.92-.11,1.32-.62,1.32-1.7V8.19A1.5,1.5,0,0,0,27,6.53a1,1,0,0,1-.11-.48A.77.77,0,0,1,27,5.72a16.92,16.92,0,0,0,2-.13,9.87,9.87,0,0,0,2.77-.82h.38a6.11,6.11,0,0,1,.52,1.94l2.51-1.63a4,4,0,0,1,1.08-.17c2.07,0,3.41,1.18,3.41,2.92v5.5c0,1.39.38,1.87,1.54,2a.65.65,0,0,1,0,.72Z"/><path class="cls-2" d="M54.91,15.36a12,12,0,0,0-1.78.24,12,12,0,0,0-2.18.81h-.24a3,3,0,0,1-1-1.8l-2.37,1.56a3,3,0,0,1-1.17.24c-2.51,0-4.49-2.06-4.49-5.28A6,6,0,0,1,44.86,5.5a5.21,5.21,0,0,1,2.2-.59,5.14,5.14,0,0,1,2.62.52v-2a1.49,1.49,0,0,0-1.59-1.65A1.09,1.09,0,0,1,48,1.28.72.72,0,0,1,48.07,1a15.73,15.73,0,0,0,2-.14A9.67,9.67,0,0,0,52.82,0h.4a4.79,4.79,0,0,1,.5,2.53V13.4c0,.84.38,1.25,1.17,1.25A.67.67,0,0,1,55,15,.85.85,0,0,1,54.91,15.36ZM49.68,7.81s-.6-1.74-2-1.74c-.94,0-1.76,1-1.76,3.72S47,14,48.49,14a1.93,1.93,0,0,0,1.19-.48Z"/><path class="cls-2" d="M66.92,15.36a9.31,9.31,0,0,0-4,1.05h-.24a2.56,2.56,0,0,1-.94-1.8l-2.47,1.61a2.78,2.78,0,0,1-.92.19,2.74,2.74,0,0,1-2.6-2.79,2.8,2.8,0,0,1,2.38-3c1-.24,2.53-.55,3.52-.72V8.6c0-1-.49-1.49-1.81-1.49a8.33,8.33,0,0,0-3.14.64A.8.8,0,0,1,56.45,7l3.21-1.79a5.62,5.62,0,0,1,1.79-.28c2.83,0,4.29,1.51,4.29,3.78V13.4c0,.84.37,1.25,1.16,1.25A.67.67,0,0,1,67,15,.85.85,0,0,1,66.92,15.36Zm-5.23-4.71c-1.89.42-2.55.81-2.55,1.94a1.44,1.44,0,0,0,1.62,1.49,1.7,1.7,0,0,0,.93-.28Z"/><path class="cls-2" d="M79.93,6.18a2.27,2.27,0,0,0-2,1.7l-3.43,8.2a12.31,12.31,0,0,1-4.11,5.44A4.17,4.17,0,0,1,68,19.12l.44-.42a2.67,2.67,0,0,0,1.19.24,3.14,3.14,0,0,0,3-2l.06-.13L68.29,7.5c-.42-.92-.82-1.25-1.59-1.32a1.23,1.23,0,0,1-.11-.5.63.63,0,0,1,.11-.33s1.78.15,3.32.15,3.53-.15,3.53-.15a.63.63,0,0,1,.11.33,1.23,1.23,0,0,1-.11.5c-.71.07-1,.33-1,.8a3,3,0,0,0,.24,1l2,4.51,1.89-4.73A2.18,2.18,0,0,0,76.82,7c0-.51-.35-.84-1.25-.84a1.23,1.23,0,0,1-.11-.5.63.63,0,0,1,.11-.33s1.28.15,2.27.15a19.32,19.32,0,0,0,2.09-.15.63.63,0,0,1,.11.33A1.23,1.23,0,0,1,79.93,6.18Z"/><path class="cls-2" d="M91.23,16.41c-3.44,0-5.35-1.73-5.35-3.78s1.54-3.37,3.25-4.05c-1.27-.94-2.72-2.22-2.72-4.11C86.41,2,88.72,0,91.89,0s4.68,1.52,4.68,3.56A4,4,0,0,1,94,7c1.54,1,3.19,2.29,3.19,4.27C97.21,14.35,94,16.41,91.23,16.41Zm-.66-6.84a3.79,3.79,0,0,0-1.35,2.75A2.64,2.64,0,0,0,91.8,15.2a1.85,1.85,0,0,0,2-1.84C93.76,12.15,92.77,11.09,90.57,9.57Zm.66-8.36a1.49,1.49,0,0,0-1.46,1.47c0,1.35,2.07,2.82,3.06,3.46a3.07,3.07,0,0,0,1.1-2.27A2.69,2.69,0,0,0,91.23,1.21Z"/><path class="cls-2" d="M108.21,14.74l-3.52,1.63a3.13,3.13,0,0,1-.42,0c-2.86,0-4.29-1.36-4.29-4.42V6.8H98.22a1.41,1.41,0,0,1-.2-.75,1.46,1.46,0,0,1,.11-.55,6.17,6.17,0,0,0,4.89-3,1.23,1.23,0,0,1,1,.41V5.5a11.41,11.41,0,0,0,3.63-.35,1.51,1.51,0,0,1,.26.88,2.4,2.4,0,0,1-.15.77H104v4.64c0,2,.79,2.88,2.27,2.88a4.68,4.68,0,0,0,1.58-.44.63.63,0,0,1,.37.6A.84.84,0,0,1,108.21,14.74Z"/><path class="cls-2" d="M122.69,16.06a21.06,21.06,0,0,0-2.6-.2,16.54,16.54,0,0,0-2.31.2s-.64-.42-.64-2.46v-5a1.32,1.32,0,0,0-1.45-1.49,3,3,0,0,0-1.5.46v6.07c0,1.08.4,1.59,1.32,1.7a.65.65,0,0,1,0,.72,27.32,27.32,0,0,0-6.6,0,.71.71,0,0,1-.13-.39.78.78,0,0,1,.08-.33c.93-.11,1.32-.62,1.32-1.7V3.41a1.49,1.49,0,0,0-1.58-1.65,1.09,1.09,0,0,1-.11-.48.72.72,0,0,1,.09-.33,15.73,15.73,0,0,0,2-.14A9.67,9.67,0,0,0,113.29,0h.38a5.81,5.81,0,0,1,.52,2.71v4l2.51-1.63a4,4,0,0,1,1.08-.17c2.07,0,3.41,1.18,3.41,2.92v5.5c0,1.39.37,1.87,1.54,2a.65.65,0,0,1,0,.72Z"/><path class="cls-2" d="M133.75,16.41a10.94,10.94,0,0,1-4.88-1.16s.08-.9.08-1.81a11.31,11.31,0,0,0-.19-1.87.94.94,0,0,1,.66-.26,1,1,0,0,1,.24,0,4.68,4.68,0,0,0,4.58,3.72,1.91,1.91,0,0,0,2.13-1.67,2.46,2.46,0,0,0-1.34-2L131.24,9A4.16,4.16,0,0,1,129,5.43c0-2.75,2.42-4.84,5.76-4.84a10.8,10.8,0,0,1,4.54,1,8.53,8.53,0,0,0-.11,1.25,10.94,10.94,0,0,0,.17,1.9,1,1,0,0,1-.55.22,1,1,0,0,1-.24,0,4.17,4.17,0,0,0-3.87-2.94c-1.1,0-1.81.55-1.81,1.45s.62,1.52,1.92,2.29l2.73,1.6c1.73,1,2.64,2.42,2.64,3.7C140.18,14,137.49,16.41,133.75,16.41Z"/><path class="cls-2" d="M151.75,10.25H145.5c.24,2,1.1,4.16,3.54,4.16a3.77,3.77,0,0,0,2.49-1,.67.67,0,0,1,.61.46,5.64,5.64,0,0,1-4.82,2.55c-3.78,0-5.72-2.46-5.72-5.47a5.72,5.72,0,0,1,3.59-5.57,6.73,6.73,0,0,1,2.46-.46c3.59,0,4.76,2.24,4.76,4.33A1.71,1.71,0,0,1,151.75,10.25ZM147.15,6c-1.21,0-1.72,1.49-1.72,3.28l3.13-.22a4.21,4.21,0,0,0,.17-1.15C148.73,6.84,148.16,6,147.15,6Z"/><path class="cls-2" d="M162.75,16a5.18,5.18,0,0,1-2,.37,4.08,4.08,0,0,1-2.22-.59V18.7c0,1.08.63,1.61,1.93,1.7a.85.85,0,0,1,.09.35.88.88,0,0,1-.13.42,32.39,32.39,0,0,0-3.92-.2,32.72,32.72,0,0,0-3.3.2.88.88,0,0,1-.13-.42.85.85,0,0,1,.09-.35c.92-.11,1.32-.62,1.32-1.7V8.19a1.49,1.49,0,0,0-1.59-1.66,1,1,0,0,1-.11-.48.77.77,0,0,1,.09-.33,16.81,16.81,0,0,0,2-.13,9.87,9.87,0,0,0,2.77-.82H158a6,6,0,0,1,.53,1.94l2.5-1.63a4,4,0,0,1,1.08-.17c2.33,0,4,2.15,4,4.93S165,15.14,162.75,16Zm-3-8.8a2.3,2.3,0,0,0-1.21.33v6.07a2.15,2.15,0,0,0,1.91,1.52c.92,0,1.76-.9,1.76-3.32C162.24,8.93,161.34,7.24,159.78,7.24Z"/><path class="cls-2" d="M176.76,14.74l-3.52,1.63a3.13,3.13,0,0,1-.42,0c-2.86,0-4.29-1.36-4.29-4.42V6.8h-1.76a1.41,1.41,0,0,1-.2-.75,1.46,1.46,0,0,1,.11-.55,6.17,6.17,0,0,0,4.89-3,1.23,1.23,0,0,1,1,.41V5.5a11.41,11.41,0,0,0,3.63-.35,1.51,1.51,0,0,1,.26.88,2.4,2.4,0,0,1-.15.77h-3.74v4.64c0,2,.79,2.88,2.27,2.88a4.68,4.68,0,0,0,1.58-.44.63.63,0,0,1,.37.6A.84.84,0,0,1,176.76,14.74Z"/><path class="cls-2" d="M180,16.19a1.77,1.77,0,0,1-1.89-1.8,1.8,1.8,0,0,1,1.89-1.8,1.76,1.76,0,0,1,1.87,1.8A1.79,1.79,0,0,1,180,16.19Z"/><path class="cls-2" d="M185.67,8.52a1.77,1.77,0,0,1-1.89-1.81,1.8,1.8,0,0,1,1.89-1.8,1.76,1.76,0,0,1,1.87,1.8A1.79,1.79,0,0,1,185.67,8.52Zm0,7.67a1.76,1.76,0,0,1-1.89-1.8,1.8,1.8,0,0,1,1.89-1.8,1.76,1.76,0,0,1,1.87,1.8A1.79,1.79,0,0,1,185.67,16.19Z"/></g></g></g></svg>