<svg xmlns="http://www.w3.org/2000/svg" viewBox="0 0 250.3 70.9">
  <title>Asset 24</title>
  <g id="Layer_2" data-name="Layer 2">
    <g id="sol">
      <g>
        <path d="M149.1,8.5c-1.1-4-2.8-5.1-7.2-5.1h-1.5V23.6c0,2.5,1,3.5,3.1,3.7a1.3,1.3,0,0,1,.2.6,1.3,1.3,0,0,1-.3.9s-3.9-.3-7.1-.3-7.1.3-7.1.3a1.7,1.7,0,0,1-.2-.9,2.2,2.2,0,0,1,.1-.6c2.2-.2,3.2-1.2,3.2-3.7V3.4h-1.5c-4.4,0-6.2,1.1-7.3,5.1a1.8,1.8,0,0,1-1.6-.3,30.3,30.3,0,0,0,.4-7.6l.5-.4a20.7,20.7,0,0,0,5.7.8h15.6a21,21,0,0,0,5.8-.8l.5.4a30.3,30.3,0,0,0,.4,7.6A1.7,1.7,0,0,1,149.1,8.5Z" fill="#505151"/>
        <path d="M170.1,27.5a16.9,16.9,0,0,0-3.3.5,18,18,0,0,0-4.1,1.5h-.5a4.7,4.7,0,0,1-1.7-3.4l-4.6,3a5,5,0,0,1-1.7.4,5.2,5.2,0,0,1-4.9-5.2c0-2.9,1.3-4.9,4.5-5.7l6.5-1.3V14.9c0-1.8-.9-2.8-3.3-2.8a15.5,15.5,0,0,0-5.9,1.2,1.2,1.2,0,0,1-.5-1.4l5.9-3.3a9.4,9.4,0,0,1,3.4-.6c5.3,0,8,2.9,8,7.1v8.8c0,1.5.7,2.3,2.1,2.3a1.3,1.3,0,0,1,.2.6A2.4,2.4,0,0,1,170.1,27.5Zm-9.8-8.8c-3.5.8-4.7,1.6-4.7,3.6s.9,2.8,3,2.8a3.2,3.2,0,0,0,1.7-.5Z" fill="#505151"/>
        <path d="M188.6,28.8a10,10,0,0,1-3.6.7,7.3,7.3,0,0,1-4.1-1.1v5.3c0,2.1,1.1,3,3.6,3.2a2.4,2.4,0,0,1,.1.7,1.4,1.4,0,0,1-.2.7s-2.8-.3-7.3-.3c-3,0-6.2.3-6.2.3a1.3,1.3,0,0,1,0-1.4c1.7-.2,2.4-1.1,2.4-3.2V14.1a2.8,2.8,0,0,0-2.9-3,2.2,2.2,0,0,1-.2-.9,1.5,1.5,0,0,1,.1-.6,25.9,25.9,0,0,0,3.7-.3,21.3,21.3,0,0,0,5.2-1.5h.7a10.5,10.5,0,0,1,1,3.6l4.6-3a6.2,6.2,0,0,1,2-.4c4.4,0,7.6,4.1,7.6,9.2S192.9,27.1,188.6,28.8Zm-5.5-16.4a4.3,4.3,0,0,0-2.2.6V24.3a3.9,3.9,0,0,0,3.5,2.8c1.7,0,3.3-1.6,3.3-6.1S186,12.4,183.1,12.4Z" fill="#505151"/>
        <path d="M217.7,27.5a16.9,16.9,0,0,0-3.3.5,18,18,0,0,0-4.1,1.5h-.5a5.1,5.1,0,0,1-1.7-3.4l-4.6,3a5,5,0,0,1-1.7.4,5.2,5.2,0,0,1-4.9-5.2c0-2.9,1.3-4.9,4.5-5.7l6.5-1.3V14.9c0-1.8-.9-2.8-3.3-2.8a15.5,15.5,0,0,0-5.9,1.2,1.2,1.2,0,0,1-.5-1.4l5.9-3.3a9.4,9.4,0,0,1,3.4-.6c5.3,0,8,2.9,8,7.1v8.8c0,1.5.7,2.3,2.1,2.3a1.3,1.3,0,0,1,.2.6A2.4,2.4,0,0,1,217.7,27.5Zm-9.8-8.8c-3.5.8-4.7,1.6-4.7,3.6s.9,2.8,3,2.8a3.2,3.2,0,0,0,1.7-.5Z" fill="#505151"/>
        <path d="M227.8,29.5a16.1,16.1,0,0,1-7.3-1.7,14.6,14.6,0,0,0-.2-4.6,2.1,2.1,0,0,1,1.4-.3c.6,1.9,2.7,4.4,6.8,4.4,2.5,0,3.5-1.2,3.5-2.2s-.8-1.8-4.7-3.1c-6.1-2-7.5-3.7-7.5-6.6S224.4,8,230.4,8a12.4,12.4,0,0,1,6.1,1.5,8.1,8.1,0,0,0,.1,4.1,2.2,2.2,0,0,1-1.3.4,7.3,7.3,0,0,0-6.8-4c-1.8,0-2.8.9-2.8,1.6s1.2,2.3,5,3.4c5.3,1.7,6.9,3.3,6.9,6.2S233.1,29.5,227.8,29.5Z" fill="#505151"/>
        <path d="M246.7,20l-.8.2-.8-.2c-1.1-8.8-3.6-14.7-3.6-17.3s1-2.7,4.4-2.7,4.4,1.4,4.4,2.7S247.7,11.2,246.7,20Zm-.8,9.1a3.4,3.4,0,1,1,3.5-3.4A3.4,3.4,0,0,1,245.9,29.1Z" fill="#505151"/>
      </g>
      <path d="M68,12.9a.8.8,0,0,0-1-.3L64.4,14H63.2l-5.1-.5c-.9-1.4-3.9-5.3-10.8-6.9a63.3,63.3,0,0,0-10-.8,88.9,88.9,0,0,0-10,.6q-.4,0-.6.6a.6.6,0,0,0,.2.7s9.7,7.1,18,9.1a17.9,17.9,0,0,0,4.8.7A13.3,13.3,0,0,0,58,15l4,.4c-3.9,2.3-7.6,4.5-11,6.9l-1.3.3c-1.3.2-3.7.6-6.5.8-.8-.8-5.7-4.8-14.5-4.8H26.2A70.9,70.9,0,0,0,9.3,22.9C4.3,24.6.5,26.3.4,26.3a.9.9,0,0,0-.4.8.6.6,0,0,0,.5.6s13.6,4.6,24.8,4.6h2a23.4,23.4,0,0,0,12.4-4A18.1,18.1,0,0,0,43.1,25l5.3-.8A81.2,81.2,0,0,0,27.5,47.1l-2-.2c-4.7,0-9.1,3.9-10.6,9.3h0a13.2,13.2,0,0,0-.6,3.9,11.6,11.6,0,0,0,1.9,6.6,8.7,8.7,0,0,0,5,3.8,5.9,5.9,0,0,0,2.3.4c4.6,0,9-3.9,10.6-9.4h0a16.5,16.5,0,0,0,.5-3.8,12.1,12.1,0,0,0-1.8-6.6,9.1,9.1,0,0,0-3.9-3.4A79.8,79.8,0,0,1,51.5,23.8a20,20,0,0,0-1.8,9,26.4,26.4,0,0,0,.3,4.7A9.3,9.3,0,0,0,43.3,41a14.1,14.1,0,0,0,0,17.1,9.5,9.5,0,0,0,7.1,3.6,9.2,9.2,0,0,0,7.1-3.6,14.1,14.1,0,0,0,0-17.1,9.6,9.6,0,0,0-6.1-3.5,42.3,42.3,0,0,1-.3-4.7c0-4.7,1.1-7.7,2.3-9.4a8.3,8.3,0,0,1,1.5-1.9c.1-.2.4-.3.5-.4h.1c3.6-2.4,7.7-4.7,12.2-7.1A.7.7,0,0,0,68,12.9ZM49.8,16a19.3,19.3,0,0,1-4.5-.5,49.1,49.1,0,0,1-11.7-5.2L29.4,7.7h0c1.9-.2,4.8-.3,7.9-.3a48.4,48.4,0,0,1,9.6.8,16.5,16.5,0,0,1,8,4l1.2,1.2-4.7-.9c-2.5-.6-4.6-1.1-6.7-1.4a.7.7,0,1,0-.3,1.3c2,.4,4.2.8,6.5,1.4l4.9,1A15.2,15.2,0,0,1,49.8,16ZM27.4,30.8H25.5A77.2,77.2,0,0,1,9.2,28.6L3.4,27.1,3,26.9c4.2-1.8,15.3-6,23.5-6.8h2.4a21.9,21.9,0,0,1,10.2,2.3l2.1,1.3c-2.1.1-4.6.3-7,.3H30.5c-5.2,0-9.7.2-14,1.5a.7.7,0,1,0,.4,1.4,47.6,47.6,0,0,1,13.6-1.5h3.7c2.4,0,4.8-.1,6.9-.3C39.3,27,35,30.4,27.4,30.8ZM20.2,66.9v-.3h0a.8.8,0,0,1,.5-.7,2.1,2.1,0,0,1,1.1-.4h.8a2.3,2.3,0,0,1,1.6,1.8v.3a1.1,1.1,0,0,1-.6.7,2.1,2.1,0,0,1-1.1.4h-.7v.4h0v-.4A2.1,2.1,0,0,1,20.2,66.9ZM31.7,51.8a10.9,10.9,0,0,1,1.6,5.8,13.3,13.3,0,0,1-.5,3.4h0c-1.2,4.4-4.4,7.4-7.7,8.2a2.7,2.7,0,0,0,.6-1.2h0a1.5,1.5,0,0,0,.1-.7,3.4,3.4,0,0,0-2.7-3.1L21.9,64a3.3,3.3,0,0,0-1.9.6,2.6,2.6,0,0,0-1.2,1.5,2,2,0,0,0-.1.7,1.3,1.3,0,0,0,.1.6l-1.4-1.5a10.9,10.9,0,0,1-1.6-5.8,14.8,14.8,0,0,1,.5-3.5h0c1.5-5,5.5-8.3,9.3-8.2a6.2,6.2,0,0,1,1.9.2A7.1,7.1,0,0,1,31.7,51.8ZM52,59.2a2.7,2.7,0,0,1-1.5.5,3.4,3.4,0,0,1-1.6-.5,1.1,1.1,0,0,1-.5-1,1.3,1.3,0,0,1,.5-1.1,2.8,2.8,0,0,1,1.6-.5,3,3,0,0,1,1.5.5,1.4,1.4,0,0,1,.6,1.1A1.4,1.4,0,0,1,52,59.2Zm4.4-17.4A12.7,12.7,0,0,1,59,49.5a12,12,0,0,1-2.6,7.6,8.3,8.3,0,0,1-2.7,2.3,5.3,5.3,0,0,0,.3-1.2A3,3,0,0,0,52.9,56a3.5,3.5,0,0,0-2.4-.8,3.6,3.6,0,0,0-2.4.8,2.7,2.7,0,0,0-1.2,2.2,1.9,1.9,0,0,0,.4,1.2,8.9,8.9,0,0,1-2.8-2.3,12.6,12.6,0,0,1,0-15.3,7.4,7.4,0,0,1,11.9,0Z" fill="#20c7e2"/>
    </g>
  </g>
</svg>
