<svg xmlns="http://www.w3.org/2000/svg" viewBox="0 0 124.87 35"><defs><style>.cls-1{fill:#fff;}</style></defs><title>Asset 18</title><g id="Layer_2" data-name="Layer 2"><g id="Layer_1-2" data-name="Layer 1"><path class="cls-1" d="M72,11.94c-.58-2.09-1.46-2.66-3.76-2.66h-.78V19.82c0,1.31.52,1.83,1.61,1.94a.68.68,0,0,1,.11.31.67.67,0,0,1-.16.47s-2-.16-3.71-.16-3.7.16-3.7.16a.86.86,0,0,1-.11-.47,1.54,1.54,0,0,1,0-.31c1.15-.11,1.68-.63,1.68-1.94V9.28h-.79c-2.3,0-3.24.57-3.81,2.66a1,1,0,0,1-.84-.16,15.53,15.53,0,0,0,.21-4l.26-.21a10.73,10.73,0,0,0,3,.42h8.15a10.76,10.76,0,0,0,3-.42l.26.21a15.53,15.53,0,0,0,.21,4A.9.9,0,0,1,72,11.94Z"/><path class="cls-1" d="M83,21.86a9.17,9.17,0,0,0-1.72.26,9.63,9.63,0,0,0-2.14.78h-.26A2.45,2.45,0,0,1,78,21.13l-2.4,1.57a2.46,2.46,0,0,1-.89.2,2.71,2.71,0,0,1-2.56-2.71,2.78,2.78,0,0,1,2.35-3l3.4-.68V15.28c0-.94-.47-1.46-1.73-1.46a8,8,0,0,0-3.08.63.65.65,0,0,1-.26-.74L75.89,12a4.91,4.91,0,0,1,1.78-.31c2.77,0,4.18,1.51,4.18,3.71V20c0,.78.36,1.2,1.09,1.2a.72.72,0,0,1,.11.31A1.15,1.15,0,0,1,83,21.86Zm-5.11-4.59c-1.83.41-2.46.83-2.46,1.87s.47,1.47,1.57,1.47a1.77,1.77,0,0,0,.89-.26Z"/><path class="cls-1" d="M92.66,22.54a5.07,5.07,0,0,1-1.88.36,3.8,3.8,0,0,1-2.15-.57V25.1c0,1.09.58,1.56,1.88,1.67a1.13,1.13,0,0,1,.06.36.8.8,0,0,1-.11.37s-1.46-.16-3.81-.16c-1.57,0-3.24.16-3.24.16a.69.69,0,0,1,0-.73c.89-.11,1.26-.58,1.26-1.67V14.86a1.47,1.47,0,0,0-1.36-1.56.85.85,0,0,0-.16,0,1.1,1.1,0,0,1-.1-.47.7.7,0,0,1,0-.32A13.82,13.82,0,0,0,85,12.36a11.17,11.17,0,0,0,2.72-.79h.36a5.38,5.38,0,0,1,.52,1.88L91,11.89a3.06,3.06,0,0,1,1-.21c2.3,0,4,2.14,4,4.8S94.9,21.65,92.66,22.54ZM89.78,14a2.14,2.14,0,0,0-1.15.31v5.9a2,2,0,0,0,1.83,1.46c.89,0,1.73-.83,1.73-3.18S91.3,14,89.78,14Z"/><path class="cls-1" d="M107.85,21.86a9,9,0,0,0-1.72.26,9.63,9.63,0,0,0-2.14.78h-.26a2.6,2.6,0,0,1-.89-1.77l-2.4,1.57a2.55,2.55,0,0,1-.89.2A2.71,2.71,0,0,1,97,20.19a2.78,2.78,0,0,1,2.35-3l3.39-.68V15.28c0-.94-.47-1.46-1.72-1.46a8,8,0,0,0-3.08.63.64.64,0,0,1-.26-.74L100.75,12a4.89,4.89,0,0,1,1.77-.31c2.77,0,4.18,1.51,4.18,3.71V20c0,.78.37,1.2,1.1,1.2a.71.71,0,0,1,.1.31A1.14,1.14,0,0,1,107.85,21.86Zm-5.12-4.59c-1.82.41-2.45.83-2.45,1.87s.47,1.47,1.57,1.47a1.71,1.71,0,0,0,.88-.26Z"/><path class="cls-1" d="M113.13,22.9a8.43,8.43,0,0,1-3.82-.88,7.51,7.51,0,0,0-.1-2.41,1.11,1.11,0,0,1,.73-.15,3.53,3.53,0,0,0,3.55,2.3c1.31,0,1.83-.63,1.83-1.15s-.42-.94-2.46-1.62c-3.18-1-3.91-1.93-3.91-3.45s2.4-3.86,5.53-3.86a6.47,6.47,0,0,1,3.19.78,4.2,4.2,0,0,0,0,2.14,1.19,1.19,0,0,1-.68.21,3.81,3.81,0,0,0-3.55-2.09c-.94,0-1.46.47-1.46.84s.63,1.2,2.61,1.77c2.77.89,3.6,1.73,3.6,3.24S115.89,22.9,113.13,22.9Z"/><path class="cls-1" d="M123,17.94l-.41.11-.42-.11c-.58-4.59-1.88-7.67-1.88-9s.52-1.41,2.3-1.41,2.29.73,2.29,1.41S123.52,13.35,123,17.94Zm-.41,4.76a1.78,1.78,0,1,1,.1-3.55,1.78,1.78,0,0,1-.05,3.55Z"/><path class="cls-1" d="M36.56,3.82A.43.43,0,0,0,36,3.66l-1.4.75H34l-2.74-.27A9.14,9.14,0,0,0,25.43.43,33.46,33.46,0,0,0,20.05,0a48.21,48.21,0,0,0-5.37.32c-.15,0-.25.11-.32.33a.31.31,0,0,0,.1.37s5.22,3.82,9.68,4.89a9.42,9.42,0,0,0,2.58.38A7.16,7.16,0,0,0,31.18,5l2.15.21c-2.09,1.24-4.08,2.42-5.91,3.71l-.7.16c-.7.11-2,.32-3.49.43a11.56,11.56,0,0,0-7.8-2.58H14.09A38.4,38.4,0,0,0,5,9.19C2.31,10.11.27,11,.22,11a.48.48,0,0,0-.22.43.31.31,0,0,0,.27.32s7.31,2.48,13.33,2.48h1.08a12.57,12.57,0,0,0,6.66-2.15,9.64,9.64,0,0,0,1.83-1.78L26,9.89A43.83,43.83,0,0,0,14.79,22.2l-1.08-.1c-2.53,0-4.89,2.09-5.7,5H8a7,7,0,0,0-.32,2.09,6.2,6.2,0,0,0,1,3.55,4.67,4.67,0,0,0,2.69,2,3,3,0,0,0,1.23.22c2.48,0,4.84-2.1,5.7-5.05h0a8.87,8.87,0,0,0,.27-2.05,6.46,6.46,0,0,0-1-3.55,4.79,4.79,0,0,0-2.09-1.82A42.81,42.81,0,0,1,27.69,9.68a10.6,10.6,0,0,0-1,4.84A14.17,14.17,0,0,0,26.88,17a5,5,0,0,0-3.6,1.88,7.59,7.59,0,0,0,0,9.2,5.09,5.09,0,0,0,3.82,1.93,4.92,4.92,0,0,0,3.81-1.93,7.59,7.59,0,0,0,0-9.2A5.12,5.12,0,0,0,27.63,17a23.68,23.68,0,0,1-.16-2.52,8.76,8.76,0,0,1,1.24-5.06,4.44,4.44,0,0,1,.81-1c.05-.11.21-.16.26-.21h.06C31.77,6.94,34,5.7,36.4,4.41a.38.38,0,0,0,.22-.48A.24.24,0,0,0,36.56,3.82ZM26.77,5.48a9.93,9.93,0,0,1-2.42-.27,26.59,26.59,0,0,1-6.29-2.79L15.81,1h0c1-.11,2.58-.16,4.24-.16a26.25,26.25,0,0,1,5.16.43,8.9,8.9,0,0,1,4.31,2.15l.64.65L27.63,3.6C26.29,3.28,25.16,3,24,2.85a.36.36,0,0,0-.51.13.38.38,0,0,0,.13.52.42.42,0,0,0,.22,0c1.08.21,2.26.43,3.5.75L30,4.84A8.13,8.13,0,0,1,26.77,5.48Zm-12,8h-1A41.78,41.78,0,0,1,5,12.26l-3.12-.81-.22-.11c2.26-1,8.23-3.22,12.64-3.65h1.29A11.82,11.82,0,0,1,21,8.92l1.13.7c-1.13.06-2.47.16-3.76.16h-2a25.64,25.64,0,0,0-7.53.81.39.39,0,0,0-.27.48.4.4,0,0,0,.49.27,25.32,25.32,0,0,1,7.31-.8h2c1.29,0,2.58-.06,3.71-.16A10.69,10.69,0,0,1,14.73,13.44ZM10.86,32.85v-.16h0a.42.42,0,0,1,.27-.38,1.06,1.06,0,0,1,.59-.21h.43a1.21,1.21,0,0,1,.86,1v.16a.58.58,0,0,1-.32.38,1.15,1.15,0,0,1-.59.22h-.38V34h0v-.21A1.14,1.14,0,0,1,10.86,32.85ZM17,24.73a5.83,5.83,0,0,1,.86,3.12,7.11,7.11,0,0,1-.27,1.83h0a6,6,0,0,1-4.14,4.4,1.31,1.31,0,0,0,.33-.64h0a.82.82,0,0,0,0-.38,1.82,1.82,0,0,0-1.45-1.66l-.65-.11a1.79,1.79,0,0,0-1,.32,1.4,1.4,0,0,0-.64.81,1.19,1.19,0,0,0-.06.37.75.75,0,0,0,.06.33l-.75-.81a5.74,5.74,0,0,1-.86-3.12,8,8,0,0,1,.26-1.88h0c.81-2.69,3-4.46,5-4.41a3.58,3.58,0,0,1,1,.11A3.81,3.81,0,0,1,17,24.73Zm10.92,4a1.48,1.48,0,0,1-.81.27,1.89,1.89,0,0,1-.86-.27.61.61,0,0,1-.27-.54.71.71,0,0,1,.27-.59,1.46,1.46,0,0,1,.86-.27,1.66,1.66,0,0,1,.81.27.77.77,0,0,1,.32.59A.75.75,0,0,1,28,28.71Zm2.36-9.36a6.82,6.82,0,0,1,1.4,4.14,6.44,6.44,0,0,1-1.4,4.09,4.56,4.56,0,0,1-1.45,1.24,2.94,2.94,0,0,0,.16-.65A1.6,1.6,0,0,0,28.44,27a2.15,2.15,0,0,0-2.58,0,1.44,1.44,0,0,0-.65,1.18,1.11,1.11,0,0,0,.22.65,5,5,0,0,1-1.51-1.24,6.8,6.8,0,0,1,0-8.23,4,4,0,0,1,5.57-.83A4.08,4.08,0,0,1,30.32,19.35Z"/></g></g></svg>