<svg xmlns="http://www.w3.org/2000/svg" viewBox="0 0 334.1 79.8">
  <title>Asset 20</title>
  <g id="Layer_2" data-name="Layer 2">
    <g id="sol">
      <g>
        <path d="M24.8,9.5c-1.1-4-2.7-5.2-7.1-5.2H13.1v9.9h3c3.4-.1,4.3-.7,4.9-3.7h.5a1.8,1.8,0,0,1,1.2.4,32.6,32.6,0,0,0-.4,4.6,32.6,32.6,0,0,0,.4,4.6,1.8,1.8,0,0,1-1.2.4H21c-.6-3.1-1.5-3.6-4.9-3.7h-3v8.3c0,2.5,1.1,3.5,3.7,3.8a1.2,1.2,0,0,1,.1.5,1.7,1.7,0,0,1-.2.9s-4.2-.3-7.7-.3-7.1.3-7.1.3a1.7,1.7,0,0,1-.2-.9,1.2,1.2,0,0,1,.1-.5C4,28.2,5,27.2,5,24.7V7C5,4.5,4,3.5,1.8,3.2a1.2,1.2,0,0,1-.1-.5,1.7,1.7,0,0,1,.2-.9s3.9.3,7.1.3H21.1a11.7,11.7,0,0,0,4.6-.8l.5.4a37.1,37.1,0,0,0,.2,7.5A2.2,2.2,0,0,1,24.8,9.5Z" fill="#20c7e2"/>
        <path d="M45.8,15.4H44.6a4.7,4.7,0,0,0-3.8-2,7.4,7.4,0,0,0-2.9.7V25.4a2.8,2.8,0,0,0,2.9,3.2,1.3,1.3,0,0,1,.2.6,1.1,1.1,0,0,1-.3.7s-3-.3-6.5-.3-6.2.3-6.2.3a1.4,1.4,0,0,1-.2-.7,2.2,2.2,0,0,1,.1-.6c1.7-.2,2.5-1.2,2.5-3.2V15.3a2.8,2.8,0,0,0-3-3.1,2.2,2.2,0,0,1-.2-.9.9.9,0,0,1,.2-.6,25.9,25.9,0,0,0,3.7-.3,19.7,19.7,0,0,0,5.1-1.5h.7a10.5,10.5,0,0,1,1,3.6l4.7-3a6.2,6.2,0,0,1,2-.4,4.9,4.9,0,0,1,2,.4,5.1,5.1,0,0,1,.4,2.1A5.9,5.9,0,0,1,45.8,15.4Z" fill="#20c7e2"/>
        <path d="M61.6,29.9s-2.8-.3-6.4-.3-6.6.3-6.6.3a1.4,1.4,0,0,1-.2-.7,2.2,2.2,0,0,1,.1-.6c1.8-.2,2.9-1,2.9-3.2V15.3a2.8,2.8,0,0,0-2.9-3.1,2.2,2.2,0,0,1-.2-.9,1.5,1.5,0,0,1,.1-.6s3-.1,4.9-.4a24.8,24.8,0,0,0,4.9-1.4,2.4,2.4,0,0,1,1.1.9,37.1,37.1,0,0,0-.3,4.7V25.4c0,2.2,1,3,2.7,3.2a1.3,1.3,0,0,1,.2.6A1.1,1.1,0,0,1,61.6,29.9ZM54.8,7.2A3.5,3.5,0,0,1,51,3.6,3.6,3.6,0,0,1,54.8.1a3.4,3.4,0,0,1,3.7,3.5A3.5,3.5,0,0,1,54.8,7.2Z" fill="#20c7e2"/>
        <path d="M88.1,28.6a16.9,16.9,0,0,0-3.3.5,20.5,20.5,0,0,0-4.1,1.5h-.4a5.3,5.3,0,0,1-1.8-3.4l-4.4,2.9a5.5,5.5,0,0,1-2.2.5c-4.7,0-8.4-3.9-8.4-9.9s2.6-8.8,5.9-10.5a10.8,10.8,0,0,1,4.1-1.1c3.4,0,4.9,1,4.9,1V6.4a2.8,2.8,0,0,0-3-3.1,2.2,2.2,0,0,1-.2-.9.9.9,0,0,1,.2-.6A24.1,24.1,0,0,0,79,1.5,19.6,19.6,0,0,0,84.2,0H85s.9,1.4.9,4.7V25c0,1.5.7,2.3,2.2,2.3a1.3,1.3,0,0,1,.2.6A1.4,1.4,0,0,1,88.1,28.6Zm-9.7-14s-1.2-3.3-3.8-3.3-3.3,1.9-3.3,6.9S73.4,26,76.1,26a3.8,3.8,0,0,0,2.3-.9Z" fill="#20c7e2"/>
        <path d="M110.5,28.6a16.9,16.9,0,0,0-3.3.5,18,18,0,0,0-4.1,1.5h-.4a5,5,0,0,1-1.8-3.4l-4.6,3a5,5,0,0,1-1.7.4,5.2,5.2,0,0,1-4.9-5.2c0-2.9,1.3-4.9,4.5-5.7l6.5-1.3V16c0-1.8-.9-2.8-3.3-2.8a15.9,15.9,0,0,0-5.9,1.2A1.4,1.4,0,0,1,91,13l6-3.3a9.2,9.2,0,0,1,3.3-.6c5.3,0,8,2.9,8,7.1V25c0,1.5.7,2.3,2.2,2.3a1.3,1.3,0,0,1,.2.6A1.4,1.4,0,0,1,110.5,28.6Zm-9.8-8.8c-3.5.8-4.7,1.6-4.7,3.7s.9,2.7,3,2.7a3.2,3.2,0,0,0,1.7-.5Z" fill="#20c7e2"/>
        <path d="M134.7,11.5c-1.7.2-2.8,1-3.7,3.2L124.6,30c-2,4.6-5.2,8.7-7.7,10.1a7.8,7.8,0,0,1-4.4-4.5l.8-.7a5.3,5.3,0,0,0,2.2.4c2.4,0,4.2-1.1,5.5-3.8l.2-.2L113,14c-.7-1.7-1.5-2.4-2.9-2.5a2.2,2.2,0,0,1-.2-.9.9.9,0,0,1,.2-.6l6.2.2,6.5-.2a.9.9,0,0,1,.2.6,2.2,2.2,0,0,1-.2.9c-1.3.1-1.9.6-1.9,1.5a4.1,4.1,0,0,0,.5,1.9l3.7,8.4,3.5-8.8a3.4,3.4,0,0,0,.3-1.4c0-1-.6-1.6-2.3-1.6a2.2,2.2,0,0,1-.2-.9.9.9,0,0,1,.2-.6l4.2.2,3.9-.2a.9.9,0,0,1,.2.6A2.2,2.2,0,0,1,134.7,11.5Z" fill="#20c7e2"/>
        <path d="M154.6,30.6c-6.3,0-10.2-4.5-10.2-10.7,0-10.1,9.7-18.5,19.5-19.2a1.5,1.5,0,0,1,.3,1.1.7.7,0,0,1-.1.5c-6.2,1.4-9.9,5-11.8,11a14.2,14.2,0,0,1,5.7-1.5c4.8,0,7.8,3.1,7.8,7.9A11.1,11.1,0,0,1,154.6,30.6ZM153.2,15h-1.3a23.9,23.9,0,0,0-.2,3c0,5.9,2.5,9.5,5.2,9.5s2.3-1.5,2.3-4.7S156.6,15,153.2,15Z" fill="#20c7e2"/>
        <path d="M186.3,27.5l-6.6,3H179c-5.4,0-8-2.6-8-8.3V12.7h-3.3a2.8,2.8,0,0,1-.4-1.4,3.3,3.3,0,0,1,.2-1.1,11,11,0,0,0,9.1-5.6,2.4,2.4,0,0,1,1.9.8v4.8c5.2,0,6.8-.6,6.8-.6a2.6,2.6,0,0,1,.5,1.6,4.3,4.3,0,0,1-.3,1.5h-7v8.6c0,3.7,1.5,5.4,4.2,5.4a8.8,8.8,0,0,0,3-.8,1.1,1.1,0,0,1,.7,1.1A1.2,1.2,0,0,1,186.3,27.5Z" fill="#20c7e2"/>
        <path d="M213.3,29.9s-2.6-.3-4.9-.3a39.2,39.2,0,0,0-4.3.3s-1.2-.7-1.2-4.6V16c0-1.8-.9-2.8-2.7-2.8a5,5,0,0,0-2.7.9V25.4c0,2,.7,3,2.4,3.2a1.3,1.3,0,0,1,.2.6,1.1,1.1,0,0,1-.3.7s-3.1-.3-6.1-.3-6.2.3-6.2.3a1.4,1.4,0,0,1-.2-.7,1.3,1.3,0,0,1,.2-.6c1.7-.2,2.4-1.2,2.4-3.2V6.4A2.8,2.8,0,0,0,187,3.3a2.2,2.2,0,0,1-.2-.9,1.5,1.5,0,0,1,.1-.6,25.9,25.9,0,0,0,3.7-.3A21.3,21.3,0,0,0,195.8,0h.7a10.5,10.5,0,0,1,1,5v7.5l4.6-3a6.2,6.2,0,0,1,2-.4c3.9,0,6.4,2.3,6.4,5.5V24.8c0,2.6.7,3.5,2.9,3.8a2.2,2.2,0,0,1,.1.6A1.4,1.4,0,0,1,213.3,29.9Z" fill="#20c7e2"/>
        <path d="M233.9,30.6a20,20,0,0,1-9.1-2.2,32.7,32.7,0,0,0,.2-3.3,18.7,18.7,0,0,0-.4-3.5,1.6,1.6,0,0,1,1.2-.5h.5c1.2,4.5,4.6,6.9,8.5,6.9,2.3,0,4-1.4,4-3.1a4.7,4.7,0,0,0-2.5-3.8c-1.6-.9-4.9-3.1-7.1-4.5s-4.2-3.8-4.2-6.6c0-5.1,4.6-9,10.8-9a18.7,18.7,0,0,1,8.4,1.8,16.3,16.3,0,0,0-.2,2.3,16.1,16.1,0,0,0,.4,3.5,2,2,0,0,1-1.1.4h-.4c-1.3-3.3-3.9-5.5-7.2-5.5s-3.4,1-3.4,2.7,1.2,2.8,3.6,4.3l5.1,3c3.2,1.9,4.9,4.5,4.9,6.9C245.9,26.1,240.9,30.6,233.9,30.6Z" fill="#20c7e2"/>
        <path d="M267.4,19.1H255.8c.4,3.8,2,7.8,6.6,7.8A6.8,6.8,0,0,0,267,25a1.3,1.3,0,0,1,1.2.8,10.5,10.5,0,0,1-9,4.8c-7.1,0-10.7-4.6-10.7-10.2A10.8,10.8,0,0,1,255.2,10a13.4,13.4,0,0,1,4.6-.9c6.7,0,8.9,4.2,8.9,8.1A3.3,3.3,0,0,1,267.4,19.1Zm-8.5-7.9c-2.3,0-3.2,2.8-3.2,6.1l5.8-.4a8.3,8.3,0,0,0,.3-2.1C261.8,12.8,260.8,11.2,258.9,11.2Z" fill="#20c7e2"/>
        <path d="M287.9,29.9a10.5,10.5,0,0,1-3.6.7,7.9,7.9,0,0,1-4.2-1.1v5.4c0,2,1.2,2.9,3.7,3.1a2.4,2.4,0,0,1,.1.7,1.4,1.4,0,0,1-.2.7s-2.8-.3-7.3-.3c-3,0-6.2.3-6.2.3a1.4,1.4,0,0,1-.2-.7,2.4,2.4,0,0,1,.1-.7c1.8-.2,2.5-1.1,2.5-3.1V15.3a2.8,2.8,0,0,0-2.9-3.1,1.7,1.7,0,0,1-.3-.9.9.9,0,0,1,.2-.6,25.9,25.9,0,0,0,3.7-.3,21.3,21.3,0,0,0,5.2-1.5h.7a12.1,12.1,0,0,1,.9,3.6l4.7-3a6.2,6.2,0,0,1,2-.4c4.4,0,7.6,4.1,7.6,9.2S292.2,28.2,287.9,29.9Zm-5.5-16.4a4.9,4.9,0,0,0-2.3.6V25.4a4.1,4.1,0,0,0,3.6,2.8c1.7,0,3.3-1.6,3.3-6.1S285.3,13.5,282.4,13.5Z" fill="#20c7e2"/>
        <path d="M314.1,27.5l-6.6,3h-.8c-5.3,0-8-2.6-8-8.3V12.7h-3.3a3.4,3.4,0,0,1-.3-1.4,3.3,3.3,0,0,1,.2-1.1,11.2,11.2,0,0,0,9.1-5.6,2.6,2.6,0,0,1,1.9.8v4.8c5.1,0,6.7-.6,6.7-.6a2.6,2.6,0,0,1,.5,1.6,4.3,4.3,0,0,1-.3,1.5h-6.9v8.6c0,3.7,1.4,5.4,4.2,5.4a8.7,8.7,0,0,0,2.9-.8,1.1,1.1,0,0,1,.7,1.1Z" fill="#20c7e2"/>
        <path d="M320,30.2a3.4,3.4,0,1,1,0-6.7,3.2,3.2,0,0,1,3.5,3.3A3.4,3.4,0,0,1,320,30.2Z" fill="#20c7e2"/>
        <path d="M330.7,15.9a3.4,3.4,0,0,1-3.6-3.4,3.4,3.4,0,0,1,3.6-3.4,3.3,3.3,0,0,1,3.4,3.4A3.3,3.3,0,0,1,330.7,15.9Zm0,14.3a3.4,3.4,0,1,1,0-6.7,3.2,3.2,0,0,1,3.4,3.3A3.3,3.3,0,0,1,330.7,30.2Z" fill="#20c7e2"/>
        <path d="M48.5,52.4c-1.5.2-3.4,1.3-4.6,4.3L35.1,79.1H30.3L24,64,18.1,79.1H13.2L3.7,56A5.4,5.4,0,0,0,.1,52.4a1.2,1.2,0,0,1-.1-.5A1.7,1.7,0,0,1,.2,51s3.7.3,7.7.3,6.5-.3,6.5-.3a1.3,1.3,0,0,1,.3.9,1.2,1.2,0,0,1-.1.5c-1.3.2-1.9.9-1.9,2a6.2,6.2,0,0,0,.6,1.8l5.4,14.3L22,61.7a9.9,9.9,0,0,0,.4-1.8L20.7,56c-.9-2.2-2-3.4-2.9-3.6a.8.8,0,0,1-.2-.5,1.3,1.3,0,0,1,.3-.9s3.3.3,7,.3,7-.3,7-.3a1.7,1.7,0,0,1,.2.9,1.2,1.2,0,0,1-.1.5c-1.4.1-2.3.9-2.3,2a12.4,12.4,0,0,0,.6,1.8l5.4,14.3,5-13.1a12.2,12.2,0,0,0,.6-2.6c0-1.1-1.1-2-3-2.4a.8.8,0,0,1-.2-.5,1.3,1.3,0,0,1,.3-.9s2.8.3,5.8.3a41.4,41.4,0,0,0,4.2-.3,1.3,1.3,0,0,1,.3.9A.8.8,0,0,1,48.5,52.4Z" fill="#505151"/>
        <path d="M63.4,68.3H51.7c.5,3.8,2.1,7.8,6.6,7.8A7.2,7.2,0,0,0,63,74.2a1.1,1.1,0,0,1,1.1.8,10.5,10.5,0,0,1-9,4.8c-7,0-10.6-4.6-10.6-10.2s2.6-8.8,6.7-10.4a13.4,13.4,0,0,1,4.6-.9c6.6,0,8.8,4.2,8.8,8.1A2.8,2.8,0,0,1,63.4,68.3Zm-8.6-7.9c-2.2,0-3.2,2.8-3.2,6.1l5.8-.4a6.4,6.4,0,0,0,.4-2.1C57.8,62,56.7,60.4,54.8,60.4Z" fill="#505151"/>
        <path d="M79.1,79.1s-3.2-.3-6.2-.3-6.1.3-6.1.3a1.1,1.1,0,0,1-.3-.7,1.3,1.3,0,0,1,.2-.6c1.7-.2,2.5-1.2,2.5-3.2v-19a2.8,2.8,0,0,0-3-3.1,2.2,2.2,0,0,1-.2-.9.9.9,0,0,1,.2-.6,25.9,25.9,0,0,0,3.7-.3A19.7,19.7,0,0,0,75,49.2h.7a10.5,10.5,0,0,1,1,5V74.6c0,2,.7,3,2.5,3.2a2.2,2.2,0,0,1,.1.6A1.4,1.4,0,0,1,79.1,79.1Z" fill="#505151"/>
        <path d="M91.5,79.8c-7,0-10.6-4.6-10.6-10.2s2.6-8.8,6.6-10.4a14.4,14.4,0,0,1,5-.9,15.7,15.7,0,0,1,6.9,1.4,17.7,17.7,0,0,1,1,5.4,2.7,2.7,0,0,1-1.8.4s-1.7-4.8-6.4-4.8c-2.4,0-4.2,2-4.2,6,0,5.7,3.1,9.4,6.7,9.4a6.8,6.8,0,0,0,4.6-1.9,1.4,1.4,0,0,1,1.2.8A10.5,10.5,0,0,1,91.5,79.8Z" fill="#505151"/>
        <path d="M117.9,78.9a11.4,11.4,0,0,1-4.6.9c-7.1,0-10.6-4.6-10.6-10.2a10.8,10.8,0,0,1,6.7-10.4,13.4,13.4,0,0,1,4.6-.9c7.1,0,10.6,4.6,10.6,10.3A10.7,10.7,0,0,1,117.9,78.9Zm-5.5-18.3c-1.5,0-2.4,1.4-2.4,5.2,0,6.3,2.9,11.3,4.9,11.3s2.4-1.4,2.4-5.1C117.3,65.6,114.4,60.6,112.4,60.6Z" fill="#505151"/>
        <path d="M165.5,79.1s-2.6-.3-4.9-.3a39.2,39.2,0,0,0-4.3.3s-1.2-.7-1.2-4.6V65.2c0-1.8-.9-2.8-2.7-2.8a5.6,5.6,0,0,0-2.8.9V74.6c0,2,.8,3,2.5,3.2a1.3,1.3,0,0,1,.2.6,1.1,1.1,0,0,1-.3.7s-3.1-.3-6.1-.3-5.1.3-5.1.3a1.1,1.1,0,0,1-.3-.7,1.3,1.3,0,0,1,.2-.6c1-.3,1.4-1.2,1.4-3.2V65.2c0-1.8-.9-2.8-2.7-2.8a5.6,5.6,0,0,0-2.8.9V74.6c0,2,.7,3,2.5,3.2a2.2,2.2,0,0,1,.1.6,1.4,1.4,0,0,1-.2.7s-3.2-.3-6.2-.3-6.1.3-6.1.3a1.1,1.1,0,0,1-.3-.7,1.3,1.3,0,0,1,.2-.6c1.7-.2,2.5-1.2,2.5-3.2V64.5a2.8,2.8,0,0,0-3-3.1,2.2,2.2,0,0,1-.2-.9.9.9,0,0,1,.2-.6,25.9,25.9,0,0,0,3.7-.3,19.7,19.7,0,0,0,5.1-1.5h.7a10.5,10.5,0,0,1,1,3.6l4.7-3a6.2,6.2,0,0,1,2-.4c3,0,5.2,1.4,6,3.6l5-3.2a6.2,6.2,0,0,1,2-.4c3.9,0,6.4,2.3,6.4,5.5V74c0,2.6.7,3.5,2.9,3.8a2.2,2.2,0,0,1,.1.6A1.4,1.4,0,0,1,165.5,79.1Z" fill="#505151"/>
        <path d="M185.6,68.3H173.9c.5,3.8,2.1,7.8,6.6,7.8a7.2,7.2,0,0,0,4.7-1.9,1.3,1.3,0,0,1,1.1.8,10.5,10.5,0,0,1-9,4.8c-7,0-10.6-4.6-10.6-10.2s2.6-8.8,6.6-10.4a13.9,13.9,0,0,1,4.6-.9c6.7,0,8.9,4.2,8.9,8.1A3.7,3.7,0,0,1,185.6,68.3ZM177,60.4c-2.3,0-3.2,2.8-3.2,6.1l5.8-.4a8.3,8.3,0,0,0,.3-2.1C179.9,62,178.9,60.4,177,60.4Z" fill="#505151"/>
        <path d="M217.1,79l-11.5-.2c-3.2,0-7.1.3-7.1.3a1.3,1.3,0,0,1-.3-.9.8.8,0,0,1,.2-.5c2.1-.3,3.1-1.3,3.1-3.8V56.2c0-2.5-1-3.5-3.1-3.8a.8.8,0,0,1-.2-.5,1.3,1.3,0,0,1,.3-.9s3.9.3,7.1.3l11.1-.3c4.8,0,7.7,2.5,7.7,6.6s-4.2,6.3-4.2,6.3a7.3,7.3,0,0,1,5.7,6.8C225.9,75.1,222.5,79,217.1,79ZM212,52.9c-1.5,0-2.4.7-2.4,1.5v8.7l2.2.2h1.6c1.4-.6,3.1-2.7,3.1-5.9S215,52.9,212,52.9Zm-.1,12.2a6.5,6.5,0,0,0-2.3.3v8.9c0,1.9,1,2.7,2.8,2.7s5-2.3,5-6.2A5.4,5.4,0,0,0,211.9,65.1Z" fill="#505151"/>
        <path d="M247.6,68.3H236c.4,3.8,2,7.8,6.6,7.8a6.8,6.8,0,0,0,4.6-1.9,1.3,1.3,0,0,1,1.2.8,10.5,10.5,0,0,1-9,4.8c-7.1,0-10.7-4.6-10.7-10.2a10.8,10.8,0,0,1,6.7-10.4,13.4,13.4,0,0,1,4.6-.9c6.7,0,8.9,4.2,8.9,8.1A3.3,3.3,0,0,1,247.6,68.3Zm-8.5-7.9c-2.3,0-3.2,2.8-3.2,6.1l5.8-.4A8.3,8.3,0,0,0,242,64C242,62,241,60.4,239.1,60.4Z" fill="#505151"/>
        <path d="M270.1,68.3H258.5c.4,3.8,2,7.8,6.6,7.8a7.1,7.1,0,0,0,4.6-1.9,1.1,1.1,0,0,1,1.1.8c-1.7,2.3-4.1,4.8-8.9,4.8-7.1,0-10.7-4.6-10.7-10.2s2.6-8.8,6.7-10.4a13.4,13.4,0,0,1,4.6-.9c6.7,0,8.8,4.2,8.8,8.1A2.8,2.8,0,0,1,270.1,68.3Zm-8.6-7.9c-2.2,0-3.2,2.8-3.2,6.1l5.9-.4a8.3,8.3,0,0,0,.3-2.1C264.5,62,263.4,60.4,261.5,60.4Z" fill="#505151"/>
        <path d="M291.6,64.6h-1.2a4.7,4.7,0,0,0-3.8-2,7.4,7.4,0,0,0-2.9.7V74.6a2.8,2.8,0,0,0,2.9,3.2,1.3,1.3,0,0,1,.2.6,1.1,1.1,0,0,1-.3.7s-3-.3-6.6-.3-6.1.3-6.1.3a1.1,1.1,0,0,1-.3-.7,1.3,1.3,0,0,1,.2-.6c1.7-.2,2.5-1.2,2.5-3.2V64.5a2.8,2.8,0,0,0-3-3.1,2.2,2.2,0,0,1-.2-.9.9.9,0,0,1,.2-.6,25.9,25.9,0,0,0,3.7-.3,19.7,19.7,0,0,0,5.1-1.5h.7a10.5,10.5,0,0,1,1,3.6l4.7-3a6.2,6.2,0,0,1,2-.4,5.5,5.5,0,0,1,2,.4,5.1,5.1,0,0,1,.4,2.1A5.9,5.9,0,0,1,291.6,64.6Z" fill="#505151"/>
        <path d="M300.9,70.3l-.8.2-.8-.2c-1.1-8.8-3.6-14.7-3.6-17.3s1-2.7,4.4-2.7,4.4,1.4,4.4,2.7S301.9,61.5,300.9,70.3Zm-.8,9.1a3.4,3.4,0,1,1,0-6.7,3.3,3.3,0,0,1,3.5,3.3A3.4,3.4,0,0,1,300.1,79.4Z" fill="#505151"/>
      </g>
    </g>
  </g>
</svg>
