<svg xmlns="http://www.w3.org/2000/svg" viewBox="0 0 734 83.51"><defs><style>.cls-1{fill:#f7a892;}</style></defs><title>Asset 14</title><g id="Layer_2" data-name="Layer 2"><g id="Layer_1-2" data-name="Layer 1"><path class="cls-1" d="M33.37,1.26l-8.92,26.4h-3L16.66,11,11.92,27.67h-3L0,1.26H3.72l6.75,20.88L15.33,4.86H18l5,17.21L29.66,1.26Z"/><path class="cls-1" d="M53.65,24.45v3.22h-16V1.27H53.22V4.48H41.12v8.58H51.69v3.26H41.12v8.13Z"/><path class="cls-1" d="M67.09,14.52A13.43,13.43,0,0,1,80.43,1h.07a12.86,12.86,0,0,1,9.93,4.48L87.88,7.62a9.75,9.75,0,0,0-7.4-3.4,10.07,10.07,0,0,0-9.92,10.24v.06a10.11,10.11,0,0,0,9.9,10.31h0a9.71,9.71,0,0,0,7.4-3.41l2.56,2.15a12.87,12.87,0,0,1-9.93,4.49A13.44,13.44,0,0,1,67.09,14.64Z"/><path class="cls-1" d="M109.36,20.88H98l-2.55,6.81H91.83l10-26.4h3.68l10,26.4h-3.65Zm-1.15-3.07L103.69,5.89,99.17,17.81Z"/><path class="cls-1" d="M138.37,1.26v26.4H135L122.81,7.54V27.67h-3.48V1.27h3.45l12.1,20v-20Z"/><path class="cls-1" d="M143.43,10.27c2.14-3,3.4-5.6,2.91-10.27h3.06a12.49,12.49,0,0,1-4,11Z"/><path class="cls-1" d="M171.55,4.48H163.5V27.67H160V4.48h-8V1.26h19.58Z"/><path class="cls-1" d="M213.86,1.26l-8.93,26.4h-3L197.15,11l-4.7,16.69h-3L180.53,1.26h3.71l6.7,20.88,4.91-17.28h2.65l4.94,17.21,6.71-20.81Z"/><path class="cls-1" d="M230.91,20.88H219.57L217,27.69h-3.64l10-26.4h3.68l10,26.4h-3.65Zm-1.15-3.07L225.24,5.89l-4.52,11.92Z"/><path class="cls-1" d="M240.88,1.26h3.51v26.4h-3.48Z"/><path class="cls-1" d="M268.35,4.48H260.3V27.67h-3.48V4.48h-8V1.26h19.58Z"/><path class="cls-1" d="M296.55,4.48H288.5V27.67H285V4.48h-8V1.26h19.59Z"/><path class="cls-1" d="M297.89,14.52a13.38,13.38,0,0,1,26.75-.68c0,.23,0,.45,0,.68a13.38,13.38,0,1,1-26.75.67Zm23.26,0a10.05,10.05,0,0,0-9.92-10.35c-5.66,0-9.85,4.68-9.85,10.35a9.89,9.89,0,1,0,19.77.82C321.16,15.07,321.16,14.79,321.15,14.52Z"/><path class="cls-1" d="M338.06,14.52A13.42,13.42,0,0,1,351.38,1h.09a12.83,12.83,0,0,1,9.92,4.48l-2.56,2.14a9.73,9.73,0,0,0-7.39-3.4,10.08,10.08,0,0,0-9.93,10.23v.07a10.12,10.12,0,0,0,9.92,10.31h0a9.74,9.74,0,0,0,7.39-3.41l2.56,2.15a12.87,12.87,0,0,1-9.92,4.49A13.44,13.44,0,0,1,338.06,14.6Z"/><path class="cls-1" d="M382.27,24.45v3.22H366.33V1.27h15.56V4.48H369.78v8.58h10.58v3.26H369.78v8.13Z"/><path class="cls-1" d="M387.9,1.26h3.49V24.45H402.2v3.22H387.9Z"/><path class="cls-1" d="M422.62,24.45v3.22H406.68V1.27h15.56V4.48H410.13v8.58H420.7v3.26H410.13v8.13Z"/><path class="cls-1" d="M446.72,20.23a7.4,7.4,0,0,1-7.36,7.44h-11.1V1.27h9.92c4.37,0,7.13,2.6,7.13,6.74,0,2.3-.86,4.64-3.34,5.6C445.08,14.29,446.72,17.35,446.72,20.23Zm-15-15.75v7.78h6.52c2.37,0,3.56-1.65,3.56-3.91s-1.26-3.87-3.67-3.87Zm11.5,15.45A4.43,4.43,0,0,0,439,15.32a3,3,0,0,0-.52,0h-6.75v9.12h6.56c3.26,0,4.95-2.07,4.95-4.52Z"/><path class="cls-1" d="M459.33,17.7h-3.41v10h-3.48V1.27h9.92c5.75,0,8,4.14,8,8.24,0,3.83-1.91,7.67-6.9,8.16l7,10h-4.18Zm-3.41-3.18h5.52c3.88,0,5.41-2,5.41-5s-1.7-5-4.41-5h-6.52Z"/><path class="cls-1" d="M490.06,20.88H478.72l-2.55,6.81h-3.65l10-26.4h3.67l10,26.4h-3.64Zm-1.15-3.07L484.39,5.89l-4.52,11.92Z"/><path class="cls-1" d="M514.43,4.48h-8V27.67H502.9V4.48h-8V1.26h19.58Z"/><path class="cls-1" d="M534.82,24.45v3.22H518.88V1.27h15.56V4.48H522.33v8.58H532.9v3.26H522.33v8.13Z"/><path class="cls-1" d="M579.62,1.26l-8.93,26.4h-3L562.91,11l-4.72,16.68h-3l-8.94-26.4H550l6.71,20.88,4.91-17.29h2.64l5,17.21,6.7-20.8Z"/><path class="cls-1" d="M583.91,1.26h3.48v26.4h-3.48Z"/><path class="cls-1" d="M611.41,4.48h-8V27.67h-3.48V4.48h-8.06V1.26h19.59Z"/><path class="cls-1" d="M635.75,1.26v26.4h-3.48V16.13H619.32V27.67h-3.49V1.27h3.49V13h12.95V1.26Z"/><path class="cls-1" d="M671.51,1.26,661.35,15.48V27.67h-3.48V15.48l-10-14.22H652l7.66,10.81,7.66-10.81Z"/><path class="cls-1" d="M671.93,14.52a13.37,13.37,0,0,1,26.74-.68c0,.23,0,.45,0,.68a13.37,13.37,0,1,1-26.74.67C671.92,15,671.92,14.74,671.93,14.52Zm23.26,0a10.07,10.07,0,0,0-9.8-10.34h-.13a10.06,10.06,0,0,0-9.84,10.35,9.89,9.89,0,1,0,19.77.11Z"/><path class="cls-1" d="M703.93,18.62V1.26h3.48V18.62c0,4.14,2.84,6.09,6.13,6.09s6.13-1.95,6.13-6.09V1.26h3.49V18.62c0,6-4.41,9.43-9.62,9.43S703.93,24.6,703.93,18.62Z"/><path class="cls-1" d="M729.1,25.71a2.38,2.38,0,0,1,2.4-2.34h0a2.34,2.34,0,1,1,.28,4.68h-.28a2.37,2.37,0,0,1-2.42-2.32Zm.81-24.45h3.33L732.9,20h-2.65Z"/><path class="cls-1" d="M24.41,73.65H7.47c-3,0-6.63.34-6.63.34a1.69,1.69,0,0,1-.23-.85,1.25,1.25,0,0,1,.12-.54c2-.23,3-1.15,3-3.48V52.53c0-2.29-.92-3.25-2.95-3.48a1.52,1.52,0,0,1-.12-.51,1.58,1.58,0,0,1,.24-.85S4.49,48,7.48,48c3.26,0,6.86-.34,6.86-.34a1.67,1.67,0,0,1,.23.85,1.21,1.21,0,0,1-.12.53c-2.3.28-3.18,1.15-3.18,3.49V68.21c0,2.1,1.34,3.25,4.26,3.25h1.92c3.4,0,5.41-1.53,6.1-5.11a1.58,1.58,0,0,1,.53-.07,1.77,1.77,0,0,1,1.15.38A32.88,32.88,0,0,0,24.41,73.65Z"/><path class="cls-1" d="M44.22,63.87H33.34c.42,3.52,1.91,7.24,6.16,7.24a6.54,6.54,0,0,0,4.34-1.76,1.18,1.18,0,0,1,1.07.8,9.85,9.85,0,0,1-8.4,4.45c-6.58,0-9.95-4.26-9.95-9.54a10,10,0,0,1,6.24-9.7,11.71,11.71,0,0,1,4.26-.8c6.24,0,8.28,3.91,8.28,7.54A3,3,0,0,1,44.22,63.87Zm-8-7.36c-2.11,0-3,2.6-3,5.71l5.44-.38a7.12,7.12,0,0,0,.31-2c0-2-1-3.33-2.76-3.33Z"/><path class="cls-1" d="M64.07,71.69,57.9,74.53a4.4,4.4,0,0,1-.73.07c-5,0-7.47-2.37-7.47-7.66v-9H46.64a2.6,2.6,0,0,1-.15-2.26A10.72,10.72,0,0,0,55,50.39a2.11,2.11,0,0,1,1.76.73v4.52c4.83,0,6.32-.61,6.32-.61a2.6,2.6,0,0,1,.46,1.53,3.83,3.83,0,0,1-.24,1.34H56.79V66c0,3.4,1.38,5,3.94,5a8.07,8.07,0,0,0,2.76-.77,1.1,1.1,0,0,1,.66,1A1.42,1.42,0,0,1,64.07,71.69Z"/><path class="cls-1" d="M97,72.76a23,23,0,0,0-3.11.43,20.3,20.3,0,0,0-3.79,1.41h-.43A4.53,4.53,0,0,1,88,71.46L83.45,74.3a6.65,6.65,0,0,1-1.88.3c-3.6,0-6-2.07-6-5.11v-9a2.56,2.56,0,0,0-2.21-2.86,3.37,3.37,0,0,0-.55,0,1.9,1.9,0,0,1-.2-.85,1.33,1.33,0,0,1,.16-.58,27.88,27.88,0,0,0,3.4-.23,33.92,33.92,0,0,0,5.11-1H82a10.09,10.09,0,0,1,.61,4.25v8.94a2.29,2.29,0,0,0,2.56,2.6,5.22,5.22,0,0,0,2.6-.8V60.5c0-1.76-1-2.87-2.45-2.87a1.9,1.9,0,0,1-.2-.85,1.33,1.33,0,0,1,.16-.58s1.8-.07,3.4-.26a30.72,30.72,0,0,0,4.86-1h.66a10.09,10.09,0,0,1,.61,4.25V69.36c0,1.45.65,2.18,2,2.18a1.09,1.09,0,0,1,.2.58A1.52,1.52,0,0,1,97,72.76Z"/><path class="cls-1" d="M106.53,74.6A15,15,0,0,1,99.63,73a11.91,11.91,0,0,0-.19-4.25,1.8,1.8,0,0,1,1.34-.34c.58,1.84,2.55,4.09,6.36,4.09,2.3,0,3.3-1.11,3.3-2.07,0-1.18-.73-1.61-4.41-2.83-5.67-1.88-7-3.49-7-6.21,0-3.91,4.26-6.81,9.89-6.81A11.71,11.71,0,0,1,114.62,56a8.37,8.37,0,0,0,.07,3.79,1.59,1.59,0,0,1-1.22.38,6.86,6.86,0,0,0-6.33-3.71c-1.7,0-2.6.8-2.6,1.53,0,1.3,1.14,2.1,4.64,3.18,5,1.53,6.43,3.06,6.43,5.79C115.65,70.85,111.47,74.6,106.53,74.6Z"/><path class="cls-1" d="M145.42,57.56H142.7a6.39,6.39,0,0,1,1,3.63c0,5.26-3.49,8.24-9,8.24-2.18,0-3.52.77-3.52,1.71,0,.61.77,1,3.56,1.1l4.14.2c4.71.23,6.51,1.8,6.51,3.91,0,4.63-5.17,7.16-10.92,7.16-5.21,0-7.66-1.8-8.12-4.26a.79.79,0,0,1,.08-.3,12.05,12.05,0,0,0,2.3-2A4.45,4.45,0,0,1,127,73.12a3.52,3.52,0,0,1,.34-1.53A9.41,9.41,0,0,0,130.59,69a6.89,6.89,0,0,1-3.91-6.28c0-4.79,3.49-8.12,8.89-8.12a9.35,9.35,0,0,1,5.75,1.53,15.36,15.36,0,0,0,3.76-1,2.24,2.24,0,0,1,.57,1.42A2.67,2.67,0,0,1,145.42,57.56Zm-8,20.61-4-.27a11.33,11.33,0,0,1-3.52-.57,4.05,4.05,0,0,0-.12.85c0,2,2.14,3.56,5.36,3.56,3.41,0,5.11-1,5.11-2.15C140.21,78.82,139.48,78.34,137.37,78.17Zm-3.06-21.65c-1.08,0-1.84,1.3-1.84,3.52,0,4,1.7,7.33,3.72,7.33,1.07,0,1.84-1.31,1.84-3.53C138,59.85,136.3,56.52,134.31,56.52Z"/><path class="cls-1" d="M169.83,72.76a23.49,23.49,0,0,0-3.11.43,20.84,20.84,0,0,0-3.79,1.41h-.42a4.54,4.54,0,0,1-1.65-3.14l-4.52,2.84a6.65,6.65,0,0,1-1.88.3c-3.6,0-6-2.07-6-5.11v-9a2.56,2.56,0,0,0-2.21-2.86,3.37,3.37,0,0,0-.55,0,1.77,1.77,0,0,1-.19-.85,1.19,1.19,0,0,1,.15-.58,29,29,0,0,0,3.45-.23,34.4,34.4,0,0,0,5.11-1H155a10.09,10.09,0,0,1,.61,4.25v8.94a2.3,2.3,0,0,0,2.56,2.6,5.22,5.22,0,0,0,2.6-.8V60.5c0-1.76-1-2.87-2.45-2.87a1.77,1.77,0,0,1-.19-.85,1.19,1.19,0,0,1,.15-.58s1.8-.07,3.41-.26a31,31,0,0,0,4.86-1h.65a10,10,0,0,1,.62,4.25V69.36c0,1.45.64,2.18,2,2.18a1.09,1.09,0,0,1,.2.58A1.32,1.32,0,0,1,169.83,72.76Z"/><path class="cls-1" d="M183.81,74a52.39,52.39,0,0,0-6-.34,59.8,59.8,0,0,0-6.13.34,1.14,1.14,0,0,1-.08-1.26,2.66,2.66,0,0,0,2.69-3V60.27a2.56,2.56,0,0,0-2.21-2.86,3.37,3.37,0,0,0-.55,0,1.9,1.9,0,0,1-.2-.85,1.47,1.47,0,0,1,.15-.58s2.76-.07,4.6-.34a21.3,21.3,0,0,0,4.57-1.3,1.84,1.84,0,0,1,1,.85,32,32,0,0,0-.3,4.37V69.77c0,2,.95,2.76,2.55,3a1.15,1.15,0,0,1-.07,1.26ZM177.42,52.7a3.27,3.27,0,0,1-3.52-3c0-.1,0-.2,0-.29a3.35,3.35,0,0,1,3.4-3.3h.13a3.22,3.22,0,0,1,3.47,3c0,.11,0,.22,0,.34a3.32,3.32,0,0,1-3.32,3.32h-.16Z"/><path class="cls-1" d="M208.57,72.76a23.11,23.11,0,0,0-3.1.43,20.66,20.66,0,0,0-3.8,1.41h-.42a5.09,5.09,0,0,1-1.65-3.14l-4.14,2.73a5.21,5.21,0,0,1-2,.41c-4.37,0-7.82-3.6-7.82-9.19,0-4.87,2.37-8.24,5.44-9.81a9.19,9.19,0,0,1,3.83-1,8.77,8.77,0,0,1,4.56.92V51.94a2.56,2.56,0,0,0-2.22-2.85,3,3,0,0,0-.52,0,1.77,1.77,0,0,1-.19-.85,1.27,1.27,0,0,1,.15-.57,28.29,28.29,0,0,0,3.45-.23A17.48,17.48,0,0,0,204.93,46h.68s.85,1.27.85,4.41v19c0,1.45.66,2.18,2,2.18a1.09,1.09,0,0,1,.2.58A1.41,1.41,0,0,1,208.57,72.76Zm-9.12-13.15s-1-3-3.48-3c-1.66,0-3.07,1.76-3.07,6.48s1.95,7.28,4.48,7.28a3.36,3.36,0,0,0,2.07-.85Z"/><path class="cls-1" d="M227.61,63.87H216.73c.42,3.52,1.91,7.24,6.17,7.24a6.53,6.53,0,0,0,4.33-1.76,1.2,1.2,0,0,1,1.07.8c-1.61,2.11-3.91,4.45-8.39,4.45-6.59,0-10-4.26-10-9.54a10,10,0,0,1,6.24-9.7,12.15,12.15,0,0,1,4.26-.8c6.25,0,8.27,3.91,8.27,7.54A3,3,0,0,1,227.61,63.87Zm-8-7.36c-2.1,0-3,2.6-3,5.71l5.44-.38a7.11,7.11,0,0,0,.3-2c0-2-1-3.33-2.76-3.33Z"/><path class="cls-1" d="M260.57,56.79c-1.57.15-2.64.85-3.48,3l-6,14.29c-1.84,4.37-4.91,8.16-7.17,9.46a7.24,7.24,0,0,1-4.14-4.17l.77-.73a4.45,4.45,0,0,0,2.07.42c2.22,0,3.9-1.07,5.1-3.52l.12-.23L240.3,59.08c-.74-1.61-1.43-2.19-2.76-2.3a2.12,2.12,0,0,1-.2-.85,1.15,1.15,0,0,1,.24-.58s3.1.26,5.78.26,6.13-.26,6.13-.26a1.09,1.09,0,0,1,.2.57,2.08,2.08,0,0,1-.2.85c-1.22.11-1.79.57-1.79,1.38a5.3,5.3,0,0,0,.41,1.8l3.5,7.86,3.25-8.2a3.89,3.89,0,0,0,.3-1.34c0-.85-.61-1.46-2.18-1.46a2,2,0,0,1-.19-.85,1.08,1.08,0,0,1,.19-.57,39.58,39.58,0,0,0,4,.27,34.14,34.14,0,0,0,3.64-.31,1.09,1.09,0,0,1,.2.57A2.17,2.17,0,0,1,260.57,56.79Z"/><path class="cls-1" d="M274.63,73.8a11.71,11.71,0,0,1-4.26.8c-6.59,0-9.84-4.25-9.84-9.53a10,10,0,0,1,6.24-9.7,11.71,11.71,0,0,1,4.26-.8c6.59,0,9.84,4.25,9.84,9.53C280.87,68.74,278.45,72.3,274.63,73.8Zm-5.11-17.13c-1.34,0-2.22,1.35-2.22,4.83,0,6,2.68,10.62,4.6,10.62,1.33,0,2.22-1.35,2.22-4.83,0-6-2.71-10.62-4.62-10.62Z"/><path class="cls-1" d="M305.86,72.76a22.89,22.89,0,0,0-3.1.43A20.66,20.66,0,0,0,299,74.6h-.42a4.54,4.54,0,0,1-1.65-3.14l-4.52,2.84a6.65,6.65,0,0,1-1.88.3c-3.6,0-6-2.07-6-5.11v-9a2.56,2.56,0,0,0-2.2-2.86,3.39,3.39,0,0,0-.55,0,1.77,1.77,0,0,1-.19-.85,1.32,1.32,0,0,1,.15-.58,29,29,0,0,0,3.45-.23,34.16,34.16,0,0,0,5.11-1H291a10.09,10.09,0,0,1,.61,4.25v8.94a2.29,2.29,0,0,0,2.55,2.6,5.23,5.23,0,0,0,2.61-.8V60.5c0-1.76-1-2.87-2.45-2.87a1.89,1.89,0,0,1-.19-.85,1.47,1.47,0,0,1,.15-.58s1.8-.07,3.41-.26a30.84,30.84,0,0,0,4.87-1h.64a10.09,10.09,0,0,1,.61,4.25V69.36c0,1.45.66,2.18,2,2.18a1.17,1.17,0,0,1,.18.58A1.41,1.41,0,0,1,305.86,72.76Z"/><path class="cls-1" d="M332.68,71.69l-6.13,2.84a4.39,4.39,0,0,1-.72.07c-5,0-7.48-2.37-7.48-7.66v-9h-3.07a2.46,2.46,0,0,1-.34-1.3,2.65,2.65,0,0,1,.19-1,10.71,10.71,0,0,0,8.52-5.25,2.12,2.12,0,0,1,1.76.73v4.52c4.83,0,6.33-.61,6.33-.61a2.59,2.59,0,0,1,.45,1.53,3.81,3.81,0,0,1-.27,1.34h-6.51V66c0,3.4,1.38,5,3.95,5a8.07,8.07,0,0,0,2.76-.77,1.08,1.08,0,0,1,.65,1A1.43,1.43,0,0,1,332.68,71.69Z"/><path class="cls-1" d="M357.89,74a37.72,37.72,0,0,0-4.52-.34,28.56,28.56,0,0,0-4,.34s-1.07-.76-1.07-4.29V61a2.29,2.29,0,0,0-2.55-2.6,5.23,5.23,0,0,0-2.61.8V69.78c0,1.88.69,2.75,2.3,3a1.14,1.14,0,0,1-.08,1.26s-2.94-.34-5.75-.34-5.74.34-5.74.34a1.14,1.14,0,0,1-.08-1.26c1.61-.2,2.3-1.07,2.3-3V51.94a2.55,2.55,0,0,0-2.2-2.86,2.1,2.1,0,0,0-.56,0,2,2,0,0,1-.19-.86,1.29,1.29,0,0,1,.16-.57,26.65,26.65,0,0,0,3.45-.23A17.31,17.31,0,0,0,341.54,46h.64a10,10,0,0,1,.92,4.72v7l4.37-2.83a7,7,0,0,1,1.88-.31c3.61,0,6,2.07,6,5.11v9.6c0,2.42.66,3.26,2.69,3.49a1.14,1.14,0,0,1-.08,1.26Z"/><path class="cls-1" d="M376.06,60.46H375a4.5,4.5,0,0,0-3.6-1.84,6.56,6.56,0,0,0-2.68.65V69.78c0,1.88.85,2.75,2.68,3a1.14,1.14,0,0,1-.08,1.26,57,57,0,0,0-6.13-.34c-2.8,0-5.75.34-5.75.34a1.15,1.15,0,0,1-.07-1.26c1.61-.2,2.3-1.07,2.3-3V60.27a2.56,2.56,0,0,0-2.21-2.86,3.39,3.39,0,0,0-.55,0,1.9,1.9,0,0,1-.2-.85,1.47,1.47,0,0,1,.15-.58,28.29,28.29,0,0,0,3.45-.23,17.3,17.3,0,0,0,4.83-1.41h.66a10.35,10.35,0,0,1,.92,3.4L373,54.9a7,7,0,0,1,1.88-.31,5,5,0,0,1,1.84.34,4.44,4.44,0,0,1,.42,2A6,6,0,0,1,376.06,60.46Z"/><path class="cls-1" d="M392,73.8a11.71,11.71,0,0,1-4.26.8c-6.59,0-9.84-4.25-9.84-9.53a10,10,0,0,1,6.24-9.7,11.71,11.71,0,0,1,4.26-.8c6.59,0,9.85,4.25,9.85,9.53A10,10,0,0,1,392,73.8Zm-5.11-17.13c-1.34,0-2.22,1.35-2.22,4.83,0,6,2.68,10.62,4.6,10.62,1.34,0,2.22-1.35,2.22-4.83,0-6-2.71-10.62-4.63-10.62Z"/><path class="cls-1" d="M423.22,72.76a23,23,0,0,0-3.11.43,20.3,20.3,0,0,0-3.79,1.41h-.43a4.53,4.53,0,0,1-1.64-3.14l-4.52,2.84a6.71,6.71,0,0,1-1.88.3c-3.61,0-6-2.07-6-5.11v-9a2.56,2.56,0,0,0-2.21-2.86,3.39,3.39,0,0,0-.55,0,1.77,1.77,0,0,1-.2-.85,1.47,1.47,0,0,1,.15-.58,28.88,28.88,0,0,0,3.45-.23,33.92,33.92,0,0,0,5.11-1h.66a10.09,10.09,0,0,1,.61,4.25v8.94a2.29,2.29,0,0,0,2.55,2.6,5.23,5.23,0,0,0,2.61-.8V60.5c0-1.76-1-2.87-2.45-2.87a1.9,1.9,0,0,1-.2-.85,1.33,1.33,0,0,1,.16-.58s1.8-.07,3.4-.26a30.72,30.72,0,0,0,4.86-1h.66a10.09,10.09,0,0,1,.61,4.25V69.36c0,1.45.65,2.18,2,2.18a1.19,1.19,0,0,1,.2.58A1.41,1.41,0,0,1,423.22,72.76Z"/><path class="cls-1" d="M444,57.56h-2.72a6.39,6.39,0,0,1,1,3.63c0,5.26-3.49,8.24-9,8.24-2.19,0-3.53.77-3.53,1.71,0,.61.77,1,3.56,1.1l4.14.2c4.72.23,6.51,1.8,6.51,3.91,0,4.63-5.17,7.16-10.91,7.16-5.22,0-7.67-1.8-8.13-4.26a.79.79,0,0,1,.08-.3,12.05,12.05,0,0,0,2.3-2,4.42,4.42,0,0,1-1.7-3.79,3.26,3.26,0,0,1,.34-1.53A9.61,9.61,0,0,0,429.18,69a6.86,6.86,0,0,1-3.91-6.28c0-4.79,3.48-8.12,8.89-8.12a9.37,9.37,0,0,1,5.75,1.53,15.21,15.21,0,0,0,3.74-1,2.14,2.14,0,0,1,.57,1.42A2.54,2.54,0,0,1,444,57.56Zm-8,20.61-4-.27a11.43,11.43,0,0,1-3.52-.57,6,6,0,0,0-.12.85c0,2,2.14,3.56,5.36,3.56,3.45,0,5.11-1,5.11-2.15C438.75,78.82,438,78.34,435.91,78.17Zm-3.06-21.65c-1.08,0-1.84,1.3-1.84,3.52,0,4,1.7,7.33,3.72,7.33,1.07,0,1.84-1.31,1.84-3.53C436.57,59.85,434.84,56.52,432.85,56.52Z"/><path class="cls-1" d="M469.14,74a38,38,0,0,0-4.53-.34,28.44,28.44,0,0,0-4,.34s-1.11-.72-1.11-4.26V61a2.31,2.31,0,0,0-2-2.6,2.81,2.81,0,0,0-.58,0,5.22,5.22,0,0,0-2.6.8V69.78c0,1.88.68,2.75,2.3,3a1.14,1.14,0,0,1-.08,1.26s-2.95-.34-5.74-.34-5.75.34-5.75.34a1.14,1.14,0,0,1-.08-1.26c1.61-.2,2.29-1.07,2.29-3V51.94a2.55,2.55,0,0,0-2.22-2.85,3.35,3.35,0,0,0-.55,0,1.77,1.77,0,0,1-.19-.85,1.29,1.29,0,0,1,.19-.54,29.89,29.89,0,0,0,3.41-.23A17.2,17.2,0,0,0,452.77,46h.66a10.12,10.12,0,0,1,.92,4.72v7l4.37-2.83a6.91,6.91,0,0,1,1.87-.31c3.6,0,6,2.07,6,5.11v9.6c0,2.42.66,3.26,2.69,3.49a1.42,1.42,0,0,1,.15.57A1.32,1.32,0,0,1,469.14,74Z"/><path class="cls-1" d="M492.81,73.8a11.7,11.7,0,0,1-4.25.8c-6.6,0-9.85-4.25-9.85-9.53a10,10,0,0,1,6.24-9.7,11.93,11.93,0,0,1,4.26-.8c6.59,0,9.84,4.25,9.84,9.53A10,10,0,0,1,492.81,73.8ZM487.7,56.67c-1.33,0-2.21,1.35-2.21,4.83,0,6,2.68,10.62,4.6,10.62,1.33,0,2.21-1.35,2.21-4.83,0-6-2.66-10.62-4.62-10.62Z"/><path class="cls-1" d="M524.05,72.76a23,23,0,0,0-3.11.43,20.3,20.3,0,0,0-3.79,1.41h-.43a4.53,4.53,0,0,1-1.64-3.14l-4.52,2.84a6.65,6.65,0,0,1-1.88.3c-3.61,0-6-2.07-6-5.11v-9a2.56,2.56,0,0,0-2.21-2.86,3.39,3.39,0,0,0-.55,0,1.89,1.89,0,0,1-.19-.85,1.65,1.65,0,0,1,.14-.58,28,28,0,0,0,3.41-.23,34.16,34.16,0,0,0,5.11-1h.79a10,10,0,0,1,.62,4.25v8.94a2.29,2.29,0,0,0,2.55,2.6A5.29,5.29,0,0,0,515,70V60.5c0-1.76-1-2.87-2.46-2.87a1.77,1.77,0,0,1-.19-.85,1.32,1.32,0,0,1,.15-.58s1.81-.07,3.41-.26a31,31,0,0,0,4.86-1h.65a10,10,0,0,1,.62,4.25V69.36c0,1.45.64,2.18,2,2.18a1.09,1.09,0,0,1,.2.58A1.43,1.43,0,0,1,524.05,72.76Z"/><path class="cls-1" d="M542.7,60.46h-1.1a4.51,4.51,0,0,0-3.6-1.84,6.61,6.61,0,0,0-2.69.65V69.78c0,1.88.85,2.75,2.69,3a1.14,1.14,0,0,1-.08,1.26,57.1,57.1,0,0,0-6.13-.34c-2.8,0-5.75.34-5.75.34a1.14,1.14,0,0,1-.08-1.26c1.61-.2,2.3-1.07,2.3-3V60.27a2.56,2.56,0,0,0-2.21-2.86,3.35,3.35,0,0,0-.55,0,1.77,1.77,0,0,1-.19-.85,1.32,1.32,0,0,1,.15-.58,27.77,27.77,0,0,0,3.41-.23,17.4,17.4,0,0,0,4.83-1.41h.65a10.35,10.35,0,0,1,.92,3.4l4.37-2.83a7,7,0,0,1,1.87-.31,5,5,0,0,1,1.84.34,4.45,4.45,0,0,1,.43,2A6,6,0,0,1,542.7,60.46Z"/><path class="cls-1" d="M569.34,74a9,9,0,0,1-3.41.64,7,7,0,0,1-3.86-1v5c0,1.88,1.11,2.8,3.4,3a1.5,1.5,0,0,1,.16.62,1.46,1.46,0,0,1-.23.72,57.41,57.41,0,0,0-6.81-.34c-2.81,0-5.75.34-5.75.34a1.46,1.46,0,0,1-.23-.72,1.66,1.66,0,0,1,.15-.62c1.61-.19,2.3-1.07,2.3-3V60.27a2.56,2.56,0,0,0-2.21-2.86,3.37,3.37,0,0,0-.55,0,1.77,1.77,0,0,1-.19-.85,1.19,1.19,0,0,1,.15-.58,27.77,27.77,0,0,0,3.41-.23,17.23,17.23,0,0,0,4.82-1.41h.68a10.6,10.6,0,0,1,.92,3.4l4.36-2.83a7,7,0,0,1,1.88-.31c4.06,0,7,3.76,7,8.59S573.28,72.38,569.34,74Zm-5.18-15.33a4,4,0,0,0-2.1.57V69.78a3.78,3.78,0,0,0,3.36,2.64c1.61,0,3.07-1.57,3.07-5.79,0-5.06-1.6-8-4.33-8Z"/><path class="cls-1" d="M588.58,74s-3-.34-5.75-.34-5.75.34-5.75.34a1.14,1.14,0,0,1-.08-1.26c1.61-.2,2.3-1.07,2.3-3V51.94a2.55,2.55,0,0,0-2.2-2.86,2.09,2.09,0,0,0-.56,0,1.83,1.83,0,0,1-.19-.86,1.34,1.34,0,0,1,.14-.52,29.89,29.89,0,0,0,3.41-.23A17.43,17.43,0,0,0,584.78,46h.65a9.88,9.88,0,0,1,.92,4.72V69.78c0,1.88.69,2.75,2.3,3A1.15,1.15,0,0,1,588.58,74Z"/><path class="cls-1" d="M609.7,72.76a23.11,23.11,0,0,0-3.1.43,20.3,20.3,0,0,0-3.79,1.41h-.43a4.49,4.49,0,0,1-1.64-3.14l-4.26,2.8a4.44,4.44,0,0,1-6.13-4.52c0-2.68,1.15-4.6,4.14-5.29,1.84-.42,4.4-1,6.13-1.27V61c0-1.7-.85-2.6-3.14-2.6A14.74,14.74,0,0,0,592,59.51a1.38,1.38,0,0,1-.49-1.34l5.59-3.11a9.62,9.62,0,0,1,3.1-.49c4.95,0,7.48,2.64,7.48,6.59v8.2c0,1.45.65,2.18,2,2.18a1.18,1.18,0,0,1,.19.58A1.32,1.32,0,0,1,609.7,72.76Zm-9.12-8.2c-3.29.74-4.44,1.43-4.44,3.41A2.51,2.51,0,0,0,599,70.58a2.94,2.94,0,0,0,1.61-.5Z"/><path class="cls-1" d="M635.67,74a38,38,0,0,0-4.52-.34,28.44,28.44,0,0,0-4,.34S626,73.27,626,69.73V61a2.29,2.29,0,0,0-2.55-2.6,5.23,5.23,0,0,0-2.61.8V69.78c0,1.88.69,2.75,2.3,3a1.14,1.14,0,0,1-.08,1.26s-2.94-.34-5.74-.34-5.75.34-5.75.34a1.14,1.14,0,0,1-.08-1.26c1.61-.2,2.3-1.07,2.3-3V60.27a2.56,2.56,0,0,0-2.21-2.86,3.37,3.37,0,0,0-.55,0,1.89,1.89,0,0,1-.19-.85A1.33,1.33,0,0,1,611,56a28.55,28.55,0,0,0,3.45-.23,17.23,17.23,0,0,0,4.82-1.41h.64a9.82,9.82,0,0,1,.92,3.4l4.37-2.83a7,7,0,0,1,1.88-.31c3.6,0,6,2.07,6,5.11v9.54c0,2.42.66,3.26,2.69,3.49a1.14,1.14,0,0,1-.08,1.26Z"/><path class="cls-1" d="M638.7,80a1.11,1.11,0,0,1-.61-1.22A4.39,4.39,0,0,0,641,75a2.55,2.55,0,0,0-2.34-2.75h-.31a1.91,1.91,0,0,1-.54-1.3A2.87,2.87,0,0,1,640.59,68h.21c2.07,0,4,1.92,4,4.6C644.75,75.91,641.92,78.86,638.7,80Z"/></g></g></svg>