<svg xmlns="http://www.w3.org/2000/svg" viewBox="0 0 220.11 35"><defs><style>.cls-1{fill:#fff;}</style></defs><title>Asset 23</title><g id="Layer_2" data-name="Layer 2"><g id="Layer_1-2" data-name="Layer 1"><path class="cls-1" d="M36.57,33.36l-34.46.33a.66.66,0,0,0,0,1.31h0l34.45-.33a.66.66,0,0,0,0-1.31Z"/><path class="cls-1" d="M19.71,27.69c-3.71,0-7.61,1.55-10.63,3a43.07,43.07,0,0,0-5.13,3l.75,1.07a41.43,41.43,0,0,1,5-2.91C12.58,30.45,16.37,29,19.72,29a20.62,20.62,0,0,1,14.11,5.44l.93-.9A22.06,22.06,0,0,0,19.71,27.69Z"/><path class="cls-1" d="M11,18.56l-1.15.62,5.47,9.94,1.13-.62Z"/><path class="cls-1" d="M28,4.64a2.55,2.55,0,0,0-1.78,1.18,3,3,0,0,0-.57,2,2.37,2.37,0,0,0,.9,1.51,2.37,2.37,0,0,0,1.64.61A2.82,2.82,0,0,0,30,9.06a2.62,2.62,0,0,0,.82-1.88,2.63,2.63,0,0,0-.93-1.82A2.48,2.48,0,0,0,28,4.64Zm.14,1.3a1.3,1.3,0,0,1,.89.39,1.53,1.53,0,0,1,.51.9,1.45,1.45,0,0,1-.45.93,1.76,1.76,0,0,1-1,.51,1.32,1.32,0,0,1-1.17-1,1.9,1.9,0,0,1,.35-1.14,1.38,1.38,0,0,1,.85-.62Z"/><path class="cls-1" d="M27.75,0a.66.66,0,0,0-.63.68s0,.09,0,.13l.37,1.62a.65.65,0,1,0,1.28-.23.43.43,0,0,0,0-.05L28.41.52A.65.65,0,0,0,27.75,0Z"/><path class="cls-1" d="M32.82,1.8a.62.62,0,0,0-.38.2L31.18,3.31a.65.65,0,0,0-.05.92.66.66,0,0,0,.92.06l.07-.08,1.26-1.3a.67.67,0,0,0,0-.93.68.68,0,0,0-.56-.18Z"/><path class="cls-1" d="M34.67,6.21l-1.31.07a.65.65,0,0,0-.64.66.66.66,0,0,0,.66.65h.06l1.3-.08a.65.65,0,1,0,0-1.3Z"/><path class="cls-1" d="M31.55,10.15a.65.65,0,0,0-.59.71.6.6,0,0,0,.22.43l1.14,1a.66.66,0,0,0,.86-1h0l-1.14-1a.7.7,0,0,0-.48-.16Z"/><path class="cls-1" d="M27.75,11.61a.65.65,0,0,0-.58.72h0l.16,1.75a.66.66,0,0,0,.72.59.64.64,0,0,0,.58-.71l-.16-1.75a.65.65,0,0,0-.7-.6Z"/><path class="cls-1" d="M23.09,1.8a.65.65,0,0,0-.59.71.68.68,0,0,0,.19.4L24,4.21a.65.65,0,0,0,.94-.9L23.62,2a.65.65,0,0,0-.53-.2Z"/><path class="cls-1" d="M21.27,6.21a.65.65,0,0,0-.57.72.64.64,0,0,0,.62.57l1.31.08A.66.66,0,0,0,23.36,7a.65.65,0,0,0-.57-.72h-.08l-1.3-.07h-.14Z"/><path class="cls-1" d="M24.36,10.15a.65.65,0,0,0-.32.16l-1.15,1a.66.66,0,0,0-.07.92.67.67,0,0,0,.93.07h0l1.13-1a.64.64,0,0,0,.09-.91A.65.65,0,0,0,24.36,10.15Z"/><path class="cls-1" d="M5.93,10.89a.66.66,0,0,0-.48.36L.07,22.08A.65.65,0,0,0,.7,23c5.33-.3,11.41-3.56,18.56-10.36a.65.65,0,0,0-.41-1.12L6.06,10.89Zm.34,1.17,11.45.44C11.88,17.75,5.91,21,1.64,21.66Z"/><path class="cls-1" d="M8.07,13.18a.33.33,0,0,0-.29.36.31.31,0,0,0,.35.29l5.29.12a.33.33,0,0,0,.34-.32.32.32,0,0,0-.32-.33h0l-5.3-.12Z"/><path class="cls-1" d="M6.23,15.16l-.12,0-1,.41a.32.32,0,1,0,.18.62.11.11,0,0,0,.07,0l1-.4a.32.32,0,0,0,.17-.43.33.33,0,0,0-.3-.2Z"/><path class="cls-1" d="M6.38,16l-.09,0-1.49.55a.33.33,0,0,0-.2.42.33.33,0,0,0,.42.2H5l1.5-.54a.33.33,0,0,0,.21-.41A.32.32,0,0,0,6.38,16Z"/><path class="cls-1" d="M6.44,17.12h0l-2,.47a.32.32,0,0,0-.26.38.33.33,0,0,0,.38.26h0l2-.46a.32.32,0,0,0,.26-.38.32.32,0,0,0-.38-.26Z"/><path class="cls-1" d="M5.5,18.34l-.08,0-1.82.78a.33.33,0,0,0-.18.43.34.34,0,0,0,.44.17h0L5.67,19a.33.33,0,0,0,.19-.42.33.33,0,0,0-.36-.2Z"/><path class="cls-1" d="M72,11.62A2.91,2.91,0,0,0,69.7,13.7L65.44,24.64H63.06l-3-7.4-2.88,7.4H54.76l-4.65-11.3a2.54,2.54,0,0,0-1.76-1.72.69.69,0,0,1-.06-.28.86.86,0,0,1,.12-.44s1.78.18,3.74.18c1.53,0,3.19-.18,3.19-.18a.86.86,0,0,1,.12.44.69.69,0,0,1-.06.28.88.88,0,0,0-.9,1,3.89,3.89,0,0,0,.28.88l2.64,7L59,16.16a3.43,3.43,0,0,0,.18-.9l-.8-1.92c-.44-1.08-1-1.64-1.46-1.72a.69.69,0,0,1-.06-.28A.86.86,0,0,1,57,10.9s1.64.18,3.44.18c1.58,0,3.38-.18,3.38-.18a.86.86,0,0,1,.12.44.69.69,0,0,1-.06.28c-.66,0-1.1.42-1.1,1a3.89,3.89,0,0,0,.28.88l2.64,7L68.14,14a4.49,4.49,0,0,0,.3-1.24c0-.56-.52-1-1.48-1.16a.69.69,0,0,1-.06-.28A.86.86,0,0,1,67,10.9a25.53,25.53,0,0,0,2.86.18,16.23,16.23,0,0,0,2-.18.86.86,0,0,1,.12.44A.69.69,0,0,1,72,11.62Z"/><path class="cls-1" d="M77.92,24.64a26.66,26.66,0,0,0-3.15-.18,30.72,30.72,0,0,0-3.2.18.67.67,0,0,1-.12-.36.68.68,0,0,1,.08-.3,1.38,1.38,0,0,0,1.4-1.54v-5A1.35,1.35,0,0,0,71.49,16a1,1,0,0,1-.1-.44.68.68,0,0,1,.08-.3s1.44,0,2.4-.18a10.89,10.89,0,0,0,2.39-.68,1,1,0,0,1,.52.46,16,16,0,0,0-.16,2.28v5.32A1.34,1.34,0,0,0,78,24a.68.68,0,0,1,.08.3A.67.67,0,0,1,77.92,24.64Zm-3.35-11.1a1.7,1.7,0,0,1-1.84-1.72,1.75,1.75,0,0,1,1.84-1.72,1.69,1.69,0,0,1,1.83,1.72A1.73,1.73,0,0,1,74.57,13.54Z"/><path class="cls-1" d="M87.62,23.44l-3.2,1.48A2.65,2.65,0,0,1,84,25c-2.6,0-3.9-1.24-3.9-4V16.22h-1.6a1.28,1.28,0,0,1-.18-.68,1.34,1.34,0,0,1,.1-.5,5.6,5.6,0,0,0,4.44-2.74,1.13,1.13,0,0,1,.93.38V15a10.3,10.3,0,0,0,3.3-.32,1.36,1.36,0,0,1,.24.8,2.09,2.09,0,0,1-.14.7h-3.4v4.22c0,1.8.71,2.62,2.06,2.62a4.28,4.28,0,0,0,1.44-.4.56.56,0,0,1,.34.54A.71.71,0,0,1,87.62,23.44Z"/><path class="cls-1" d="M100.78,24.64a19.2,19.2,0,0,0-2.36-.18,15.18,15.18,0,0,0-2.1.18s-.58-.38-.58-2.24V17.86a1.2,1.2,0,0,0-1.32-1.36,2.72,2.72,0,0,0-1.36.42v5.52c0,1,.35,1.44,1.2,1.54a.68.68,0,0,1,.08.3.67.67,0,0,1-.12.36s-1.55-.18-3-.18a29.9,29.9,0,0,0-3,.18.67.67,0,0,1-.12-.36.68.68,0,0,1,.08-.3c.84-.1,1.2-.56,1.2-1.54v-9.3a1.35,1.35,0,0,0-1.44-1.5,1,1,0,0,1-.1-.44.68.68,0,0,1,.08-.3,15.12,15.12,0,0,0,1.8-.12A9.05,9.05,0,0,0,92.23,10h.34a5.13,5.13,0,0,1,.49,2.46v3.64l2.28-1.48a3.53,3.53,0,0,1,1-.16c1.88,0,3.1,1.08,3.1,2.66v5c0,1.26.34,1.7,1.4,1.82a.68.68,0,0,1,.08.3A.67.67,0,0,1,100.78,24.64Z"/><path class="cls-1" d="M114.52,23.44l-3.21,1.48a2.63,2.63,0,0,1-.38,0c-2.6,0-3.9-1.24-3.9-4V16.22h-1.6a1.28,1.28,0,0,1-.18-.68,1.34,1.34,0,0,1,.1-.5,5.6,5.6,0,0,0,4.44-2.74,1.11,1.11,0,0,1,.92.38V15a10.23,10.23,0,0,0,3.3-.32,1.32,1.32,0,0,1,.25.8,2.09,2.09,0,0,1-.14.7h-3.41v4.22c0,1.8.72,2.62,2.06,2.62a4.37,4.37,0,0,0,1.45-.4.56.56,0,0,1,.34.54A.71.71,0,0,1,114.52,23.44Z"/><path class="cls-1" d="M127.68,24.64a19.2,19.2,0,0,0-2.36-.18,15.18,15.18,0,0,0-2.1.18s-.58-.38-.58-2.24V17.86a1.21,1.21,0,0,0-1.33-1.36,2.72,2.72,0,0,0-1.36.42v5.52c0,1,.36,1.44,1.2,1.54a.68.68,0,0,1,.08.3.67.67,0,0,1-.12.36,25.09,25.09,0,0,0-6,0,.67.67,0,0,1-.12-.36.68.68,0,0,1,.08-.3c.84-.1,1.2-.56,1.2-1.54v-9.3a1.35,1.35,0,0,0-1.44-1.5,1,1,0,0,1-.1-.44.68.68,0,0,1,.08-.3,15.12,15.12,0,0,0,1.8-.12,9.05,9.05,0,0,0,2.52-.74h.34A5.21,5.21,0,0,1,120,12.5v3.64l2.28-1.48a3.56,3.56,0,0,1,1-.16c1.88,0,3.1,1.08,3.1,2.66v5c0,1.26.34,1.7,1.4,1.82a.68.68,0,0,1,.08.3A.67.67,0,0,1,127.68,24.64Z"/><path class="cls-1" d="M137.47,19.36h-5.68c.22,1.84,1,3.78,3.22,3.78a3.42,3.42,0,0,0,2.26-.92.62.62,0,0,1,.56.42A5.14,5.14,0,0,1,133.45,25c-3.44,0-5.2-2.24-5.2-5a5.2,5.2,0,0,1,3.26-5.06,6.2,6.2,0,0,1,2.24-.42c3.26,0,4.33,2,4.33,3.94A1.62,1.62,0,0,1,137.47,19.36Zm-4.18-3.84c-1.1,0-1.56,1.36-1.56,3l2.84-.2a3.68,3.68,0,0,0,.16-1C134.73,16.26,134.21,15.52,133.29,15.52Z"/><path class="cls-1" d="M148.67,25c-3.44,0-5.2-2.24-5.2-5a5.2,5.2,0,0,1,3.26-5.06,6.67,6.67,0,0,1,2.44-.42,7.68,7.68,0,0,1,3.34.68A7.49,7.49,0,0,1,153,17.8a1.12,1.12,0,0,1-.88.2A3.53,3.53,0,0,0,149,15.64c-1.18,0-2.08,1-2.08,3,0,2.74,1.54,4.54,3.28,4.54a3.42,3.42,0,0,0,2.26-.92.67.67,0,0,1,.56.42A5.14,5.14,0,0,1,148.67,25Z"/><path class="cls-1" d="M166.35,24a11.57,11.57,0,0,0-1.62.22,10.74,10.74,0,0,0-2,.74h-.22a2.37,2.37,0,0,1-.86-1.64l-2.36,1.48a3.53,3.53,0,0,1-1,.16c-1.88,0-3.1-1.08-3.1-2.66V17.6a1.35,1.35,0,0,0-1.44-1.5,1,1,0,0,1-.1-.44.68.68,0,0,1,.08-.3s.94,0,1.8-.12a17.89,17.89,0,0,0,2.68-.52h.34a5.31,5.31,0,0,1,.32,2.24V21.6A1.2,1.2,0,0,0,160.23,23a2.72,2.72,0,0,0,1.36-.42V17.6c0-.92-.52-1.5-1.28-1.5a1,1,0,0,1-.1-.44.68.68,0,0,1,.08-.3s.94,0,1.78-.14a15.84,15.84,0,0,0,2.54-.5H165a5.31,5.31,0,0,1,.32,2.24v5.26c0,.76.34,1.14,1.06,1.14a.59.59,0,0,1,.1.3A.74.74,0,0,1,166.35,24Z"/><path class="cls-1" d="M176.09,17.56l-.58,0a2.37,2.37,0,0,0-1.88-1,3.45,3.45,0,0,0-1.4.34v5.52a1.35,1.35,0,0,0,1.4,1.54.68.68,0,0,1,.08.3.67.67,0,0,1-.12.36,29.27,29.27,0,0,0-3.2-.18,29.9,29.9,0,0,0-3,.18.67.67,0,0,1-.12-.36.68.68,0,0,1,.08-.3c.84-.1,1.2-.56,1.2-1.54v-5a1.35,1.35,0,0,0-1.44-1.5,1,1,0,0,1-.1-.44.68.68,0,0,1,.08-.3,15.12,15.12,0,0,0,1.8-.12,9.05,9.05,0,0,0,2.52-.74h.34a5.39,5.39,0,0,1,.48,1.76l2.28-1.48a3.53,3.53,0,0,1,1-.16,2.56,2.56,0,0,1,1,.18,2.33,2.33,0,0,1,.22,1A3.15,3.15,0,0,1,176.09,17.56Z"/><path class="cls-1" d="M186.21,17.56l-.58,0a2.37,2.37,0,0,0-1.88-1,3.45,3.45,0,0,0-1.4.34v5.52a1.35,1.35,0,0,0,1.4,1.54.68.68,0,0,1,.08.3.67.67,0,0,1-.12.36,29.27,29.27,0,0,0-3.2-.18,29.9,29.9,0,0,0-3,.18.67.67,0,0,1-.12-.36.68.68,0,0,1,.08-.3c.84-.1,1.2-.56,1.2-1.54v-5a1.35,1.35,0,0,0-1.44-1.5,1,1,0,0,1-.1-.44.68.68,0,0,1,.08-.3,15.12,15.12,0,0,0,1.8-.12,9.05,9.05,0,0,0,2.52-.74h.34a5.39,5.39,0,0,1,.48,1.76l2.28-1.48a3.53,3.53,0,0,1,1-.16,2.56,2.56,0,0,1,1,.18,2.33,2.33,0,0,1,.22,1A3.15,3.15,0,0,1,186.21,17.56Z"/><path class="cls-1" d="M196.37,19.36h-5.68c.22,1.84,1,3.78,3.22,3.78a3.42,3.42,0,0,0,2.26-.92.61.61,0,0,1,.56.42A5.14,5.14,0,0,1,192.35,25c-3.44,0-5.2-2.24-5.2-5a5.2,5.2,0,0,1,3.26-5.06,6.2,6.2,0,0,1,2.24-.42c3.26,0,4.32,2,4.32,3.94A1.52,1.52,0,0,1,196.37,19.36Zm-4.18-3.84c-1.1,0-1.56,1.36-1.56,3l2.84-.2a3.68,3.68,0,0,0,.16-1C193.63,16.26,193.11,15.52,192.19,15.52Z"/><path class="cls-1" d="M210.74,24.64a19.46,19.46,0,0,0-2.37-.18,15.18,15.18,0,0,0-2.1.18s-.58-.38-.58-2.24V17.86a1.2,1.2,0,0,0-1.32-1.36,2.72,2.72,0,0,0-1.36.42v5.52c0,1,.36,1.44,1.2,1.54a.68.68,0,0,1,.08.3.67.67,0,0,1-.12.36,25.09,25.09,0,0,0-6,0,.67.67,0,0,1-.12-.36.68.68,0,0,1,.08-.3c.84-.1,1.2-.56,1.2-1.54v-5a1.35,1.35,0,0,0-1.44-1.5,1,1,0,0,1-.1-.44.68.68,0,0,1,.08-.3,15.12,15.12,0,0,0,1.8-.12,9.05,9.05,0,0,0,2.52-.74h.34a5.39,5.39,0,0,1,.48,1.76l2.28-1.48a3.53,3.53,0,0,1,1-.16c1.88,0,3.11,1.08,3.11,2.66v5c0,1.26.34,1.7,1.4,1.82a.68.68,0,0,1,.08.3A.67.67,0,0,1,210.74,24.64Z"/><path class="cls-1" d="M220.07,23.44l-3.2,1.48a2.63,2.63,0,0,1-.38,0c-2.6,0-3.9-1.24-3.9-4V16.22H211a1.28,1.28,0,0,1-.18-.68,1.34,1.34,0,0,1,.1-.5,5.6,5.6,0,0,0,4.44-2.74,1.11,1.11,0,0,1,.92.38V15a10.3,10.3,0,0,0,3.3-.32,1.36,1.36,0,0,1,.24.8,2.09,2.09,0,0,1-.14.7h-3.4v4.22c0,1.8.72,2.62,2.06,2.62a4.28,4.28,0,0,0,1.44-.4.56.56,0,0,1,.34.54A.71.71,0,0,1,220.07,23.44Z"/></g></g></svg>