<svg xmlns="http://www.w3.org/2000/svg" viewBox="0 0 321.37 75.26">
  <title>Asset 11</title>
  <g id="Layer_2" data-name="Layer 2">
    <g id="Layer_1-2" data-name="Layer 1">
      <g>
        <path d="M101.18,23c-1.06.11-2.29.87-3.16,2.91L91.55,41.27H88.16l-7-15.82A3.67,3.67,0,0,0,78.73,23a.92.92,0,0,1-.09-.39,1.19,1.19,0,0,1,.17-.62s2.49.25,5.24.25c2.21,0,4.73-.25,4.73-.25a1.19,1.19,0,0,1,.17.62.92.92,0,0,1-.09.39c-.92.06-1.54.59-1.54,1.34a4.57,4.57,0,0,0,.39,1.24L92,35.81l3.84-9.41a5.5,5.5,0,0,0,.42-1.74c0-.78-.73-1.4-2.08-1.62a1,1,0,0,1-.08-.39,1.19,1.19,0,0,1,.17-.62,36,36,0,0,0,4,.25A23,23,0,0,0,101.1,22a1.19,1.19,0,0,1,.17.62A.92.92,0,0,1,101.18,23Z" style="fill: #20c7e2"/>
        <path d="M109.5,41.27a37.67,37.67,0,0,0-4.4-.25,43.4,43.4,0,0,0-4.48.25,1,1,0,0,1-.17-.51.93.93,0,0,1,.12-.42,1.94,1.94,0,0,0,2-2.15V31.24a1.9,1.9,0,0,0-2-2.1,1.36,1.36,0,0,1-.14-.61.93.93,0,0,1,.11-.42s2-.06,3.36-.25a15.48,15.48,0,0,0,3.33-1,1.41,1.41,0,0,1,.73.65,22.85,22.85,0,0,0-.22,3.19v7.45a1.88,1.88,0,0,0,1.87,2.15.93.93,0,0,1,.12.42A1,1,0,0,1,109.5,41.27Zm-4.68-15.54a2.38,2.38,0,0,1-2.57-2.41,2.44,2.44,0,0,1,2.57-2.41,2.36,2.36,0,0,1,2.55,2.41A2.43,2.43,0,0,1,104.82,25.73Z" style="fill: #20c7e2"/>
        <path d="M123.27,31.36l-.81,0A3.29,3.29,0,0,0,119.83,30a4.77,4.77,0,0,0-2,.48v7.73a1.89,1.89,0,0,0,2,2.15,1,1,0,0,1,.11.42,1,1,0,0,1-.17.51,41.21,41.21,0,0,0-4.48-.25c-2,0-4.2.25-4.2.25a.88.88,0,0,1,0-.93c1.17-.14,1.68-.78,1.68-2.15V31.24a1.9,1.9,0,0,0-2-2.1,1.36,1.36,0,0,1-.14-.61.93.93,0,0,1,.11-.42,20.87,20.87,0,0,0,2.52-.17,12.45,12.45,0,0,0,3.53-1h.48a7.62,7.62,0,0,1,.67,2.47l3.19-2.07a4.81,4.81,0,0,1,1.37-.23,3.62,3.62,0,0,1,1.35.25,3.25,3.25,0,0,1,.31,1.46A4.4,4.4,0,0,1,123.27,31.36Z" style="fill: #20c7e2"/>
        <path d="M138.37,29.26h-2a4.7,4.7,0,0,1,.73,2.66c0,3.83-2.55,6-6.61,6-1.6,0-2.58.56-2.58,1.23,0,.45.56.73,2.61.81l3,.14c3.44.17,4.76,1.32,4.76,2.86,0,3.38-3.78,5.23-8,5.23-3.81,0-5.6-1.31-5.94-3.11a.53.53,0,0,1,.06-.22,8.62,8.62,0,0,0,1.68-1.48,3.28,3.28,0,0,1-1.23-2.78,2.5,2.5,0,0,1,.25-1.12,6.87,6.87,0,0,0,2.38-1.9A5,5,0,0,1,124.67,33c0-3.5,2.55-5.94,6.5-5.94a6.87,6.87,0,0,1,4.2,1.12,11,11,0,0,0,2.74-.73,1.6,1.6,0,0,1,.42,1A2,2,0,0,1,138.37,29.26Zm-5.88,15.06-2.94-.2A8.12,8.12,0,0,1,127,43.7a4.32,4.32,0,0,0-.08.62c0,1.48,1.56,2.6,3.92,2.6,2.52,0,3.75-.75,3.75-1.56C134.56,44.8,134,44.43,132.49,44.32ZM130.25,28.5c-.79,0-1.35.95-1.35,2.58,0,2.91,1.26,5.34,2.72,5.34.78,0,1.34-1,1.34-2.57C133,30.94,131.7,28.5,130.25,28.5Z" style="fill: #20c7e2"/>
        <path d="M148.17,41.27a37.67,37.67,0,0,0-4.4-.25,43.4,43.4,0,0,0-4.48.25,1,1,0,0,1-.17-.51,1,1,0,0,1,.11-.42,1.93,1.93,0,0,0,2-2.15V31.24a1.89,1.89,0,0,0-2-2.1,1.36,1.36,0,0,1-.14-.61.93.93,0,0,1,.11-.42s2-.06,3.36-.25a15.48,15.48,0,0,0,3.33-1,1.41,1.41,0,0,1,.73.65,22.85,22.85,0,0,0-.22,3.19v7.45a1.88,1.88,0,0,0,1.87,2.15.88.88,0,0,1-.05.93Zm-4.68-15.54a2.39,2.39,0,0,1-2.58-2.41,2.45,2.45,0,0,1,2.58-2.41A2.36,2.36,0,0,1,146,23.32,2.43,2.43,0,0,1,143.49,25.73Z" style="fill: #20c7e2"/>
        <path d="M167.35,41.27A27.2,27.2,0,0,0,164,41a21.42,21.42,0,0,0-2.94.25s-.81-.53-.81-3.14V31.78a1.69,1.69,0,0,0-1.85-1.91,3.8,3.8,0,0,0-1.9.59v7.73c0,1.37.5,2,1.68,2.15a1,1,0,0,1,.11.42,1,1,0,0,1-.17.51A42,42,0,0,0,154,41c-2,0-4.2.25-4.2.25a1,1,0,0,1-.17-.51.93.93,0,0,1,.12-.42c1.17-.14,1.68-.78,1.68-2.15V31.24a1.9,1.9,0,0,0-2-2.1,1.36,1.36,0,0,1-.14-.61.93.93,0,0,1,.11-.42,20.87,20.87,0,0,0,2.52-.17,12.58,12.58,0,0,0,3.53-1h.48a7.62,7.62,0,0,1,.67,2.47l3.19-2.07a4.81,4.81,0,0,1,1.37-.23c2.63,0,4.34,1.51,4.34,3.73v7c0,1.76.48,2.38,2,2.54a.88.88,0,0,1-.05.93Z" style="fill: #20c7e2"/>
        <path d="M177.2,41.27a37.38,37.38,0,0,0-4.39-.25,43.15,43.15,0,0,0-4.48.25,1,1,0,0,1-.17-.51,1,1,0,0,1,.11-.42,1.93,1.93,0,0,0,2-2.15V31.24a1.9,1.9,0,0,0-2-2.1,1.36,1.36,0,0,1-.14-.61.88.88,0,0,1,.12-.42s2-.06,3.36-.25a15.7,15.7,0,0,0,3.33-1,1.45,1.45,0,0,1,.73.65,21.88,21.88,0,0,0-.23,3.19v7.45a1.88,1.88,0,0,0,1.88,2.15,1,1,0,0,1,.11.42A1,1,0,0,1,177.2,41.27Zm-4.67-15.54A2.39,2.39,0,0,1,170,23.32a2.45,2.45,0,0,1,2.58-2.41,2.36,2.36,0,0,1,2.54,2.41A2.42,2.42,0,0,1,172.53,25.73Z" style="fill: #20c7e2"/>
        <path d="M192.77,40.37a17.17,17.17,0,0,0-2.27.31,14.88,14.88,0,0,0-2.77,1h-.31a3.33,3.33,0,0,1-1.2-2.3l-3.14,2a3.37,3.37,0,0,1-1.18.26,3.5,3.5,0,0,1-3.3-3.56,3.55,3.55,0,0,1,3-3.86c1.34-.31,3.22-.7,4.47-.93V31.78c0-1.26-.61-1.91-2.29-1.91a10.84,10.84,0,0,0-4,.81,1,1,0,0,1-.37-1l4.09-2.26a6.86,6.86,0,0,1,2.27-.37c3.61,0,5.46,1.93,5.46,4.82v6c0,1.06.47,1.6,1.48,1.6a.79.79,0,0,1,.14.42A1,1,0,0,1,192.77,40.37Zm-6.67-6c-2.4.53-3.24,1-3.24,2.46a1.84,1.84,0,0,0,2.07,1.91,2,2,0,0,0,1.17-.37Z" style="fill: #20c7e2"/>
        <path d="M223.12,39.7a12.41,12.41,0,0,0-6.24,2,20.78,20.78,0,0,1-4.06-2.78,8.92,8.92,0,0,1-6.11,2.78c-3.81,0-6.38-2.3-6.38-5.24s1.85-5.07,5-6.19a7.54,7.54,0,0,1-1-3.39c0-3,2.88-5.32,7.3-5.32,2.61,0,4.23,1.8,4.23,3.39a3,3,0,0,1-1.26,2.66,23.9,23.9,0,0,1-3.67,2,27.77,27.77,0,0,0,4.29,4.73,2.66,2.66,0,0,0,.5-1.4,1.49,1.49,0,0,0-1.12-1.51,1.18,1.18,0,0,1-.11-.47,1.29,1.29,0,0,1,.17-.59,24.57,24.57,0,0,0,3,.22,19.06,19.06,0,0,0,3.45-.33,1.08,1.08,0,0,1,.11,1,7.3,7.3,0,0,0-4.23,2.86c-.39.48-.78,1.06-.78,1.06,3,2.5,5.23,3.53,6.6,3.53h.28a1.11,1.11,0,0,1,.12.42A1,1,0,0,1,223.12,39.7Zm-17-8.15a3.33,3.33,0,0,0-1,2.52c0,2.63,1.77,4.85,4.23,4.85a3.51,3.51,0,0,0,2.41-.84A31.42,31.42,0,0,1,206.12,31.55Zm4.12-8.31a1.41,1.41,0,0,0-1.34,1.54,7.23,7.23,0,0,0,1.34,3.66,3.26,3.26,0,0,0,1.88-2.85A2.16,2.16,0,0,0,210.24,23.24Z" style="fill: #20c7e2"/>
        <path d="M252.72,41.27s-2.66-.25-4.85-.25-4.84.25-4.84.25a1.19,1.19,0,0,1-.17-.62,1,1,0,0,1,.08-.39c1.49-.17,2.16-.84,2.16-2.55V32.28a33.77,33.77,0,0,0-7.34,0v5.43c0,1.71.67,2.38,2.16,2.55a1,1,0,0,1,.08.39,1.24,1.24,0,0,1-.16.62S237.18,41,235,41s-4.84.25-4.84.25a1.19,1.19,0,0,1-.17-.62,1,1,0,0,1,.08-.39c1.49-.17,2.16-.84,2.16-2.55V25.59c0-1.71-.67-2.38-2.16-2.55a1,1,0,0,1-.08-.39,1.19,1.19,0,0,1,.17-.62s2.66.25,4.84.25,4.85-.25,4.85-.25a1.24,1.24,0,0,1,.16.62,1,1,0,0,1-.08.39c-1.49.17-2.16.84-2.16,2.55v4.79s1.71.19,3.67.19,3.67-.19,3.67-.19V25.59c0-1.71-.67-2.38-2.16-2.55a1,1,0,0,1-.08-.39A1.19,1.19,0,0,1,243,22s2.66.25,4.84.25,4.85-.25,4.85-.25a1.24,1.24,0,0,1,.16.62,1,1,0,0,1-.08.39c-1.49.17-2.16.84-2.16,2.55V37.71c0,1.71.67,2.38,2.16,2.55a1,1,0,0,1,.08.39A1.24,1.24,0,0,1,252.72,41.27Z" style="fill: #20c7e2"/>
        <path d="M268.56,40.37a16.9,16.9,0,0,0-2.26.31,15.13,15.13,0,0,0-2.78,1h-.3a3.31,3.31,0,0,1-1.21-2.3l-3.13,2a3.37,3.37,0,0,1-1.18.26,3.51,3.51,0,0,1-3.31-3.56,3.55,3.55,0,0,1,3-3.86c1.34-.31,3.22-.7,4.48-.93V31.78c0-1.26-.62-1.91-2.3-1.91a10.84,10.84,0,0,0-4,.81,1,1,0,0,1-.37-1l4.09-2.26a6.86,6.86,0,0,1,2.27-.37c3.61,0,5.46,1.93,5.46,4.82v6c0,1.06.48,1.6,1.48,1.6a.76.76,0,0,1,.15.42A1,1,0,0,1,268.56,40.37Zm-6.66-6c-2.41.53-3.25,1-3.25,2.46a1.85,1.85,0,0,0,2.07,1.91,2.09,2.09,0,0,0,1.18-.37Z" style="fill: #20c7e2"/>
        <path d="M287.52,41.27a27.2,27.2,0,0,0-3.31-.25,21.42,21.42,0,0,0-2.94.25s-.81-.53-.81-3.14V31.78a1.69,1.69,0,0,0-1.85-1.91,3.8,3.8,0,0,0-1.9.59v7.73c0,1.37.51,2,1.68,2.15a1,1,0,0,1,.11.42,1,1,0,0,1-.17.51,42,42,0,0,0-4.19-.25c-2.05,0-4.21.25-4.21.25a.88.88,0,0,1-.05-.93c1.18-.14,1.68-.78,1.68-2.15V31.24a1.9,1.9,0,0,0-2-2.1,1.36,1.36,0,0,1-.14-.61.88.88,0,0,1,.12-.42,20.76,20.76,0,0,0,2.51-.17,12.45,12.45,0,0,0,3.53-1H276a7.62,7.62,0,0,1,.67,2.47l3.19-2.07a4.81,4.81,0,0,1,1.37-.23c2.64,0,4.34,1.51,4.34,3.73v7c0,1.76.48,2.38,2,2.54a.93.93,0,0,1,.12.42A1,1,0,0,1,287.52,41.27Z" style="fill: #20c7e2"/>
        <path d="M306.19,41.27a26.94,26.94,0,0,0-3.3-.25,21.42,21.42,0,0,0-2.94.25s-.81-.53-.81-3.14V31.78a1.69,1.69,0,0,0-1.85-1.91,3.75,3.75,0,0,0-1.9.59v7.73c0,1.37.5,2,1.68,2.15a1,1,0,0,1,.11.42,1,1,0,0,1-.17.51s-2.16-.25-4.2-.25-4.2.25-4.2.25a1,1,0,0,1-.17-.51,1,1,0,0,1,.11-.42c1.18-.14,1.68-.78,1.68-2.15V31.24a1.89,1.89,0,0,0-2-2.1,1.36,1.36,0,0,1-.14-.61.93.93,0,0,1,.11-.42,20.87,20.87,0,0,0,2.52-.17,12.58,12.58,0,0,0,3.53-1h.47a7.47,7.47,0,0,1,.68,2.47l3.19-2.07a4.81,4.81,0,0,1,1.37-.23c2.63,0,4.34,1.51,4.34,3.73v7c0,1.76.48,2.38,2,2.54a1,1,0,0,1,.11.42A1,1,0,0,1,306.19,41.27Z" style="fill: #20c7e2"/>
        <path d="M321.26,40.37a17,17,0,0,0-2.27.31,14.88,14.88,0,0,0-2.77,1h-.31a3.33,3.33,0,0,1-1.2-2.3l-3.14,2a3.37,3.37,0,0,1-1.18.26,3.5,3.5,0,0,1-3.3-3.56,3.55,3.55,0,0,1,3-3.86c1.35-.31,3.22-.7,4.48-.93V31.78c0-1.26-.61-1.91-2.29-1.91a10.94,10.94,0,0,0-4,.81,1,1,0,0,1-.36-1L312,27.44a6.86,6.86,0,0,1,2.27-.37c3.61,0,5.46,1.93,5.46,4.82v6c0,1.06.47,1.6,1.48,1.6a.79.79,0,0,1,.14.42A1,1,0,0,1,321.26,40.37Zm-6.67-6c-2.4.53-3.24,1-3.24,2.46a1.84,1.84,0,0,0,2.07,1.91,2,2,0,0,0,1.17-.37Z" style="fill: #20c7e2"/>
        <path d="M90.9,54.12v.17L82.38,69.82H79.91l7.56-13.71h-7.3v-2Z" style="fill: #20c7e2"/>
        <path d="M98.34,60.41H95.92v9.41H93.83V60.41h-2v-1.8h2V54.36h2.09v4.25h2.42Z" style="fill: #20c7e2"/>
        <path d="M111,63.34v6.48H108.9V63.46a2.73,2.73,0,0,0-2.71-3,3.2,3.2,0,0,0-3.43,3.31v6.08h-2.09V52.49h2.09v7.82a4.26,4.26,0,0,1,3.72-1.94C109.26,58.37,111,60.19,111,63.34Z" style="fill: #20c7e2"/>
        <path d="M119.94,65.09h2.16a3.42,3.42,0,0,0,3.67,3c2.16,0,3.34-1.34,3.34-2.81s-1.46-2.33-2.86-2.69L124.12,62c-3.51-.83-4.06-2.9-4.06-4.24,0-2.86,2.57-4.68,5.45-4.68s5.23,1.84,5.23,4.8h-2.16a2.88,2.88,0,0,0-3.14-2.79c-1.66,0-3.19,1-3.19,2.64,0,.58.19,1.78,2.4,2.31l2.16.52c2.8.7,4.48,2.24,4.48,4.59,0,2.57-2.08,4.9-5.52,4.9S120,67.66,119.94,65.09Z" style="fill: #20c7e2"/>
        <path d="M144.73,65.11h-9.12a3.41,3.41,0,0,0,3.68,3,3.61,3.61,0,0,0,3.26-1.71l1.82.72a5.84,5.84,0,1,1-5.16-8.73c3.2,0,5.57,2.25,5.57,5.81C144.78,64.49,144.76,64.8,144.73,65.11Zm-2-1.8a3.27,3.27,0,0,0-3.48-3,3.31,3.31,0,0,0-3.57,3Z" style="fill: #20c7e2"/>
        <path d="M159.3,64.22a5.53,5.53,0,0,1-5.59,5.84,4.48,4.48,0,0,1-4-2v7.2h-2.09V58.61h2.09v1.77a4.59,4.59,0,0,1,4-2A5.58,5.58,0,0,1,159.3,64.22Zm-2.11,0a3.75,3.75,0,1,0-7.49,0,3.79,3.79,0,0,0,3.79,3.84A3.68,3.68,0,0,0,157.19,64.25Z" style="fill: #20c7e2"/>
        <path d="M167.36,60.41h-2.42v9.41h-2.09V60.41h-2v-1.8h2V54.36h2.09v4.25h2.42Z" style="fill: #20c7e2"/>
        <path d="M168.61,68.62a1.49,1.49,0,0,1,1.52-1.49,1.51,1.51,0,0,1,1.56,1.49,1.49,1.49,0,0,1-1.56,1.44A1.47,1.47,0,0,1,168.61,68.62Z" style="fill: #20c7e2"/>
        <path d="M190.24,67.8v2h-9.87v-.94l5.91-7.13a6.52,6.52,0,0,0,1.65-3.19,2.58,2.58,0,0,0-2.83-2.64,2.72,2.72,0,0,0-3,2.37l-1.87-.4a4.55,4.55,0,0,1,4.87-4c3,0,4.92,1.84,4.92,4.63a7.14,7.14,0,0,1-1.82,4l-4.32,5.19Z" style="fill: #20c7e2"/>
        <path d="M193,62c0-4.46,1.17-8.08,5.69-8.08s5.69,3.62,5.69,8.08-1.18,8.05-5.69,8.05S193,66.43,193,62Zm9.29,0c0-3.31-.72-6.09-3.6-6.09s-3.58,2.78-3.58,6.09.7,6.08,3.58,6.08S202.24,65.28,202.24,62Z" style="fill: #20c7e2"/>
        <path d="M211.84,53.93V69.82h-2.09V57l-3.34,1.37v-2l5.36-2.4Z" style="fill: #20c7e2"/>
        <path d="M226.86,61.51c0,3.7-1.46,8.55-6.43,8.55a4.84,4.84,0,0,1-4.83-3.17l1.9-.77a3.12,3.12,0,0,0,3,2c2.4,0,4.22-2.67,4.1-5.71a4.42,4.42,0,0,1-3.74,1.92A5.19,5.19,0,1,1,221,53.93C224.87,53.93,226.86,57.12,226.86,61.51Zm-2.33-2.23a3.35,3.35,0,0,0-3.41-3.34,3.27,3.27,0,0,0-3.5,3.19,3.19,3.19,0,0,0,3.26,3.17A3.39,3.39,0,0,0,224.53,59.28Z" style="fill: #20c7e2"/>
      </g>
      <g>
        <line x1="26.35" y1="49.32" x2="26.35" y2="71.41" style="fill: none;stroke: #43dcff;stroke-miterlimit: 10;stroke-width: 2px"/>
        <line x1="16.44" y1="60.44" x2="35.9" y2="60.44" style="fill: none;stroke: #43dcff;stroke-miterlimit: 10;stroke-width: 2px"/>
        <path d="M34,15.24A17.72,17.72,0,1,1,22.06,20,13.44,13.44,0,0,1,25,21.24a14.87,14.87,0,1,0,19.58,1.08,14.93,14.93,0,0,0-14.23-3.76,18.94,18.94,0,0,0-2.9-2A17.55,17.55,0,0,1,34,15.24Z" style="fill: #606aea;stroke: #fff;stroke-miterlimit: 10"/>
        <path d="M18,15.4A17.7,17.7,0,0,1,35.9,32.92,17.78,17.78,0,0,1,30.29,46a13.85,13.85,0,0,1-2.92-1.24,14.78,14.78,0,0,0,1.24-22.32,14.87,14.87,0,1,0-6.58,25,19.48,19.48,0,0,0,2.91,2A17.7,17.7,0,1,1,18,15.4Z" style="fill: #50ad75;stroke: #fff;stroke-miterlimit: 10"/>
        <path d="M24.86.75a.61.61,0,0,0-.56.66l.28,3.73a.59.59,0,0,0,.21.42.65.65,0,0,0,.45.15.62.62,0,0,0,.57-.66l-.29-3.73A.62.62,0,0,0,24.86.75Z" style="fill: #f9f8ef;stroke: #fff515;stroke-miterlimit: 10;stroke-width: 1.5px"/>
        <path d="M30.34,3.37,27.68,5.89a.62.62,0,0,0,0,.87l0,0a.61.61,0,0,0,.83,0l2.66-2.52a.62.62,0,1,0-.85-.89Z" style="fill: #f9f8ef;stroke: #fff515;stroke-miterlimit: 10;stroke-width: 1.5px"/>
        <path d="M19.1,5.13l0,0,3,2.09a.61.61,0,1,0,.7-1l-3-2.1a.62.62,0,0,0-.86.16A.61.61,0,0,0,19.1,5.13Z" style="fill: #f9f8ef;stroke: #fff515;stroke-miterlimit: 10;stroke-width: 1.5px"/>
      </g>
    </g>
  </g>
</svg>
